<?xml version="1.0" encoding="utf-8"?>
<!-- Generator: Adobe Illustrator 16.0.0, SVG Export Plug-In . SVG Version: 6.00 Build 0)  -->
<!DOCTYPE svg PUBLIC "-//W3C//DTD SVG 1.1//EN" "http://www.w3.org/Graphics/SVG/1.1/DTD/svg11.dtd">
<svg version="1.1" id="Layer_1" xmlns="http://www.w3.org/2000/svg" xmlns:xlink="http://www.w3.org/1999/xlink" x="0px" y="0px"
	 width="500px" height="500px" viewBox="0 0 500 500" enable-background="new 0 0 500 500" xml:space="preserve">
<g id="Page-1">
	<g id="Artboard-Copy" transform="translate(-36.000000, -644.000000)">
		<g id="Group-2" transform="translate(36.000000, 645.000000)">
			<g id="Oval-5">
				<g>
					<circle fill="#0B1A41" cx="266.957" cy="251.996" r="217.266"/>
				</g>
				<g>
					<path fill="#5EBBE6" d="M265.707,471.26c-2.017-0.013-4.053-0.05-6.054-0.115l0.133-3.998c1.965,0.064,3.964,0.104,5.94,0.113
						L265.707,471.26z M271.76,471.213l-0.088-3.998c1.979-0.044,3.979-0.114,5.941-0.21l0.193,3.996
						C275.81,471.096,273.774,471.169,271.76,471.213z M253.609,470.862c-1.998-0.119-4.026-0.27-6.036-0.443l0.35-3.984
						c1.973,0.172,3.967,0.319,5.929,0.438L253.609,470.862z M283.853,470.62l-0.305-3.986c1.96-0.149,3.951-0.329,5.919-0.533
						l0.414,3.979C287.877,470.285,285.849,470.469,283.853,470.62z M241.551,469.806c-2.003-0.231-4.023-0.493-6.006-0.778
						l0.568-3.959c1.945,0.28,3.93,0.537,5.895,0.763L241.551,469.806z M295.893,469.369l-0.521-3.965
						c1.96-0.26,3.938-0.549,5.881-0.857l0.633,3.947C299.904,468.812,297.889,469.105,295.893,469.369z M229.566,468.088
						c-1.973-0.34-3.976-0.713-5.953-1.107l0.787-3.922c1.94,0.39,3.906,0.755,5.844,1.087L229.566,468.088z M307.845,467.456
						l-0.742-3.93c1.935-0.365,3.895-0.764,5.825-1.184l0.85,3.907C311.81,466.679,309.813,467.086,307.845,467.456z
						 M217.695,465.706c-1.961-0.448-3.938-0.934-5.882-1.438l1.004-3.871c1.905,0.493,3.85,0.968,5.772,1.41L217.695,465.706z
						 M319.676,464.884l-0.959-3.885c1.93-0.477,3.863-0.981,5.75-1.505l1.066,3.855
						C323.611,463.883,321.641,464.396,319.676,464.884z M205.976,462.672c-1.934-0.561-3.883-1.151-5.794-1.765l1.219-3.811
						c1.875,0.601,3.788,1.182,5.687,1.729L205.976,462.672z M331.344,461.655l-1.172-3.824c1.878-0.573,3.78-1.188,5.656-1.819
						l1.277,3.789C335.196,460.444,333.258,461.069,331.344,461.655z M194.423,458.979c-1.919-0.672-3.838-1.375-5.704-2.089
						l1.43-3.736c1.831,0.701,3.714,1.393,5.599,2.05L194.423,458.979z M342.816,457.784l-1.385-3.752
						c1.86-0.687,3.729-1.402,5.548-2.135l1.488,3.713C346.612,456.354,344.711,457.088,342.816,457.784z M183.078,454.646
						c-1.868-0.774-3.744-1.583-5.575-2.402l1.635-3.648c1.797,0.804,3.638,1.598,5.472,2.355L183.078,454.646z M354.037,453.289
						l-1.594-3.67c1.82-0.789,3.641-1.605,5.404-2.431l1.691,3.625C357.742,451.652,355.891,452.485,354.037,453.289z M172,449.688
						c-1.846-0.888-3.671-1.798-5.433-2.708l1.836-3.553c1.729,0.892,3.521,1.785,5.329,2.655L172,449.688z M364.977,448.187
						l-1.791-3.576c1.756-0.879,3.527-1.797,5.267-2.728l1.889,3.523C368.569,446.356,366.766,447.291,364.977,448.187z
						 M161.219,444.129c-1.771-0.979-3.545-1.986-5.27-3.004l2.027-3.445c1.692,0.996,3.435,1.986,5.172,2.945L161.219,444.129z
						 M375.623,442.482l-1.984-3.473c1.701-0.975,3.42-1.987,5.108-3.017l2.08,3.416
						C379.107,440.46,377.356,441.492,375.623,442.482z M150.766,437.98c-1.711-1.072-3.425-2.178-5.093-3.288l2.215-3.33
						c1.639,1.09,3.32,2.176,5.001,3.229L150.766,437.98z M385.944,436.198l-2.172-3.357c1.64-1.062,3.299-2.167,4.938-3.292
						l2.266,3.297C389.307,433.99,387.614,435.118,385.944,436.198z M140.675,431.268c-1.629-1.149-3.278-2.348-4.902-3.562
						l2.396-3.203c1.595,1.19,3.215,2.367,4.812,3.496L140.675,431.268z M395.908,429.353l-2.354-3.232
						c1.599-1.165,3.196-2.361,4.751-3.562l2.441,3.168C399.163,426.946,397.535,428.169,395.908,429.353z M130.973,424.012
						c-1.575-1.247-3.155-2.534-4.697-3.825l2.568-3.066c1.514,1.27,3.064,2.531,4.611,3.757L130.973,424.012z M405.485,421.969
						l-2.529-3.1c1.541-1.259,3.072-2.543,4.553-3.817l2.611,3.027C408.613,419.38,407.055,420.687,405.485,421.969z
						 M121.685,416.236c-1.521-1.349-3.03-2.72-4.479-4.076l2.732-2.92c1.421,1.331,2.9,2.68,4.396,4.002L121.685,416.236z
						 M414.646,414.063l-2.695-2.955c1.463-1.335,2.922-2.702,4.336-4.062l2.775,2.881
						C417.62,411.312,416.137,412.704,414.646,414.063z M112.843,407.968c-1.415-1.399-2.844-2.853-4.246-4.313l2.887-2.768
						c1.378,1.437,2.781,2.859,4.172,4.233L112.843,407.968z M423.363,405.666l-2.854-2.803c1.382-1.407,2.765-2.854,4.106-4.297
						l2.93,2.725C426.178,402.762,424.771,404.233,423.363,405.666z M104.472,399.226c-1.354-1.493-2.7-3.021-4.002-4.538
						l3.035-2.604c1.278,1.487,2.601,2.987,3.93,4.454L104.472,399.226z M431.607,396.802l-3.002-2.645
						c1.303-1.479,2.604-3,3.867-4.518l3.074,2.559C434.26,393.746,432.935,395.296,431.607,396.802z M96.595,390.047
						c-1.272-1.567-2.533-3.166-3.747-4.751l3.175-2.434c1.191,1.556,2.431,3.123,3.679,4.661L96.595,390.047z M439.356,387.493
						l-3.143-2.475c1.211-1.538,2.427-3.127,3.612-4.725l3.211,2.387C441.827,384.308,440.59,385.927,439.356,387.493z
						 M89.235,380.447c-1.174-1.623-2.344-3.287-3.478-4.943l3.303-2.258c1.113,1.628,2.262,3.264,3.415,4.855L89.235,380.447z
						 M446.587,377.77l-3.275-2.297c1.138-1.621,2.265-3.276,3.351-4.918l3.336,2.205
						C448.893,374.433,447.743,376.118,446.587,377.77z M82.417,370.465c-1.087-1.69-2.164-3.416-3.199-5.128l3.423-2.07
						c1.019,1.681,2.073,3.375,3.143,5.034L82.417,370.465z M453.271,367.659l-3.396-2.111c1.043-1.678,2.075-3.393,3.072-5.099
						l3.453,2.02C455.387,364.205,454.331,365.952,453.271,367.659z M76.162,360.124c-0.994-1.75-1.975-3.529-2.91-5.293
						l3.531-1.879c0.92,1.729,1.881,3.479,2.855,5.197L76.162,360.124z M459.388,357.188l-3.508-1.922
						c0.949-1.736,1.889-3.506,2.788-5.262l3.561,1.822C461.312,353.617,460.356,355.422,459.388,357.188z M70.49,349.463
						c-0.893-1.792-1.771-3.623-2.612-5.442l3.63-1.682c0.827,1.786,1.688,3.585,2.562,5.345L70.49,349.463z M464.919,346.392
						l-3.609-1.725c0.854-1.786,1.692-3.607,2.493-5.411l3.656,1.623C466.643,342.719,465.786,344.571,464.919,346.392z
						 M65.418,338.51c-0.794-1.85-1.57-3.727-2.308-5.577l3.72-1.479c0.722,1.819,1.481,3.66,2.263,5.476L65.418,338.51z
						 M469.844,335.302l-3.699-1.521c0.75-1.821,1.486-3.687,2.189-5.544l3.738,1.416
						C471.358,331.545,470.607,333.444,469.844,335.302z M60.955,327.274c-0.691-1.891-1.364-3.812-2-5.715l3.794-1.27
						c0.624,1.866,1.284,3.756,1.962,5.609L60.955,327.274z M474.146,323.941l-3.779-1.312c0.653-1.883,1.284-3.785,1.877-5.66
						l3.814,1.205C475.453,320.087,474.812,322.025,474.146,323.941z M57.116,315.794c-0.584-1.924-1.148-3.881-1.68-5.817
						l3.858-1.055c0.52,1.9,1.074,3.821,1.646,5.71L57.116,315.794z M477.803,312.38l-3.848-1.102
						c0.539-1.885,1.062-3.813,1.556-5.736l3.875,0.992C478.885,308.491,478.352,310.457,477.803,312.38z M53.923,304.113
						c-0.479-1.956-0.932-3.941-1.354-5.901l3.911-0.838c0.412,1.923,0.859,3.872,1.327,5.792L53.923,304.113z M480.806,300.649
						l-3.902-0.883c0.438-1.936,0.854-3.893,1.233-5.815l3.924,0.775C481.673,296.688,481.251,298.68,480.806,300.649z
						 M51.383,292.276c-0.367-1.979-0.711-3.984-1.022-5.967l3.951-0.621c0.308,1.944,0.646,3.917,1.004,5.855L51.383,292.276z
						 M483.151,288.772l-3.943-0.666c0.327-1.938,0.635-3.915,0.908-5.874l3.961,0.557
						C483.797,284.784,483.485,286.797,483.151,288.772z M49.503,280.316c-0.257-1.995-0.49-4.021-0.691-6.017l3.979-0.4
						c0.196,1.96,0.427,3.947,0.679,5.905L49.503,280.316z M484.837,276.785l-3.977-0.449c0.221-1.952,0.417-3.94,0.583-5.914
						l3.986,0.34C485.262,272.768,485.062,274.795,484.837,276.785z M48.286,268.273c-0.146-1.997-0.27-4.03-0.361-6.043
						l3.996-0.186c0.091,1.979,0.21,3.975,0.354,5.936L48.286,268.273z M485.859,264.723l-3.994-0.229
						c0.113-1.963,0.2-3.96,0.259-5.938l3.998,0.117C486.062,260.689,485.974,262.725,485.859,264.723z M47.729,256.18
						c-0.024-1.394-0.04-2.786-0.039-4.187c0-0.623,0.002-1.246,0.008-1.869l4,0.035c-0.005,0.611-0.008,1.223-0.008,1.835
						c0,1.374,0.015,2.743,0.038,4.109L47.729,256.18z M486.222,252.628l-4-0.02l0.001-0.612c-0.001-1.781-0.022-3.559-0.064-5.33
						l3.998-0.096c0.044,1.803,0.065,3.611,0.066,5.425L486.222,252.628z M51.828,244.219l-3.997-0.145
						c0.069-2.013,0.171-4.047,0.297-6.045l3.992,0.25C51.997,240.243,51.898,242.241,51.828,244.219z M481.934,240.728
						c-0.104-1.963-0.232-3.959-0.389-5.935l3.986-0.312c0.158,2.009,0.291,4.041,0.396,6.04L481.934,240.728z M52.574,232.355
						l-3.983-0.361c0.181-1.997,0.392-4.021,0.627-6.02l3.973,0.469C52.959,228.404,52.752,230.394,52.574,232.355z
						 M480.994,228.879c-0.212-1.979-0.449-3.964-0.713-5.898l3.965-0.535c0.268,1.973,0.512,3.995,0.727,6.01L480.994,228.879z
						 M53.97,220.551l-3.958-0.576c0.292-1.995,0.615-4.008,0.959-5.979l3.94,0.689C54.573,216.619,54.256,218.594,53.97,220.551z
						 M479.407,217.101c-0.318-1.961-0.67-3.933-1.038-5.854l3.932-0.752c0.374,1.959,0.729,3.965,1.056,5.961L479.407,217.101z
						 M56.016,208.845l-3.92-0.799c0.402-1.976,0.835-3.966,1.29-5.916l3.896,0.906C56.836,204.952,56.41,206.906,56.016,208.845z
						 M477.173,205.428c-0.423-1.916-0.88-3.862-1.36-5.786l3.881-0.971c0.489,1.959,0.955,3.941,1.386,5.896L477.173,205.428z
						 M58.708,197.269l-3.869-1.016c0.508-1.938,1.052-3.901,1.616-5.836l3.84,1.121C59.741,193.437,59.208,195.364,58.708,197.269z
						 M474.29,193.898c-0.53-1.899-1.098-3.818-1.681-5.702l3.82-1.184c0.595,1.919,1.171,3.873,1.712,5.808L474.29,193.898z
						 M62.04,185.861l-3.809-1.229c0.615-1.904,1.271-3.842,1.944-5.754l3.771,1.332C63.286,182.089,62.644,183.989,62.04,185.861z
						 M470.775,182.545c-0.643-1.884-1.312-3.768-1.995-5.599l3.748-1.396c0.694,1.865,1.378,3.784,2.032,5.702L470.775,182.545z
						 M66.015,174.619l-3.73-1.438c0.723-1.878,1.482-3.773,2.261-5.638l3.689,1.541C67.472,170.915,66.725,172.776,66.015,174.619z
						 M466.63,171.406c-0.731-1.811-1.503-3.647-2.295-5.46l3.665-1.602c0.808,1.847,1.594,3.719,2.339,5.562L466.63,171.406z
						 M70.608,163.622l-3.646-1.645c0.824-1.827,1.688-3.679,2.57-5.497l3.6,1.744C72.266,160.012,71.417,161.827,70.608,163.622z
						 M461.891,160.55c-0.838-1.78-1.712-3.573-2.596-5.328l3.57-1.803c0.9,1.787,1.79,3.613,2.645,5.43L461.891,160.55z
						 M75.803,152.904l-3.55-1.844c0.923-1.777,1.889-3.575,2.87-5.346l3.498,1.941C77.658,149.395,76.71,151.159,75.803,152.904z
						 M456.555,149.963c-0.936-1.729-1.905-3.473-2.89-5.181l3.469-1.995c1.001,1.74,1.988,3.518,2.938,5.277L456.555,149.963z
						 M81.583,142.494l-3.442-2.037c1.023-1.729,2.086-3.469,3.16-5.174l3.385,2.131C83.63,139.089,82.587,140.798,81.583,142.494z
						 M450.639,139.683c-1.029-1.682-2.096-3.367-3.17-5.018l3.352-2.184c1.094,1.68,2.18,3.396,3.229,5.107L450.639,139.683z
						 M87.926,132.424l-3.324-2.225c1.12-1.673,2.277-3.352,3.439-4.989l3.262,2.314C90.162,129.133,89.025,130.781,87.926,132.424z
						 M444.16,129.74c-1.115-1.615-2.273-3.243-3.44-4.837l3.227-2.363c1.189,1.623,2.369,3.28,3.507,4.926L444.16,129.74z
						 M94.813,122.723l-3.194-2.404c1.202-1.601,2.449-3.213,3.707-4.79l3.129,2.49C97.22,119.568,95.995,121.151,94.813,122.723z
						 M437.145,120.163c-1.21-1.56-2.456-3.121-3.705-4.642l3.092-2.539c1.271,1.55,2.542,3.141,3.773,4.729L437.145,120.163z
						 M102.22,113.418l-3.059-2.576c1.3-1.543,2.634-3.084,3.964-4.577l2.986,2.658C104.807,110.391,103.496,111.903,102.22,113.418
						z M429.608,110.981c-1.293-1.49-2.623-2.982-3.954-4.436l2.947-2.701c1.354,1.479,2.712,2.995,4.028,4.516L429.608,110.981z
						 M110.126,104.537l-2.914-2.74c1.382-1.47,2.798-2.934,4.209-4.353l2.836,2.82
						C112.872,101.657,111.482,103.095,110.126,104.537z M421.578,102.225c-1.372-1.416-2.781-2.833-4.192-4.211l2.797-2.86
						c1.436,1.403,2.872,2.846,4.27,4.288L421.578,102.225z M118.503,96.107l-2.758-2.896c1.462-1.393,2.955-2.775,4.438-4.111
						l2.678,2.971C121.406,93.38,119.939,94.739,118.503,96.107z M413.076,93.918c-1.444-1.337-2.934-2.675-4.421-3.977l2.636-3.01
						c1.516,1.324,3.027,2.688,4.502,4.049L413.076,93.918z M127.327,88.151l-2.598-3.043c1.526-1.302,3.095-2.604,4.656-3.863
						l2.512,3.113C130.364,85.597,128.826,86.873,127.327,88.151z M404.13,86.087c-1.521-1.258-3.078-2.512-4.635-3.729l2.467-3.15
						c1.583,1.239,3.171,2.519,4.719,3.798L404.13,86.087z M136.572,80.695l-2.426-3.182c1.59-1.211,3.227-2.424,4.86-3.601
						l2.336,3.246C139.737,78.316,138.133,79.505,136.572,80.695z M394.764,78.758c-1.595-1.178-3.221-2.345-4.833-3.469
						l2.287-3.281c1.643,1.146,3.299,2.333,4.923,3.533L394.764,78.758z M146.206,73.76l-2.246-3.312
						c1.668-1.132,3.366-2.251,5.048-3.326l2.154,3.37C149.512,71.55,147.844,72.648,146.206,73.76z M385.002,71.954
						c-1.649-1.084-3.338-2.16-5.021-3.199l2.104-3.4c1.712,1.058,3.432,2.152,5.112,3.258L385.002,71.954z M156.204,67.368
						l-2.062-3.428c1.707-1.026,3.463-2.049,5.22-3.041l1.969,3.481C159.604,65.355,157.88,66.36,156.204,67.368z M374.879,65.695
						c-1.721-0.999-3.467-1.98-5.19-2.917l1.912-3.514c1.755,0.955,3.533,1.955,5.286,2.971L374.879,65.695z M166.533,61.54
						l-1.869-3.536c1.766-0.933,3.573-1.855,5.379-2.748l1.77,3.589C170.042,59.717,168.266,60.624,166.533,61.54z M364.421,60.004
						c-1.768-0.896-3.564-1.779-5.349-2.626l1.715-3.612c1.814,0.859,3.646,1.761,5.444,2.675L364.421,60.004z M177.162,56.294
						l-1.67-3.635c1.832-0.842,3.688-1.664,5.519-2.444l1.568,3.682C180.783,54.661,178.961,55.469,177.162,56.294z M353.656,54.901
						c-1.812-0.798-3.657-1.581-5.485-2.327l1.51-3.704c1.862,0.76,3.743,1.559,5.589,2.37L353.656,54.901z M188.059,51.646
						l-1.467-3.723c1.876-0.738,3.781-1.46,5.663-2.142l1.361,3.761C191.77,50.213,189.9,50.92,188.059,51.646z M342.619,50.402
						c-1.86-0.698-3.748-1.377-5.61-2.02l1.301-3.78c1.897,0.651,3.82,1.344,5.716,2.055L342.619,50.402z M199.232,47.598
						l-1.258-3.8c1.901-0.629,3.844-1.24,5.773-1.821l1.15,3.831C203.005,46.378,201.098,46.98,199.232,47.598z M331.345,46.523
						c-1.892-0.591-3.809-1.162-5.697-1.696l1.088-3.85c1.926,0.544,3.877,1.125,5.805,1.728L331.345,46.523z M210.614,44.178
						l-1.045-3.861c1.938-0.523,3.909-1.028,5.866-1.499l0.938,3.889C214.451,43.169,212.514,43.664,210.614,44.178z M319.907,43.29
						c-1.911-0.481-3.855-0.944-5.781-1.377l0.873-3.901c1.961,0.438,3.94,0.908,5.889,1.4L319.907,43.29z M222.169,41.395
						l-0.828-3.913c1.961-0.415,3.96-0.811,5.938-1.171L228,40.246C226.056,40.601,224.094,40.988,222.169,41.395z M308.309,40.697
						c-1.932-0.376-3.897-0.73-5.849-1.054l0.652-3.946c1.985,0.33,3.99,0.691,5.958,1.073L308.309,40.697z M233.859,39.258
						l-0.607-3.951c1.988-0.309,4.008-0.592,5.995-0.842l0.5,3.971C237.794,38.679,235.813,38.957,233.859,39.258z M296.585,38.751
						c-1.961-0.27-3.945-0.515-5.898-0.729l0.438-3.979c1.987,0.22,4.011,0.47,6.008,0.743L296.585,38.751z M245.651,37.771
						l-0.391-3.98c2.006-0.195,4.035-0.368,6.032-0.509l0.279,3.99C249.613,37.409,247.621,37.577,245.651,37.771z M284.771,37.456
						c-1.973-0.161-3.968-0.297-5.931-0.402l0.217-3.994c1.999,0.107,4.031,0.247,6.04,0.412L284.771,37.456z M257.508,36.933
						l-0.172-3.996c1.997-0.086,4.027-0.146,6.04-0.181l0.062,3.999C261.466,36.79,259.47,36.849,257.508,36.933z M272.901,36.81
						c-1.979-0.055-3.979-0.08-5.942-0.08v-4c2.002,0,4.038,0.025,6.052,0.082L272.901,36.81z"/>
				</g>
			</g>
			<g id="Oval-5_1_">
				<g>
					<path fill="#0B163D" d="M267.312,129.515c65.841,0,119.213,53.372,119.213,119.206c0,65.842-53.372,119.213-119.213,119.213
						c-65.835,0-119.206-53.371-119.206-119.213C148.105,182.887,201.477,129.515,267.312,129.515z"/>
				</g>
				<g>
					<path fill="#5EBBE6" d="M267.312,369.934c-1.136,0-2.267-0.016-3.395-0.047l0.107-3.998c1.958,0.053,3.938,0.06,5.899,0.017
						l0.088,3.998C269.115,369.926,268.215,369.934,267.312,369.934z M276.104,369.621l-0.287-3.988
						c1.956-0.143,3.933-0.332,5.871-0.569l0.484,3.971C280.168,369.277,278.126,369.475,276.104,369.621z M257.829,369.568
						c-2.028-0.157-4.069-0.367-6.065-0.623l0.508-3.967c1.933,0.247,3.904,0.449,5.866,0.602L257.829,369.568z M288.206,368.14
						l-0.688-3.941c1.926-0.335,3.871-0.724,5.782-1.154l0.883,3.9C292.209,367.391,290.197,367.795,288.206,368.14z
						 M245.736,368.02c-2-0.359-4.01-0.773-5.975-1.23l0.908-3.896c1.896,0.442,3.841,0.843,5.771,1.188L245.736,368.02z
						 M300.097,365.447l-1.078-3.852c1.88-0.526,3.776-1.11,5.635-1.734l1.273,3.791
						C304.004,364.301,302.043,364.902,300.097,365.447z M233.859,365.26c-1.947-0.562-3.905-1.175-5.817-1.828l1.295-3.785
						c1.849,0.633,3.742,1.228,5.626,1.768L233.859,365.26z M311.658,361.566l-1.467-3.723c1.818-0.716,3.645-1.486,5.42-2.292
						l1.65,3.645C315.425,360.028,313.539,360.826,311.658,361.566z M222.311,361.303c-1.89-0.756-3.776-1.567-5.614-2.413
						l1.674-3.633c1.773,0.814,3.602,1.602,5.429,2.333L222.311,361.303z M322.743,356.547l-1.832-3.557
						c1.738-0.896,3.479-1.849,5.166-2.828l2.008,3.459C326.34,354.635,324.543,355.618,322.743,356.547z M211.213,356.197
						c-1.797-0.939-3.593-1.938-5.338-2.968l2.029-3.445c1.688,0.993,3.425,1.959,5.162,2.868L211.213,356.197z M333.274,350.432
						l-2.18-3.354c1.634-1.062,3.269-2.183,4.86-3.334l2.344,3.24C336.654,348.177,334.963,349.337,333.274,350.432z
						 M200.695,350.003c-1.684-1.11-3.366-2.282-5.01-3.485l2.365-3.229c1.588,1.164,3.219,2.301,4.846,3.372L200.695,350.003z
						 M343.146,343.288l-2.504-3.117c1.529-1.229,3.044-2.51,4.503-3.807l2.658,2.99
						C346.294,340.695,344.727,342.019,343.146,343.288z M190.858,342.784c-1.563-1.273-3.125-2.608-4.634-3.969l2.678-2.973
						c1.459,1.312,2.969,2.604,4.481,3.838L190.858,342.784z M352.257,335.191l-2.805-2.854c1.401-1.379,2.782-2.807,4.104-4.237
						l2.941,2.709C355.134,332.291,353.707,333.766,352.257,335.191z M181.799,334.624c-1.437-1.428-2.854-2.91-4.213-4.408
						l2.961-2.689c1.314,1.449,2.687,2.884,4.074,4.264L181.799,334.624z M360.517,326.222l-3.074-2.561
						c1.253-1.506,2.484-3.062,3.66-4.629l3.199,2.402C363.085,323.056,361.812,324.665,360.517,326.222z M173.6,325.603
						c-1.283-1.563-2.545-3.181-3.749-4.807l3.215-2.383c1.164,1.572,2.387,3.139,3.626,4.648L173.6,325.603z M367.842,316.467
						l-3.314-2.238c1.098-1.624,2.166-3.297,3.181-4.974l3.424,2.066C370.082,313.056,368.976,314.786,367.842,316.467z
						 M166.349,315.811c-1.121-1.685-2.214-3.419-3.247-5.154l3.438-2.047c1,1.678,2.057,3.355,3.142,4.984L166.349,315.811z
						 M374.154,306.02l-3.521-1.895c0.93-1.73,1.826-3.507,2.663-5.271l3.615,1.713C376.043,302.394,375.116,304.228,374.154,306.02
						z M160.117,305.348c-0.949-1.793-1.862-3.628-2.714-5.452l3.625-1.689c0.822,1.765,1.704,3.536,2.622,5.271L160.117,305.348z
						 M379.384,294.98l-3.697-1.527c0.75-1.813,1.463-3.671,2.118-5.517l3.771,1.338
						C380.896,291.184,380.159,293.104,379.384,294.98z M154.975,294.317c-0.765-1.88-1.488-3.8-2.15-5.708l3.775-1.314
						c0.644,1.846,1.342,3.699,2.08,5.519L154.975,294.317z M383.467,283.478l-3.832-1.146c0.561-1.88,1.081-3.795,1.545-5.689
						l3.885,0.949C384.585,279.554,384.048,281.534,383.467,283.478z M150.962,282.802c-0.567-1.941-1.094-3.927-1.562-5.896
						l3.893-0.928c0.454,1.903,0.963,3.822,1.512,5.699L150.962,282.802z M386.36,271.634l-3.928-0.752
						c0.366-1.915,0.69-3.873,0.962-5.816l3.961,0.553C387.075,267.629,386.74,269.653,386.36,271.634z M148.137,270.939
						c-0.366-1.98-0.689-4.007-0.959-6.021l3.965-0.529c0.261,1.947,0.573,3.907,0.928,5.822L148.137,270.939z M388.046,259.558
						l-3.984-0.355c0.173-1.938,0.299-3.92,0.374-5.885l3.997,0.154C388.355,255.503,388.225,257.551,388.046,259.558z
						 M146.523,258.855c-0.166-2.006-0.284-4.054-0.352-6.086l3.998-0.133c0.062,1.968,0.18,3.946,0.34,5.889L146.523,258.855z
						 M384.518,247.421c-0.021-1.969-0.093-3.95-0.21-5.896l3.992-0.242c0.122,2.009,0.195,4.059,0.218,6.093L384.518,247.421z
						 M150.122,246.737l-4-0.066c0.032-2.025,0.116-4.075,0.253-6.092l3.99,0.268C150.236,242.793,150.154,244.775,150.122,246.737z
						 M383.805,235.649c-0.217-1.949-0.485-3.915-0.798-5.842l3.949-0.643c0.32,1.993,0.6,4.025,0.821,6.041L383.805,235.649z
						 M150.902,234.974l-3.973-0.467c0.235-2.013,0.524-4.044,0.859-6.034l3.943,0.662
						C151.41,231.062,151.13,233.027,150.902,234.974z M381.917,224.014c-0.414-1.929-0.88-3.855-1.384-5.732l3.861-1.037
						c0.521,1.942,1.003,3.938,1.433,5.928L381.917,224.014z M152.859,223.347l-3.904-0.863c0.438-1.979,0.931-3.972,1.465-5.92
						l3.855,1.059C153.759,219.506,153.282,221.432,152.859,223.347z M378.862,212.627c-0.598-1.852-1.256-3.724-1.953-5.562
						l3.736-1.422c0.726,1.9,1.404,3.839,2.023,5.756L378.862,212.627z M155.98,211.979l-3.799-1.252
						c0.637-1.934,1.33-3.868,2.062-5.757l3.729,1.443C157.267,208.239,156.596,210.111,155.98,211.979z M374.676,201.621
						c-0.788-1.795-1.631-3.587-2.503-5.328l3.576-1.792c0.9,1.803,1.771,3.655,2.589,5.513L374.676,201.621z M160.245,200.962
						l-3.652-1.631c0.827-1.852,1.713-3.707,2.633-5.514l3.564,1.812C161.901,197.379,161.045,199.172,160.245,200.962z
						 M369.405,191.099c-0.962-1.699-1.979-3.399-3.028-5.055l3.379-2.143c1.084,1.71,2.138,3.468,3.132,5.225L369.405,191.099z
						 M165.601,190.44l-3.469-1.992c1.005-1.75,2.072-3.505,3.174-5.216l3.363,2.164
						C167.604,187.052,166.572,188.748,165.601,190.44z M363.097,181.15c-1.127-1.593-2.312-3.186-3.521-4.729l3.146-2.469
						c1.252,1.596,2.477,3.239,3.641,4.887L363.097,181.15z M171.985,180.514l-3.252-2.33c1.185-1.649,2.421-3.288,3.682-4.869
						l3.129,2.49C174.325,177.334,173.128,178.918,171.985,180.514z M355.821,171.88c-1.279-1.475-2.618-2.938-3.979-4.354
						l2.885-2.771c1.404,1.462,2.788,2.979,4.113,4.502L355.821,171.88z M179.331,171.281l-3.002-2.645
						c1.341-1.522,2.734-3.027,4.146-4.477l2.865,2.791C181.977,168.353,180.628,169.809,179.331,171.281z M347.651,163.377
						c-1.429-1.346-2.906-2.67-4.396-3.937l2.594-3.045c1.537,1.309,3.066,2.678,4.544,4.067L347.651,163.377z M187.559,162.834
						l-2.723-2.93c1.488-1.384,3.024-2.742,4.567-4.038l2.572,3.064C190.485,160.183,188.998,161.496,187.559,162.834z
						 M338.67,155.729c-1.56-1.197-3.162-2.367-4.771-3.479l2.273-3.291c1.662,1.149,3.322,2.359,4.933,3.599L338.67,155.729z
						 M196.584,155.253l-2.416-3.188c1.614-1.226,3.276-2.421,4.947-3.561l2.254,3.307
						C199.755,152.912,198.146,154.069,196.584,155.253z M328.964,149.019c-1.674-1.036-3.389-2.04-5.097-2.982l1.934-3.502
						c1.766,0.977,3.539,2.013,5.269,3.084L328.964,149.019z M206.317,148.617l-2.084-3.414c1.724-1.051,3.497-2.075,5.275-3.043
						l1.912,3.514C209.7,146.61,207.983,147.601,206.317,148.617z M318.629,143.313c-1.757-0.857-3.564-1.685-5.373-2.454
						l1.568-3.68c1.869,0.798,3.739,1.65,5.559,2.536L318.629,143.313z M216.661,142.994l-1.73-3.605
						c1.829-0.877,3.696-1.718,5.553-2.494l1.547,3.688C220.235,141.334,218.429,142.146,216.661,142.994z M307.763,138.681
						c-1.832-0.676-3.715-1.312-5.597-1.897l1.188-3.82c1.946,0.605,3.896,1.269,5.79,1.966L307.763,138.681z M227.51,138.445
						l-1.357-3.762c1.908-0.688,3.855-1.337,5.787-1.928l1.166,3.826C231.238,137.153,229.355,137.78,227.51,138.445z
						 M296.491,135.176c-1.888-0.482-3.819-0.928-5.747-1.317l0.797-3.92c1.993,0.403,3.993,0.863,5.942,1.363L296.491,135.176z
						 M238.787,135.01l-0.973-3.883c1.971-0.49,3.974-0.938,5.952-1.329l0.773,3.926C242.626,134.101,240.69,134.533,238.787,135.01
						z M284.938,132.831c-1.936-0.292-3.902-0.538-5.85-0.73l0.396-3.98c2.015,0.201,4.048,0.456,6.053,0.758L284.938,132.831z
						 M250.352,132.732l-0.572-3.959c1.999-0.289,4.035-0.532,6.056-0.725l0.375,3.982
						C254.256,132.217,252.285,132.452,250.352,132.732z M273.207,131.66c-3.671-0.182-7.429-0.194-11.115-0.031l-0.176-3.996
						c3.812-0.166,7.691-0.154,11.488,0.033L273.207,131.66z"/>
				</g>
			</g>
			<g id="Group-13-Copy-4" transform="translate(120.000000, 59.125000)">
				<g id="Group-10_2_">
					<circle id="Oval-3_2_" fill="#F8D664" cx="268.518" cy="60.985" r="22.23"/>
					<path id="Shape_2_" fill="#111A40" d="M278.344,71.079L278.344,71.079v1.907c0,0.522-0.426,0.947-0.95,0.947h-2.85
						c-0.524,0-0.95-0.425-0.95-0.947v-1.907h-9.513v1.907c0,0.522-0.425,0.947-0.95,0.947h-2.85c-0.524,0-0.949-0.425-0.949-0.947
						v-1.907l0,0c-1.057,0-1.907-0.853-1.907-1.899V49.969c0-1.05,1.81-1.898,2.856-1.898c0,0,3.828-1.906,8.557-1.906
						c4.777,0,9.506,1.906,9.506,1.906c1.049,0,1.9,0.851,1.9,1.898v19.211C280.245,70.228,279.392,71.079,278.344,71.079
						L278.344,71.079L278.344,71.079z M261.707,68.229c1.312,0,2.375-1.062,2.375-2.375c0-1.316-1.063-2.382-2.375-2.382
						c-1.312,0-2.374,1.063-2.374,2.382C259.333,67.166,260.394,68.229,261.707,68.229L261.707,68.229L261.707,68.229z
						 M272.644,48.061h-7.611c-0.525,0-0.95,0.435-0.95,0.957c0,0.524,0.425,0.95,0.95,0.95h7.611c0.524,0,0.949-0.426,0.949-0.95
						C273.594,48.495,273.169,48.061,272.644,48.061L272.644,48.061L272.644,48.061z M278.344,53.392
						c0-0.522-0.426-0.948-0.95-0.948h-2.374h-4.28h-10.456c-0.524,0-0.949,0.426-0.949,0.948v5.706c0,0.525,0.425,0.95,0.949,0.95
						h10.456h4.28h2.374c0.524,0,0.95-0.425,0.95-0.95V53.392L278.344,53.392L278.344,53.392z M275.969,63.472
						c-1.312,0-2.375,1.063-2.375,2.382c0,1.312,1.063,2.375,2.375,2.375c1.312,0,2.375-1.062,2.375-2.375
						C278.344,64.536,277.281,63.472,275.969,63.472L275.969,63.472L275.969,63.472z"/>
				</g>
			</g>
			<g enable-background="new    ">
				<path fill="#F8D664" d="M128.251,240.059v23.326h-2.681v-20.061c-1.47,1.503-3.3,2.548-5.486,3.201v-2.679
					c1.045-0.294,2.156-0.751,3.267-1.404c1.111-0.719,2.025-1.503,2.812-2.386L128.251,240.059L128.251,240.059z"/>
				<path fill="#F8D664" d="M136.384,239.602v14.731l8.462-7.84h3.463l-7.449,6.795l8.168,10.097h-3.363l-6.602-8.396l-2.679,2.417
					v5.979h-2.613v-23.783H136.384z"/>
				<path fill="#F8D664" d="M163.726,249.239c0.653-1.111,1.438-1.928,2.354-2.418c0.814-0.522,1.796-0.784,2.973-0.784
					c1.764,0,3.169,0.558,4.279,1.666c1.046,1.146,1.601,2.68,1.601,4.606v11.073h-2.613v-10.648c0-1.503-0.324-2.613-0.945-3.332
					c-0.653-0.784-1.699-1.146-3.139-1.146c-1.108,0-2.058,0.395-2.774,1.241c-0.784,0.852-1.146,1.93-1.146,3.3v10.585H161.7
					v-10.648c0-3.005-1.309-4.478-3.89-4.478c-1.209,0-2.188,0.458-2.973,1.438c-0.784,0.915-1.177,2.059-1.177,3.396v10.291h-2.613
					v-16.891h2.613v2.254c1.272-1.829,2.875-2.712,4.771-2.712C161.014,246.037,162.778,247.083,163.726,249.239z"/>
			</g>
			<g id="Group-4" transform="translate(66.000000, 56.000000)">
				<path id="Oval-5_2_" fill="#F8D664" d="M201.46,189.24c4.005,0,7.259,3.246,7.259,7.259c0,4.005-3.254,7.259-7.259,7.259
					c-4.015,0-7.259-3.254-7.259-7.259C194.201,192.486,197.447,189.24,201.46,189.24z"/>
				<g id="Oval-5_3_">
					<path fill="#F8D664" d="M201.459,211.32c-8.172,0-14.82-6.647-14.82-14.821c0-8.172,6.648-14.82,14.82-14.82
						c8.176,0,14.821,6.648,14.821,14.82C216.281,204.673,209.635,211.32,201.459,211.32z M201.459,183.423
						c-7.207,0-13.076,5.865-13.076,13.076c0,7.21,5.869,13.079,13.076,13.079c7.213,0,13.08-5.869,13.08-13.079
						C214.539,189.288,208.672,183.423,201.459,183.423z"/>
				</g>
			</g>
			<g enable-background="new    ">
				<path fill="#F8D664" d="M28.845,241.464c1.372,1.241,2.091,2.907,2.091,4.935c0,2.024-0.784,3.854-2.287,5.488
					c-0.814,0.85-2.417,2.123-4.835,3.758c-2.973,1.992-4.671,3.789-5.096,5.355h12.251v2.387H15.418
					c0-2.123,0.751-4.053,2.318-5.782c0.915-1.046,2.581-2.45,5.063-4.149c1.83-1.307,3.038-2.254,3.659-2.907
					c1.176-1.272,1.797-2.679,1.797-4.182c0-1.438-0.424-2.516-1.274-3.3c-0.85-0.784-2.058-1.176-3.561-1.176
					c-1.603,0-2.842,0.521-3.691,1.633c-0.915,1.046-1.403,2.614-1.438,4.672h-2.681c0-2.613,0.752-4.704,2.188-6.239
					c1.438-1.566,3.365-2.353,5.717-2.353C25.676,239.602,27.44,240.223,28.845,241.464z"/>
				<path fill="#F8D664" d="M37.631,239.602v14.731l8.461-7.84h3.463l-7.448,6.795l8.167,10.097H46.91l-6.601-8.396l-2.679,2.417
					v5.979h-2.614v-23.783H37.631z"/>
				<path fill="#F8D664" d="M64.973,249.239c0.653-1.111,1.438-1.928,2.354-2.418c0.815-0.522,1.797-0.784,2.973-0.784
					c1.764,0,3.168,0.558,4.279,1.666c1.045,1.146,1.601,2.68,1.601,4.606v11.073h-2.614v-10.648c0-1.503-0.327-2.613-0.945-3.332
					c-0.653-0.784-1.699-1.146-3.138-1.146c-1.109,0-2.058,0.395-2.775,1.241c-0.784,0.852-1.146,1.93-1.146,3.3v10.585h-2.613
					v-10.648c0-3.005-1.307-4.478-3.888-4.478c-1.209,0-2.188,0.458-2.973,1.438c-0.784,0.915-1.176,2.059-1.176,3.396v10.291
					h-2.614v-16.891h2.614v2.254c1.272-1.829,2.875-2.712,4.77-2.712C62.261,246.037,64.025,247.083,64.973,249.239z"/>
			</g>
		</g>
	</g>
</g>
</svg>
