<?xml version="1.0" encoding="UTF-8"?>
<svg width="481px" height="447px" viewBox="0 0 481 447" version="1.1" xmlns="http://www.w3.org/2000/svg" xmlns:xlink="http://www.w3.org/1999/xlink">
    <!-- Generator: Sketch 46.2 (44496) - http://www.bohemiancoding.com/sketch -->
    <title>education</title>
    <desc>Created with Sketch.</desc>
    <defs></defs>
    <g id="Page-1" stroke="none" stroke-width="1" fill="none" fill-rule="evenodd">
        <g id="education" fill-rule="nonzero">
            <g id="Oval-5" transform="translate(47.000000, 0.000000)">
                <path d="M216.834,3.12488018 C334.928,3.12488018 430.664,101.726488 430.664,223.357866 C430.664,344.986154 334.928,443.590853 216.834,443.590853 C98.743,443.590853 3.008,344.987184 3.008,223.357866 C3.008,101.727518 98.743,3.12488018 216.834,3.12488018 Z" id="Shape" fill="#0B1A41"></path>
                <path d="M217.273,446.533431 L216.834,446.533431 C214.561,446.533431 212.3,446.497382 210.043,446.425286 L210.225,440.541159 C212.418,440.612226 214.623,440.648274 216.834,440.648274 L217.273,440.648274 L217.273,446.533431 Z M224.516,446.396447 L224.314,440.51129 C226.668,440.428894 229.016,440.30324 231.357,440.141537 L231.741,446.012274 C229.344,446.181187 226.934,446.306841 224.516,446.396447 Z M202.814,446.073041 C200.401,445.912369 198.001,445.710498 195.602,445.469488 L196.156,439.613171 C198.489,439.84697 200.834,440.040601 203.184,440.195094 L202.814,446.073041 Z M238.957,445.387092 L238.371,439.530774 C240.719,439.282555 243.053,438.998288 245.372,438.675912 L246.14,444.510601 C243.757,444.840187 241.36,445.132694 238.957,445.387092 Z M188.415,444.628016 C186.017,444.305641 183.631,443.942067 181.255,443.536265 L182.187,437.730415 C184.499,438.122827 186.823,438.478161 189.158,438.794357 L188.415,444.628016 Z M253.301,443.388982 L252.331,437.590341 C254.658,437.177329 256.971,436.735479 259.266,436.249341 L260.411,442.020173 C258.053,442.513521 255.684,442.96876 253.301,443.388982 Z M174.138,442.200415 C171.766,441.715306 169.408,441.18694 167.064,440.615316 L168.376,434.888772 C170.654,435.437737 172.949,435.951684 175.258,436.429583 L174.138,442.200415 Z M267.471,440.407265 L266.146,434.680721 C268.43,434.116306 270.705,433.515843 272.965,432.873152 L274.486,438.550258 C272.162,439.207369 269.825,439.828431 267.471,440.407265 Z M160.045,438.790237 C157.713,438.136217 155.399,437.446147 153.096,436.72003 L154.767,431.094422 C157.01,431.79891 159.268,432.47353 161.541,433.105922 L160.045,438.790237 Z M281.428,436.452242 L279.725,430.832813 C281.975,430.110816 284.204,429.35174 286.416,428.554555 L288.307,434.110127 C286.032,434.92791 283.74,435.707585 281.428,436.452242 Z M146.189,434.403664 C143.897,433.58897 141.621,432.737198 139.364,431.846288 L141.412,426.349424 C143.606,427.218705 145.819,428.048848 148.049,428.835733 L146.189,434.403664 Z M295.095,431.532152 L293.023,426.042498 C295.213,425.169097 297.383,424.261707 299.532,423.31621 L301.779,428.727588 C299.566,429.700894 297.341,430.630942 295.095,431.532152 Z M132.636,429.057173 C130.403,428.087986 128.192,427.081721 125.997,426.035288 L128.393,420.689827 C130.532,421.706392 132.684,422.691028 134.853,423.632406 L132.636,429.057173 Z M308.371,425.701583 L305.95,420.369512 C308.078,419.345737 310.184,418.289005 312.271,417.197253 L314.859,422.442809 C312.718,423.564429 310.555,424.64897 308.371,425.701583 Z M119.465,422.787843 C117.302,421.663134 115.162,420.506495 113.043,419.313809 L115.785,414.14653 C117.848,415.311408 119.932,416.439207 122.036,417.527869 L119.465,422.787843 Z M321.236,418.961565 L318.48,413.801495 C320.538,412.637647 322.572,411.434661 324.584,410.201806 L327.507,415.26094 C325.439,416.529843 323.35,417.761668 321.236,418.961565 Z M106.747,415.624514 C104.664,414.3587 102.604,413.055809 100.569,411.718929 L103.638,406.753521 C105.621,408.054353 107.625,409.322226 109.652,410.558171 L106.747,415.624514 Z M333.661,411.352265 L330.57,406.401276 C332.545,405.097355 334.498,403.757385 336.43,402.385486 L339.674,407.228329 C337.693,408.636276 335.685,410.012295 333.661,411.352265 Z M94.524,407.605293 C92.529,406.200435 90.558,404.75953 88.611,403.279486 L92.005,398.543758 C93.896,399.981574 95.811,401.378191 97.751,402.747 L94.524,407.605293 Z M345.557,402.902523 L342.159,398.166795 C344.054,396.726919 345.917,395.257175 347.751,393.758592 L351.303,398.371756 C349.411,399.912567 347.499,401.425569 345.557,402.902523 Z M82.852,398.763138 C80.956,397.225417 79.085,395.654737 77.239,394.057279 L80.919,389.55123 C82.719,391.1147 84.542,392.641092 86.389,394.142765 L82.852,398.763138 Z M356.887,393.654567 L353.196,389.163968 C354.989,387.600498 356.755,386.006129 358.492,384.380862 L362.329,388.742717 C360.542,390.410212 358.729,392.047839 356.887,393.654567 Z M71.786,389.155728 C69.994,387.496472 68.229,385.797048 66.493,384.075995 L70.455,379.836705 C72.147,381.5145 73.867,383.162426 75.613,384.787694 L71.786,389.155728 Z M367.613,383.644445 L363.636,379.418544 C365.321,377.733539 366.981,376.023816 368.614,374.281134 L372.723,378.370051 C371.049,380.155991 369.347,381.917212 367.613,383.644445 Z M61.362,378.812931 C59.681,377.026991 58.031,375.216332 56.407,373.372714 L60.64,369.420781 C62.22,371.213931 63.828,372.974122 65.464,374.709594 L61.362,378.812931 Z M377.663,372.923654 L373.421,368.978931 C374.998,367.182691 376.543,365.356583 378.061,363.507816 L382.428,367.308346 C380.868,369.209641 379.281,371.076947 377.663,372.923654 Z M51.635,367.782124 C50.076,365.889069 48.545,363.974385 47.045,362.030862 L51.52,358.365256 C52.982,360.259341 54.471,362.130767 55.992,363.973355 L51.635,367.782124 Z M387.001,361.535454 L382.522,357.885297 C383.981,355.984002 385.404,354.062108 386.795,352.111376 L391.399,355.603949 C389.966,357.60412 388.501,359.583691 387.001,361.535454 Z M42.643,356.120986 C41.207,354.130085 39.803,352.110346 38.433,350.062797 L43.135,346.721627 C44.471,348.712528 45.837,350.67356 47.234,352.613993 L42.643,356.120986 Z M395.6,349.520012 L390.891,346.186051 C392.223,344.19206 393.521,342.17026 394.787,340.128892 L399.6,343.29703 C398.3,345.396076 396.967,347.468343 395.6,349.520012 Z M34.426,343.868654 C33.127,341.781968 31.857,339.672622 30.622,337.541647 L35.53,334.522853 C36.734,336.603359 37.968,338.655028 39.237,340.684037 L34.426,343.868654 Z M403.403,336.935005 L398.477,333.946078 C399.673,331.859392 400.842,329.754166 401.976,327.622161 L406.985,330.453505 C405.824,332.633917 404.627,334.79785 403.403,336.935005 Z M27.025,331.093106 C25.861,328.922993 24.731,326.731251 23.639,324.522 L28.732,321.84824 C29.796,324.000843 30.895,326.134908 32.026,328.247343 L27.025,331.093106 Z M410.365,323.84635 L405.265,321.195249 C406.326,319.032346 407.351,316.847813 408.341,314.645772 L413.526,317.124871 C412.508,319.38459 411.454,321.62577 410.365,323.84635 Z M20.471,317.839659 C19.452,315.597449 18.471,313.33773 17.522,311.052263 L22.775,308.738986 C23.699,310.958537 24.657,313.161608 25.648,315.346141 L20.471,317.839659 Z M416.47,310.291127 L411.203,307.998449 C412.12,305.767569 413.003,303.51815 413.847,301.247101 L419.184,303.359537 C418.312,305.688263 417.408,308.002569 416.47,310.291127 Z M14.795,304.172171 C13.921,301.857864 13.086,299.530168 12.287,297.180843 L17.68,295.2332 C18.458,297.517638 19.272,299.788687 20.122,302.037076 L14.795,304.172171 Z M421.668,296.343491 L416.268,294.418507 C417.039,292.128919 417.772,289.822853 418.466,287.498247 L423.928,289.230629 C423.213,291.619092 422.459,293.990046 421.668,296.343491 Z M10.008,290.10609 C9.289,287.738226 8.607,285.353882 7.962,282.95718 L13.47,281.38341 C14.098,283.722435 14.762,286.042922 15.464,288.346929 L10.008,290.10609 Z M425.94,282.072449 L420.429,280.513099 C421.046,278.191583 421.625,275.846378 422.165,273.489843 L427.726,274.841143 C427.172,277.268744 426.579,279.679866 425.94,282.072449 Z M6.153,275.732053 C5.591,273.324021 5.066,270.899509 4.578,268.456459 L10.177,267.272012 C10.652,269.650175 11.162,272.010829 11.71,274.360154 L6.153,275.732053 Z M429.269,267.561429 L423.666,266.397581 C424.131,264.029717 424.553,261.651553 424.939,259.26206 L430.577,260.225067 C430.183,262.686657 429.746,265.129707 429.269,267.561429 Z M3.244,261.130396 C2.839,258.687346 2.473,256.229876 2.147,253.762106 L7.809,252.964922 C8.128,255.367804 8.484,257.760387 8.878,260.139581 L3.244,261.130396 Z M431.647,252.855747 L425.982,252.087401 C426.29,249.694818 426.558,247.291935 426.788,244.876694 L432.475,245.452438 C432.237,247.930507 431.962,250.398276 431.647,252.855747 Z M1.289,246.363947 C1.043,243.899267 0.837,241.420168 0.67,238.933859 L6.374,238.531147 C6.534,240.952569 6.736,243.359571 6.976,245.760394 L1.289,246.363947 Z M433.057,238.02853 L427.358,237.647447 C427.507,235.240445 427.623,232.822113 427.696,230.393482 L433.41,230.580933 C433.329,233.074452 433.214,235.556641 433.057,238.02853 Z M0.293,231.497592 C0.206,229.025703 0.158,226.540424 0.151,224.044846 L5.865,224.026306 C5.872,226.460088 5.919,228.8743 6.003,231.281302 L0.293,231.497592 Z M427.811,223.133336 C427.807,220.703675 427.766,218.283283 427.685,215.872161 L433.399,215.67441 C433.479,218.1463 433.521,220.630548 433.525,223.126127 L427.811,223.133336 Z M5.963,216.765131 L0.249,216.589009 C0.322,214.097551 0.434,211.614332 0.584,209.146562 L6.287,209.512196 C6.141,211.920228 6.033,214.33753 5.963,216.765131 Z M427.333,208.623346 C427.172,206.201924 426.977,203.790802 426.743,201.391009 L432.429,200.801876 C432.67,203.267585 432.872,205.742565 433.033,208.227843 L427.333,208.623346 Z M6.846,202.279859 L1.157,201.716475 C1.389,199.233256 1.659,196.765486 1.973,194.305956 L7.638,195.071212 C7.334,197.462765 7.07,199.866677 6.846,202.279859 Z M425.924,194.186482 C425.61,191.781539 425.261,189.387926 424.87,187.009763 L430.507,186.033366 C430.904,188.476417 431.268,190.933887 431.588,193.403717 L425.924,194.186482 Z M8.663,187.889343 L3.022,186.933546 C3.414,184.476076 3.845,182.030965 4.314,179.599244 L9.92,180.745583 C9.465,183.113447 9.045,185.493671 8.663,187.889343 Z M423.586,179.877332 C423.115,177.498138 422.609,175.136454 422.065,172.787129 L427.626,171.42141 C428.184,173.832532 428.703,176.259104 429.188,178.698035 L423.586,179.877332 Z M11.41,173.65641 L5.846,172.31232 C6.397,169.887809 6.985,167.478747 7.613,165.083074 L13.132,166.616675 C12.521,168.948491 11.947,171.295756 11.41,173.65641 Z M420.311,165.756664 C419.69,163.417638 419.031,161.099212 418.336,158.794175 L423.792,157.048403 C424.507,159.417297 425.188,161.80576 425.822,164.208643 L420.311,165.756664 Z M15.081,159.644917 L9.615,157.920774 C10.326,155.533341 11.075,153.160327 11.858,150.806882 L17.265,152.717447 C16.501,155.010124 15.772,157.318251 15.081,159.644917 Z M416.132,151.901724 C415.358,149.613166 414.552,147.341088 413.704,145.088578 L419.034,142.964813 C419.902,145.27809 420.736,147.611965 421.531,149.96541 L416.132,151.901724 Z M19.674,145.875463 L14.333,143.777447 C15.198,141.443571 16.1,139.132355 17.038,136.838647 L22.306,139.123085 C21.392,141.356025 20.515,143.606475 19.674,145.875463 Z M411.063,138.380488 C410.149,136.157848 409.193,133.955806 408.206,131.773334 L413.39,129.287025 C414.406,131.531295 415.382,133.798224 416.324,136.081631 L411.063,138.380488 Z M25.152,132.467523 L19.961,130.002843 C20.976,127.737975 22.026,125.493705 23.111,123.272094 L28.218,125.915986 C27.161,128.079919 26.139,130.263422 25.152,132.467523 Z M405.133,125.259906 C404.072,123.106272 402.981,120.972207 401.851,118.859772 L406.86,116.021219 C408.018,118.191332 409.145,120.386164 410.234,122.601594 L405.133,125.259906 Z M31.492,119.473624 L26.475,116.65773 C27.633,114.469078 28.827,112.304115 30.054,110.161811 L34.976,113.154857 C33.78,115.239484 32.619,117.34677 31.492,119.473624 Z M398.358,112.566753 C397.162,110.488306 395.93,108.433548 394.668,106.399389 L399.482,103.227131 C400.779,105.314848 402.045,107.427283 403.277,109.563408 L398.358,112.566753 Z M38.659,106.954535 L33.838,103.796696 C35.134,101.69456 36.463,99.6181728 37.825,97.5654747 L42.545,100.889136 C41.217,102.888276 39.923,104.910076 38.659,106.954535 Z M390.775,100.35768 C389.446,98.3657488 388.086,96.3985369 386.69,94.4581037 L391.288,90.9593502 C392.719,92.9564309 394.12,94.9772005 395.484,97.0278387 L390.775,100.35768 Z M46.619,94.9596912 L42.011,91.478447 C43.439,89.4720968 44.899,87.4904654 46.392,85.5356129 L50.885,89.1744401 C49.431,91.0798548 48.009,93.0079286 46.619,94.9596912 Z M382.414,88.6965415 C380.959,86.7973065 379.473,84.9258802 377.956,83.0812327 L382.323,79.2796728 C383.875,81.174788 385.403,83.097712 386.899,85.0463848 L382.414,88.6965415 Z M55.334,83.5426521 L50.96,79.7524217 C52.514,77.8500968 54.098,75.9745507 55.712,74.1278433 L59.961,78.0653571 C58.389,79.8646866 56.847,81.689765 55.334,83.5426521 Z M373.323,77.6245369 C371.743,75.8303571 370.138,74.0608963 368.506,72.3223341 L372.615,68.2303272 C374.289,70.0162673 375.935,71.8289862 377.558,73.6695138 L373.323,77.6245369 Z M64.765,72.749765 L60.645,68.6721774 C62.318,66.8790276 64.018,65.1167765 65.75,63.3833641 L69.733,67.6051452 C68.048,69.2911797 66.393,71.0070829 64.765,72.749765 Z M363.521,67.1911037 C361.833,65.5060991 360.12,63.853023 358.375,62.2298157 L362.212,57.864871 C363.998,59.5323664 365.76,61.2317903 367.497,62.959023 L363.521,67.1911037 Z M74.862,62.6325276 L71.014,58.2778825 C72.798,56.6072972 74.607,54.9655507 76.444,53.3557327 L80.148,57.8360323 C78.361,59.405682 76.598,61.0041705 74.862,62.6325276 Z M353.073,57.4477396 C351.28,55.8822097 349.467,54.3506682 347.621,52.8469355 L351.166,48.230682 C353.06,49.773553 354.93,51.3483525 356.771,52.9571406 L353.073,57.4477396 Z M85.587,53.2249286 L82.029,48.6189747 C83.914,47.0740438 85.824,45.5620714 87.76,44.0789378 L91.168,48.8033364 C89.285,50.2463018 87.424,51.7191359 85.587,53.2249286 Z M342.016,48.4366728 C340.125,46.9978272 338.21,45.5909101 336.274,44.2190115 L339.511,39.3689585 C341.503,40.7810253 343.467,42.2229608 345.413,43.7019747 L342.016,48.4366728 Z M96.889,44.5805253 L93.635,39.7407719 C95.614,38.3287051 97.618,36.9516567 99.647,35.6055069 L102.741,40.5523756 C100.768,41.862477 98.816,43.2045069 96.889,44.5805253 Z M330.393,40.2001313 C328.415,38.8962097 326.413,37.6242166 324.39,36.386212 L327.306,31.3239885 C329.385,32.5939217 331.443,33.9019631 333.477,35.2419332 L330.393,40.2001313 Z M108.72,36.7322765 L105.786,31.6803525 C107.851,30.4093894 109.939,29.1693249 112.049,27.9673687 L114.815,33.1191982 C112.761,34.2892258 110.729,35.492212 108.72,36.7322765 Z M318.261,32.7793134 C316.202,31.6123756 314.123,30.4825161 312.02,29.3876751 L314.602,24.1349101 C316.761,25.2616797 318.903,26.4234677 321.016,27.6233641 L318.261,32.7793134 Z M121.023,29.7172604 L118.421,24.4758249 C120.563,23.3490553 122.725,22.2573041 124.909,21.2046912 L127.333,26.5326429 C125.209,27.5595069 123.105,28.6193295 121.023,29.7172604 Z M305.668,26.2123272 C303.536,25.1906129 301.388,24.205977 299.214,23.2573894 L301.447,17.8398318 C303.676,18.8131382 305.887,19.8266129 308.082,20.8771659 L305.668,26.2123272 Z M133.745,23.5715253 L131.492,18.1611774 C133.699,17.1858111 135.924,16.248553 138.169,15.3463134 L140.248,20.8287581 C138.062,21.7083387 135.896,22.6208779 133.745,23.5715253 Z M292.663,20.5269816 C290.473,19.6556406 288.261,18.8224078 286.028,18.0241935 L287.905,12.4624424 C290.193,13.2812558 292.467,14.1402373 294.721,15.0332074 L292.663,20.5269816 Z M146.854,18.3074309 L144.957,12.7528894 C147.228,11.9299562 149.518,11.1461613 151.824,10.3973848 L153.54,16.0126935 C151.292,16.7419009 149.065,17.5071567 146.854,18.3074309 Z M279.313,15.7531452 C277.074,15.0404171 274.82,14.3627074 272.545,13.7251659 L274.052,8.04497005 C276.386,8.70105069 278.698,9.39626959 281.001,10.1306267 L279.313,15.7531452 Z M160.294,13.9630853 L158.767,8.29009908 C161.085,7.62680876 163.42,7.00368664 165.773,6.41867281 L167.116,12.1380069 C164.826,12.7086014 162.553,13.3173041 160.294,13.9630853 Z M265.716,11.9320161 C263.439,11.3737811 261.147,10.8546843 258.837,10.3747258 L259.967,4.60492396 C262.34,5.09827189 264.701,5.63281797 267.042,6.20547235 L265.716,11.9320161 Z M173.991,10.5529078 L172.836,4.78619585 C175.192,4.2866682 177.563,3.82421889 179.949,3.40296774 L180.915,9.20572811 C178.592,9.61667972 176.285,10.0636797 173.991,10.5529078 Z M251.906,9.0584447 C249.596,8.65985253 247.273,8.30039862 244.939,7.979053 L245.693,2.14436406 C248.089,2.47291935 250.475,2.84370276 252.847,3.25259447 L251.906,9.0584447 Z M187.876,8.0974977 L187.099,2.26589862 C189.481,1.92807373 191.876,1.631447 194.285,1.37498848 L194.875,7.23130645 C192.528,7.48158525 190.196,7.76997235 187.876,8.0974977 Z M237.945,7.14170046 C235.612,6.90378111 233.271,6.705 230.92,6.54535714 L231.297,0.6705 C233.711,0.834262673 236.114,1.03819355 238.511,1.28538249 L237.945,7.14170046 Z M201.891,6.60612442 L201.494,0.735387097 C203.893,0.561324885 206.304,0.428460829 208.718,0.336794931 L208.935,6.2178318 C206.575,6.3094977 204.228,6.43927189 201.891,6.60612442 Z M223.881,6.18796313 C221.54,6.10659677 219.193,6.06745853 216.834,6.06745853 L215.98,6.07157834 L215.946,0.186421659 L216.818,0.182301843 C219.256,0.182301843 221.667,0.222470046 224.07,0.304866359 L223.881,6.18796313 Z" id="Shape" fill="#5EBBE6"></path>
            </g>
            <g id="Oval-5_1_" transform="translate(143.000000, 98.875576)">
                <ellipse id="Oval" fill="#0B163D" cx="120.775" cy="124.419463" rx="117.322" ry="120.836253"></ellipse>
                <path d="M117.949,248.165336 C115.494,248.107659 113.062,247.974795 110.644,247.762624 L111.126,241.900127 C113.425,242.096848 115.744,242.222502 118.081,242.28018 L117.949,248.165336 Z M125.258,248.111779 L125.056,242.226622 C127.389,242.143196 129.705,241.982523 132,241.751813 L132.559,247.609161 C130.145,247.85326 127.71,248.022173 125.258,248.111779 Z M103.383,246.910853 C100.955,246.548309 98.555,246.110578 96.177,245.602811 L97.339,239.840219 C99.602,240.325327 101.89,240.741429 104.199,241.083373 L103.383,246.910853 Z M139.811,246.652334 L138.918,240.839274 C141.22,240.465401 143.498,240.016341 145.755,239.495184 L146.997,245.243357 C144.628,245.787173 142.231,246.257862 139.811,246.652334 Z M89.064,243.83953 C86.701,243.1783 84.367,242.442912 82.067,241.637488 L83.905,236.061318 C86.097,236.829664 88.316,237.531062 90.564,238.163454 L89.064,243.83953 Z M154.085,243.377081 L152.508,237.721604 C154.748,237.056253 156.956,236.327046 159.136,235.526772 L161.055,241.074104 C158.763,241.910426 156.436,242.682892 154.085,243.377081 Z M75.204,238.989477 C72.94,238.03368 70.711,237.005786 68.518,235.918154 L70.998,230.615952 C73.089,231.654145 75.213,232.631571 77.373,233.544111 L75.204,238.989477 Z M167.856,238.339576 L165.61,232.928198 C167.749,231.98682 169.855,230.984675 171.927,229.917643 L174.481,235.183797 C172.312,236.302327 170.1,237.35494 167.856,238.339576 Z M62.023,232.425581 C59.892,231.193756 57.8,229.896014 55.751,228.538535 L58.845,223.587546 C60.797,224.881168 62.79,226.120203 64.82,227.29538 L62.023,232.425581 Z M180.92,231.606767 L178.053,226.512615 C180.063,225.312719 182.037,224.051025 183.973,222.732684 L187.126,227.640415 C185.1,229.022613 183.027,230.349194 180.92,231.606767 Z M49.726,224.259076 C47.757,222.771823 45.834,221.223802 43.961,219.617074 L47.613,215.089396 C49.399,216.615788 51.23,218.092742 53.105,219.508929 L49.726,224.259076 Z M193.098,223.28577 L189.652,218.5933 C191.508,217.145184 193.319,215.650721 195.084,214.095491 L198.796,218.571671 C196.945,220.198998 195.045,221.772767 193.098,223.28577 Z M38.482,214.623857 C36.703,212.905894 34.978,211.131283 33.304,209.303115 L37.462,205.264666 C39.057,207.006318 40.701,208.695442 42.393,210.334099 L38.482,214.623857 Z M204.208,213.506357 L200.238,209.274276 C201.906,207.615021 203.531,205.901177 205.104,204.136866 L209.311,208.117638 C207.662,209.966406 205.959,211.766765 204.208,213.506357 Z M28.45,203.665147 C26.889,201.736044 25.386,199.759562 23.94,197.740853 L28.537,194.248279 C29.917,196.173263 31.35,198.056018 32.838,199.891396 L28.45,203.665147 Z M214.094,202.414783 L209.664,198.70077 C211.129,196.845823 212.538,194.942468 213.892,192.994825 L218.538,196.422512 C217.115,198.47006 215.636,200.468171 214.094,202.414783 Z M19.785,191.54362 C18.465,189.438394 17.204,187.28991 16.004,185.105378 L20.982,182.209147 C22.123,184.292744 23.325,186.341323 24.586,188.345613 L19.785,191.54362 Z M222.619,190.163482 L217.777,187.038601 C219.009,185.011652 220.188,182.945565 221.304,180.840339 L226.32,183.657263 C225.148,185.870634 223.914,188.036627 222.619,190.163482 Z M12.613,178.436426 C11.552,176.183917 10.555,173.895359 9.625,171.574873 L14.906,169.325454 C15.794,171.537795 16.742,173.719237 17.754,175.864631 L12.613,178.436426 Z M229.635,176.927544 L224.465,174.426816 C225.448,172.263912 226.373,170.069081 227.228,167.8382 L232.544,170.001104 C231.641,172.347339 230.674,174.657525 229.635,176.927544 Z M7.042,164.517629 C6.255,162.149765 5.535,159.749972 4.886,157.321341 L10.398,155.761991 C11.015,158.076297 11.701,160.360735 12.449,162.613244 L7.042,164.517629 Z M235.034,162.905751 L229.599,161.080673 C230.318,158.816834 230.97,156.521067 231.556,154.196461 L237.088,155.676505 C236.476,158.116465 235.788,160.526558 235.034,162.905751 Z M3.165,149.996309 C2.666,147.550168 2.237,145.078279 1.88,142.58476 L7.534,141.722689 C7.874,144.101882 8.282,146.458417 8.757,148.789203 L3.165,149.996309 Z M238.715,148.329843 L233.106,147.201014 C233.549,144.865078 233.926,142.505454 234.233,140.123171 L239.898,140.892546 C239.576,143.396364 239.179,145.871343 238.715,148.329843 Z M1.037,135.101115 C0.829,132.614806 0.694,130.105839 0.633,127.580392 L6.347,127.436198 C6.405,129.840111 6.534,132.225484 6.731,134.597468 L1.037,135.101115 Z M240.644,133.397571 L234.944,132.98147 C235.108,130.609486 235.206,128.217933 235.234,125.809901 L240.948,125.877878 C240.919,128.403325 240.814,130.911263 240.644,133.397571 Z M6.38,120.25124 L0.67,120.046279 C0.755,117.519802 0.914,115.015984 1.143,112.529675 L6.832,113.08688 C6.613,115.455774 6.462,117.844237 6.38,120.25124 Z M235.104,118.623912 C234.992,116.22412 234.811,113.839776 234.56,111.478092 L240.239,110.834371 C240.504,113.31862 240.699,115.824498 240.811,118.350975 L235.104,118.623912 Z M7.704,105.971959 L2.056,105.059419 C2.438,102.564871 2.89,100.098131 3.413,97.6530207 L8.994,98.920894 C8.495,101.24756 8.064,103.598945 7.704,105.971959 Z M233.587,104.36935 C233.196,102.001486 232.735,99.6573111 232.205,97.3399147 L237.772,95.9958249 C238.324,98.4316659 238.812,100.894286 239.223,103.380594 L233.587,104.36935 Z M10.702,91.9666452 L5.208,90.3496175 C5.879,87.925106 6.621,85.5304631 7.434,83.1698088 L12.82,85.1349608 C12.048,87.3812903 11.342,89.6605783 10.702,91.9666452 Z M230.402,90.4093548 C229.732,88.1125576 228.996,85.8425392 228.194,83.6085691 L233.551,81.5682304 C234.396,83.9175553 235.173,86.3018986 235.878,88.7181705 L230.402,90.4093548 Z M15.345,78.4351106 L10.084,76.1362535 C11.04,73.8157673 12.062,71.5302995 13.15,69.2829401 L18.264,71.9093226 C17.229,74.0485369 16.255,76.2258594 15.345,78.4351106 Z M225.585,76.9653664 C224.65,74.7746544 223.648,72.6179309 222.592,70.5003456 L227.671,67.8059862 C228.783,70.0317166 229.834,72.2945253 230.817,74.5985323 L225.585,76.9653664 Z M21.562,65.5802558 L16.612,62.6376774 C17.833,60.4582949 19.119,58.3211406 20.462,56.2241544 L25.231,59.4685092 C23.95,61.4645599 22.728,63.5018088 21.562,65.5802558 Z M219.215,64.2289562 C218.032,62.1721382 216.783,60.1544585 215.483,58.1841567 L220.207,54.8718249 C221.577,56.947182 222.89,59.0647673 224.135,61.2256106 L219.215,64.2289562 Z M29.251,53.6070415 L24.685,50.0681198 C26.154,48.0597097 27.678,46.0976475 29.258,44.185023 L33.612,48.0010023 C32.104,49.8240207 30.649,51.6913272 29.251,53.6070415 Z M211.388,52.3793364 C209.971,50.4842212 208.492,48.6375138 206.964,46.8381843 L211.269,42.9655576 C212.873,44.855523 214.422,46.7949263 215.915,48.7837673 L211.388,52.3793364 Z M38.289,42.6792304 L34.169,38.6016429 C35.859,36.788924 37.604,35.0328525 39.398,33.3293088 L43.27,37.6623249 C41.559,39.2824424 39.899,40.9571475 38.289,42.6792304 Z M202.22,41.5843894 C200.588,39.8808456 198.907,38.2308594 197.176,36.6292811 L200.992,32.2499171 C202.805,33.9256521 204.571,35.6600945 206.287,37.4450046 L202.22,41.5843894 Z M48.536,32.9626452 L44.926,28.3999493 C46.815,26.8148502 48.751,25.2884585 50.732,23.8228341 L54.067,28.6018203 C52.179,29.9984378 50.334,31.4537627 48.536,32.9626452 Z M191.85,31.9996382 C190.029,30.5123848 188.162,29.0817788 186.258,27.7098802 L189.529,22.8845461 C191.532,24.3244217 193.488,25.8260945 195.4,27.3895645 L191.85,31.9996382 Z M59.841,24.6004493 L56.792,19.6206221 C58.85,18.2847719 60.952,17.0107189 63.092,15.801553 L65.841,20.964712 C63.802,22.1162005 61.802,23.3284562 59.841,24.6004493 Z M180.422,23.779576 C178.441,22.5333318 176.421,21.343735 174.366,20.2190253 L177.045,15.019818 C179.204,16.2022051 181.321,17.4484493 183.4,18.7564908 L180.422,23.779576 Z M72.043,17.7110876 L69.605,12.3872558 C71.802,11.3202235 74.035,10.3211682 76.302,9.38905991 L78.423,14.8539954 C76.265,15.7428456 74.137,16.694523 72.043,17.7110876 Z M168.104,17.0467673 C165.997,16.0569816 163.848,15.1320829 161.671,14.2731014 L163.715,8.77623733 C166.004,9.677447 168.257,10.6497235 170.476,11.689977 L168.104,17.0467673 Z M84.966,12.4088848 L83.18,6.81829493 C85.49,6.03552995 87.828,5.3238318 90.197,4.68217051 L91.648,10.3767857 C89.391,10.9854885 87.164,11.6652581 84.966,12.4088848 Z M155.079,11.912447 C152.871,11.197659 150.639,10.5508479 148.375,9.97407373 L149.749,4.26091935 C152.125,4.86653226 154.476,5.54527189 156.795,6.29713825 L155.079,11.912447 Z M98.435,8.77108756 L97.326,2.99819585 C99.707,2.51102765 102.11,2.10007604 104.538,1.76019124 L105.306,7.59488018 C102.995,7.91622581 100.703,8.30863825 98.435,8.77108756 Z M141.565,8.46313134 C139.294,8.03364055 136.999,7.67315668 134.679,7.38579954 L135.369,1.54081106 C137.801,1.84567742 140.215,2.22573041 142.597,2.67582028 L141.565,8.46313134 Z M112.235,6.8502235 L111.817,0.979486175 C114.231,0.796154378 116.67,0.684919355 119.122,0.652990783 L119.198,6.53814747 C116.857,6.57007604 114.538,6.67410138 112.235,6.8502235 Z M127.738,6.74104839 C125.435,6.59685484 123.112,6.52578802 120.775,6.52578802 L120.775,0.640631336 C123.23,0.640631336 125.666,0.715817972 128.087,0.867221198 L127.738,6.74104839 Z" id="Shape" fill="#5EBBE6"></path>
            </g>
            <g id="Group" transform="translate(119.000000, 214.230415)" fill="#F8D664">
                <path d="M14.087,2.12685484 C15.437,3.38751843 16.145,5.07664286 16.145,7.12728111 C16.145,9.18306912 15.373,11.0359562 13.894,12.6931521 C13.09,13.5552235 11.515,14.8447258 9.136,16.5008917 C6.209,18.5237212 4.537,20.3446797 4.118,21.9328687 L16.177,21.9328687 L16.177,24.3512005 L0.87,24.3512005 C0.87,22.1985968 1.61,20.2447742 3.153,18.4876728 C4.053,17.4288802 5.695,16.0054839 8.138,14.2844309 C9.938,12.9588802 11.129,11.9958733 11.74,11.3356728 C12.898,10.0451406 13.509,8.61865438 13.509,7.09535253 C13.509,5.63590783 13.091,4.54415668 12.255,3.75006221 C11.419,2.95596774 10.228,2.55737558 8.749,2.55737558 C7.174,2.55737558 5.952,3.0888318 5.116,4.21354147 C4.216,5.27336406 3.733,6.86052304 3.701,8.94823963 L1.064,8.94823963 C1.064,6.30022811 1.804,4.18058295 3.218,2.62123272 C4.633,1.03304378 6.53,0.239979263 8.846,0.239979263 C10.967,0.239979263 12.705,0.869281106 14.087,2.12685484 Z" id="Shape"></path>
                <path d="M23.794,20.9739816 C24.179,21.3375553 24.371,21.8010346 24.371,22.3654493 C24.371,22.9607627 24.179,23.4242419 23.794,23.7878157 C23.406,24.1534493 22.925,24.3522304 22.411,24.3522304 C21.863,24.3522304 21.413,24.1544793 21.028,23.7878157 C20.643,23.3923134 20.449,22.9288341 20.449,22.3654493 C20.449,21.8010346 20.643,21.3375553 21.028,20.9739816 C21.414,20.5753894 21.863,20.4095668 22.411,20.4095668 C22.957,20.4095668 23.406,20.5764194 23.794,20.9739816 Z" id="Shape"></path>
                <path d="M43.374,0.704488479 L43.374,3.12282028 L32.184,3.12282028 L31.413,11.0380161 L31.542,11.0380161 C32.184,10.2439217 33.021,9.64757834 34.017,9.24898618 C34.917,8.85348387 35.883,8.68869124 36.944,8.68869124 C39.131,8.68869124 40.9,9.38185023 42.25,10.8083364 C43.602,12.2636613 44.308,14.2504424 44.308,16.8006083 C44.308,19.1859816 43.473,21.1418641 41.833,22.6641359 C40.288,24.0875323 38.358,24.8167396 36.108,24.8167396 C34.081,24.8167396 32.344,24.2523249 30.93,23.1276152 C29.322,21.8700415 28.455,20.1448687 28.293,17.9932949 L30.898,17.9932949 C31.025,19.4846682 31.605,20.6454263 32.633,21.4395207 C33.535,22.1326797 34.725,22.4993433 36.139,22.4993433 C37.747,22.4993433 39.066,21.9668571 40.126,20.9070346 C41.155,19.8482419 41.703,18.4887028 41.703,16.8335668 C41.703,14.9466912 41.188,13.4882765 40.224,12.4614124 C39.291,11.4015899 37.972,10.9051521 36.3,10.9051521 C35.206,10.9051521 34.242,11.1389516 33.373,11.6343594 C32.473,12.0978387 31.767,12.8270461 31.315,13.7550346 L28.807,13.7550346 L30.03,0.705518433 L43.374,0.705518433 L43.374,0.704488479 Z" id="Shape"></path>
                <polygon id="Shape" points="50.507 0.239979263 50.507 15.175341 58.835 7.22821659 62.245 7.22821659 54.913 14.1155184 62.952 24.3512005 59.64 24.3512005 53.145 15.8396613 50.508 18.2899217 50.508 24.3512005 47.935 24.3512005 47.935 0.239979263 50.507 0.239979263"></polygon>
                <path d="M77.418,10.0090922 C78.062,8.88541244 78.832,8.05526959 79.732,7.5588318 C80.536,7.03046544 81.501,6.76473733 82.658,6.76473733 C84.395,6.76473733 85.779,7.32812212 86.872,8.45386175 C87.901,9.61358986 88.447,11.1698502 88.447,13.1236728 L88.447,24.3512005 L85.874,24.3512005 L85.874,13.5552235 C85.874,12.0319217 85.553,10.9041221 84.941,10.1749147 C84.297,9.38082028 83.269,9.01724654 81.854,9.01724654 C80.76,9.01724654 79.829,9.41274885 79.121,10.2748203 C78.35,11.1368917 77.996,12.2286429 77.996,13.6190806 L77.996,24.3512005 L75.423,24.3512005 L75.423,13.5552235 C75.423,10.5086198 74.136,9.01724654 71.597,9.01724654 C70.408,9.01724654 69.441,9.48072581 68.67,10.4725714 C67.897,11.39953 67.512,12.560288 67.512,13.9187972 L67.512,24.3522304 L64.94,24.3522304 L64.94,7.22821659 L67.513,7.22821659 L67.513,9.51368433 C68.767,7.65976728 70.344,6.76576728 72.208,6.76576728 C74.749,6.76473733 76.484,7.82455991 77.418,10.0090922 Z" id="Shape"></path>
            </g>
            <g id="Group-4" transform="translate(249.000000, 208.050691)" fill="#F8D664">
                <ellipse id="Oval-5_2_" cx="15.33" cy="15.8149424" rx="7.144" ry="7.35799078"></ellipse>
                <g id="Oval-5_3_">
                    <path d="M15.33,31.4506728 C6.958,31.4506728 0.148,24.4377166 0.148,15.8149424 C0.148,7.19422811 6.958,0.179211982 15.33,0.179211982 C23.701,0.179211982 30.511,7.19422811 30.511,15.8149424 C30.511,24.4387465 23.701,31.4506728 15.33,31.4506728 Z M15.33,2.01870968 C7.945,2.01870968 1.934,8.20667281 1.934,15.8149424 C1.934,23.4211521 7.945,29.6111751 15.33,29.6111751 C22.715,29.6111751 28.725,23.4211521 28.725,15.8149424 C28.725,8.20770276 22.715,2.01870968 15.33,2.01870968 Z" id="Shape"></path>
                </g>
            </g>
            <g id="Group" transform="translate(15.000000, 214.230415)" fill="#F8D664">
                <path d="M16.011,0.704488479 L16.011,3.12282028 L4.819,3.12282028 L4.048,11.0380161 L4.175,11.0380161 C4.819,10.2439217 5.656,9.64757834 6.652,9.24898618 C7.552,8.85348387 8.518,8.68869124 9.579,8.68869124 C11.766,8.68869124 13.535,9.38185023 14.885,10.8083364 C16.237,12.2636613 16.943,14.2504424 16.943,16.8006083 C16.943,19.1859816 16.108,21.1418641 14.466,22.6641359 C12.924,24.0875323 10.993,24.8167396 8.743,24.8167396 C6.716,24.8167396 4.979,24.2523249 3.564,23.1276152 C1.956,21.8700415 1.087,20.1448687 0.927,17.9932949 L3.532,17.9932949 C3.661,19.4846682 4.239,20.6454263 5.267,21.4395207 C6.169,22.1326797 7.358,22.4993433 8.773,22.4993433 C10.381,22.4993433 11.7,21.9668571 12.76,20.9070346 C13.789,19.8482419 14.337,18.4887028 14.337,16.8335668 C14.337,14.9466912 13.822,13.4882765 12.858,12.4614124 C11.925,11.4015899 10.606,10.9051521 8.934,10.9051521 C7.84,10.9051521 6.876,11.1389516 6.007,11.6343594 C5.107,12.0978387 4.401,12.8270461 3.949,13.7550346 L1.441,13.7550346 L2.664,0.705518433 L16.011,0.705518433 L16.011,0.704488479 Z" id="Shape"></path>
                <polygon id="Shape" points="23.143 0.239979263 23.143 15.175341 31.472 7.22821659 34.882 7.22821659 27.55 14.1155184 35.589 24.3512005 32.277 24.3512005 25.782 15.8396613 23.144 18.2899217 23.144 24.3512005 20.572 24.3512005 20.572 0.239979263 23.143 0.239979263"></polygon>
                <path d="M50.053,10.0090922 C50.697,8.88541244 51.468,8.05526959 52.368,7.5588318 C53.172,7.03046544 54.137,6.76473733 55.294,6.76473733 C57.031,6.76473733 58.415,7.32812212 59.506,8.45386175 C60.535,9.61358986 61.083,11.1698502 61.083,13.1236728 L61.083,24.3512005 L58.51,24.3512005 L58.51,13.5552235 C58.51,12.0319217 58.189,10.9041221 57.577,10.1749147 C56.935,9.38082028 55.906,9.01724654 54.49,9.01724654 C53.397,9.01724654 52.466,9.41274885 51.757,10.2748203 C50.986,11.1368917 50.632,12.2286429 50.632,13.6190806 L50.632,24.3512005 L48.059,24.3512005 L48.059,13.5552235 C48.059,10.5086198 46.772,9.01724654 44.233,9.01724654 C43.042,9.01724654 42.077,9.48072581 41.306,10.4725714 C40.533,11.39953 40.148,12.560288 40.148,13.9187972 L40.148,24.3522304 L37.575,24.3522304 L37.575,7.22821659 L40.148,7.22821659 L40.148,9.51368433 C41.402,7.65976728 42.979,6.76576728 44.843,6.76576728 C47.385,6.76473733 49.12,7.82455991 50.053,10.0090922 Z" id="Shape"></path>
            </g>
            <g id="Group-2" transform="translate(357.000000, 13.389401)">
                <g id="Group-3-Copy-8" fill="#4CCEC7">
                    <g id="Group-13-Copy-2">
                        <g id="Group-13">
                            <ellipse id="Oval-3" cx="25.207" cy="26.5254332" rx="25.004" ry="25.7529677"></ellipse>
                        </g>
                    </g>
                </g>
                <g id="学校" transform="translate(7.000000, 11.329493)" fill="#111A41">
                    <path d="M6.842,16.6636244 L6.842,23.0205 L18.207,29.0941382 L29.571,23.0205 L29.571,16.6636244 L18.207,22.7352028 L6.842,16.6636244 L6.842,16.6636244 Z M18.207,0.479958525 L0.347,10.0193917 L18.207,19.556765 L32.819,11.7517742 L32.819,22.7362327 L36.066,22.7362327 L36.066,10.0193917 L18.207,0.479958525 Z" id="Shape"></path>
                </g>
            </g>
            <g id="Group-2-Copy" transform="translate(0.000000, 329.585253)">
                <g id="Group-3-Copy-8_1_" fill="#AAE0A1">
                    <g id="Group-13-Copy-2_1_">
                        <g id="Group-13_1_">
                            <ellipse id="Oval-3_1_" cx="25.004" cy="26.7252442" rx="25.004" ry="25.7529677"></ellipse>
                        </g>
                    </g>
                </g>
                <g id="学校_1_" transform="translate(7.000000, 11.329493)" fill="#111A41">
                    <path d="M6.639,16.8613756 L6.639,23.221341 L18.004,29.2939493 L29.369,23.221341 L29.369,16.8613756 L18.004,22.9339839 L6.639,16.8613756 L6.639,16.8613756 Z M18.004,0.679769585 L0.144,10.2192028 L18.004,19.757606 L32.617,11.9505553 L32.617,22.9339839 L35.865,22.9339839 L35.865,10.2192028 L18.004,0.679769585 Z" id="Shape_1_"></path>
                </g>
            </g>
            <g id="Group-2-Copy-2" transform="translate(25.000000, 69.006912)">
                <g id="Group-3-Copy-8_2_" fill="#FED138">
                    <g id="Group-13-Copy-2_2_">
                        <g id="Group-13_2_">
                            <ellipse id="Oval-3_2_" cx="25.008" cy="26.0928525" rx="25.004" ry="25.7529677"></ellipse>
                        </g>
                    </g>
                </g>
                <g id="学校_2_" transform="translate(7.000000, 11.329493)" fill="#111A41">
                    <path d="M6.644,16.2320737 L6.644,22.5889493 L18.009,28.6625876 L29.374,22.5889493 L29.374,16.2320737 L18.009,22.3036521 L6.644,16.2320737 L6.644,16.2320737 Z M18.008,0.0473778802 L0.148,9.58578111 L18.008,19.1231544 L32.621,11.3181636 L32.621,22.3036521 L35.868,22.3036521 L35.868,9.58681106 L18.008,0.0473778802 Z" id="Shape_2_"></path>
                </g>
            </g>
            <g id="Group-2-Copy-3" transform="translate(392.000000, 340.914747)">
                <g id="Group-3-Copy-8_3_" fill="#AAE0A1">
                    <g id="Group-13-Copy-2_3_">
                        <g id="Group-13_3_">
                            <ellipse id="Oval-3_3_" cx="25.927" cy="26.4327373" rx="25.004" ry="25.7529677"></ellipse>
                        </g>
                    </g>
                </g>
                <g id="学校_3_" transform="translate(8.000000, 11.329493)" fill="#111A41">
                    <path d="M6.562,16.5698986 L6.562,22.9288341 L17.927,29.0014424 L29.292,22.9288341 L29.292,16.5698986 L17.927,22.641477 L6.562,16.5698986 L6.562,16.5698986 Z M17.927,0.387262673 L0.067,9.92669585 L17.927,19.466129 L32.539,11.6590783 L32.539,22.641477 L35.787,22.641477 L35.787,9.92669585 L17.927,0.387262673 Z" id="Shape_3_"></path>
                </g>
            </g>
            <g id="Group-2-Copy-5" transform="translate(292.000000, 149.343318)">
                <g id="Group-3-Copy-8_4_" fill="#34BCEB">
                    <g id="Group-13-Copy-2_4_">
                        <g id="Group-13_4_">
                            <ellipse id="Oval-3_4_" cx="25.91" cy="26.6953756" rx="25.004" ry="25.7529677"></ellipse>
                        </g>
                    </g>
                </g>
                <g id="学校_4_" transform="translate(8.000000, 11.329493)" fill="#111A41">
                    <path d="M6.545,16.8335668 L6.545,23.1914724 L17.91,29.2651106 L29.275,23.1914724 L29.275,16.8335668 L17.91,22.9051452 L6.545,16.8335668 L6.545,16.8335668 Z M17.91,0.649900922 L0.05,10.1893341 L17.91,19.7267074 L32.522,11.9206866 L32.522,22.9061751 L35.77,22.9061751 L35.77,10.1893341 L17.91,0.649900922 Z" id="Shape_4_"></path>
                </g>
            </g>
            <g id="Group-2-Copy-6" transform="translate(146.000000, 256.458525)">
                <g id="Group-3-Copy-8_5_" fill="#EA484D">
                    <g id="Group-13-Copy-2_5_">
                        <g id="Group-13_5_">
                            <ellipse id="Oval-3_5_" cx="25.457" cy="26.2720645" rx="25.004" ry="25.7529677"></ellipse>
                        </g>
                    </g>
                </g>
                <g id="帮助中心_文化体育" transform="translate(11.000000, 11.329493)" fill="#111A41">
                    <path d="M28.742,8.82361521 C23.217,8.82361521 18.209,10.7599286 14.454,13.9002581 C10.703,10.7527189 5.695,8.82361521 0.169,8.82361521 L0.169,24.5819101 C5.694,24.5819101 10.702,26.5182235 14.457,29.658553 C18.212,26.5182235 23.22,24.5819101 28.745,24.5819101 L28.745,8.82361521 L28.742,8.82361521 L28.742,8.82361521 Z M14.457,8.82361521 C16.894,8.82361521 18.877,6.89451152 18.877,4.52252765 C18.877,2.15466359 16.894,0.225559908 14.457,0.225559908 C12.02,0.225559908 10.041,2.15878341 10.041,4.52973733 C10.041,6.89760138 12.017,8.82361521 14.457,8.82361521 Z" id="Shape_5_"></path>
                </g>
            </g>
            <g id="Group-2-Copy-4" transform="translate(417.000000, 76.216590)">
                <g id="Group-3-Copy-8_6_" fill="#4CCEC7">
                    <g id="Group-13-Copy-2_6_">
                        <g id="Group-13_6_">
                            <ellipse id="Oval-3_6_" cx="25.931" cy="26.2421959" rx="25.004" ry="25.7529677"></ellipse>
                        </g>
                    </g>
                </g>
                <g id="学校_5_" transform="translate(8.000000, 11.329493)" fill="#111A41">
                    <path d="M6.566,16.3793571 L6.566,22.7372627 L17.93,28.8109009 L29.295,22.7372627 L29.295,16.3793571 L17.93,22.4519654 L6.566,16.3793571 L6.566,16.3793571 Z M17.931,0.195691244 L0.071,9.73512442 L17.931,19.2724977 L32.543,11.466477 L32.543,22.4519654 L35.791,22.4519654 L35.791,9.73512442 L17.931,0.195691244 Z" id="Shape_6_"></path>
                </g>
            </g>
        </g>
    </g>
</svg>