<?xml version="1.0" encoding="UTF-8"?>
<svg width="481px" height="447px" viewBox="0 0 481 447" version="1.1" xmlns="http://www.w3.org/2000/svg" xmlns:xlink="http://www.w3.org/1999/xlink">
    <!-- Generator: Sketch 46.2 (44496) - http://www.bohemiancoding.com/sketch -->
    <title>food</title>
    <desc>Created with Sketch.</desc>
    <defs></defs>
    <g id="Page-1" stroke="none" stroke-width="1" fill="none" fill-rule="evenodd">
        <g id="food" fill-rule="nonzero">
            <g id="Group-5" transform="translate(50.419287, 40.127349)">
                <g id="Oval-5" transform="translate(33.276730, 0.000000)">
                    <ellipse id="Oval" fill="#0B1A41" cx="198.583421" cy="184.662326" rx="196.484971" ry="181.833814"></ellipse>
                    <path d="M198.576363,368.397056 C196.807654,368.397056 194.999618,368.37466 193.208725,368.3308 L193.318639,364.528033 C195.073231,364.57096 196.844964,364.592424 198.583421,364.592424 L199.422398,364.591491 L199.436516,368.396123 L198.576363,368.397056 Z M205.661281,368.283207 L205.516073,364.480441 C207.53587,364.41605 209.585918,364.318998 211.611765,364.19395 L211.883021,367.991117 C209.816839,368.117098 207.722421,368.216017 205.661281,368.283207 Z M186.986985,368.090035 C184.92887,367.979919 182.839495,367.83714 180.775329,367.668232 L181.140365,363.87853 C183.160161,364.044639 185.207184,364.183685 187.223956,364.290069 L186.986985,368.090035 Z M218.089635,367.52172 L217.692331,363.735752 C219.700027,363.554712 221.739992,363.340077 223.751721,363.099313 L224.280115,366.871284 C222.224017,367.11858 220.142709,367.336948 218.089635,367.52172 Z M174.580816,367.066322 C172.521692,366.837689 170.444417,366.574528 168.408486,366.287104 L169.028644,362.526332 C171.023231,362.80909 173.056136,363.064785 175.072908,363.290618 L174.580816,367.066322 Z M230.443369,366.043541 L229.791952,362.288367 C231.786539,361.991612 233.804319,361.659395 235.795881,361.301048 L236.577379,365.037557 C234.545482,365.40057 232.480308,365.740253 230.443369,366.043541 Z M162.267417,365.33058 C160.242579,364.983432 158.187488,364.601756 156.160633,364.193017 L157.033895,360.476104 C159.018398,360.876445 161.031136,361.249722 163.013623,361.588472 L162.267417,365.33058 Z M242.67408,363.850534 L241.765524,360.141088 C243.752044,359.723017 245.746631,359.27415 247.690799,358.804754 L248.726411,362.486205 C246.741908,362.965866 244.704969,363.424065 242.67408,363.850534 Z M150.095193,362.878146 C148.103631,362.415282 146.078792,361.914157 144.078155,361.386902 L145.203514,357.727848 C147.162807,358.243904 149.145294,358.733831 151.095512,359.18643 L150.095193,362.878146 Z M254.728323,360.946434 L253.570696,357.296712 C255.507805,356.77039 257.46609,356.204875 259.392107,355.618829 L260.67679,359.232157 C258.70943,359.831267 256.707784,360.407981 254.728323,360.946434 Z M138.113553,359.719284 C136.139134,359.136038 134.147572,358.51453 132.191304,357.872493 L133.564725,354.287161 C135.47965,354.9152 137.430876,355.52271 139.363952,356.094758 L138.113553,359.719284 Z M266.56173,357.343372 L265.15604,353.769238 C267.038696,353.133733 268.956646,352.456234 270.852411,351.753539 L272.380115,355.284745 C270.444015,356.002372 268.486738,356.694802 266.56173,357.343372 Z M126.337625,355.853994 C124.421692,355.161564 122.476516,354.425273 120.556549,353.66472 L122.172992,350.167109 C124.053631,350.910864 125.958472,351.632223 127.833061,352.309722 L126.337625,355.853994 Z M278.109763,353.061877 L276.462061,349.57733 C278.29934,348.833574 280.161828,348.046891 281.994065,347.239678 L283.760757,350.675699 C281.888184,351.49971 279.987377,352.302257 278.109763,353.061877 Z M114.854128,351.307472 C112.994665,350.506791 111.10495,349.657585 109.237419,348.786914 L111.087807,345.389154 C112.91601,346.243027 114.767407,347.07357 116.588551,347.858386 L114.854128,351.307472 Z M289.329063,348.12528 L287.448423,344.742451 C289.236291,343.890445 291.04231,342.997378 292.815052,342.085647 L294.810648,345.412484 C293.000595,346.341946 291.156258,347.25461 289.329063,348.12528 Z M103.710457,346.102115 C101.894354,345.186651 100.067159,344.230127 98.2792914,343.258672 L100.359591,339.977562 C102.110149,340.928486 103.899025,341.863547 105.677818,342.76128 L103.710457,346.102115 Z M300.199461,342.540113 L298.090927,339.273 C299.830392,338.313676 301.571874,337.316092 303.271004,336.310109 L305.487436,339.514697 C303.754021,340.542144 301.97422,341.559326 300.199461,342.540113 Z M92.9499727,340.261253 C91.1903396,339.235672 89.4317149,338.176497 87.7245178,337.109856 L90.0226289,333.95566 C91.6945325,334.999904 93.4168553,336.037616 95.1401866,337.042666 L92.9499727,340.261253 Z M310.672556,336.335305 L308.349235,333.19604 C310.022147,332.134998 311.695059,331.039428 313.320577,329.938259 L315.749778,333.006601 C314.089975,334.132033 312.380761,335.251866 310.672556,336.335305 Z M82.6099853,333.810081 C80.936065,332.693981 79.2540776,331.534954 77.6114172,330.366595 L80.1162474,327.350511 C81.725631,328.495541 83.3733333,329.631238 85.0129686,330.724942 L82.6099853,333.810081 Z M320.715069,329.532319 L318.180996,326.535833 C319.784329,325.375873 321.380604,324.183251 322.925451,322.992495 L325.556329,325.916192 C323.979214,327.132144 322.349662,328.348096 320.715069,329.532319 Z M72.7308302,326.775664 C71.1385891,325.566244 69.5392893,324.312031 67.9762914,323.04942 L70.6817904,320.185447 C72.2125199,321.421929 73.7795514,322.650946 75.3385157,323.835169 L72.7308302,326.775664 Z M330.277591,322.159152 L327.549908,319.31291 C329.063495,318.070829 330.577082,316.78862 332.048317,315.502678 L334.870788,318.268666 C333.368294,319.582603 331.823447,320.890942 330.277591,322.159152 Z M63.3498176,319.185996 C61.837239,317.883257 60.3246604,316.54039 58.8564507,315.194724 L61.748501,312.492194 C63.1874675,313.809864 64.6677778,315.125668 66.1490964,316.402278 L63.3498176,319.185996 Z M339.330878,314.246599 L336.41866,311.562733 C337.835442,310.245063 339.260291,308.877933 340.651864,307.499605 L343.655845,310.096685 C342.235029,311.504875 340.779929,312.900933 339.330878,314.246599 Z M54.5012327,311.073739 C53.0794088,309.686079 51.6616184,308.259225 50.2871887,306.831438 L53.3567149,304.301549 C54.7019015,305.698541 56.0904486,307.096466 57.4840377,308.456129 L54.5012327,311.073739 Z M347.839637,305.825455 L344.748935,303.317029 C346.08908,301.902307 347.41914,300.455856 348.703824,299.014071 L351.876205,301.434777 C350.565304,302.905491 349.207008,304.38367 347.839637,305.825455 Z M46.2193606,302.470622 C44.8993836,301.010173 43.5804151,299.503998 42.3007736,297.995023 L45.5346667,295.646173 C46.7880901,297.124353 48.0788239,298.5988 49.3725828,300.029386 L46.2193606,302.470622 Z M355.763532,296.922783 L352.511488,294.597263 C353.751803,293.110685 354.982034,291.589578 356.167895,290.073138 L359.497585,292.304405 C358.286514,293.851641 357.031073,295.405409 355.763532,296.922783 Z M38.5364696,293.409307 C37.3122893,291.86767 36.0981929,290.289639 34.9294738,288.720006 L38.3146247,286.562461 C39.4601509,288.101299 40.6480294,289.647601 41.8480084,291.157509 L38.5364696,293.409307 Z M363.076346,287.580576 L359.672036,285.448228 C360.811512,283.889793 361.93687,282.298697 363.016851,280.7188 L366.49074,282.753163 C365.388574,284.364789 364.240023,285.98948 363.076346,287.580576 Z M31.4828113,283.926188 C30.3624948,282.313628 29.2583124,280.670273 28.2015241,279.03905 L31.7268407,277.082142 C32.7624528,278.678837 33.8434423,280.28953 34.940566,281.868495 L31.4828113,283.926188 Z M369.744801,277.824031 L366.201333,275.894186 C367.239971,274.260163 368.256423,272.607476 369.22044,270.977186 L372.825419,272.805313 C371.841235,274.467332 370.804614,276.156413 369.744801,277.824031 Z M25.0876289,274.05766 C24.0863019,272.395641 23.0960671,270.691628 22.1451593,268.991349 L25.7955157,267.24161 C26.7272642,268.906428 27.6973312,270.576846 28.6774822,272.20247 L25.0876289,274.05766 Z M375.739654,267.695142 L372.071147,265.975265 C372.996845,264.286184 373.898342,262.575639 374.751436,260.89029 L378.474396,262.503783 C377.603151,264.225526 376.683503,265.972466 375.739654,267.695142 Z M19.3741153,263.842916 C18.489761,262.131438 17.6175073,260.373301 16.7825639,258.618896 L20.5438428,257.083791 C21.362652,258.803668 22.2167547,260.524478 23.0829581,262.199562 L19.3741153,263.842916 Z M381.033679,257.231236 L377.258283,255.728793 C378.066,253.990253 378.848507,252.229315 379.585637,250.496374 L383.411453,251.887766 C382.660205,253.658035 381.859547,255.456301 381.033679,257.231236 Z M14.3705052,253.323019 C13.6000985,251.553683 12.8478428,249.744219 12.1328973,247.943154 L15.9919895,246.632017 C16.6918092,248.396687 17.4289392,250.168823 18.1832117,251.899898 L14.3705052,253.323019 Z M385.606709,246.474307 L381.734507,245.194898 C382.417184,243.428361 383.078686,241.624497 383.70086,239.832764 L387.614405,240.99739 C386.978113,242.828317 386.302495,244.670443 385.606709,246.474307 Z M10.0798239,242.497033 C9.43042348,240.68477 8.80320755,238.834246 8.21431027,236.998653 L12.1560901,235.916148 C12.7318784,237.714413 13.3469937,239.52481 13.9822767,241.301612 L10.0798239,242.497033 Z M389.430507,235.482213 L385.478644,234.434236 C386.037289,232.630372 386.572742,230.796645 387.068868,228.982516 L391.053,229.917576 C390.545782,231.7681 390.000245,233.641021 389.430507,235.482213 Z M6.53736478,231.445215 C6.01300419,229.597491 5.51284486,227.713372 5.05100419,225.846983 L9.05832914,224.997777 C9.51109434,226.825904 10.0001614,228.670829 10.5134298,230.479359 L6.53736478,231.445215 Z M392.486925,224.305347 L388.473549,223.487868 C388.907155,221.662541 389.31656,219.802685 389.688654,217.95776 L393.729256,218.655789 C393.348086,220.540841 392.930614,222.440825 392.486925,224.305347 Z M3.7562369,220.207691 C3.35691614,218.326372 2.98583019,216.417056 2.65407128,214.533871 L6.71080713,213.921695 C7.03651572,215.765687 7.39953459,217.633942 7.78977987,219.476067 L3.7562369,220.207691 Z M394.776969,212.97637 L390.715191,212.393123 C391.023757,210.556597 391.305096,208.676211 391.553159,206.80329 L395.634096,207.265221 C395.379983,209.180136 395.091585,211.100649 394.776969,212.97637 Z M1.74551572,208.832054 C1.47627673,206.935804 1.23628092,205.008758 1.03157862,203.104109 L5.12259958,202.728031 C5.32326834,204.592553 5.55923061,206.480405 5.82241929,208.335595 L1.74551572,208.832054 Z M396.293581,201.537276 L392.200543,201.191061 C392.384069,199.329338 392.537344,197.435887 392.659358,195.5611 L396.761472,195.786933 C396.640465,197.701848 396.483157,199.635426 396.293581,201.537276 Z M0.510243187,197.362165 C0.368060797,195.45005 0.258146751,193.513672 0.18251782,191.60529 L4.29068134,191.464378 C4.36530189,193.334499 4.47319916,195.231683 4.61235639,197.102737 L0.510243187,197.362165 Z M397.037769,190.029125 L392.929606,189.919942 C392.984059,188.192599 393.010277,186.423263 393.010277,184.662326 L393.010277,184.270384 L397.121465,184.270384 L397.121465,184.662326 C397.121465,186.459658 397.092222,188.265388 397.037769,190.029125 Z M0.04739413,185.845616 L0.043360587,184.661392 C0.043360587,183.130021 0.0635283019,181.604248 0.103863732,180.082209 L4.21404403,180.177395 C4.17471698,181.668639 4.15454927,183.162683 4.15454927,184.662326 L4.15858281,185.824152 L0.04739413,185.845616 Z M392.903388,178.630159 C392.835826,176.740441 392.735996,174.842324 392.607931,172.989 L396.710044,172.74637 C396.841134,174.637954 396.941973,176.575265 397.01256,178.502311 L392.903388,178.630159 Z M4.45807338,174.535303 L0.35293501,174.325334 C0.4668826,172.423484 0.615115304,170.488973 0.794607966,168.575925 L4.89067086,168.904409 C4.71420335,170.778263 4.56899581,172.672647 4.45807338,174.535303 Z M392.122897,167.362772 C391.929287,165.482386 391.701392,163.593601 391.449296,161.751476 L395.528216,161.271814 C395.785354,163.153134 396.016275,165.08018 396.216943,166.99976 L392.122897,167.362772 Z M5.51183648,163.288447 L1.4288826,162.841447 C1.67291195,160.935864 1.9522348,159.013484 2.25878407,157.128432 L6.323587,157.693948 C6.02308805,159.538873 5.7508239,161.421125 5.51183648,163.288447 Z M390.584101,156.162576 C390.269484,154.325117 389.914532,152.454063 389.532354,150.602605 L393.568922,149.887779 C393.961184,151.77843 394.322187,153.688678 394.64487,155.565332 L390.584101,156.162576 Z M7.32390566,152.124645 L3.28027883,151.44248 C3.65237317,149.556495 4.06076939,147.653712 4.49538365,145.788257 L8.51380084,146.589871 C8.08927044,148.415198 7.6889413,150.277854 7.32390566,152.124645 Z M388.291031,145.07623 C387.846333,143.24437 387.365333,141.397578 386.86114,139.588115 L390.841239,138.639056 C391.356524,140.485848 391.8466,142.371833 392.301382,144.241954 L388.291031,145.07623 Z M9.89327254,141.089624 L5.90409853,140.172294 C6.40425786,138.311505 6.94172746,136.437651 7.50238994,134.599259 L11.4582872,135.633238 C10.9097254,137.43337 10.383348,139.268962 9.89327254,141.089624 Z M385.24369,134.145727 C384.677985,132.353994 384.073962,130.539864 383.442713,128.754664 L387.350208,127.57324 C387.995574,129.397635 388.612706,131.250958 389.189503,133.081885 L385.24369,134.145727 Z M13.2098532,130.227244 L9.29126625,129.077549 C9.91545702,127.255954 10.5830084,125.410096 11.2737526,123.592234 L15.1520042,124.855779 C14.474369,126.63538 13.8219434,128.442977 13.2098532,130.227244 Z M381.456193,123.41586 C380.766457,121.65119 380.038403,119.876255 379.29018,118.138647 L383.109945,116.73139 C383.873294,118.506326 384.617482,120.319522 385.322344,122.120587 L381.456193,123.41586 Z M17.2756646,119.546837 L13.4437987,118.169443 C14.1970629,116.375843 14.9886457,114.573846 15.7973711,112.814775 L19.579826,114.303219 C18.7882432,116.025896 18.0138029,117.790566 17.2756646,119.546837 Z M376.952742,112.944489 C376.14805,111.233944 375.303023,109.509401 374.439845,107.818453 L378.155746,106.191896 C379.039092,107.918305 379.901262,109.680175 380.723096,111.427115 L376.952742,112.944489 Z M22.0614633,109.133324 L18.3314444,107.533829 C19.1986562,105.800887 20.1122537,104.050215 21.0440021,102.331271 L24.7185597,104.03715 C23.8049623,105.720633 22.9115325,107.435843 22.0614633,109.133324 Z M371.75048,102.76614 C370.838899,101.116253 369.877908,99.4430355 368.892715,97.7950146 L372.491644,95.9547557 C373.495996,97.6391712 374.479172,99.3478497 375.409912,101.033198 L371.75048,102.76614 Z M27.5460734,99.0240313 L23.9320189,97.2099019 C24.9192285,95.52362 25.9497987,93.8308058 26.9924696,92.178119 L30.5419874,94.095833 C29.521501,95.7149248 28.5131153,97.3722777 27.5460734,99.0240313 Z M365.864532,92.9050772 C364.830937,91.2934509 363.758015,89.6790251 362.674,88.1056597 L366.14083,86.0600981 C367.248038,87.6670585 368.345161,89.3169457 369.398925,90.962167 L365.864532,92.9050772 Z M33.7042851,89.2581545 L30.2203124,87.2387223 C31.3134025,85.6224301 32.4559036,83.9930731 33.6145388,82.3963779 L37.0279245,84.5156618 C35.8934906,86.0806284 34.7761992,87.6754572 33.7042851,89.2581545 Z M359.319101,83.3986284 C358.185675,81.8616576 357.004855,80.3106889 355.80891,78.7914489 L359.130532,76.5508497 C360.353704,78.1027516 361.559734,79.6854489 362.716352,81.2560146 L359.319101,83.3986284 Z M40.5098805,79.8739541 L37.1701069,77.6557516 C38.3721027,76.1066493 39.6214927,74.548215 40.8839916,73.0224426 L44.1481363,75.3348977 C42.910847,76.8298747 41.6866667,78.3565804 40.5098805,79.8739541 Z M352.142419,74.2859875 C350.897063,72.803142 349.613388,71.3240292 348.326688,69.8887766 L351.489994,67.4596722 C352.805937,68.9257203 354.11583,70.4374948 355.388413,71.9511357 L352.142419,74.2859875 Z M47.9336164,70.9059582 L44.7501426,68.4992505 C46.0590273,67.0173382 47.4102642,65.5335595 48.766543,64.0899081 L51.8683375,66.5871357 C50.5392851,68.0009248 49.2152746,69.4539081 47.9336164,70.9059582 Z M344.360706,65.6007495 C343.024595,64.2000251 341.642099,62.796501 340.253551,61.4293716 L343.248457,58.8238935 C344.666247,60.219952 346.077987,61.652405 347.442333,63.0829916 L344.360706,65.6007495 Z M55.9462495,62.3868288 L52.9311761,59.8009478 C54.3308155,58.403023 55.7798658,57.0013653 57.2369832,55.6342359 L60.1633187,58.3050376 C58.7354444,59.6451044 57.3176541,61.0168998 55.9462495,62.3868288 Z M336.005222,57.3774426 C334.578356,56.0579061 333.104096,54.7365031 331.622778,53.4496284 L334.437182,50.6761754 C335.949761,51.9901127 337.454273,53.3395115 338.91139,54.6861106 L336.005222,57.3774426 Z M64.5134948,54.3492276 L61.677914,51.5944384 C63.1763753,50.2730355 64.7161803,48.9590981 66.2529602,47.6862213 L68.9937526,50.5221983 C67.4892411,51.7680125 65.9817044,53.0558205 64.5134948,54.3492276 Z M327.110252,49.6496618 C325.607757,48.4234447 324.046776,47.1888288 322.470669,45.9812756 L325.092472,43.0510459 C326.701855,44.2837954 328.295105,45.5445407 329.829868,46.7968873 L327.110252,49.6496618 Z M73.6020755,46.8248831 L70.9570797,43.9123841 C72.5352034,42.686167 74.1587044,41.4627495 75.7842222,40.2766597 L78.3293878,43.2638142 C76.7381551,44.4247077 75.1479308,45.622929 73.6020755,46.8248831 Z M317.708063,42.4482025 C316.097671,41.2919749 314.456019,40.1497453 312.827476,39.0532422 L315.245585,35.9774342 C316.908413,37.096334 318.585358,38.2628267 320.228019,39.4423841 L317.708063,42.4482025 Z M83.1756897,39.8427244 L80.7323711,36.7827808 C82.3911656,35.6498831 84.0933208,34.5235177 85.7944675,33.4344802 L88.132914,36.5634802 C86.4660524,37.6291879 84.7991908,38.7331566 83.1756897,39.8427244 Z M307.83395,35.8019937 C306.169105,34.7521503 304.451824,33.7079061 302.730509,32.6953904 L304.936857,29.4852025 C306.692457,30.5182484 308.445031,31.5848894 310.147187,32.6571294 L307.83395,35.8019937 Z M93.1970273,33.4298142 L90.9644612,30.2345574 C92.6958595,29.1987119 94.4716268,28.1731315 96.2403354,27.1867453 L98.361979,30.4445261 C96.6295723,31.410382 94.8921237,32.4154322 93.1970273,33.4298142 Z M297.524214,29.7371649 C295.785757,28.7843737 294.001922,27.8409144 292.219096,26.9329165 L294.202591,23.6004802 C296.023736,24.5280752 297.845889,25.4920647 299.619639,26.4653862 L297.524214,29.7371649 Z M103.625753,27.6122818 L101.615031,24.2938434 C103.42105,23.3578497 105.260346,22.4367871 107.083507,21.5595846 L108.980281,24.9349478 C107.195438,25.7934864 105.394461,26.694952 103.625753,27.6122818 Z M286.820199,24.2845115 C285.016197,23.4325052 283.168834,22.5935637 281.332564,21.7928831 L283.085138,18.351263 C284.960736,19.1687411 286.845409,20.0244802 288.689746,20.8951503 L286.820199,24.2845115 Z M114.42153,22.4143904 L112.639713,18.9858351 C114.493126,18.1608914 116.390908,17.3499457 118.279614,16.5753946 L119.944459,20.0534092 C118.096088,20.8130292 116.237633,21.6071775 114.42153,22.4143904 Z M275.760224,19.4636305 C273.898744,18.7180084 271.998945,17.9891837 270.110239,17.2976868 L271.623826,13.760881 C273.55186,14.4663758 275.493002,15.2110647 277.393809,15.9725511 L275.760224,19.4636305 Z M125.543017,17.8576033 L123.997161,14.3319958 C125.908052,13.6153027 127.862304,12.9144739 129.806472,12.2500397 L131.231321,15.8185741 C129.328497,16.4690104 127.414581,17.1558413 125.543017,17.8576033 Z M264.388658,15.2969186 C262.481801,14.6623466 260.535616,14.0464384 258.598507,13.4650585 L259.867057,9.84706472 C261.844501,10.4405762 263.834046,11.0704823 265.779222,11.7171858 L264.388658,15.2969186 Z M136.98517,13.9465866 L135.684352,10.3379248 C137.638604,9.73414823 139.636216,9.14996868 141.623744,8.59938413 L142.801539,12.2435073 C140.856363,12.7828935 138.899086,13.3558747 136.98517,13.9465866 Z M252.763987,11.8105052 C250.833937,11.2925825 248.854476,10.7923904 246.881065,10.3267265 L247.899535,6.6406096 C249.914289,7.11653862 251.937111,7.62699582 253.910522,8.1570501 L252.763987,11.8105052 Z M148.673369,10.7149353 L147.621623,7.03721712 C149.62226,6.54729019 151.657182,6.08069311 153.667904,5.65049061 L154.592593,9.35713779 C152.624224,9.77707516 150.632662,10.2343403 148.673369,10.7149353 Z M240.947723,9.01465553 C238.986413,8.61058246 236.9767,8.22797286 234.974046,7.87709186 L235.738403,4.13871608 C237.784417,4.49799582 239.837491,4.88807098 241.841153,5.30147599 L240.947723,9.01465553 Z M160.556187,8.17104802 L159.757545,4.43920459 C161.779358,4.06872651 163.840499,3.72064509 165.884497,3.40709186 L166.55709,7.16039875 C164.556453,7.46741962 162.536656,7.8071023 160.556187,8.17104802 Z M228.965075,6.91403549 C226.970488,6.62381211 224.938591,6.35971816 222.923836,6.12641962 L223.433071,2.35164927 C225.491187,2.58961378 227.566444,2.85930689 229.601367,3.15512944 L228.965075,6.91403549 Z M172.590262,6.32518998 L172.046742,2.5541524 C174.095782,2.30125678 176.17709,2.07355741 178.233189,1.88038622 L178.648644,5.66542171 C176.635906,5.85392693 174.597958,6.07602714 172.590262,6.32518998 Z M216.859405,5.51517745 C214.837591,5.34160334 212.791577,5.19509186 210.776822,5.07937578 L211.031943,1.28314196 C213.088042,1.40072443 215.177417,1.55096868 217.240574,1.72827557 L216.859405,5.51517745 Z M184.726184,5.18109395 L184.437786,1.38579332 C186.491868,1.25141336 188.584268,1.14596242 190.657509,1.0703737 L190.817843,4.87220668 C188.787962,4.94686221 186.738922,5.04951357 184.726184,5.18109395 Z M204.684155,4.81808142 C202.114788,4.74342589 199.506094,4.71729645 196.911518,4.73782672 L196.878241,0.933194154 C199.512145,0.912663883 202.1884,0.939726514 204.810203,1.01438205 L204.684155,4.81808142 Z" id="Shape" fill="#5EBBE6"></path>
                </g>
                <g id="Oval-5_1_" transform="translate(121.006289, 82.121086)">
                    <ellipse id="Oval" fill="#0B163D" cx="110.799409" cy="102.488981" rx="107.805512" ry="99.7668539"></ellipse>
                    <path d="M110.799409,204.157685 L110.4737,204.157685 L110.4737,200.353985 L110.799409,200.353985 C112.706266,200.353985 114.6343,200.306392 116.528048,200.213073 L116.746868,204.011173 C114.780516,204.108225 112.779878,204.157685 110.799409,204.157685 Z M104.193474,203.976645 C102.116199,203.863729 100.012706,203.692021 97.938457,203.468987 L98.4144151,199.690484 C100.41001,199.904186 102.436866,200.069361 104.436495,200.179478 L104.193474,203.976645 Z M123.006927,203.536177 L122.55517,199.753942 C124.544715,199.550505 126.55947,199.291077 128.542964,198.981257 L129.227658,202.732697 C127.165509,203.054649 125.072101,203.325276 123.006927,203.536177 Z M91.7207505,202.629113 C89.6616268,202.295962 87.5914109,201.903088 85.5695975,201.463553 L86.509413,197.759706 C88.4566059,198.183376 90.4481677,198.559453 92.4316625,198.882338 L91.7207505,202.629113 Z M135.386878,201.600733 L134.470256,197.893152 C136.424507,197.478814 138.394893,197.006618 140.322927,196.489628 L141.466436,200.143084 C139.463782,200.681537 137.418776,201.171463 135.386878,201.600733 Z M79.4981069,199.971376 C77.4934361,199.420791 75.4837233,198.811415 73.5284633,198.157246 L74.9230608,194.57938 C76.8047086,195.20742 78.7367757,195.794399 80.6658176,196.324453 L79.4981069,199.971376 Z M147.44818,198.362549 L146.077784,194.775351 C147.962457,194.159443 149.856205,193.481944 151.704577,192.764317 L153.295809,196.271261 C151.373826,197.018749 149.406465,197.722378 147.44818,198.362549 Z M67.6737757,196.024898 C65.7538092,195.267144 63.831826,194.445933 61.9612704,193.584595 L63.7914906,190.177503 C65.5914591,191.007113 67.4408386,191.796595 69.2871929,192.527286 L67.6737757,196.024898 Z M159.006298,193.873885 L157.19927,190.455595 C159.000247,189.639983 160.799208,188.76558 162.544723,187.859449 L164.560486,191.175088 C162.7464,192.118547 160.876853,193.025612 159.006298,193.873885 Z M56.4131321,190.84567 C54.6000545,189.888213 52.7930273,188.869165 51.043478,187.817455 L53.2831027,184.627797 C54.9671069,185.640313 56.7055639,186.620167 58.4500713,187.54123 L56.4131321,190.84567 Z M169.939216,188.1842 L167.723792,184.979612 C169.414855,183.979228 171.094826,182.920052 172.718327,181.832881 L175.127361,184.915221 C173.440331,186.044386 171.695824,187.144622 169.939216,188.1842 Z M45.8714675,184.511148 C44.1914969,183.368919 42.5236268,182.167898 40.9142432,180.939814 L43.5299958,178.003985 C45.0798847,179.188209 46.6862432,180.34537 48.3036939,181.443739 L45.8714675,184.511148 Z M180.108786,181.376549 L177.513201,178.426722 C179.075191,177.249965 180.614996,176.020015 182.091273,174.773267 L184.863325,177.581248 C183.330579,178.876522 181.73027,180.154998 180.108786,181.376549 Z M36.1839057,177.113718 C34.6592264,175.807246 33.149673,174.439184 31.6986059,173.046858 L34.6572096,170.404985 C36.0548323,171.746919 37.5079161,173.064589 38.9771342,174.321601 L36.1839057,177.113718 Z M189.378876,173.542384 L186.437415,170.881848 C187.838063,169.556712 189.218543,168.173718 190.539528,166.770194 L193.638298,169.271154 C192.265885,170.727871 190.83196,172.16499 189.378876,173.542384 Z M27.4694361,168.747633 C26.1101321,167.287184 24.7790629,165.768877 23.5125304,164.236572 L26.7776834,161.923184 C27.9968218,163.398564 29.2784801,164.859013 30.5863564,166.267203 L27.4694361,168.747633 Z M197.632514,164.779691 L194.385512,162.446706 C195.615742,160.981591 196.81673,159.461418 197.957214,157.929113 L201.342365,160.085724 C200.156503,161.678687 198.90913,163.257651 197.632514,164.779691 Z M19.8399895,159.524875 C18.6702621,157.930979 17.5358281,156.282958 16.4649224,154.629338 L19.9912474,152.674296 C21.0218176,154.267259 22.1159161,155.853689 23.2412746,157.388793 L19.8399895,159.524875 Z M204.757767,155.200453 L201.24556,153.225814 C202.287222,151.638451 203.293591,150.000695 204.238449,148.35734 L207.868637,150.142541 C206.88647,151.850286 205.840774,153.553365 204.757767,155.200453 Z M13.397413,149.562094 C12.4303711,147.852482 11.5056813,146.097144 10.6495618,144.343672 L14.3947065,142.775906 C15.2185577,144.463121 16.1079539,146.152203 17.0386939,147.79929 L13.397413,149.562094 Z M210.658841,144.927852 L206.92378,143.337689 C207.762757,141.649541 208.56039,139.914733 209.294495,138.181791 L213.122327,139.569451 C212.359987,141.370516 211.531094,143.173447 210.658841,144.927852 Z M8.23044444,138.990871 C7.48222222,137.191672 6.78038574,135.346747 6.14510273,133.507422 L10.0596562,132.348395 C10.6717463,134.117731 11.3473648,135.893599 12.0673522,137.625608 L8.23044444,138.990871 Z M215.251029,134.086002 L211.342526,132.903645 C211.966717,131.134309 212.541497,129.329511 213.052748,127.539645 L217.026797,128.509234 C216.498403,130.370023 215.899421,132.246676 215.251029,134.086002 Z M4.40261216,127.923188 C3.8832935,126.0568 3.41540252,124.150284 3.01204822,122.2559 L7.04458281,121.517743 C7.43381971,123.343071 7.88456813,125.178664 8.38472746,126.974129 L4.40261216,127.923188 Z M218.456688,122.848478 L214.428187,122.091658 C214.829524,120.260731 215.176409,118.406474 215.460774,116.57928 L219.52961,117.122399 C219.234153,119.020516 218.873151,120.947562 218.456688,122.848478 Z M1.97542767,116.520489 C1.69106289,114.61304 1.46215933,112.669196 1.2947673,110.744017 L5.39284696,110.439795 C5.55418868,112.293119 5.77401677,114.164173 6.04829769,116.000699 L1.97542767,116.520489 Z M220.246572,111.347793 L216.151518,111.023042 C216.322943,109.167852 216.440925,107.288399 216.500419,105.435075 L220.608583,105.548925 C220.54808,107.471305 220.426065,109.423547 220.246572,111.347793 Z M0.9690587,104.940482 C0.9478826,104.126737 0.937798742,103.311125 0.937798742,102.491781 C0.937798742,101.365415 0.957966457,100.244649 0.996285115,99.1294823 L5.10545702,99.2517307 C5.06713836,100.325837 5.04898742,101.406476 5.04898742,102.490848 C5.04898742,103.279397 5.05907128,104.066079 5.07923899,104.849029 L0.9690587,104.940482 Z M216.509495,99.8368434 C216.45605,97.984453 216.346136,96.105 216.178744,94.24981 L220.274807,93.9343904 C220.448249,95.8614363 220.563205,97.8136785 220.617658,99.7369916 L216.509495,99.8368434 Z M5.47250943,93.6665637 L1.37745493,93.3287474 C1.56400629,91.3979687 1.81206918,89.4559916 2.11559329,87.5560084 L6.182413,88.1112589 C5.89098952,89.9393862 5.6520021,91.8085741 5.47250943,93.6665637 Z M215.505143,88.6898392 C215.22582,86.8561127 214.883977,85.0009228 214.48869,83.1746618 L218.519208,82.4281065 C218.929621,84.3252902 219.285581,86.2532693 219.574987,88.1588518 L215.505143,88.6898392 Z M7.23315094,82.6007474 L3.20767505,81.8317954 C3.62817191,79.9439436 4.11522222,78.0402276 4.65370021,76.1747724 L8.62472327,77.1564927 C8.106413,78.9528914 7.63852201,80.7838184 7.23315094,82.6007474 Z M213.132411,77.7229415 C212.628218,75.9284092 212.05848,74.1217453 211.439331,72.3533424 L215.351868,71.1821837 C215.99421,73.019643 216.585124,74.8972296 217.110493,76.7626848 L213.132411,77.7229415 Z M10.3530964,71.7962255 L6.44862683,70.6036033 C7.1020608,68.77081 7.82406499,66.9286848 8.59245493,65.12762 L12.4152453,66.5255449 C11.6771069,68.2594196 10.9823291,70.0324885 10.3530964,71.7962255 Z M209.412476,67.0807954 C208.694505,65.362785 207.904939,63.6317098 207.071004,61.936096 L210.810099,60.3571315 C211.679327,62.1199353 212.499145,63.9191336 213.247367,65.7052672 L209.412476,67.0807954 Z M14.8041111,61.3761795 L11.0751006,59.7757516 C11.9523962,58.0241461 12.8972537,56.2716075 13.8834549,54.567595 L17.5075933,56.3630605 C16.5587023,58.0036159 15.6491384,59.6908309 14.8041111,61.3761795 Z M204.410883,56.9211106 C203.470059,55.2730898 202.471757,53.635334 201.442195,52.0535699 L204.96247,50.0901294 C206.033375,51.7334843 207.071004,53.4346973 208.046113,55.1461754 L204.410883,56.9211106 Z M20.5145996,51.5048518 L17.0084423,49.5199478 C18.0954822,47.8747265 19.2500839,46.2351044 20.4389706,44.6468079 L23.8180713,46.8127516 C22.6735535,48.3422568 21.5623124,49.9212213 20.5145996,51.5048518 Z M198.17805,47.3493382 C197.044625,45.8142338 195.849688,44.291261 194.628532,42.8233466 L197.88461,40.5015595 C199.154168,42.0263987 200.394482,43.609096 201.572277,45.2039248 L198.17805,47.3493382 Z M27.4059078,42.3026242 L24.1659644,39.9612401 C25.4496394,38.4401336 26.7968428,36.9330251 28.1722809,35.4819081 L31.2629832,37.990334 C29.9399811,39.3873257 28.6421887,40.8384426 27.4059078,42.3026242 Z M190.803725,38.4905261 C189.487782,37.0832693 188.113352,35.6956096 186.719763,34.3648747 L189.6703,31.7174029 C191.11935,33.0985303 192.546216,34.5403152 193.912579,36.0026305 L190.803725,38.4905261 Z M35.3792138,33.8889457 L32.4478365,31.22281 C33.907979,29.848215 35.4306415,28.4941503 36.9754885,27.1960772 L39.7384654,30.0124572 C38.2510964,31.261071 36.7849036,32.5656764 35.3792138,33.8889457 Z M182.387738,30.4594572 C180.904403,29.1968455 179.368631,27.9622296 177.821767,26.7873382 L180.429453,23.8459102 C182.035811,25.065595 183.632086,26.348737 185.169874,27.6589415 L182.387738,30.4594572 Z M44.3286373,26.3702004 L41.7431363,23.4129081 C43.3636122,22.1988225 45.0425744,21.013666 46.7336373,19.889167 L49.1335954,22.9780397 C47.5060608,24.0596117 45.8896184,25.2018413 44.3286373,26.3702004 Z M173.036977,23.3606493 C171.418518,22.2669457 169.739556,21.201238 168.049501,20.1915219 L170.278034,16.9943987 C172.033633,18.0423758 173.77814,19.1500772 175.461136,20.2867077 L173.036977,23.3606493 Z M54.1382138,19.8425073 L51.9318658,16.6323194 C53.6884738,15.5983403 55.5015514,14.5979562 57.3206792,13.6572965 L59.3253501,16.9785344 C57.5727757,17.884666 55.8282683,18.8486555 54.1382138,19.8425073 Z M162.87144,17.2920877 C161.119874,16.3728914 159.319906,15.491023 157.521954,14.6707453 L159.341082,11.2589875 C161.208612,12.1109937 163.077151,13.0273904 164.899304,13.982048 L162.87144,17.2920877 Z M64.67887,14.3973194 L62.8839434,10.9752965 C64.7575241,10.1335553 66.6815241,9.33194154 68.6004822,8.59191858 L70.181631,12.1035282 C68.33326,12.8155553 66.4818637,13.5873069 64.67887,14.3973194 Z M152.018184,12.3368267 C150.161746,11.6098685 148.261948,10.9239708 146.374249,10.2996639 L147.757755,6.71713152 C149.718057,7.36570146 151.691468,8.0777286 153.619501,8.83268267 L152.018184,12.3368267 Z M75.8164906,10.1055595 L74.4571866,6.51556159 C76.4225304,5.87818998 78.4372851,5.2846785 80.441956,4.75182463 L81.5763899,8.40807933 C79.6463396,8.92133612 77.7082222,9.49245094 75.8164906,10.1055595 Z M140.624434,8.57138831 C138.706484,8.04973278 136.738115,7.57193737 134.778822,7.152 L135.705528,3.44628601 C137.743476,3.88302088 139.788482,4.37948017 141.783069,4.92259916 L140.624434,8.57138831 Z M87.432086,7.02228601 L86.5275639,3.31097286 C88.5645031,2.88636952 90.6387526,2.51122547 92.6928344,2.19580585 L93.3654277,5.94911273 C91.3879832,6.25146764 89.3923878,6.61354697 87.432086,7.02228601 Z M128.853547,6.04523173 C126.878119,5.7307453 124.864373,5.46478497 122.867769,5.25481628 L123.331627,1.47444676 C125.406885,1.691881 127.498277,1.96903967 129.549333,2.29472443 L128.853547,6.04523173 Z M99.355239,5.19229228 L98.9155828,1.40912317 C100.983782,1.20382046 103.089291,1.04984342 105.174633,0.951858038 L105.381352,4.75182463 C103.374665,4.84607724 101.345792,4.99352192 99.355239,5.19229228 Z M116.842665,4.78168685 C114.845052,4.6781023 112.811138,4.62491023 110.799409,4.62491023 L110.799409,0.820277662 C112.887776,0.820277662 114.999335,0.875336117 117.074593,0.983586639 L116.842665,4.78168685 Z" id="Shape" fill="#5EBBE6"></path>
                </g>
                <g id="Group" transform="translate(95.796646, 173.574113)" fill="#F8D664">
                    <path d="M12.6360818,2.27419415 C13.8763962,3.31470564 14.526805,4.70796451 14.526805,6.40357829 C14.526805,8.09919207 13.8169015,9.62963048 12.4586059,10.9967599 C11.7184507,11.7059875 10.2714172,12.7716952 8.08624528,14.1416242 C5.39788889,15.8092422 3.8621174,17.3116848 3.47792243,18.6256221 L14.5570566,18.6256221 L14.5570566,20.6207912 L0.493100629,20.6207912 C0.493100629,18.8458559 1.17174423,17.2332965 2.59054298,15.7821795 C3.41741929,14.9068434 4.92495597,13.7328852 7.17063103,12.3097641 C8.82438365,11.2169937 9.91848218,10.4237787 10.4791447,9.87599374 C11.5429916,8.80935282 12.1036541,7.63446138 12.1036541,6.37651566 C12.1036541,5.17362839 11.7194591,4.27122965 10.9510692,3.61519415 C10.1826792,2.95915866 9.0895891,2.63067432 7.73028512,2.63067432 C6.28325157,2.63067432 5.15990985,3.06834238 4.39151992,3.99873695 C3.56464361,4.87407307 3.12196226,6.18614405 3.09171069,7.90882046 L0.668559748,7.90882046 C0.668559748,5.72048017 1.34821174,3.97074113 2.64802096,2.68573278 C3.94883857,1.3727286 5.69233753,0.717626305 7.81801468,0.717626305 C9.77024948,0.715759916 11.3655157,1.23554906 12.6360818,2.27419415 Z" id="Shape"></path>
                    <path d="M21.5562621,17.8305407 C21.9112138,18.1310292 22.086673,18.5136388 22.086673,18.9802359 C22.086673,19.4720292 21.9102055,19.855572 21.5562621,20.1560605 C21.2013103,20.4546827 20.7586289,20.6179916 20.285696,20.6179916 C19.7835199,20.6179916 19.3690734,20.4546827 19.0161384,20.1560605 C18.6611866,19.8257098 18.4837107,19.4440334 18.4837107,18.9802359 C18.4837107,18.5136388 18.6611866,18.1310292 19.0161384,17.8305407 C19.3710901,17.5029896 19.7835199,17.36581 20.285696,17.36581 C20.7878721,17.36581 21.2013103,17.5039228 21.5562621,17.8305407 Z" id="Shape"></path>
                    <path d="M39.5478805,1.09930271 L39.5478805,3.09540501 L29.2653711,3.09540501 L28.5574843,9.62869729 L28.6734486,9.62869729 C29.2643627,8.9726618 30.033761,8.48086848 30.9483669,8.15145094 C31.7762516,7.8229666 32.6626226,7.68672025 33.6377317,7.68672025 C35.6464361,7.68672025 37.2719539,8.26250104 38.5122683,9.43645929 C39.7535912,10.6402797 40.4029916,12.2799019 40.4029916,14.3851879 C40.4029916,16.3532944 39.6356101,17.9686534 38.1280734,19.2265992 C36.7112914,20.4005574 34.9385493,21.0015344 32.8703501,21.0015344 C31.00887,21.0015344 29.4125954,20.537737 28.1137945,19.6092088 C26.6365094,18.5686973 25.8388763,17.1474426 25.691652,15.3697077 L28.0845514,15.3697077 C28.2025325,16.6005908 28.7349602,17.558048 29.6798176,18.2140835 C30.5077023,18.7879979 31.6007925,19.0894196 32.9006017,19.0894196 C34.3778868,19.0894196 35.5889581,18.6508184 36.5620503,17.7764154 C37.5089245,16.9010793 38.0111006,15.7812463 38.0111006,14.4131837 C38.0111006,12.8547495 37.5381677,11.650929 36.652805,10.8045219 C35.7956771,9.9291858 34.5835975,9.51951357 33.0468176,9.51951357 C32.0424654,9.51951357 31.1560943,9.71081837 30.3584612,10.1214238 C29.5305765,10.5040334 28.8811761,11.1059436 28.4667296,11.8711628 L26.1635765,11.8711628 L27.2869182,1.09930271 L39.5478805,1.09930271 L39.5478805,1.09930271 Z" id="Shape"></path>
                    <polygon id="Shape" points="46.1033962 0.715759916 46.1033962 13.0469875 53.7550273 6.48569937 56.8870734 6.48569937 50.1510566 12.1716514 57.5364738 20.619858 54.4931656 20.619858 48.5255388 13.5929061 46.1033962 15.616071 46.1033962 20.619858 43.73974 20.619858 43.73974 0.715759916 46.1033962 0.715759916"></polygon>
                    <path d="M70.8290147,8.78229019 C71.4189203,7.85189562 72.1288239,7.16973069 72.9546918,6.76005846 C73.6938386,6.3223904 74.5792013,6.10402296 75.6430482,6.10402296 C77.2393229,6.10402296 78.5098889,6.56875365 79.5142411,7.49728184 C80.4601069,8.45380585 80.962283,9.73974739 80.962283,11.3532401 L80.962283,20.6207912 L78.5986268,20.6207912 L78.5986268,11.7087871 C78.5986268,10.4508413 78.3041782,9.52044676 77.741499,8.92040292 C77.1505849,8.26436743 76.2047191,7.96201253 74.9049099,7.96201253 C73.8995493,7.96201253 73.0434298,8.29143006 72.3940294,9.00252401 C71.6861426,9.71268476 71.360434,10.6150835 71.360434,11.7629123 L71.360434,20.6207912 L68.9967778,20.6207912 L68.9967778,11.7059875 C68.9967778,9.19102923 67.8149497,7.96107933 65.4815451,7.96107933 C64.3884549,7.96107933 63.5020839,8.34555532 62.7931887,9.16489979 C62.0832851,9.93198539 61.7293417,10.8894426 61.7293417,12.0092756 L61.7293417,20.6207912 L59.3656855,20.6207912 L59.3656855,6.48569937 L61.7293417,6.48569937 L61.7293417,8.37168476 C62.8819266,6.84311273 64.3299686,6.10308977 66.0432159,6.10308977 C68.3766205,6.10215658 69.9728952,6.9765595 70.8290147,8.78229019 Z" id="Shape"></path>
                </g>
                <g id="Group-4" transform="translate(216.802935, 170.774530)" fill="#F8D664">
                    <ellipse id="Oval-5_2_" cx="15.5119979" cy="14.3077328" rx="6.56459119" ry="6.07509395"></ellipse>
                    <g id="Oval-5_3_">
                        <path d="M15.5109895,28.1395365 C7.26945283,28.1395365 0.566712788,21.9375282 0.566712788,14.3095992 C0.566712788,6.68260334 7.26945283,0.476862213 15.5109895,0.476862213 C23.754543,0.476862213 30.4562746,6.68260334 30.4562746,14.3095992 C30.4562746,21.9375282 23.754543,28.1395365 15.5109895,28.1395365 Z M15.5109895,2.10621921 C8.24254507,2.10621921 2.32432914,7.57940292 2.32432914,14.3095992 C2.32432914,21.0369958 8.24254507,26.5139123 15.5109895,26.5139123 C22.7834675,26.5139123 28.6996667,21.0369958 28.6996667,14.3095992 C28.6996667,7.57940292 22.7834675,2.10621921 15.5109895,2.10621921 Z" id="Shape"></path>
                    </g>
                </g>
                <g id="Group" transform="translate(0.000000, 173.574113)" fill="#F8D664">
                    <path d="M14.6347023,1.09930271 L14.6347023,3.09540501 L4.35320126,3.09540501 L3.64531447,9.62869729 L3.7632956,9.62869729 C4.35420964,8.9726618 5.12259958,8.48086848 6.03821384,8.15145094 C6.86509015,7.8229666 7.75146122,7.68672025 8.72556184,7.68672025 C10.7352746,7.68672025 12.3597841,8.26250104 13.6000985,9.43645929 C14.8414214,10.6402797 15.4908218,12.2799019 15.4908218,14.3851879 C15.4908218,16.3532944 14.7234403,17.9686534 13.2169119,19.2265992 C11.7991216,20.4005574 10.0263795,21.0015344 7.95818029,21.0015344 C6.0977086,21.0015344 4.50244235,20.537737 3.20162474,19.6092088 C1.72534801,18.5686973 0.927714885,17.1474426 0.780490566,15.3697077 L3.17439832,15.3697077 C3.29237945,16.6005908 3.82379874,17.558048 4.76966457,18.2140835 C5.59654088,18.7879979 6.69063941,19.0894196 7.98944025,19.0894196 C9.46773375,19.0894196 10.678805,18.6508184 11.653914,17.7764154 C12.5997799,16.9010793 13.101956,15.7812463 13.101956,14.4131837 C13.101956,12.8547495 12.6290231,11.650929 11.742652,10.8045219 C10.8865325,9.9291858 9.67445283,9.51951357 8.13868134,9.51951357 C7.13432914,9.51951357 6.24694969,9.71081837 5.44931656,10.1214238 C4.62143187,10.5040334 3.97102306,11.1059436 3.55859329,11.8711628 L1.25443187,11.8711628 L2.3767652,1.09930271 L14.6347023,1.09930271 L14.6347023,1.09930271 Z" id="Shape"></path>
                    <polygon id="Shape" points="21.190218 0.715759916 21.190218 13.0469875 28.8418491 6.48569937 31.9738952 6.48569937 25.23687 12.1716514 32.6222872 20.619858 29.578979 20.619858 23.6113522 13.5929061 21.1892096 15.616071 21.1892096 20.619858 18.8265618 20.619858 18.8265618 0.715759916 21.190218 0.715759916"></polygon>
                    <path d="M45.9178532,8.78229019 C46.5087673,7.85189562 47.2176625,7.16973069 48.0435304,6.76005846 C48.7836855,6.3223904 49.6690482,6.10402296 50.7328952,6.10402296 C52.3291698,6.10402296 53.5997358,6.56875365 54.6050964,7.49728184 C55.5509623,8.45380585 56.0511216,9.73974739 56.0511216,11.3532401 L56.0511216,20.6207912 L53.686457,20.6207912 L53.686457,11.7087871 C53.686457,10.4508413 53.3920084,9.52044676 52.8293291,8.92040292 C52.2384151,8.26436743 51.2935577,7.96201253 49.9937484,7.96201253 C48.9883878,7.96201253 48.1332767,8.29143006 47.4828679,9.00252401 C46.7749811,9.71268476 46.4492725,10.6150835 46.4492725,11.7629123 L46.4492725,20.6207912 L44.0856164,20.6207912 L44.0856164,11.7059875 C44.0856164,9.19102923 42.9037883,7.96107933 40.5703836,7.96107933 C39.4772935,7.96107933 38.589914,8.34555532 37.8810189,9.16489979 C37.1721237,9.93198539 36.8171719,10.8894426 36.8171719,12.0092756 L36.8171719,20.6207912 L34.4535157,20.6207912 L34.4535157,6.48569937 L36.8171719,6.48569937 L36.8171719,8.37168476 C37.9697568,6.84311273 39.4177987,6.10308977 41.1300377,6.10308977 C43.4664675,6.10215658 45.0607254,6.9765595 45.9178532,8.78229019 Z" id="Shape"></path>
                </g>
            </g>
            <g id="Group-3-Copy-2" transform="translate(374.111111, 169.841336)">
                <ellipse id="Oval-3" fill="#3FF2E8" cx="23.5014382" cy="21.9552589" rx="22.9750608" ry="21.2618956"></ellipse>
                <g id="餐饮" transform="translate(10.083857, 9.331942)" fill="#111A41">
                    <path d="M3.07154298,24.7735052 L3.07154298,24.7735052 C2.46751992,24.7735052 1.853413,24.6027307 1.42384067,24.3106409 C1.03762893,24.0577453 0.795616352,23.6032797 0.741163522,23.0414969 C0.674610063,22.3621315 0.885362683,21.677167 1.28266667,21.2936242 C1.77375052,20.8148956 8.72757862,14.7342025 10.3147778,13.3465428 L9.58268973,12.607453 C9.29126625,12.6401148 8.7427044,12.6811754 8.17901677,12.6811754 C7.68490776,12.6811754 7.27550314,12.6475804 6.96693711,12.578524 C6.76021803,12.5309311 6.40224109,12.3750877 5.47654298,11.5856054 C4.89067086,11.0844802 4.17774214,10.4163132 3.47388889,9.70148643 C2.85171488,9.06504802 0.800658281,6.93643215 0.516293501,5.99857203 C0.139157233,4.75835699 0.33175891,3.32403758 0.364027254,3.08980585 C0.373102725,2.4748309 0.669568134,1.36059708 1.74349895,1.36059708 C2.42214256,1.36059708 3.26313627,1.84679123 4.30681551,2.84064301 C4.89873795,3.40709186 11.5450084,9.63429645 13.0626289,11.0490188 L13.9691677,10.1652839 C13.5718637,9.82840084 12.9880084,9.24888727 12.858935,8.67497286 C12.686501,7.89295616 12.8750692,7.52994363 13.2511971,6.80578497 C13.2885073,6.7376618 13.3248092,6.66767223 13.3651447,6.58835073 C14.0074864,5.34160334 18.7569832,1.32980167 19.5768008,0.738156576 C19.817805,0.562716075 20.0749434,0.47406263 20.3381321,0.47406263 C20.779805,0.47406263 21.1972767,0.738156576 21.4181132,1.15809395 C21.6026478,1.50804175 21.5965975,1.87758664 21.4009706,2.12208351 C21.1125723,2.48043006 16.9025618,6.56222129 16.3529916,7.09320877 C16.2178679,7.25558455 15.9254361,7.71378288 16.09787,7.88175783 C16.1140042,7.89668894 16.1301384,7.90788727 16.1785409,7.90788727 C16.4034109,7.90788727 16.7563459,7.66712317 16.8944948,7.55513987 C17.1536499,7.31344259 21.4665157,3.29044259 21.8507107,2.94422756 C22.0735639,2.7454572 22.3327191,2.64000626 22.607,2.64000626 C23.1232935,2.64000626 23.5306813,3.00768476 23.7031153,3.36416493 C23.8785744,3.72157829 23.838239,4.08365762 23.6063103,4.33282046 C23.2473249,4.724762 18.8951321,9.22275783 18.7095891,9.41406263 L18.6974885,9.42992693 C18.6359769,9.48778497 18.3828721,9.76027766 18.5805157,10.0019749 C18.6067338,10.0365031 18.6248847,10.0439687 18.6712704,10.0439687 C18.8568134,10.0439687 19.1583208,9.85453027 19.2934444,9.74907933 C19.5102474,9.54284342 23.8735325,5.4918476 24.3595744,5.03271608 C24.5360419,4.8694071 24.7730126,4.77982046 25.0402348,4.77982046 C25.5877883,4.77982046 26.2200461,5.1568309 26.4529832,5.618762 C26.6002075,5.907119 26.5628973,6.20107516 26.3662621,6.42784134 C26.3460943,6.45117119 26.3178595,6.48569937 26.2755073,6.53235908 C25.0593941,7.92841754 23.9300021,9.14063674 22.9195996,10.1410209 C20.2080503,12.8258205 19.200673,13.1384405 18.6823627,13.1384405 C18.6168176,13.1384405 18.5482474,13.1337745 18.4887526,13.1235094 C17.6235577,12.963 16.8602096,12.4852046 16.4387044,12.1781837 L15.4333438,13.2830856 C16.9328134,14.6632797 23.8906751,21.0593925 24.2073082,21.3514823 C24.4977233,21.6174426 24.7750294,22.2361503 24.7367107,22.9024509 C24.7044423,23.4661002 24.4503291,23.9392296 24.0036143,24.2695804 C23.5962264,24.5747349 23.0547233,24.7417766 22.4839769,24.7417766 C21.8497023,24.7417766 21.2860147,24.5383403 21.0046751,24.2079896 C20.7213187,23.8851044 15.8558574,18.7432046 13.0656541,15.7980438 L4.61739832,24.2313194 C4.26648008,24.5831336 3.7209434,24.7735052 3.07154298,24.7735052 L3.07154298,24.7735052 Z" id="Shape"></path>
                </g>
            </g>
            <g id="Group-3-Copy-11" transform="translate(337.809224, 218.367432)">
                <ellipse id="Oval-3_1_" fill="#3FF2E8" cx="23.6980734" cy="22.0299144" rx="22.9760692" ry="21.2628288"></ellipse>
                <g id="餐饮_1_" transform="translate(10.083857, 9.331942)" fill="#111A41">
                    <path d="M3.26918658,24.8481608 L3.26918658,24.8481608 C2.66617191,24.8481608 2.05004822,24.6745866 1.62047589,24.3852965 C1.23527254,24.1324008 0.992251572,23.6788685 0.935781971,23.1170856 C0.870236897,22.4386534 1.08300629,21.7518225 1.47728512,21.3692129 C1.97139413,20.8914175 8.92522222,14.8097912 10.5104046,13.4221315 L9.77932495,12.6802422 C9.48790147,12.7157035 8.94034801,12.7586305 8.37565199,12.7586305 C7.88255136,12.7586305 7.47112998,12.7213027 7.16357233,12.6513132 C6.95483648,12.6046534 6.59887631,12.44881 5.6731782,11.660261 C5.08528931,11.1591357 4.37538574,10.4919019 3.67052411,9.77427557 C3.0483501,9.13877035 0.997293501,7.0082881 0.713937107,6.07042797 C0.336800839,4.83114614 0.52839413,3.39589353 0.56167086,3.16352818 C0.567721174,2.55041962 0.86721174,1.43338622 1.94013417,1.43338622 C2.61877778,1.43338622 3.45977149,1.91864718 4.50345073,2.91623173 C5.09537317,3.479881 11.7416436,9.70708559 13.2572474,11.1227411 L14.1647945,10.242739 C13.7664822,9.90492276 13.1846436,9.32167641 13.0555702,8.74682881 C12.8831363,7.9666785 13.0727128,7.60459916 13.4478323,6.88230689 C13.4861509,6.81325052 13.5194277,6.74326096 13.5617799,6.66487265 C14.2021048,5.41719207 18.9536184,1.40259081 19.7744444,0.812812109 C20.0144403,0.637371608 20.2695618,0.548718163 20.5327505,0.548718163 C20.9764403,0.548718163 21.3929036,0.812812109 21.6127317,1.23181628 C21.799283,1.5808309 21.7932327,1.95224217 21.5965975,2.19953862 C21.3092075,2.5541524 17.1002055,6.63781002 16.5476101,7.16693111 C16.4134948,7.33024008 16.1220713,7.78657203 16.2945052,7.95641336 C16.3116478,7.97134447 16.3267736,7.98440919 16.3751761,7.98440919 C16.6000461,7.98440919 16.9529811,7.7427119 17.0901216,7.6307286 C17.3502851,7.38903132 21.6621426,3.36416493 22.0473459,3.0170167 C22.2701992,2.82197912 22.5293543,2.71652818 22.8046436,2.71652818 C23.3199287,2.71652818 23.7273166,3.08420668 23.9007589,3.43882046 C24.0731929,3.79530063 24.0348742,4.15831315 23.8039539,4.4065428 C23.4449686,4.79848434 19.0907589,9.29927975 18.9062243,9.49058455 L18.8921069,9.50364927 C18.8336205,9.5624405 18.5774906,9.83586639 18.7781593,10.0794301 C18.803369,10.1102255 18.8225283,10.1204906 18.868914,10.1204906 C19.0534486,10.1204906 19.3539476,9.93105219 19.4880629,9.82373486 C19.707891,9.61469937 24.0691593,5.56650313 24.5562096,5.10643841 C24.7336855,4.94312944 24.9696478,4.8535428 25.23687,4.8535428 C25.7854319,4.8535428 26.4176897,5.22868685 26.6496184,5.69248434 C26.7968428,5.98084134 26.7595325,6.2738643 26.5628973,6.49876409 C26.5417212,6.52209395 26.5155031,6.55755532 26.4731509,6.60608142 C25.2570377,7.99934029 24.1266373,9.21622547 23.1152264,10.2119436 C20.4036771,12.8995428 19.3973082,13.2112296 18.8779895,13.2112296 C18.8114361,13.2112296 18.7428658,13.2074969 18.6833711,13.1944322 C17.8181761,13.0348559 17.0558365,12.5570605 16.636348,12.2528392 L15.6309874,13.3558747 C17.1294486,14.7351357 24.0873103,21.1303152 24.4019266,21.4242714 C24.6953669,21.6911649 24.9696478,22.3080063 24.9313291,22.9733737 C24.9000692,23.537023 24.6469644,24.0110856 24.2002495,24.3442359 C23.79387,24.6447244 23.2513585,24.810833 22.6806122,24.810833 C22.0463375,24.810833 21.4826499,24.6101962 21.1992935,24.2779791 C20.9189623,23.9560271 16.0514843,18.8131942 13.2622893,15.8698998 L4.81403354,24.2994426 C4.46513208,24.6587223 3.91556184,24.8481608 3.26918658,24.8481608 L3.26918658,24.8481608 Z" id="Shape_1_"></path>
                </g>
            </g>
            <g id="Group-3-Copy-23" transform="translate(253.104822, 230.498956)">
                <path d="M23.0637987,0.786682672 C35.7533249,0.786682672 46.0388595,10.3080626 46.0388595,22.0485783 C46.0388595,33.7900271 35.7533249,43.3095407 23.0637987,43.3095407 C10.3742725,43.3095407 0.0887379455,33.7881608 0.0887379455,22.0485783 C0.0887379455,10.3080626 10.3742725,0.786682672 23.0637987,0.786682672 Z" id="Oval-3_2_" fill="#3FF2E8"></path>
                <g id="餐饮_2_" transform="translate(9.075472, 9.331942)" fill="#111A41">
                    <path d="M3.64128092,24.8658914 L3.64128092,24.8658914 C3.03927463,24.8658914 2.42315094,24.6932505 1.99357862,24.4039603 C1.61039203,24.1510647 1.36737107,23.6975324 1.31090147,23.1338831 C1.24535639,22.4573173 1.45610901,21.7695532 1.85240461,21.3878768 C2.34449686,20.9100814 9.29731656,14.8284551 10.8855241,13.4407954 L10.1544444,12.6989061 C9.86100419,12.7343674 9.31345073,12.775428 8.74875472,12.775428 C8.25767086,12.775428 7.84524109,12.7399666 7.53869182,12.669977 C7.32995597,12.6214509 6.97399581,12.4665407 6.04728931,11.6789248 C5.46141719,11.1777996 4.74949686,10.5105658 4.04463522,9.79200626 C3.42447799,9.15650104 1.37140461,7.02788518 1.09006499,6.09002505 C0.709903564,4.85074322 0.902505241,3.41549061 0.937798742,3.18312526 C0.943849057,2.56815031 1.24132285,1.4529833 2.31424528,1.4529833 C2.99490566,1.4529833 3.8338826,1.93637787 4.87957862,2.93396242 C5.47150105,3.49761169 12.1177715,9.72668267 13.6333753,11.1423382 L14.5409224,10.2604697 C14.1426101,9.92451983 13.5587547,9.34127349 13.4296813,8.76642589 C13.2572474,7.98627557 13.4488407,7.62326305 13.8219434,6.90003758 C13.8602621,6.8328476 13.8955556,6.76099165 13.9379078,6.68260334 C14.5782327,5.43585595 19.3297463,1.4212547 20.1485556,0.830542797 C20.3885514,0.656035491 20.6456897,0.567382046 20.9088784,0.567382046 C21.3505514,0.567382046 21.7690314,0.830542797 21.9888595,1.24861378 C22.1754109,1.59949478 22.1673438,1.96903967 21.9727254,2.21633612 C21.6833187,2.57281628 17.4763333,6.65367432 16.9237379,7.1846618 C16.7896226,7.34890397 16.4981992,7.80523591 16.6706331,7.97507724 C16.6877757,7.99000835 16.7029015,8.00027349 16.751304,8.00027349 C16.976174,8.00027349 17.3270922,7.76044259 17.4662495,7.6475261 C17.7243962,7.4076952 22.0382704,3.38282881 22.4234738,3.03568058 C22.6443103,2.83877662 22.9054822,2.73332568 23.1807715,2.73332568 C23.6960566,2.73332568 24.1014277,3.10100418 24.2768868,3.45655115 C24.4493208,3.81396451 24.4110021,4.17417745 24.178065,4.42427349 C23.8190797,4.81528184 19.4668868,9.31514405 19.2803354,9.50831524 L19.2682348,9.52231315 C19.2097484,9.58017119 18.9536184,9.85266388 19.1522704,10.0962276 C19.1774801,10.127023 19.1986562,10.1363549 19.2420168,10.1363549 C19.4295765,10.1363549 19.7300755,9.94691649 19.8641908,9.84146555 C20.0809937,9.63336326 24.4452872,5.58423382 24.9323375,5.1251023 C25.1067883,4.96179332 25.3457757,4.87220668 25.6109811,4.87220668 C26.159543,4.87220668 26.7938176,5.24921712 27.0237296,5.71114823 C27.1719623,5.99950522 27.1356604,6.29252818 26.9370084,6.51742797 C26.9168407,6.54075783 26.8896143,6.57621921 26.8492788,6.6247453 C25.6331656,8.01987056 24.5027652,9.23488935 23.4913543,10.2315407 C20.779805,12.9182067 19.7734361,13.2298935 19.2541174,13.2298935 C19.1875639,13.2298935 19.1189937,13.2261608 19.059499,13.2149624 C18.194304,13.0535198 17.4319644,12.5757244 17.0124759,12.2705699 L16.0050985,13.3745386 C17.5055765,14.7547328 24.4614214,21.1489791 24.7780545,21.4429353 C25.069478,21.7098288 25.3457757,22.3266701 25.307457,22.9920376 C25.2761971,23.5547537 25.0230922,24.0297495 24.5763774,24.3610334 C24.1699979,24.6633883 23.6274864,24.8313633 23.0547233,24.8313633 C22.4204486,24.8313633 21.856761,24.6288601 21.5754214,24.296643 C21.2950901,23.974691 16.4276122,18.8337244 13.6384172,15.8885637 L5.18814465,24.3181065 C4.83722642,24.676453 4.28967296,24.8658914 3.64128092,24.8658914 L3.64128092,24.8658914 Z" id="Shape_2_"></path>
                </g>
            </g>
            <g id="Group-3-Copy-17" transform="translate(314.616352, 133.446764)">
                <ellipse id="Oval-3_3_" fill="#3FF2E8" cx="23.9158847" cy="21.8992672" rx="22.9760692" ry="21.2628288"></ellipse>
                <g id="餐饮_3_" transform="translate(10.083857, 9.331942)" fill="#111A41">
                    <path d="M3.48498113,24.7175136 L3.48498113,24.7175136 C2.88196646,24.7175136 2.26785954,24.546739 1.83828721,24.2546493 C1.45308386,24.0017537 1.21006289,23.5482213 1.15359329,22.9864384 C1.08804822,22.3070731 1.29880084,21.6221086 1.69509644,21.2376326 C2.18920545,20.758904 9.14101677,14.6791441 10.7282159,13.2914843 L9.99713627,12.5523946 C9.70369602,12.5850564 9.15815933,12.6261169 8.59144654,12.6261169 C8.10036268,12.6261169 7.68793291,12.5925219 7.38138365,12.5234656 C7.1726478,12.4758727 6.81668763,12.3200292 5.88998113,11.530547 C5.30310063,11.0303549 4.59118029,10.3612547 3.88833543,9.64642797 C3.26616143,9.01092276 1.21308805,6.8813737 0.931748428,5.94351357 C0.554612159,4.70329854 0.744188679,3.26897912 0.77948218,3.03474739 C0.785532495,2.41977244 1.08300629,1.30553862 2.15592872,1.30553862 C2.8365891,1.30553862 3.67758281,1.79173278 4.72126205,2.78651775 C5.31419287,3.35110021 11.9594549,9.579238 13.4750587,10.9939603 L14.3826059,10.1102255 C13.9842935,9.77334238 13.4024549,9.19382881 13.2743899,8.61991441 C13.1009476,7.8378977 13.2905241,7.47675157 13.6656436,6.7525929 C13.7039623,6.68260334 13.737239,6.61354697 13.7795912,6.53422547 C14.4209245,5.28654489 19.1714298,1.27567641 19.9922558,0.684031315 C20.2302348,0.50765762 20.4873732,0.41993737 20.7505618,0.41993737 C21.1942516,0.41993737 21.6107149,0.684031315 21.830543,1.10396868 C22.0181027,1.4529833 22.011044,1.82252818 21.8144088,2.06889144 C21.5250021,2.427238 17.3180168,6.50996242 16.7654214,7.03908351 C16.6313061,7.20145929 16.3398826,7.66059081 16.5133249,7.82763257 C16.5294591,7.84256367 16.5445849,7.8546952 16.5929874,7.8546952 C16.8178574,7.8546952 17.1707925,7.61299791 17.3079329,7.50194781 C17.5670881,7.26025052 21.8819706,3.23631733 22.2651572,2.8891691 C22.4870021,2.69039875 22.748174,2.5868142 23.0204382,2.5868142 C23.5387484,2.5868142 23.9431111,2.9526263 24.1185702,3.31003967 C24.2910042,3.66745303 24.2526855,4.02953236 24.0217652,4.2786952 C23.6607631,4.66970355 19.3085702,9.16956576 19.1220189,9.36087056 L19.1099182,9.37580167 C19.0514319,9.43365971 18.7953019,9.7061524 18.9939539,9.94784969 C19.0191635,9.98237787 19.0403396,9.98891023 19.0847086,9.98891023 C19.27126,9.98891023 19.5717589,9.80040501 19.7058742,9.69402088 C19.9236855,9.48778497 24.2869706,5.43678914 24.774021,4.97765762 C24.9494801,4.81528184 25.1874591,4.7256952 25.4526646,4.7256952 C26.0012264,4.7256952 26.635501,5.10177244 26.865413,5.56556994 C27.0136457,5.85299374 26.9773438,6.1469499 26.7797002,6.37371608 C26.7605409,6.39704593 26.7312977,6.4334405 26.6889455,6.47823382 C25.4748491,7.87429228 24.3444486,9.08744468 23.3350545,10.0868956 C20.6214885,12.7726284 19.6161279,13.0852484 19.0958008,13.0852484 C19.0302558,13.0852484 18.9606771,13.0796493 18.9011824,13.0693841 C18.0369958,12.9088747 17.2736478,12.4310793 16.8541593,12.1240585 L15.8487987,13.2280271 C17.34726,14.6082213 24.3031048,21.004334 24.6197379,21.2964238 C24.9131782,21.5623841 25.1874591,22.1820251 25.1491405,22.8473925 C25.1178805,23.4110418 24.8647757,23.8841712 24.4180608,24.2145219 C24.0116813,24.5187432 23.4691698,24.685785 22.8994319,24.685785 C22.2641488,24.685785 21.7014696,24.4823486 21.4171048,24.1519979 C21.1347568,23.8309791 16.2692956,18.6872129 13.481109,15.7429854 L5.02982809,24.1753278 C4.68092662,24.527142 4.13337317,24.7175136 3.48498113,24.7175136 L3.48498113,24.7175136 Z" id="Shape_3_"></path>
                </g>
            </g>
            <g id="Group-3-Copy-21" transform="translate(0.000000, 133.446764)">
                <ellipse id="Oval-3_4_" fill="#3FF2E8" cx="23.4328679" cy="21.8992672" rx="22.9760692" ry="21.2628288"></ellipse>
                <g id="餐饮_4_" transform="translate(10.083857, 9.331942)" fill="#111A41">
                    <path d="M3.00297275,24.7175136 L3.00297275,24.7175136 C2.40096646,24.7175136 1.78484277,24.546739 1.35325367,24.2546493 C0.9690587,24.0017537 0.728054507,23.5482213 0.671584906,22.9864384 C0.606039832,22.3070731 0.815784067,21.6221086 1.21308805,21.2376326 C1.70618868,20.758904 8.66102516,14.6791441 10.2472159,13.2914843 L9.51815304,12.5523946 C9.2237044,12.5850564 8.67615094,12.6261169 8.11044654,12.6261169 C7.61633753,12.6261169 7.2079413,12.5925219 6.89937526,12.5234656 C6.69265618,12.4758727 6.3377044,12.3200292 5.40998952,11.530547 C4.82512579,11.0303549 4.11219706,10.3612547 3.40632704,9.64642797 C2.78314465,9.01092276 0.735113208,6.8813737 0.449740042,5.94351357 C0.0736121593,4.70329854 0.265205451,3.26897912 0.29848218,3.03474739 C0.306549266,2.41977244 0.602006289,1.30553862 1.67392034,1.30553862 C2.3555891,1.30553862 3.19557442,1.79173278 4.24026205,2.78651775 C4.83218449,3.35110021 11.4794633,9.579238 12.9940587,10.9939603 L13.8995891,10.1102255 C13.5043019,9.77334238 12.9174214,9.19382881 12.7903648,8.61991441 C12.615914,7.8378977 12.8075073,7.47675157 13.1816184,6.7525929 C13.2189287,6.68260334 13.2552306,6.61354697 13.2965744,6.53422547 C13.9389161,5.28654489 18.6904298,1.27567641 19.5052055,0.684031315 C19.7492348,0.50765762 20.0063732,0.41993737 20.2675451,0.41993737 C20.7102264,0.41993737 21.1266897,0.684031315 21.349543,1.10396868 C21.535086,1.4529833 21.5260105,1.82252818 21.3324004,2.06889144 C21.0429937,2.427238 16.8339916,6.50996242 16.2854298,7.03908351 C16.1492977,7.20145929 15.8568658,7.66059081 16.0313166,7.82763257 C16.0474507,7.84256367 16.0635849,7.8546952 16.1140042,7.8546952 C16.3368574,7.8546952 16.6908008,7.61299791 16.8279413,7.50194781 C17.0881048,7.26025052 21.3999623,3.23631733 21.7881908,2.8891691 C22.0080189,2.69039875 22.2681824,2.5868142 22.5424633,2.5868142 C23.0587568,2.5868142 23.4661447,2.9526263 23.639587,3.31003967 C23.8140377,3.66745303 23.7757191,4.02953236 23.5447987,4.2786952 C23.1827883,4.66970355 18.8326122,9.16956576 18.6470692,9.36087056 L18.6349686,9.37580167 C18.5764822,9.43365971 18.317327,9.7061524 18.515979,9.94784969 C18.5452222,9.98237787 18.5633732,9.98891023 18.604717,9.98891023 C18.79026,9.98891023 19.0968092,9.80040501 19.2278994,9.69402088 C19.4457107,9.48778497 23.8079874,5.43678914 24.2950377,4.97765762 C24.4704969,4.81528184 24.7074675,4.7256952 24.9756981,4.7256952 C25.5232516,4.7256952 26.1575262,5.10177244 26.3904633,5.56556994 C26.5346625,5.85299374 26.5003774,6.1469499 26.3027338,6.37371608 C26.282566,6.39704593 26.2543312,6.4334405 26.2139958,6.47823382 C24.9958658,7.87429228 23.8674822,9.08744468 22.8560713,10.0868956 C20.1435136,12.7726284 19.1361363,13.0852484 18.6168176,13.0852484 C18.5522809,13.0852484 18.4857275,13.0796493 18.4232075,13.0693841 C17.5580126,12.9088747 16.795673,12.4310793 16.3731593,12.1240585 L15.3667904,13.2280271 C16.86626,14.6082213 23.8231132,21.004334 24.1407547,21.2964238 C24.434195,21.5623841 24.7074675,22.1820251 24.6701572,22.8473925 C24.6368805,23.4110418 24.3847841,23.8841712 23.9390776,24.2145219 C23.5316897,24.5187432 22.9932117,24.685785 22.4174235,24.685785 C21.786174,24.685785 21.221478,24.4823486 20.9371132,24.1519979 C20.656782,23.8309791 15.7913208,18.6872129 13.000109,15.7429854 L4.55084486,24.1753278 C4.19891824,24.527142 3.64934801,24.7175136 3.00297275,24.7175136 L3.00297275,24.7175136 Z" id="Shape_4_"></path>
                </g>
            </g>
            <g id="Group-3-Copy-19" transform="translate(235.962264, 12.131524)">
                <ellipse id="Oval-3_5_" fill="#3FF2E8" cx="23.7958868" cy="21.7126284" rx="22.9760692" ry="21.2628288"></ellipse>
                <g id="餐饮_5_" transform="translate(10.083857, 9.331942)" fill="#111A41">
                    <path d="M3.36397484,24.5308747 L3.36397484,24.5308747 C2.76096017,24.5308747 2.14584486,24.3610334 1.71526415,24.0680104 C1.3300608,23.816048 1.08703983,23.3615825 1.032587,22.7997996 C0.965025157,22.1204342 1.17779455,21.4354697 1.57509853,21.0519269 C2.06618239,20.5722651 9.02001048,14.4925052 10.6072096,13.1057787 L9.87612998,12.3657557 C9.58369811,12.3984175 9.03513627,12.4404113 8.47144864,12.4404113 C7.97733962,12.4404113 7.56793501,12.4058831 7.25836059,12.3358935 C7.05164151,12.2883006 6.69467296,12.1324572 5.76897484,11.3448413 C5.18310273,10.8437161 4.470174,10.1755491 3.76632075,9.45978914 C3.14414675,8.82521712 1.09309015,6.69473486 0.810742138,5.75687474 C0.431589099,4.51665971 0.624190776,3.0814071 0.656459119,2.84904175 C0.662509434,2.23406681 0.962,1.11889979 2.03593082,1.11889979 C2.71457442,1.11889979 3.55556813,1.60509395 4.59924738,2.59894572 C5.19318658,3.16352818 11.8374403,9.39166597 13.3550608,10.8063883 L14.2615996,9.92358664 C13.8642956,9.58670355 13.2794319,9.00718998 13.1513669,8.43140919 C12.9789329,7.64939248 13.167501,7.28824635 13.5426205,6.56502088 C13.5809392,6.49503132 13.6172411,6.42597495 13.6595933,6.34665344 C14.2999182,5.09990605 19.0514319,1.08717119 19.8692327,0.49645929 C20.1102369,0.321018789 20.3673753,0.232365344 20.6305639,0.232365344 C21.0722369,0.232365344 21.4897086,0.49645929 21.7095367,0.915463466 C21.8970964,1.26541127 21.8890294,1.63495616 21.6934025,1.87945303 C21.4050042,2.23873278 17.1970105,6.32052401 16.6454235,6.85057829 C16.5102998,7.01388727 16.2198847,7.47208559 16.3923187,7.64006054 C16.4084528,7.65405846 16.4215618,7.66712317 16.4719811,7.66712317 C16.6958428,7.66712317 17.0477694,7.42635908 17.1849099,7.31437578 C17.4460818,7.0726785 21.7589476,3.0487453 22.1451593,2.70346347 C22.3659958,2.50469311 22.6251509,2.39924217 22.8994319,2.39924217 C23.4177421,2.39924217 23.8231132,2.76505428 23.9955472,3.12246764 C24.1679811,3.479881 24.1306709,3.84196033 23.8987421,4.09112317 C23.5397568,4.48306472 19.1875639,8.98106054 19.002021,9.17236534 L18.9868952,9.18729645 C18.9304256,9.24608768 18.6732872,9.51764718 18.8729476,9.75934447 C18.8991656,9.79387265 18.9193333,9.8013382 18.9637023,9.8013382 C19.1512621,9.8013382 19.4507526,9.61189979 19.5838595,9.50644885 C19.8026792,9.30021294 24.1639476,5.24921712 24.6540231,4.79008559 C24.8284738,4.62770981 25.0644361,4.53812317 25.3326667,4.53812317 C25.8802201,4.53812317 26.5144948,4.91420042 26.7454151,5.37706472 C26.8926394,5.66448852 26.8573459,5.95937787 26.6586939,6.18521086 C26.6385262,6.2094739 26.6102914,6.24400209 26.5679392,6.2906618 C25.3538428,7.68578706 24.2234423,8.89987265 23.2120314,9.89932359 C20.5004822,12.5850564 19.4941132,12.89581 18.9747945,12.89581 C18.9092495,12.89581 18.8406792,12.8911441 18.7801761,12.8808789 C17.9139727,12.7213027 17.1526415,12.2435073 16.733153,11.9364864 L15.7257757,13.0404551 C17.2272621,14.4215825 24.1831069,20.8158288 24.49974,21.1088518 C24.7901551,21.3757453 25.0674612,21.9935198 25.0271258,22.6598205 C24.9968742,23.2225365 24.7437694,23.695666 24.2960461,24.0269499 C23.8906751,24.3321044 23.3491719,24.4982129 22.7764088,24.4982129 C22.1421342,24.4982129 21.5784465,24.2957098 21.2971069,23.9644259 C21.0157673,23.6434071 16.1482893,18.4987077 13.3601027,15.5554134 L4.90983019,23.9877557 C4.56092872,24.3414363 4.01236688,24.5308747 3.36397484,24.5308747 L3.36397484,24.5308747 Z" id="Shape_5_"></path>
                </g>
            </g>
            <g id="Group-3-Copy-12" transform="translate(433.605870, 303.288100)">
                <ellipse id="Oval-3_6_" fill="#3FF2E8" cx="23.0900168" cy="22.1605616" rx="22.9760692" ry="21.2628288"></ellipse>
                <g id="餐饮_6_" transform="translate(9.075472, 9.331942)" fill="#111A41">
                    <path d="M3.66548218,24.9778747 L3.66548218,24.9778747 C3.06246751,24.9778747 2.44836059,24.8043006 2.01878826,24.5150104 C1.63358491,24.2621148 1.39056394,23.8095157 1.33409434,23.2467996 C1.26854927,22.5702338 1.47930189,21.8815365 1.87559748,21.4989269 C2.3697065,21.0211315 9.32151782,14.9404384 10.908717,13.5518455 L10.1776373,12.8146221 C9.88621384,12.842618 9.33866038,12.8892777 8.77396436,12.8892777 C8.28086373,12.8892777 7.86944235,12.8538163 7.5618847,12.7810271 C7.35314885,12.7343674 6.99718868,12.5803904 6.07048218,11.7909081 C5.48360168,11.2888497 4.77168134,10.6225491 4.06883648,9.90398956 C3.44666247,9.27035073 1.3935891,7.14173486 1.11224948,6.20387474 C0.735113208,4.96272651 0.924689727,3.52654071 0.959983229,3.29697495 C0.966033543,2.682 1.26350734,1.56683299 2.33642977,1.56683299 C3.01709015,1.56683299 3.85808386,2.05022756 4.9017631,3.04501253 C5.49368553,3.60959499 12.1379392,9.84053236 13.6555597,11.2543215 L14.5631069,10.3743194 C14.1647945,10.0365031 13.582956,9.45512317 13.454891,8.87840919 C13.2814486,8.09825887 13.4710252,7.73711273 13.8461447,7.01108768 C13.8844633,6.9448309 13.91774,6.87390814 13.9600922,6.79645303 C14.6004172,5.54783925 19.3519308,1.533238 20.1727568,0.94345929 C20.4107358,0.768018789 20.6678742,0.682164927 20.9310629,0.682164927 C21.3747526,0.682164927 21.7912159,0.94345929 22.011044,1.36339666 C22.1986038,1.71241127 22.1925535,2.08288935 21.9949099,2.32925261 C21.7075199,2.68573278 17.496501,6.76659081 16.9459224,7.29944468 C16.8118071,7.46368685 16.5203836,7.9181524 16.6928176,8.08706054 C16.7099602,8.10479123 16.725086,8.11318998 16.7734885,8.11318998 C16.9983585,8.11318998 17.3512935,7.87335908 17.488434,7.76044259 C17.7475891,7.52061169 22.0604549,3.49761169 22.4456583,3.14766388 C22.6675031,2.9526263 22.9286751,2.84530898 23.202956,2.84530898 C23.7192495,2.84530898 24.1236122,3.21392067 24.2990713,3.56946764 C24.4715052,3.926881 24.4331866,4.28896033 24.2022662,4.53718998 C23.8432809,4.92913152 19.4890713,9.42806054 19.3045367,9.62123173 L19.2904193,9.63429645 C19.2319329,9.69402088 18.9758029,9.96651357 19.1764717,10.2082109 C19.1996646,10.2418058 19.2208407,10.2511378 19.2672264,10.2511378 C19.451761,10.2511378 19.75226,10.059833 19.8863753,9.95438205 C20.1041866,9.74627975 24.4674717,5.69715031 24.954522,5.23801879 C25.1319979,5.07377662 25.3659434,4.98512317 25.6331656,4.98512317 C26.1817275,4.98512317 26.8160021,5.36213361 27.045914,5.82499791 C27.1941468,6.11335491 27.1578449,6.40637787 26.9602013,6.63221086 C26.9390252,6.65460752 26.9117987,6.69006889 26.8694465,6.73859499 C25.6553501,8.13278706 24.5229329,9.34780585 23.5135388,10.3453904 C20.8019895,13.0329896 19.7956205,13.3437432 19.2763019,13.3437432 C19.2107568,13.3437432 19.1411782,13.3418768 19.0816834,13.3288121 C18.2174969,13.1683027 17.4541488,12.6905073 17.0346604,12.3844196 L16.0292998,13.4883883 C17.527761,14.8685825 24.4856226,21.263762 24.800239,21.5558518 C25.0936792,21.8236785 25.3679602,22.4423862 25.3296415,23.1049541 C25.2983816,23.6695365 25.0452767,24.1435992 24.5995702,24.4767495 C24.1921824,24.7791044 23.6496709,24.9442797 23.0789245,24.9442797 C22.4446499,24.9442797 21.8809623,24.743643 21.5976059,24.4095595 C21.3172746,24.0904071 16.4497966,18.9466409 13.6616101,16.0042797 L5.21234591,24.4338225 C4.86142767,24.7884363 4.31387421,24.9778747 3.66548218,24.9778747 L3.66548218,24.9778747 Z" id="Shape_6_"></path>
                </g>
            </g>
            <g id="Group-3-Copy-15" transform="translate(160.333333, 404.073069)">
                <ellipse id="Oval-3_7_" fill="#3FF2E8" cx="23.9320189" cy="21.6137098" rx="22.9750608" ry="21.2618956"></ellipse>
                <g id="餐饮_7_" transform="translate(10.083857, 9.331942)" fill="#111A41">
                    <path d="M3.5011153,24.4319562 L3.5011153,24.4319562 C2.89709224,24.4319562 2.28197694,24.258382 1.85240461,23.9690919 C1.46820964,23.7161962 1.22418029,23.2635971 1.16972746,22.6990146 C1.103174,22.0224489 1.31392662,21.3337516 1.71223899,20.951142 C2.20433124,20.4733466 9.15815933,14.3945198 10.7453585,13.0059269 L10.0142788,12.2668372 C9.72184696,12.2957662 9.1742935,12.3405595 8.60959748,12.3405595 C8.11548847,12.3405595 7.70608386,12.3060313 7.39751782,12.2351086 C7.18979036,12.1865825 6.83181342,12.0326054 5.90712369,11.2440564 C5.32024319,10.7438643 4.60832285,10.0756973 3.90346122,9.35807098 C3.2822956,8.72443215 1.23123899,6.5939499 0.948890985,5.65515658 C0.570746331,4.41494154 0.761331237,2.98062213 0.794607966,2.74825678 C0.802675052,2.13421503 1.09914046,1.01904802 2.17407966,1.01904802 C2.85272327,1.01904802 3.6927086,1.50430898 4.73739623,2.49909395 C5.32931866,3.06367641 11.9745807,9.2918142 13.4922013,10.7084029 L14.39874,9.82746764 C14.0014361,9.49058455 13.4175807,8.90640501 13.2895157,8.33249061 C13.1160734,7.55234029 13.3066583,7.18932777 13.679761,6.4651691 C13.7190881,6.39891232 13.7543816,6.32612317 13.794717,6.24866806 C14.4360503,5.00005428 19.1865556,0.987319415 20.0073816,0.396607516 C20.2473774,0.22023382 20.5045157,0.13251357 20.766696,0.13251357 C21.208369,0.13251357 21.6248323,0.396607516 21.8466771,0.813745303 C22.0322201,1.1655595 22.0261698,1.53417119 21.830543,1.78146764 C21.5421447,2.138881 17.3331426,6.21973904 16.7825639,6.75072651 C16.6484486,6.91403549 16.3560168,7.37130063 16.5294591,7.54020877 C16.5455933,7.55607307 16.5617275,7.5663382 16.61013,7.5663382 C16.835,7.5663382 17.1869266,7.32650731 17.3240671,7.21359081 C17.5842306,6.97375992 21.8991132,2.94889353 22.2822998,2.60081211 C22.5041447,2.40390814 22.7632998,2.2984572 23.0385891,2.2984572 C23.5548826,2.2984572 23.9612621,2.66706889 24.133696,3.02261587 C24.3071384,3.37722965 24.2688197,3.74024217 24.0378994,3.98847182 C23.6799224,4.38041336 19.3267212,8.88120877 19.1401698,9.07437996 L19.1270608,9.08557829 C19.0685744,9.14436952 18.8124444,9.41779541 19.0131132,9.66135908 C19.0363061,9.69308768 19.0564738,9.70428601 19.1018512,9.70428601 C19.2873941,9.70428601 19.5889015,9.51298121 19.7230168,9.40753027 C19.9408281,9.19942797 24.3031048,5.15029854 24.7911635,4.69023382 C24.967631,4.52692484 25.2035933,4.4373382 25.4708155,4.4373382 C26.0173606,4.4373382 26.6526436,4.81434864 26.8845723,5.27721294 C27.0317966,5.56556994 26.9944864,5.85672651 26.7978512,6.0825595 C26.7776834,6.10682255 26.7484403,6.14135073 26.7081048,6.18987683 C25.4919916,7.5831357 24.3625996,8.80002088 23.3511887,9.79760543 C20.6396394,12.4833382 19.6322621,12.7959582 19.1139518,12.7959582 C19.0484067,12.7959582 18.9798365,12.7922255 18.9193333,12.7810271 C18.05313,12.6186514 17.2907904,12.1408559 16.8713019,11.8366347 L15.8639245,12.9406033 C17.3644025,14.3189311 24.3202474,20.7141106 24.6378889,21.0080668 C24.9293124,21.2758935 25.2046017,21.8927349 25.1682998,22.5571691 C25.1360314,23.1208184 24.8819182,23.5958142 24.4362117,23.9289645 C24.0298323,24.229453 23.4863124,24.3946284 22.9165744,24.3946284 C22.2812914,24.3946284 21.7176038,24.1939916 21.4352558,23.8617745 C21.1539161,23.5426221 16.2884549,18.3988559 13.4982516,15.4546284 L5.04999581,23.8841712 C4.69605241,24.2406514 4.14950734,24.4319562 3.5011153,24.4319562 L3.5011153,24.4319562 Z" id="Shape_7_"></path>
                </g>
            </g>
            <g id="Group-3-Copy-16" transform="translate(78.654088, 391.941545)">
                <ellipse id="Oval-3_8_" fill="#3FF2E8" cx="23.5548826" cy="21.5950459" rx="22.9750608" ry="21.2618956"></ellipse>
                <g id="餐饮_8_" transform="translate(10.083857, 9.331942)" fill="#111A41">
                    <path d="M3.12196226,24.4132923 L3.12196226,24.4132923 C2.51995597,24.4132923 1.90584906,24.2406514 1.47425996,23.9513612 C1.09006499,23.6984656 0.848052411,23.2449332 0.793599581,22.6822171 C0.728054507,22.0056514 0.937798742,21.3169541 1.33308595,20.9343445 C1.82820335,20.4565491 8.78001468,14.3758559 10.3662055,12.987263 L9.63714256,12.2500397 C9.34370231,12.2780355 8.79614885,12.3228288 8.23044444,12.3228288 C7.73734382,12.3228288 7.32693082,12.2892338 7.01735639,12.2164447 C6.8116457,12.169785 6.45669392,12.0158079 5.52897904,11.2263257 C4.94512369,10.7252004 4.2301782,10.0579666 3.52733333,9.3394071 C2.90415094,8.70576827 0.855111111,6.57528601 0.570746331,5.63929228 C0.194618449,4.39814405 0.385203354,2.96195825 0.418480084,2.7305261 C0.42654717,2.11741754 0.723012579,1.00225052 1.79593501,1.00225052 C2.47659539,1.00225052 3.31859748,1.48564509 4.36126834,2.48043006 C4.95419916,3.04501253 11.6004696,9.2759499 13.1160734,10.689739 L14.0236205,9.80973695 C13.6283333,9.47192067 13.0404444,8.89054071 12.9143962,8.31382672 C12.7399455,7.53367641 12.9305304,7.17253027 13.3056499,6.44650522 C13.3429602,6.38024843 13.3792621,6.30932568 13.4216143,6.23187056 C14.063956,4.98325678 18.8144612,0.968655532 19.6302453,0.378876827 C19.8732662,0.203436326 20.1293962,0.115716075 20.3925849,0.115716075 C20.8352662,0.115716075 21.2517296,0.378876827 21.4745828,0.798814196 C21.6591174,1.14782881 21.6510503,1.51924008 21.4554235,1.76467015 C21.1680335,2.12115031 16.9570147,6.20200835 16.4104696,6.73299582 C16.2733291,6.89910438 15.982914,7.35356994 16.155348,7.52341127 C16.1714822,7.54020877 16.186608,7.54860752 16.2370273,7.54860752 C16.4608889,7.54860752 16.8138239,7.30877662 16.949956,7.19586013 C17.2101195,6.95602923 21.5229853,2.93116284 21.9102055,2.58401461 C22.1300335,2.38897704 22.3901971,2.28072651 22.6664948,2.28072651 C23.1817799,2.28072651 23.5881593,2.6493382 23.7616017,3.00488518 C23.9360524,3.36229854 23.8977338,3.72251148 23.6668134,3.97260752 C23.3037945,4.36454906 18.9546268,8.86347808 18.7690839,9.05664927 L18.7549665,9.06971399 C18.6964801,9.12943841 18.4383333,9.40193111 18.6379937,9.64362839 C18.6652201,9.67722338 18.6863962,9.68655532 18.7267317,9.68655532 C18.9122746,9.68655532 19.2178155,9.49525052 19.3489057,9.38979958 C19.566717,9.18169729 23.9289937,5.13256785 24.4180608,4.67343633 C24.5935199,4.50919415 24.8284738,4.42054071 25.0967044,4.42054071 C25.6442579,4.42054071 26.2785325,4.79755115 26.5114696,5.26041545 C26.6556688,5.55063883 26.6213836,5.84179541 26.4227317,6.06762839 C26.4035723,6.09002505 26.3743291,6.12548643 26.3339937,6.17401253 C25.1158637,7.56820459 23.9874801,8.78415658 22.978086,9.78080793 C20.2645199,12.4693403 19.2581509,12.7791608 18.7388323,12.7791608 C18.6722788,12.7791608 18.6077421,12.7772944 18.5452222,12.7642296 C17.6790189,12.6037203 16.9166792,12.126858 16.495174,11.8198372 L15.4908218,12.9238058 C16.9912998,14.304 23.9461363,20.6991795 24.2637778,20.9922025 C24.557218,21.259096 24.8294822,21.8778038 24.7921719,22.5403716 C24.7588952,23.1049541 24.5078071,23.5790167 24.0610922,23.912167 C23.6547128,24.2145219 23.114218,24.3796973 22.5414549,24.3796973 C21.9091971,24.3796973 21.344501,24.1790605 21.0601363,23.844977 C20.7818218,23.5258246 15.9153522,18.3820585 13.1231321,15.4396973 L4.67386792,23.8692401 C4.31891614,24.2238539 3.76934591,24.4132923 3.12196226,24.4132923 L3.12196226,24.4132923 Z" id="Shape_8_"></path>
                </g>
            </g>
            <g id="Group-3-Copy-7" transform="translate(305.540881, 0.000000)">
                <ellipse id="Oval-3_9_" fill="#3FF2E8" cx="23.145478" cy="21.6939645" rx="22.9750608" ry="21.2618956"></ellipse>
                <g id="Group" transform="translate(13.109015, 12.131524)" fill="#111A41">
                    <path d="M15.6693061,0.0382609603 L15.6693061,14.3655908 L19.213782,14.3655908 L19.213782,17.0093299 L15.6693061,17.0093299 L15.6693061,21.7135616 L12.2609623,21.7135616 L12.2609623,17.0093299 L0.844018868,17.0093299 L0.844018868,13.8831294 L12.391044,0.0391941545 L15.6693061,0.0391941545 L15.6693061,0.0382609603 Z M3.76430398,14.3655908 L12.2619706,14.3655908 L12.2619706,4.22550313 L12.1631488,4.22550313 L3.76430398,14.3655908 Z" id="Shape"></path>
                </g>
            </g>
            <g id="Group-3-Copy-9" transform="translate(327.725367, 176.373695)">
                <ellipse id="Oval-3_10_" fill="#3FF2E8" cx="23.935044" cy="21.4979937" rx="22.9750608" ry="21.2618956"></ellipse>
                <g id="Group" transform="translate(8.067086, 11.198330)" fill="#111A41">
                    <path d="M9.59277358,0.774551148 L9.59277358,22.4498518 L6.01804612,22.4498518 L6.01804612,4.74902505 C4.60933124,5.99670564 2.80331237,6.90656994 0.638308176,7.48141754 L0.638308176,4.20497286 C1.68803774,3.96140919 2.77205241,3.53680585 3.95186373,2.92836326 C5.13066667,2.26112944 6.11787631,1.56310021 6.90744235,0.774551148 L9.59277358,0.774551148 L9.59277358,0.774551148 Z" id="Shape"></path>
                    <path d="M28.4344612,2.1398142 C29.8431761,3.35483299 30.5621551,4.90393528 30.5621551,6.81418372 C30.5621551,8.69736952 29.7756143,10.3976493 28.2680776,11.9458184 C27.3484298,12.8267537 25.7410629,13.9801816 23.414717,15.4368977 C20.8897191,16.9850668 19.3781488,18.3503299 18.8890818,19.5373528 L30.598457,19.5373528 L30.598457,22.4498518 L14.4582348,22.4498518 C14.4582348,20.2932401 15.2104906,18.4119207 16.7876059,16.7722985 C17.6386834,15.8316388 19.4134423,14.5270334 22.0675136,12.8267537 C23.6456373,11.7946409 24.7578868,10.9734301 25.4153543,10.3351253 C26.4650839,9.24515449 27.0237296,8.05999791 27.0237296,6.7852547 C27.0237296,5.5721023 26.6607107,4.662238 25.9397149,4.05379541 C25.2177107,3.44535282 24.1357128,3.14299791 22.7572495,3.14299791 C21.278956,3.14299791 20.1656981,3.59653027 19.4114256,4.54092276 C18.6269015,5.45172025 18.2285891,6.75632568 18.1650608,8.51632985 L14.5873082,8.51632985 C14.6215933,6.08909186 15.3768742,4.14618163 16.8541593,2.68666597 C18.3637128,1.10956785 20.3946017,0.349014614 22.889348,0.349014614 C25.1188889,0.347148225 26.9894444,0.925728601 28.4344612,2.1398142 Z" id="Shape"></path>
                </g>
            </g>
            <g id="Group-3-Copy-22" transform="translate(160.333333, 169.841336)">
                <ellipse id="Oval-3_11_" fill="#3FF2E8" cx="23.9320189" cy="21.9552589" rx="22.9750608" ry="21.2618956"></ellipse>
                <g id="Group" transform="translate(8.067086, 11.198330)" fill="#111A41">
                    <path d="M9.59075681,1.23181628 L9.59075681,22.9071169 L6.01502096,22.9071169 L6.01502096,5.20722338 C4.60529769,6.45397077 2.80028721,7.36383507 0.635283019,7.93868267 L0.635283019,4.6613048 C1.68400419,4.41774113 2.76801887,3.99407098 3.94984696,3.38562839 C5.1286499,2.71839457 6.11485115,2.02036534 6.90240042,1.23181628 L9.59075681,1.23181628 L9.59075681,1.23181628 Z" id="Shape"></path>
                    <path d="M28.9205031,4.02206681 C30.2989665,6.02750104 30.9876939,8.69736952 30.9876939,12.0680668 C30.9876939,15.4089019 30.2979581,18.110499 28.9205031,20.1122004 C27.4099413,22.2389499 25.2782138,23.3317203 22.523304,23.3317203 C19.7663774,23.3317203 17.6356583,22.2398831 16.1250964,20.1122004 C14.7486499,18.110499 14.058914,15.4378309 14.058914,12.0680668 C14.058914,8.6693737 14.7486499,5.99577244 16.1250964,4.02206681 C17.6346499,1.86918789 19.7663774,0.804413361 22.523304,0.804413361 C25.2792222,0.804413361 27.4099413,1.87012109 28.9205031,4.02206681 Z M18.4554759,6.54449061 C17.8655702,7.87895825 17.6023816,9.73041545 17.6023816,12.0680668 C17.6023816,14.3758559 17.8655702,16.22638 18.4554759,17.5953758 C19.2440335,19.538286 20.5872034,20.5405365 22.5243124,20.5405365 C24.4271363,20.5405365 25.8035828,19.538286 26.5921405,17.5953758 C27.1497778,16.2273132 27.4452348,14.3758559 27.4452348,12.0680668 C27.4452348,9.73041545 27.1497778,7.87989144 26.5921405,6.54449061 C25.8045912,4.56891858 24.4271363,3.59932985 22.5243124,3.59932985 C20.5872034,3.60026305 19.2440335,4.56891858 18.4554759,6.54449061 Z" id="Shape"></path>
                </g>
            </g>
            <g id="Group-3-Copy-20" transform="translate(206.719078, 254.762004)">
                <ellipse id="Oval-3_12_" fill="#3FF2E8" cx="23.4974046" cy="22.0859061" rx="22.9750608" ry="21.2618956"></ellipse>
                <g id="Group" transform="translate(14.117400, 12.131524)" fill="#111A41">
                    <path d="M15.0168805,0.429269311 L15.0168805,14.7565992 L18.560348,14.7565992 L18.560348,17.4003382 L15.0168805,17.4003382 L15.0168805,22.1036367 L11.6055115,22.1036367 L11.6055115,17.4003382 L0.18957652,17.4003382 L0.18957652,14.2732046 L11.7355933,0.429269311 L15.0168805,0.429269311 L15.0168805,0.429269311 Z M3.10885325,14.755666 L11.6055115,14.755666 L11.6055115,4.61744468 L11.5066897,4.61744468 L3.10885325,14.755666 Z" id="Shape"></path>
                </g>
            </g>
            <g id="Group-3-Copy-14" transform="translate(134.115304, 361.146138)">
                <ellipse id="Oval-3_13_" fill="#3FF2E8" cx="23.8916834" cy="22.0149833" rx="22.9750608" ry="21.2618956"></ellipse>
                <g id="Group" transform="translate(15.125786, 11.198330)" fill="#111A41">
                    <path d="M14.6962138,2.68666597 C16.0091321,3.78036952 16.6665996,5.14563257 16.6665996,6.75632568 C16.6665996,7.87989144 16.4034109,8.81961795 15.8780419,9.579238 C15.2881363,10.3985825 14.4017652,11.0051587 13.2199371,11.4288288 L13.2199371,11.5221482 C14.3362201,11.7657119 15.3204046,12.3713549 16.1089623,13.34281 C17.0286101,14.3749228 17.4864172,15.5582129 17.4864172,16.923476 C17.4864172,18.8374572 16.733153,20.3865595 15.2235996,21.5997119 C13.6817778,22.7848685 11.5157652,23.3923779 8.76085535,23.3923779 C5.97266876,23.3923779 3.80665618,22.7848685 2.29710273,21.5997119 C0.788557652,20.3865595 0.0342851153,18.8374572 0.0342851153,16.923476 C0.0342851153,15.5582129 0.493100629,14.3758559 1.41274843,13.34281 C2.20029769,12.3713549 3.14918868,11.7657119 4.29874843,11.5221482 L4.29874843,11.4288288 C3.11792872,11.0051587 2.23155765,10.3985825 1.64266038,9.579238 C1.11628302,8.81961795 0.855111111,7.87989144 0.855111111,6.75632568 C0.855111111,5.14469937 1.51157023,3.78036952 2.82348008,2.68666597 C4.2654717,1.47351357 6.26812579,0.864137787 8.76085535,0.864137787 C11.2525765,0.864137787 13.2209455,1.47351357 14.6962138,2.68666597 Z M4.8876457,14.0417724 C4.00429979,14.7715303 3.57775262,15.7112568 3.57775262,16.9244092 C3.57775262,18.0507745 4.00429979,18.961572 4.92193082,19.6577349 C5.80628512,20.3557641 7.08693501,20.7225094 8.75984696,20.7225094 C10.3994822,20.7225094 11.7124004,20.3557641 12.6633082,19.6577349 C13.5174109,18.961572 13.9439581,18.0507745 13.9439581,16.9244092 C13.9439581,15.7112568 13.5174109,14.7715303 12.6633082,14.0716347 C11.7436604,13.2812192 10.4650273,12.8874113 8.75984696,12.8874113 C7.05365828,12.8874113 5.74275681,13.2522902 4.8876457,14.0417724 Z M5.31419287,4.56891858 C4.56193711,5.17829436 4.19891824,5.96591023 4.19891824,6.87857411 C4.19891824,7.90882046 4.49538365,8.72816493 5.12058281,9.3384739 C5.87384696,10.064499 7.08895178,10.4284447 8.76186373,10.4284447 C10.401499,10.4284447 11.614587,10.0626326 12.4031447,9.3384739 C12.9930503,8.72909812 13.3217841,7.90975365 13.3217841,6.87857411 C13.3217841,5.96591023 12.9285136,5.17922756 12.2075178,4.56891858 C11.3544235,3.83916075 10.2058721,3.50881002 8.76287212,3.50881002 C7.31684696,3.50787683 6.1682956,3.83916075 5.31419287,4.56891858 Z" id="Shape"></path>
                </g>
            </g>
            <g id="Group-3-Copy-10" transform="translate(16.134172, 181.972860)">
                <ellipse id="Oval-3_14_" fill="#3FF2E8" cx="23.710174" cy="21.9729896" rx="22.9760692" ry="21.2628288"></ellipse>
                <g id="Group" transform="translate(15.125786, 11.198330)" fill="#111A41">
                    <path d="M14.8454549,3.70944676 C16.2884549,5.55997077 17.0447442,8.1411858 17.0447442,11.4820209 C17.0447442,15.0029624 16.2561866,17.8566701 14.7143648,20.0431441 C13.1069979,22.229618 10.9752704,23.3503841 8.28590566,23.3503841 C3.72598532,23.3503841 1.16670231,21.3776117 0.576796646,17.4628622 L4.05471908,17.4628622 C4.51252621,19.5560167 5.95653459,20.6189248 8.31918239,20.6189248 C9.92654927,20.6189248 11.2051824,19.8593048 12.1903753,18.4025887 C13.1090147,17.0055971 13.6000985,15.2474593 13.6000985,13.1524384 C13.6000985,13.0311232 13.5678302,12.9088747 13.5678302,12.7548977 L13.4357317,12.7548977 C12.7802809,13.698357 11.9261782,14.3945198 10.9430021,14.880714 C9.99209434,15.3053173 8.90908805,15.548881 7.69499161,15.548881 C5.39889727,15.548881 3.52733333,14.851785 2.15088679,13.4846555 C0.806708595,12.1492547 0.150249476,10.4163132 0.150249476,8.29422965 C0.150249476,6.10775574 0.904522013,4.34961795 2.47861216,2.95169311 C4.05371069,1.52390605 5.98981132,0.825876827 8.31918239,0.825876827 C11.1708973,0.824010438 13.3369099,1.76653653 14.8454549,3.70944676 Z M4.97033333,4.89273695 C4.08396226,5.77460543 3.65842348,6.89443841 3.65842348,8.29236326 C3.65842348,9.68935491 4.08396226,10.7802589 4.97033333,11.6024029 C5.79015094,12.4506764 6.93870231,12.8752797 8.41598742,12.8752797 C9.85898742,12.8752797 11.0408155,12.4506764 11.8939099,11.6024029 C12.7470042,10.7494635 13.172543,9.59696868 13.172543,8.19997704 C13.172543,6.77218998 12.7137275,5.6514238 11.8616415,4.83021294 C10.9752704,3.98007307 9.82772746,3.55360334 8.44926415,3.55360334 C7.00525577,3.55546973 5.82342767,3.98193946 4.97033333,4.89273695 Z" id="Shape"></path>
                </g>
            </g>
            <g id="Group-3-Copy-18" transform="translate(59.494759, 148.377871)">
                <ellipse id="Oval-3_15_" fill="#3FF2E8" cx="23.0194298" cy="22.1558956" rx="22.9750608" ry="21.2618956"></ellipse>
                <g id="Group" transform="translate(14.117400, 12.131524)" fill="#111A41">
                    <path d="M16.9328134,5.96311065 L13.4558994,5.96311065 C12.9638071,3.83729436 11.5530755,2.80518163 9.19143606,2.80518163 C7.54978407,2.80518163 6.27215933,3.53400626 5.32024319,5.02245094 C4.36933543,6.4175762 3.90850314,8.14865136 3.90850314,10.2735344 C3.90850314,10.3649875 3.90850314,10.4863027 3.94278826,10.6673424 L4.07387841,10.6673424 C4.73033753,9.69682046 5.55015514,8.99692484 6.56559958,8.54432568 C7.48524738,8.08799374 8.5662369,7.87709186 9.81461845,7.87709186 C12.1107128,7.87709186 13.9479916,8.54432568 15.3244382,9.87879332 C16.6696247,11.2468559 17.3593606,13.0049937 17.3593606,15.1317432 C17.3593606,17.2855553 16.5697945,19.0763549 15.0279727,20.4733466 C13.4538826,21.8712714 11.486522,22.5972965 9.1884109,22.5972965 C6.3024109,22.5972965 4.13740671,21.6258413 2.62785325,19.6838643 C1.18283648,17.8305407 0.461840671,15.2530585 0.461840671,11.9420856 C0.461840671,8.42114405 1.21712159,5.56650313 2.79020335,3.38096242 C4.36530189,1.1655595 6.53131447,0.0718559499 9.21866247,0.0718559499 C13.7513564,0.0727891441 16.3439161,2.01569937 16.9328134,5.96311065 Z M5.6167086,11.8217035 C4.76361426,12.6737098 4.3360587,13.7935428 4.3360587,15.2213299 C4.3360587,16.6183215 4.76361426,17.7409541 5.64897694,18.5910939 C6.50106289,19.442167 7.64961426,19.8667704 9.06034591,19.8667704 C10.5033459,19.8667704 11.6518973,19.413238 12.5049916,18.5323027 C13.3913627,17.620572 13.8501782,16.4970063 13.8501782,15.1336096 C13.8501782,13.7356848 13.423631,12.612119 12.5715451,11.8235699 C11.7184507,10.9743633 10.537631,10.5469603 9.09160587,10.5469603 C7.61734591,10.5460271 6.46879455,10.9743633 5.6167086,11.8217035 Z" id="Shape"></path>
                </g>
            </g>
            <g id="Group-3-Copy-13" transform="translate(81.679245, 21.463466)">
                <ellipse id="Oval-3_16_" fill="#3FF2E8" cx="23.8110126" cy="21.494261" rx="22.9750608" ry="21.2618956"></ellipse>
                <g id="Group" transform="translate(14.117400, 11.198330)" fill="#111A41">
                    <path d="M15.3304885,0.769885177 L15.3304885,15.0981482 L18.873956,15.0981482 L18.873956,17.7409541 L15.3304885,17.7409541 L15.3304885,22.446119 L11.9191195,22.446119 L11.9191195,17.7400209 L0.502176101,17.7400209 L0.502176101,14.6138205 L12.0502096,0.769885177 L15.3304885,0.769885177 Z M3.42246122,15.0981482 L11.9191195,15.0981482 L11.9191195,4.95899374 L11.8192893,4.95899374 L3.42246122,15.0981482 Z" id="Shape"></path>
                </g>
            </g>
        </g>
    </g>
</svg>