<?xml version="1.0" encoding="UTF-8"?>
<svg width="481px" height="447px" viewBox="0 0 481 447" version="1.1" xmlns="http://www.w3.org/2000/svg" xmlns:xlink="http://www.w3.org/1999/xlink">
    <!-- Generator: Sketch 46.2 (44496) - http://www.bohemiancoding.com/sketch -->
    <title>market</title>
    <desc>Created with Sketch.</desc>
    <defs></defs>
    <g id="Page-1" stroke="none" stroke-width="1" fill="none" fill-rule="evenodd">
        <g id="market" fill-rule="nonzero">
            <g id="Group-5" transform="translate(5.106157, 25.913043)">
                <g id="Oval-5" transform="translate(26.552017, 0.000000)">
                    <ellipse id="Oval" fill="#0B1A41" cx="216.139546" cy="196.226522" rx="213.189208" ry="193.197472"></ellipse>
                    <path d="M216.576633,392.006969 L216.139546,392.006969 C213.870369,392.006969 211.616512,391.975503 209.368781,391.911646 L209.546476,386.750323 C211.735996,386.812329 213.932665,386.84472 216.139546,386.84472 L216.576633,386.84472 L216.576633,392.006969 Z M223.79776,391.887584 L223.595556,386.723484 C225.943367,386.652224 228.28403,386.542093 230.619586,386.398646 L231.001527,391.548863 C228.611845,391.697863 226.207866,391.807068 223.79776,391.887584 Z M202.165015,391.603466 C199.75593,391.462795 197.358079,391.285106 194.971461,391.075025 L195.524968,385.935913 C197.847248,386.141366 200.182805,386.311652 202.529594,386.44677 L202.165015,391.603466 Z M238.194059,391.000062 L237.611958,385.862801 C239.951599,385.646242 242.278985,385.397292 244.593096,385.112248 L245.355955,390.231925 C242.981592,390.521596 240.591911,390.777025 238.194059,391.000062 Z M187.804459,390.334652 C185.413756,390.052385 183.035308,389.733099 180.667072,389.376795 L181.59435,384.283957 C183.901312,384.627304 186.216444,384.941037 188.545873,385.218677 L187.804459,390.334652 Z M252.497427,389.250006 L251.529299,384.161795 C253.848516,383.799012 256.154456,383.411242 258.443036,382.985528 L259.585794,388.046901 C257.234919,388.479093 254.87179,388.880745 252.497427,389.250006 Z M173.569514,388.206081 C171.204342,387.781292 168.853467,387.317634 166.51689,386.815106 L167.824066,381.792602 C170.095285,382.273845 172.382843,382.724547 174.686741,383.141932 L173.569514,388.206081 Z M266.625142,386.632789 L265.303669,381.60936 C267.581015,381.114236 269.847127,380.587646 272.099964,380.024037 L273.617514,385.004894 C271.302382,385.579609 268.972953,386.126559 266.625142,386.632789 Z M159.518391,385.21405 C157.194068,384.640261 154.886085,384.036857 152.590357,383.398286 L154.257006,378.461851 C156.492482,379.080062 158.745318,379.674211 161.01041,380.229491 L159.518391,385.21405 Z M280.540442,383.162292 L278.842134,378.233261 C281.085779,377.599317 283.306958,376.934832 285.511796,376.234255 L287.398011,381.107758 C285.130877,381.825919 282.846382,382.510764 280.540442,383.162292 Z M145.705214,381.366888 C143.418677,380.650578 141.150522,379.905578 138.900749,379.122634 L140.942191,374.299106 C143.13069,375.062615 145.33655,375.790957 147.558749,376.479503 L145.705214,381.366888 Z M294.165711,378.84777 L292.100781,374.032571 C294.285195,373.267211 296.447142,372.470385 298.589686,371.638391 L300.829246,376.386957 C298.623386,377.239311 296.404251,378.057422 294.165711,378.84777 Z M132.191259,376.675702 C129.963953,375.824273 127.760136,374.942304 125.572658,374.027019 L127.96234,369.337683 C130.094671,370.228907 132.239257,371.093292 134.403246,371.917882 L132.191259,376.675702 Z M307.40087,373.73272 L304.989743,369.054491 C307.10982,368.155863 309.211514,367.229472 311.291762,366.273466 L313.871393,370.873031 C311.735998,371.858652 309.5812,372.810031 307.40087,373.73272 Z M119.061287,371.177509 C116.903425,370.190037 114.771093,369.175727 112.658166,368.12995 L115.390981,363.597019 C117.448762,364.618733 119.526968,365.608056 121.623556,366.562211 L119.061287,371.177509 Z M320.228558,367.820845 L317.480425,363.293466 C319.535142,362.272677 321.561265,361.21672 323.567985,360.134851 L326.483601,364.573385 C324.419692,365.68672 322.337401,366.76859 320.228558,367.820845 Z M106.380656,364.891745 C104.303471,363.783037 102.249775,362.638236 100.220588,361.464745 L103.281219,357.109503 C105.258323,358.251528 107.256873,359.364863 109.27789,360.447658 L106.380656,364.891745 Z M332.616096,361.144534 L329.53504,356.800398 C331.504996,355.656522 333.450442,354.483031 335.379548,353.277149 L338.613788,357.525963 C336.636684,358.762385 334.634049,359.969193 332.616096,361.144534 Z M94.1943015,357.858205 C92.2049427,356.62641 90.238051,355.361298 88.2987325,354.061944 L91.6820722,349.908453 C93.5672654,351.168938 95.4769682,352.396106 97.4101592,353.595509 L94.1943015,357.858205 Z M344.477699,353.733404 L341.090274,349.579913 C342.978531,348.314801 344.834108,347.025627 346.665176,345.711466 L350.205786,349.757602 C348.320592,351.110634 346.413953,352.435901 344.477699,353.733404 Z M82.5563482,350.10095 C80.6660488,348.752547 78.800259,347.375453 76.9610212,345.972447 L80.6303057,342.019783 C82.4235881,343.390398 84.2424013,344.730472 86.0836815,346.046484 L82.5563482,350.10095 Z M355.773539,345.618919 L352.094042,341.680137 C353.881197,340.307671 355.639758,338.910217 357.372788,337.484075 L361.197299,341.30995 C359.418314,342.773112 357.609713,344.211286 355.773539,345.618919 Z M71.5229639,341.673658 C69.7378514,340.217901 67.9782696,338.725124 66.2462611,337.21754 L70.1963843,333.497168 C71.8834586,334.968658 73.5981062,336.415161 75.3382845,337.839453 L71.5229639,341.673658 Z M366.466854,336.838099 L362.502433,333.132534 C364.18338,331.65364 365.839817,330.15346 367.464597,328.62459 L371.561777,332.211696 C369.894106,333.777584 368.19682,335.322186 366.466854,336.838099 Z M61.130913,332.599466 C59.454051,331.032652 57.8088471,329.444553 56.1901953,327.826839 L60.4099236,324.360969 C61.9846624,325.933335 63.589017,327.478863 65.2199236,329.001255 L61.130913,332.599466 Z M376.487176,327.433516 L372.258257,323.974124 C373.829932,322.39713 375.371992,320.796075 376.883414,319.172807 L381.238966,322.508186 C379.684652,324.17495 378.100722,325.814876 376.487176,327.433516 Z M51.4332994,322.922795 C49.8779639,321.261584 48.3512229,319.582789 46.8551189,317.878081 L51.3189214,314.661161 C52.7751975,316.324224 54.2600679,317.965075 55.7765966,319.581863 L51.4332994,322.922795 Z M385.797743,317.443112 L381.332919,314.241 C382.78511,312.572385 384.204622,310.886186 385.593497,309.175 L390.183932,312.238292 C388.754208,313.994826 387.291805,315.730075 385.797743,317.443112 Z M42.4668875,312.693621 C41.0361423,310.946342 39.636034,309.175 38.2686051,307.378671 L42.9570786,304.44772 C44.2887643,306.195 45.651087,307.914516 47.0430255,309.616447 L42.4668875,312.693621 Z M394.370981,306.902056 L389.675359,303.977584 C391.005002,302.228453 392.29686,300.454335 393.560123,298.663559 L398.35889,301.444584 C397.063968,303.285335 395.734325,305.104801 394.370981,306.902056 Z M34.274569,301.944335 C32.9786263,300.114689 31.7133206,298.264683 30.4817155,296.395242 L35.3754565,293.749335 C36.5754034,295.574354 37.804966,297.371609 39.0692505,299.152205 L34.274569,301.944335 Z M402.149701,295.861248 L397.238599,293.239404 C398.432418,291.406981 399.599686,289.561602 400.728146,287.692161 L405.722989,290.176112 C404.56287,292.088124 403.370072,293.988106 402.149701,295.861248 Z M26.896172,290.73787 C25.7360531,288.833261 24.6096348,286.911068 23.5199809,284.973143 L28.5985648,282.626161 C29.658603,284.514112 30.7543843,286.385404 31.882845,288.240037 L26.896172,290.73787 Z M409.093053,284.380845 L404.008342,282.053298 C405.065316,280.156093 406.087569,278.239453 407.074079,276.309857 L412.243552,278.484702 C411.228448,280.466124 410.177601,282.431814 409.093053,284.380845 Z M20.3613121,279.111242 C19.3451868,277.145553 18.3668471,275.161354 17.4201656,273.156795 L22.6570403,271.128174 C23.5792123,273.07628 24.5340637,275.006801 25.5215945,276.923441 L20.3613121,279.111242 Z M415.180614,272.489534 L409.92842,270.478497 C410.843444,268.522062 411.721703,266.548969 412.563197,264.555516 L417.885856,266.410149 C417.016788,268.451727 416.114019,270.480348 415.180614,272.489534 Z M14.7016476,267.121832 C13.8305372,265.093211 12.9982335,263.050708 12.2006518,260.987845 L17.5784565,259.279435 C18.3545924,261.283068 19.1664713,263.275596 20.0130722,265.248689 L14.7016476,267.121832 Z M420.361321,260.253025 L414.977389,258.564975 C415.746376,256.555789 416.477577,254.534571 417.168951,252.492994 L422.615178,254.01446 C421.901338,256.11064 421.149711,258.187385 420.361321,260.253025 Z M9.92943312,254.782596 C9.21252866,252.706776 8.53340977,250.613373 7.89003397,248.509789 L13.3822166,247.130845 C14.0072102,249.181677 14.6710106,251.217702 15.3695329,253.237994 L9.92943312,254.782596 Z M424.621898,247.735174 L419.125631,246.36641 C419.741433,244.331311 420.31945,242.273075 420.85866,240.205584 L426.400883,241.39018 C425.849418,243.520602 425.257104,245.637143 424.621898,247.735174 Z M6.08551805,242.172199 C5.52588323,240.061211 5.00301274,237.933565 4.51588535,235.790186 L10.0969151,234.750888 C10.5697452,236.835037 11.0803609,238.907155 11.6256985,240.967242 L6.08551805,242.172199 Z M427.937837,235.006317 L422.352722,233.984602 C422.81534,231.906932 423.237108,229.820006 423.623134,227.722901 L429.24297,228.569702 C428.850817,230.729739 428.415773,232.872193 427.937837,235.006317 Z M3.18522081,229.362826 C2.78183439,227.220373 2.41725478,225.064963 2.09250318,222.900298 L7.73684926,222.198795 C8.05547346,224.307932 8.40984076,226.407814 8.80301486,228.493814 L3.18522081,229.362826 Z M430.310157,222.105323 L424.663769,221.430658 C424.968096,219.329851 425.237701,217.22164 425.466456,215.104174 L431.136333,215.607627 C430.898386,217.782472 430.624696,219.948062 430.310157,222.105323 Z M1.23569002,216.410006 C0.99059448,214.247193 0.785326964,212.072348 0.618866242,209.891025 L6.30406157,209.539348 C6.46337367,211.663292 6.66557749,213.77428 6.90352442,215.879714 L1.23569002,216.410006 Z M431.716393,209.097901 L426.03324,208.761957 C426.183361,206.650969 426.297739,204.529801 426.371268,202.399379 L432.067696,202.563186 C431.989062,204.751913 431.872641,206.928609 431.716393,209.097901 Z M0.24407431,203.367416 C0.156248408,201.199975 0.109271762,199.018652 0.103144374,196.829925 L5.79855202,196.813267 C5.80570064,198.94554 5.85267728,201.068559 5.93641826,203.179547 L0.24407431,203.367416 Z M426.485645,196.030323 C426.482582,193.89805 426.440711,191.775031 426.362076,189.659416 L432.057484,189.48728 C432.136119,191.65472 432.177989,193.833267 432.183096,196.022919 L426.485645,196.030323 Z M5.895569,190.444211 L0.198118896,190.289658 C0.27266879,188.104634 0.383983015,185.926087 0.533082803,183.760497 L6.21929936,184.081634 C6.0742845,186.193547 5.96603397,188.313789 5.895569,190.444211 Z M426.00873,183.301466 C425.849418,181.177522 425.654363,179.062832 425.422544,176.957398 L431.091399,176.440988 C431.331389,178.60195 431.53155,180.774019 431.691883,182.955342 L426.00873,183.301466 Z M6.77587049,177.737565 L1.10395117,177.242441 C1.3357707,175.06482 1.6053758,172.89923 1.91787261,170.741969 L7.56630361,171.413857 C7.26299788,173.510963 7.0005414,175.619174 6.77587049,177.737565 Z M424.604537,170.636466 C424.289998,168.527329 423.941758,166.427447 423.554711,164.341447 L429.173527,163.48354 C429.568743,165.626919 429.932301,167.782329 430.251947,169.948845 L424.604537,170.636466 Z M8.58855626,165.113286 L2.96463482,164.274814 C3.35576645,162.119404 3.78570488,159.975099 4.25342887,157.840975 L9.84160722,158.846031 C9.38818047,160.922776 8.96947558,163.011553 8.58855626,165.113286 Z M422.274087,158.084373 C421.804321,155.998373 421.300854,153.925329 420.756537,151.864317 L426.303866,150.665839 C426.858395,152.781453 427.375138,154.91095 427.859202,157.050627 L422.274087,158.084373 Z M11.3264777,152.626901 L5.78016985,151.448783 C6.32959236,149.321137 6.91577919,147.207373 7.54077282,145.106565 L13.044189,146.452193 C12.435535,148.496547 11.8626242,150.556634 11.3264777,152.626901 Z M419.007168,145.696087 C418.390344,143.645255 417.732671,141.611081 417.040276,139.588938 L422.479355,138.057292 C423.190132,140.136814 423.870272,142.230217 424.502414,144.339354 L419.007168,145.696087 Z M14.9875924,140.334863 L9.53728025,138.822652 C10.2470361,136.728323 10.992535,134.64695 11.7737771,132.582236 L17.1648577,134.25918 C16.4030191,136.269292 15.6759023,138.295137 14.9875924,140.334863 Z M414.841565,133.54287 C414.070535,131.53646 413.267847,129.542081 412.422268,127.565286 L417.734713,125.703248 C418.60276,127.73187 419.433021,129.780851 420.225497,131.843714 L414.841565,133.54287 Z M19.5667941,128.256609 L14.2410722,126.415857 C15.1040127,124.369652 16.0037176,122.340106 16.9391656,120.328143 L22.1903376,122.332702 C21.2793992,124.291913 20.4042038,126.265932 19.5667941,128.256609 Z M409.788512,121.682099 C408.875531,119.733068 407.924764,117.79977 406.939276,115.884981 L412.108749,113.704584 C413.121811,115.672124 414.096066,117.661876 415.034577,119.664584 L409.788512,121.682099 Z M25.0273185,116.493938 L19.8527389,114.33205 C20.8647792,112.345075 21.9115414,110.376609 22.9940467,108.426652 L28.0859066,110.746795 C27.0319958,112.645851 26.0128068,114.56064 25.0273185,116.493938 Z M403.876603,110.171155 C402.818607,108.281354 401.727932,106.410062 400.602535,104.55728 L405.596357,102.066851 C406.750348,103.970534 407.874724,105.896429 408.960293,107.838981 L403.876603,110.171155 Z M31.348741,105.095901 L26.3487919,102.624907 C27.5027834,100.705491 28.692518,98.8073602 29.9169745,96.9268137 L34.8229703,99.5514348 C33.6311932,101.382006 32.4720955,103.230161 31.348741,105.095901 Z M397.121157,99.0359503 C395.92938,97.2127826 394.700839,95.4109006 393.440639,93.6266025 L398.242469,90.8428012 C399.535348,92.6742981 400.79759,94.5270807 402.026132,96.4011491 L397.121157,99.0359503 Z M38.4942972,94.1133975 L33.6873609,91.3434783 C34.9802399,89.4990248 36.3037558,87.6777081 37.6640361,85.8758261 L42.3688493,88.7910435 C41.0463546,90.5448012 39.7565393,92.3198447 38.4942972,94.1133975 Z M389.560981,88.3273851 C388.236444,86.5791801 386.880248,84.8541118 385.489331,83.1521801 L390.072618,80.0824099 C391.498257,81.8343168 392.895301,83.6084348 394.257624,85.404764 L389.560981,88.3273851 Z M46.4323291,83.5908509 L41.8367877,80.5377391 C43.2614055,78.7775031 44.7166603,77.0385528 46.2056157,75.3236646 L50.6847367,78.5174472 C49.2335669,80.1869876 47.8181401,81.8787391 46.4323291,83.5908509 Z M381.223648,78.0963602 C379.773499,76.4305217 378.292713,74.7887453 376.781291,73.1701056 L381.1348,69.8356522 C382.682987,71.4977888 384.204622,73.184913 385.696641,74.8942484 L381.223648,78.0963602 Z M55.1219873,73.5745342 L50.7603079,70.2493354 C52.3095159,68.5807205 53.8883397,66.9361677 55.4988217,65.315677 L59.7338684,68.7695155 C58.1662781,70.3492857 56.6293248,71.9503416 55.1219873,73.5745342 Z M372.160219,68.3845217 C370.586501,66.8103043 368.987253,65.2582981 367.35941,63.732205 L371.45659,60.142323 C373.124261,61.7091366 374.767423,63.299087 376.383011,64.9149503 L372.160219,68.3845217 Z M64.5234437,64.1070186 L60.4170722,60.5291677 C62.0847431,58.9568012 63.7799873,57.4103478 65.5068896,55.8898075 L69.4784586,59.5925963 C67.7964904,61.0733416 66.1461805,62.5781491 64.5234437,64.1070186 Z M362.389076,59.2316646 C360.703023,57.7536957 358.995524,56.3034907 357.25841,54.8791988 L361.083943,51.0496211 C362.862928,52.5118571 364.620467,54.0027826 366.351454,55.5186957 L362.389076,59.2316646 Z M74.5907431,55.2318012 L70.7539766,51.4114783 C72.533983,49.9464658 74.3364565,48.5055155 76.1675244,47.0941801 L79.8613185,51.0246335 C78.0782484,52.4017267 76.3196879,53.8047329 74.5907431,55.2318012 Z M351.970473,50.6840621 C350.183318,49.3106708 348.374718,47.9668944 346.536501,46.6490311 L350.069962,42.5991925 C351.95924,43.9522236 353.820945,45.3348696 355.657119,46.744354 L351.970473,50.6840621 Z M85.2830361,46.9784969 L81.7362994,42.9388385 C83.6153652,41.5830311 85.520983,40.255913 87.4511104,38.9556335 L90.8487473,43.100795 C88.9696815,44.3659068 87.114104,45.6587826 85.2830361,46.9784969 Z M340.94628,42.7796584 C339.061087,41.5163975 337.152406,40.2827516 335.221257,39.0787205 L338.448348,34.8234286 C340.435665,36.0617019 342.391323,37.3277391 344.334726,38.6252422 L340.94628,42.7796584 Z M96.5513036,39.3961553 L93.3068514,35.150118 C95.2808917,33.9118447 97.2784204,32.7022609 99.3014798,31.5222919 L102.38662,35.8618012 C100.418707,37.0112298 98.4722399,38.1893478 96.5513036,39.3961553 Z M329.36041,35.5536211 C327.387391,34.4106708 325.391904,33.294559 323.371909,32.2089876 L326.281397,27.7667516 C328.354497,28.8819379 330.406151,30.0285901 332.434316,31.2039317 L329.36041,35.5536211 Z M108.346527,32.5116149 L105.42172,28.0786335 C107.481544,26.9634472 109.562813,25.8769503 111.66655,24.8219193 L114.423875,29.3409689 C112.376306,30.3673106 110.350183,31.4232671 108.346527,32.5116149 Z M317.26086,29.0429689 C315.209206,28.0194037 313.137127,27.0273043 311.041561,26.0685217 L313.614042,21.4606273 C315.765777,22.4471739 317.903214,23.4679627 320.008994,24.5202174 L317.26086,29.0429689 Z M120.612537,26.3563416 L118.017588,21.7586273 C120.154004,20.7711553 122.310845,19.8123727 124.487089,18.8878323 L126.904344,23.5632857 C124.78631,24.4656149 122.689722,25.3938571 120.612537,26.3563416 Z M304.707883,23.2828696 C302.582701,22.3851677 300.440157,21.5226335 298.272083,20.6906398 L300.499389,15.9374472 C302.720567,16.7916522 304.925406,17.6810248 307.114926,18.6018634 L304.707883,23.2828696 Z M133.297253,20.9655031 L131.050544,16.2187888 C133.250276,15.3636584 135.469412,14.5409193 137.70693,13.749646 L139.78003,18.5592919 C137.600722,19.3320559 135.440817,20.1325839 133.297253,20.9655031 Z M291.742329,18.2955342 C289.556894,17.5310994 287.353076,16.7999814 285.125771,16.0994037 L286.996667,11.2212733 C289.277076,11.9385093 291.546253,12.6918385 293.791941,13.4766335 L291.742329,18.2955342 Z M146.366972,16.348354 L144.475652,11.4757764 C146.738701,10.753913 149.022174,10.0662919 151.321987,9.41013665 L153.033571,14.3354658 C150.792989,14.9740373 148.571811,15.6459255 146.366972,16.348354 Z M278.43262,14.1078012 C276.198166,13.4812609 273.952478,12.8880373 271.684323,12.3281304 L273.186554,7.34542236 C275.514962,7.92106211 277.819881,8.53001863 280.115609,9.17506832 L278.43262,14.1078012 Z M159.768592,12.5363602 L158.244915,7.55920497 C160.555962,6.97893789 162.884369,6.43198758 165.229117,5.91835404 L166.568972,10.9353043 C164.285499,11.4369068 162.019386,11.9718261 159.768592,12.5363602 Z M264.875773,10.7566894 C262.604554,10.2661925 260.318017,9.81086335 258.01514,9.3897764 L259.14258,4.32840373 C261.507752,4.76152174 263.862711,5.22980745 266.197246,5.7323354 L264.875773,10.7566894 Z M173.423478,9.54618012 L172.271529,4.48758385 C174.621382,4.04983851 176.984512,3.64355901 179.363981,3.27337267 L180.325981,8.36343478 C178.01187,8.72436646 175.711036,9.11676398 173.423478,9.54618012 Z M251.10651,8.23386957 C248.802611,7.88404348 246.48748,7.56938509 244.160093,7.28711801 L244.910699,2.16929193 C247.30038,2.4571118 249.679849,2.78195031 252.045021,3.14103106 L251.10651,8.23386957 Z M187.267291,7.39169565 L186.493197,2.2757205 C188.867561,1.98049689 191.256221,1.72044099 193.657136,1.49462733 L194.245365,6.63096273 C191.905724,6.8512236 189.579359,7.10480124 187.267291,7.39169565 Z M237.186104,6.5532236 C234.861781,6.34314286 232.526225,6.17008075 230.184541,6.0303354 L230.559333,0.876416149 C232.965355,1.02171429 235.362185,1.20032919 237.749824,1.41596273 L237.186104,6.5532236 Z M201.239779,6.08401242 L200.843541,0.933795031 C203.233223,0.781093168 205.633117,0.663559006 208.045265,0.58489441 L208.258703,5.74436646 C205.908849,5.82303106 203.570229,5.93686335 201.239779,6.08401242 Z M223.164597,5.71660248 C220.82904,5.64534161 218.489399,5.61017391 216.139546,5.61017391 L215.285796,5.61295031 L215.253117,0.449776398 L216.122185,0.447925466 C218.553737,0.447925466 220.955673,0.483093168 223.352503,0.554354037 L223.164597,5.71660248 Z" id="Shape" fill="#5EBBE6"></path>
                </g>
                <g id="Oval-5_1_" transform="translate(123.569002, 88.844720)">
                    <ellipse id="Oval" fill="#0B163D" cx="120.584964" cy="108.708919" rx="116.972868" ry="106.003783"></ellipse>
                    <path d="M117.766365,217.265137 C115.317452,217.213311 112.888964,217.096702 110.483964,216.910683 L110.963943,211.766944 C113.252522,211.940932 115.566633,212.051062 117.897083,212.100112 L117.766365,217.265137 Z M125.055915,217.217938 L124.85269,212.053839 C127.180076,211.982578 129.489081,211.83913 131.77766,211.637379 L132.336274,216.77464 C129.929231,216.989348 127.500743,217.137422 125.055915,217.217938 Z M103.243433,216.161981 C100.826178,215.844547 98.4324119,215.46418 96.0590701,215.016255 L97.2181677,209.962286 C99.4750892,210.382447 101.754478,210.752634 104.057355,211.052484 L103.243433,216.161981 Z M139.561486,215.937093 L138.671994,210.837776 C140.966701,210.510161 143.238941,210.115913 145.487692,209.659658 L146.725425,214.699745 C144.364338,215.177286 141.975677,215.590043 139.561486,215.937093 Z M88.9686603,213.468876 C86.6126794,212.889534 84.2863142,212.243559 81.9916072,211.535578 L83.8247176,206.645416 C86.0101529,207.320081 88.2221401,207.935516 90.4627219,208.488019 L88.9686603,213.468876 Z M153.792346,213.066298 L152.220671,208.106727 C154.455125,207.521832 156.6569,206.884186 158.830081,206.180832 L160.742847,211.046932 C158.455289,211.780826 156.138115,212.456416 153.792346,213.066298 Z M75.1483355,209.213584 C72.8924352,208.376037 70.6692144,207.473708 68.4837792,206.519553 L70.9561805,201.867236 C73.041535,202.777894 75.159569,203.635801 77.3113036,204.435404 L75.1483355,209.213584 Z M167.524845,208.642571 L165.284263,203.897708 C167.416594,203.070342 169.517268,202.191149 171.582197,201.254578 L174.127106,205.87728 C171.96618,206.856422 169.760321,207.780963 167.524845,208.642571 Z M62.0101932,203.452559 C59.8850106,202.373466 57.8006773,201.235143 55.7582144,200.044068 L58.8433546,195.699932 C60.7888004,196.835478 62.7761168,197.920124 64.8001975,198.95387 L62.0101932,203.452559 Z M180.548609,202.737174 L177.691204,198.268099 C179.692817,197.214919 181.662773,196.108988 183.590858,194.953081 L186.734208,199.257422 C184.714212,200.470708 182.649282,201.634019 180.548609,202.737174 Z M49.7452038,196.293155 C47.782397,194.988248 45.8665669,193.627814 43.9977134,192.22018 L47.6384034,188.249006 C49.4184098,189.588155 51.2443715,190.885658 53.1142463,192.124857 L49.7452038,196.293155 Z M192.691051,195.441727 L189.253586,191.32618 C191.105079,190.05459 192.908573,188.74413 194.668155,187.379994 L198.370119,191.30582 C196.525775,192.734739 194.630369,194.113683 192.691051,195.441727 Z M38.5341253,187.839025 C36.7622887,186.327739 35.042535,184.772957 33.3738429,183.167273 L37.5210637,179.62459 C39.111121,181.154385 40.7491762,182.639758 42.4403355,184.077932 L38.5341253,187.839025 Z M203.771412,186.861733 L199.812098,183.148764 C201.475684,181.693932 203.096378,180.189124 204.662947,178.64082 L208.858166,182.134453 C207.213983,183.756795 205.515675,185.338416 203.771412,186.861733 Z M28.5362696,178.225286 C26.979913,176.53446 25.4807452,174.801062 24.0387665,173.02972 L28.6230743,169.966429 C29.998673,171.654478 31.428397,173.306435 32.9122463,174.917671 L28.5362696,178.225286 Z M213.627316,177.13046 L209.21049,173.870969 C210.671873,172.244925 212.075045,170.57446 213.427155,168.865124 L218.057418,171.872888 C216.638928,173.668292 215.163248,175.42205 213.627316,177.13046 Z M19.897673,167.592609 C18.5802845,165.745379 17.3241699,163.862056 16.1303503,161.944491 L21.093535,159.403161 C22.2322081,161.232807 23.4301125,163.029137 24.6841847,164.785671 L19.897673,167.592609 Z M222.128047,166.380248 L217.298643,163.639944 C218.526163,161.861199 219.702622,160.049137 220.813722,158.202832 L225.815713,160.674752 C224.647425,162.616379 223.41582,164.515435 222.128047,166.380248 Z M12.7490531,156.090919 C11.6910573,154.11505 10.6973992,152.105863 9.77012102,150.071689 L15.0366115,148.097671 C15.9209979,150.040224 16.8666582,151.951311 17.8756348,153.835559 L12.7490531,156.090919 Z M229.120418,154.773981 L223.965242,152.578776 C224.945624,150.682497 225.866775,148.756602 226.720524,146.799242 L232.019694,148.696447 C231.122032,150.755609 230.159011,152.780528 229.120418,154.773981 Z M7.1955966,143.881248 C6.41129087,141.803578 5.69336518,139.699068 5.04692569,137.569571 L10.5411507,136.200807 C11.1569533,138.228503 11.8391359,140.235839 12.5856561,142.210783 L7.1955966,143.881248 Z M234.502308,142.472689 L229.082633,140.871634 C229.798516,138.883733 230.452104,136.868068 231.038291,134.830193 L236.552941,136.135099 C235.933053,138.274776 235.252913,140.390391 234.502308,142.472689 Z M3.32921444,131.141286 C2.8308535,128.996981 2.40295754,126.826764 2.047569,124.640814 L7.68578769,123.884708 C8.02483652,125.971634 8.43128662,128.038199 8.90615924,130.082553 L3.32921444,131.141286 Z M238.174656,129.685528 L232.582393,128.696205 C233.022544,126.647224 233.398357,124.578807 233.704726,122.486329 L239.353157,123.161919 C239.031469,125.359901 238.637274,127.530118 238.174656,129.685528 Z M1.20811677,118.074634 C0.999785563,115.893311 0.866004246,113.695329 0.804730361,111.477913 L6.50115924,111.35205 C6.55936943,113.461186 6.68804459,115.552739 6.88412102,117.632261 L1.20811677,118.074634 Z M240.096614,116.583708 L234.413461,116.218149 C234.576858,114.142329 234.675917,112.041522 234.702469,109.928683 L240.397877,109.986988 C240.371325,112.20718 240.267159,114.407012 240.096614,116.583708 Z M6.53383864,105.050553 L0.840473461,104.871938 C0.925235669,102.655447 1.08352654,100.458391 1.31023992,98.2779938 L6.98318047,98.7657143 C6.76770064,100.84246 6.61553715,102.93864 6.53383864,105.050553 Z M234.571752,103.626261 C234.460437,101.519901 234.277637,99.4292733 234.027435,97.3571553 L239.689142,96.7935466 C239.953641,98.9730186 240.148696,101.171 240.260011,103.387491 L234.571752,103.626261 Z M7.85326964,92.5225217 L2.22322081,91.7219938 C2.60414013,89.5332671 3.05450318,87.3686025 3.57635244,85.2261491 L9.14104246,86.3376335 C8.64370276,88.3792112 8.2127431,90.4411491 7.85326964,92.5225217 Z M233.057265,91.1213665 C232.669197,89.0436957 232.209643,86.9873106 231.680645,84.9549876 L237.231038,83.7759441 C237.781482,85.9119193 238.269631,88.0738075 238.679144,90.254205 L233.057265,91.1213665 Z M10.842414,80.2360373 L5.36554989,78.8182236 C6.03547771,76.6905776 6.77382803,74.5897702 7.58468577,72.5195031 L12.9543206,74.243646 C12.1853333,76.2139627 11.4806837,78.2129689 10.842414,80.2360373 Z M229.888384,78.8756025 C229.22152,76.8599379 228.487255,74.8692609 227.686609,72.9081988 L233.028671,71.1183478 C233.872208,73.1802857 234.648344,75.2699876 235.348909,77.3893043 L229.888384,78.8756025 Z M15.4726773,68.3660124 L10.2286539,66.3494224 C11.1814628,64.312472 12.2006518,62.3088385 13.2851996,60.3366708 L18.3831868,62.6410807 C17.3517431,64.517 16.3815732,66.4271615 15.4726773,68.3660124 Z M225.081448,67.0814658 C224.151106,65.1583478 223.152342,63.2676211 222.099452,61.4102112 L227.162718,59.0465714 C228.271775,60.9974534 229.316495,62.9844286 230.298919,65.0047205 L225.081448,67.0814658 Z M21.6735945,57.0901366 L16.737983,54.5090124 C17.9552909,52.5960745 19.2359151,50.7201553 20.5767919,48.8812547 L25.3316454,51.7298385 C24.0530637,53.4817453 22.8326921,55.2678944 21.6735945,57.0901366 Z M218.732452,55.9073913 C217.553951,54.1036584 216.308049,52.3332422 215.010064,50.6053975 L219.718962,47.6985093 C221.086391,49.5189006 222.393567,51.3763106 223.636406,53.2716646 L218.732452,55.9073913 Z M29.3389575,46.5842484 L24.7852866,43.480236 C26.2497325,41.7181491 27.7693248,39.9967826 29.3450849,38.3179876 L33.6853185,41.666323 C32.183087,43.265528 30.7329384,44.9054534 29.3389575,46.5842484 Z M210.928202,45.512559 C209.51686,43.8504224 208.042202,42.2299317 206.519546,40.651087 L210.809739,37.2527764 C212.410008,38.9112112 213.952068,40.6131429 215.442045,42.357646 L210.928202,45.512559 Z M38.3492824,37.0029006 L34.2418896,33.4213478 C35.9289639,31.832323 37.668121,30.2923478 39.4573185,28.798646 L43.3185945,32.5986087 C41.6121168,34.0210497 39.9556794,35.489764 38.3492824,37.0029006 Z M201.787159,36.0404161 C200.161359,34.5467143 198.484497,33.0992857 196.758616,31.6944286 L200.563724,27.8518944 C202.373346,29.3215342 204.132928,30.843 205.842469,32.4098137 L201.787159,36.0404161 Z M48.5656815,28.4775093 L44.966862,24.4748696 C46.8500127,23.0857453 48.7801401,21.7456708 50.7552017,20.4592733 L54.0803312,24.6516335 C52.1982017,25.8778758 50.3589639,27.1540932 48.5656815,28.4775093 Z M191.448212,27.6353354 C189.632463,26.3304286 187.7728,25.0764224 185.87331,23.8714658 L189.134102,19.6393106 C191.131631,20.9034969 193.083204,22.2204348 194.988822,23.5919752 L191.448212,27.6353354 Z M59.8400764,21.1394907 L56.7998705,16.7703665 C58.8515244,15.5978012 60.9481125,14.4816894 63.081465,13.4201801 L65.8214289,17.9494099 C63.7881571,18.9600186 61.7947134,20.0233789 59.8400764,21.1394907 Z M180.053312,20.4241056 C178.079272,19.330205 176.066425,18.2862795 174.016813,17.2997329 L176.688355,12.7390373 C178.839068,13.7764845 180.954038,14.8694596 183.024074,16.0170373 L180.053312,20.4241056 Z M72.0019214,15.0980497 L69.5744544,10.4262981 C71.766017,9.49250311 73.9912803,8.61608696 76.2502442,7.79797516 L78.3652144,12.5918882 C76.2104161,13.3720559 74.0882972,14.2077516 72.0019214,15.0980497 Z M167.774025,14.5177826 C165.673352,13.6487702 163.53183,12.8380621 161.361713,12.0847329 L163.398049,7.26213043 C165.681522,8.05340373 167.92721,8.90575776 170.140219,9.81919255 L167.774025,14.5177826 Z M84.8908832,10.4457329 L83.1108769,5.54168944 C85.4127325,4.85499379 87.7442038,4.23030435 90.1073333,3.66854658 L91.553397,8.66328571 C89.302603,9.1972795 87.0814246,9.79235404 84.8908832,10.4457329 Z M154.788047,10.0144658 C152.587293,9.38607453 150.359987,8.81968944 148.104087,8.31345963 L149.472537,3.30206211 C151.842815,3.83420497 154.184499,4.4292795 156.497588,5.08728571 L154.788047,10.0144658 Z M98.3200764,7.25287578 L97.2110191,2.18780124 C99.5843609,1.76116149 101.985276,1.40022981 104.405594,1.10222981 L105.170497,6.22098137 C102.864556,6.50324845 100.57904,6.84752174 98.3200764,7.25287578 Z M141.312898,6.98726708 C139.049849,6.61152795 136.76127,6.29409317 134.44818,6.04236646 L135.138533,0.913434783 C137.561915,1.18089441 139.968958,1.51313665 142.344342,1.91016149 L141.312898,6.98726708 Z M112.080149,5.57037888 L111.65838,0.419236025 C114.068486,0.259130435 116.501059,0.161031056 118.945887,0.133267081 L119.020437,5.29644099 C116.688966,5.3232795 114.375877,5.41582609 112.080149,5.57037888 Z M127.526274,5.47690683 C125.233609,5.35011801 122.915414,5.28718634 120.584964,5.28718634 L120.584964,0.124012422 C123.032856,0.124012422 125.460323,0.189720497 127.875535,0.322062112 L127.526274,5.47690683 Z" id="Shape" fill="#5EBBE6"></path>
                </g>
                <g id="Group" transform="translate(103.144374, 192.496894)" fill="#F8D664">
                    <path d="M13.8642378,1.82501863 C15.2091996,2.93095031 15.9158917,4.41262112 15.9158917,6.21265217 C15.9158917,8.01545963 15.144862,9.64150311 13.6712251,11.0944845 C12.8695584,11.8515155 11.2989045,12.9824348 8.9276051,14.4354161 C6.00994692,16.2095342 4.34125478,17.8078137 3.92357113,19.1997143 L15.9465287,19.1997143 L15.9465287,21.320882 L0.685246285,21.320882 C0.685246285,19.4329317 1.42257537,17.717118 2.96157113,16.1771429 C3.85821231,15.2479752 5.49524628,13.9995217 7.93088323,12.4891615 C9.72620807,11.3258509 10.912879,10.4827516 11.5225541,9.90155901 C12.6765456,8.77156522 13.2862208,7.51940994 13.2862208,6.1821118 C13.2862208,4.90311801 12.8685372,3.94526087 12.0362335,3.24838509 C11.2039299,2.55150932 10.0152166,2.20168323 8.54055839,2.20168323 C6.97092569,2.20168323 5.7525966,2.66811801 4.91825053,3.6546646 C4.02058811,4.5838323 3.53856688,5.97665839 3.50792994,7.80722981 L0.878259023,7.80722981 C0.878259023,5.48523602 1.61660934,3.62597516 3.0259087,2.25813665 C4.43725053,0.865310559 6.32857113,0.168434783 8.63757537,0.168434783 C10.7525456,0.17121118 12.4855754,0.721863354 13.8642378,1.82501863 Z" id="Shape"></path>
                    <path d="M23.5414268,18.3593913 C23.9254098,18.6777516 24.11638,19.0849565 24.11638,19.5791553 C24.11638,20.101118 23.9243885,20.5092484 23.5414268,20.8276087 C23.1554013,21.1505963 22.6744013,21.3218075 22.1617431,21.3218075 C21.6153843,21.3218075 21.1670637,21.1496708 20.7830807,20.8276087 C20.3990977,20.480559 20.2060849,20.0761304 20.2060849,19.5791553 C20.2060849,19.0849565 20.3980764,18.6768261 20.7830807,18.3593913 C21.1670637,18.0095652 21.6153843,17.8651925 22.1617431,17.8651925 C22.7070807,17.8651925 23.1554013,18.0095652 23.5414268,18.3593913 Z" id="Shape"></path>
                    <path d="M43.0622654,0.577490683 L43.0622654,2.69773292 L31.9053121,2.69773292 L31.1373461,9.64150311 L31.2660212,9.64150311 C31.9053121,8.94462733 32.7396582,8.42173913 33.7333163,8.07191304 C34.6299575,7.72486335 35.594,7.58234161 36.6519958,7.58234161 C38.8323248,7.58234161 40.5959915,8.18852174 41.9419745,9.44067702 C43.29,10.7168944 43.9946497,12.4595466 43.9946497,14.6991739 C43.9946497,16.7907267 43.1613248,18.5056149 41.5263333,19.8410621 C39.9863163,21.090441 38.0623163,21.728087 35.8196921,21.728087 C33.7986752,21.728087 32.0656454,21.2366646 30.6563461,20.2482671 C29.0530127,19.1441863 28.189051,17.6329006 28.0266752,15.7449503 L30.6246879,15.7449503 C30.7513206,17.0526335 31.3283163,18.0697205 32.3546539,18.7684472 C33.2533376,19.3755528 34.4400085,19.6976149 35.8503291,19.6976149 C37.4536624,19.6976149 38.7679873,19.2293292 39.8249618,18.301087 C40.8523206,17.3709938 41.3986794,16.1799193 41.3986794,14.7260124 C41.3986794,13.0712795 40.885,11.7922857 39.923,10.8899565 C38.9926582,9.96078882 37.6773121,9.52581988 36.0096412,9.52581988 C34.9199873,9.52581988 33.9590085,9.73034783 33.091983,10.1662422 C32.1953418,10.5715963 31.4906921,11.2110932 31.0403291,12.0245776 L28.5393333,12.0245776 L29.7586837,0.578416149 L43.0622654,0.578416149 L43.0622654,0.577490683 Z" id="Shape"></path>
                    <polygon id="Shape" points="50.1751423 0.17121118 50.1751423 13.2721056 58.4797962 6.30057143 61.8784544 6.30057143 54.5674586 12.3420124 62.583104 21.3218075 59.2804416 21.3218075 52.8048132 13.8560745 50.1761635 16.0059317 50.1761635 21.3218075 47.6108301 21.3218075 47.6108301 0.17121118"></polygon>
                    <path d="M77.0049342,8.74102484 C77.6462675,7.7535528 78.416276,7.02521118 79.3129172,6.5911677 C80.1135626,6.12750932 81.0755626,5.89336646 82.2295541,5.89336646 C83.9625839,5.89336646 85.3412463,6.39034161 86.4319214,7.37503727 C87.4572378,8.39490062 88.0015541,9.7581118 88.0015541,11.4739255 L88.0015541,21.3227329 L85.437242,21.3227329 L85.437242,11.852441 C85.437242,10.5151429 85.1175966,9.52489441 84.5069002,8.88539752 C83.8645456,8.18852174 82.8382081,7.87016149 81.4268662,7.87016149 C80.3382335,7.87016149 79.4078917,8.21721118 78.703242,8.97424224 C77.9342548,9.72849689 77.5809087,10.6872795 77.5809087,11.9070435 L77.5809087,21.3218075 L75.0165966,21.3218075 L75.0165966,11.852441 C75.0165966,9.17784472 73.7339299,7.87016149 71.2022972,7.87016149 C70.0166476,7.87016149 69.0526051,8.27736646 68.2836178,9.14637888 C67.5136093,9.95986335 67.1286051,10.9788012 67.1286051,12.1708012 L67.1286051,21.3227329 L64.5653142,21.3227329 L64.5653142,6.30057143 L67.1286051,6.30057143 L67.1286051,8.30513043 C68.3785924,6.67908696 69.9512887,5.89429193 71.8099299,5.89429193 C74.3446263,5.89336646 76.0745924,6.82345963 77.0049342,8.74102484 Z" id="Shape"></path>
                </g>
                <g id="Group-4" transform="translate(231.819533, 186.944099)" fill="#F8D664">
                    <ellipse id="Oval-5_2_" cx="16.0384395" cy="13.9652795" rx="7.12308917" ry="6.45512422"></ellipse>
                    <g id="Oval-5_3_">
                        <path d="M16.0384395,27.6816087 C7.69191507,27.6816087 0.903789809,21.5300373 0.903789809,13.9652795 C0.903789809,6.40237267 7.69191507,0.248024845 16.0384395,0.248024845 C24.3870064,0.248024845 31.1741104,6.40237267 31.1741104,13.9652795 C31.1741104,21.5300373 24.3870064,27.6816087 16.0384395,27.6816087 Z M16.0384395,1.86296273 C8.6774034,1.86296273 2.68379618,7.29174534 2.68379618,13.9652795 C2.68379618,20.6378882 8.6774034,26.0694472 16.0384395,26.0694472 C23.4035605,26.0694472 29.3951253,20.6378882 29.3951253,13.9652795 C29.3951253,7.29174534 23.4035605,1.86296273 16.0384395,1.86296273 Z" id="Shape"></path>
                    </g>
                </g>
                <g id="Group" transform="translate(0.000000, 192.496894)" fill="#F8D664">
                    <path d="M15.2367728,0.577490683 L15.2367728,2.69773292 L4.07675584,2.69773292 L3.30878981,9.64150311 L3.43644374,9.64150311 C4.07777707,8.94462733 4.91314437,8.42173913 5.90476008,8.07191304 C6.80242251,7.72486335 7.76544374,7.58234161 8.82343949,7.58234161 C11.0037686,7.58234161 12.766414,8.18852174 14.112397,9.44067702 C15.4604225,10.7168944 16.1650722,12.4595466 16.1650722,14.6991739 C16.1650722,16.7907267 15.3327686,18.5056149 13.6967558,19.8410621 C12.1598025,21.090441 10.2347813,21.728087 7.99113588,21.728087 C5.9701189,21.728087 4.23913163,21.2366646 2.82778981,20.2482671 C1.22445648,19.1441863 0.358452229,17.6329006 0.198118896,15.7449503 L2.79613163,15.7449503 C2.92480679,17.0526335 3.50078132,18.0697205 4.52609766,18.7684472 C5.42478132,19.3755528 6.61145223,19.6976149 8.02075159,19.6976149 C9.62408493,19.6976149 10.939431,19.2293292 11.9974268,18.301087 C13.0227431,17.3709938 13.5691019,16.1799193 13.5691019,14.7260124 C13.5691019,13.0712795 13.0564437,11.7922857 12.0934225,10.8899565 C11.1630807,9.96078882 9.84875584,9.52581988 8.18108493,9.52581988 C7.09040977,9.52581988 6.12840977,9.73034783 5.26240552,10.1662422 C4.36576433,10.5715963 3.66111465,11.2110932 3.21075159,12.0245776 L0.709755839,12.0245776 L1.92910616,0.578416149 L15.2367728,0.578416149 L15.2367728,0.577490683 Z" id="Shape"></path>
                    <polygon id="Shape" points="22.3476072 0.17121118 22.3476072 13.2721056 30.6512399 6.30057143 34.0498981 6.30057143 26.7409448 12.3420124 34.7545478 21.3218075 31.4539278 21.3218075 24.9782994 13.8560745 22.3486285 16.0059317 22.3486285 21.3218075 19.7843163 21.3218075 19.7843163 0.17121118"></polygon>
                    <path d="M49.1763779,8.74102484 C49.8187325,7.7535528 50.5877197,7.02521118 51.4843609,6.5911677 C52.2860276,6.12750932 53.2480276,5.89336646 54.4030403,5.89336646 C56.1340276,5.89336646 57.5137113,6.39034161 58.6013227,7.37503727 C59.6276603,8.39490062 60.1740191,9.7581118 60.1740191,11.4739255 L60.1740191,21.3227329 L57.609707,21.3227329 L57.609707,11.852441 C57.609707,10.5151429 57.2900616,9.52489441 56.6793652,8.88539752 C56.0390531,8.18852174 55.0137367,7.87016149 53.6013737,7.87016149 C52.5106985,7.87016149 51.5823992,8.21721118 50.875707,8.97424224 C50.107741,9.72849689 49.7554161,10.6872795 49.7554161,11.9070435 L49.7554161,21.3218075 L47.1900828,21.3218075 L47.1900828,11.852441 C47.1900828,9.17784472 45.9063949,7.87016149 43.3747622,7.87016149 C42.1870701,7.87016149 41.2250701,8.27736646 40.457104,9.14637888 C39.6870955,9.95986335 39.3031125,10.9788012 39.3031125,12.1708012 L39.3031125,21.3227329 L36.7377792,21.3227329 L36.7377792,6.30057143 L39.3031125,6.30057143 L39.3031125,8.30513043 C40.5530998,6.67908696 42.1247749,5.89429193 43.9834161,5.89429193 C46.5160701,5.89336646 48.2470573,6.82345963 49.1763779,8.74102484 Z" id="Shape"></path>
                </g>
            </g>
            <g id="Group-3" transform="translate(277.774947, 155.478261)">
                <ellipse id="Oval-3" fill="#3EBDE9" cx="25.0497856" cy="22.9330435" rx="24.9292803" ry="22.5915466"></ellipse>
                <g id="超市-copy" transform="translate(10.212314, 9.254658)" fill="#111A41">
                    <path d="M9.29320594,18.1252484 L24.6310807,18.1631925 L24.6525265,18.1631925 L24.6739724,18.1622671 C25.3387941,18.124323 25.8912803,17.7254472 26.0485499,17.1692422 L26.0505924,17.1618385 L29.0438217,5.54076398 C29.1479873,5.16780124 29.0560764,4.77910559 28.7987261,4.47 C28.5148238,4.12665217 28.0552696,3.92490062 27.5640573,3.92490062 L6.35205945,3.92490062 L5.51669214,0.769987578 L1.21526539,0.769987578 C0.871110403,0.769987578 0.592314225,1.02819255 0.592314225,1.3465528 C0.592314225,1.66583851 0.871110403,1.92404348 1.21526539,1.92404348 L4.53630998,1.92404348 L8.54974947,17.0692919 C7.31916561,17.3820994 6.40720594,18.4278758 6.40720594,19.6670745 C6.40720594,20.5240559 6.84429299,21.2884907 7.52136943,21.781764 C6.84429299,22.2750373 6.40720594,23.039472 6.40720594,23.8964534 C6.40720594,25.3809006 7.71438217,26.589559 9.3177155,26.589559 C10.9220701,26.589559 12.2292463,25.3818261 12.2292463,23.8964534 C12.2292463,23.3245155 12.0352123,22.7942236 11.707397,22.3564783 L23.0338747,22.3564783 C22.7019745,22.7932981 22.5069193,23.3235901 22.5069193,23.8964534 C22.5069193,25.3809006 23.8110318,26.589559 25.4174289,26.589559 C27.0217834,26.589559 28.3269172,25.3818261 28.3269172,23.8964534 C28.3269172,22.4120062 27.0228047,21.2033478 25.4174289,21.2033478 L9.31669427,21.2033478 C9.29320594,21.2033478 9.27176008,21.2042733 9.25133546,21.2042733 C8.36694904,21.1691056 7.65515074,20.4925901 7.65515074,19.6661491 C7.65412951,18.8239752 8.3883949,18.1391304 9.29320594,18.1252484 Z" id="Shape"></path>
                </g>
            </g>
            <g id="Group-3-Copy-28" transform="translate(309.433121, 216.559006)">
                <path d="M25.4419384,0.581192547 C39.2112017,0.581192547 50.3742824,10.6983851 50.3742824,23.1727391 C50.3742824,35.6470932 39.2112017,45.7633602 25.4419384,45.7633602 C11.6767601,45.7633602 0.513679406,35.6461677 0.513679406,23.1727391 C0.513679406,10.6983851 11.6767601,0.581192547 25.4419384,0.581192547 Z" id="Oval-3_1_" fill="#3FF2E8"></path>
                <g id="胡萝卜" transform="translate(10.212314, 10.180124)" fill="#111A41">
                    <path d="M24.2348429,5.59814286 L26.2762845,3.74628571 C26.5060616,3.5380559 26.5060616,3.19100621 26.2762845,2.98092547 C26.0454862,2.76899379 25.660482,2.76899379 25.4276412,2.98092547 L22.9623885,5.21314907 C23.5781911,3.01424224 23.4638132,0.745925466 23.4638132,0.60710559 C23.4638132,0.290596273 23.15438,0.0832919255 22.8480106,0.0832919255 C22.4987495,0.0832919255 22.2699936,0.360931677 22.2699936,0.641347826 C22.2699936,0.677440994 22.4599427,5.1446646 20.6911699,7.23899379 C20.6115138,7.27138509 20.6115138,7.34079503 20.572707,7.41113043 C18.1033694,5.49171429 14.5964607,5.42322981 12.5182548,7.30840373 C11.8626242,7.90162733 10.3961359,9.5387764 8.69884926,11.635882 L11.3622208,14.045795 C11.6685902,14.3252857 11.6685902,14.8111553 11.3622208,15.1248882 C11.2059724,15.2637081 10.9741529,15.333118 10.7821614,15.333118 C10.5482994,15.333118 10.3593715,15.2646335 10.2061868,15.1248882 L7.73991295,12.8945155 C3.96135669,17.7781988 -0.280838641,24.1278199 1.33883439,25.5965342 C2.49691083,26.6089938 6.34797452,25.0033106 10.3961359,22.7673851 L8.50685775,21.0571242 C8.19844586,20.778559 8.19844586,20.2889876 8.50685775,19.9752547 C8.8173121,19.6948385 9.35550106,19.6948385 9.70374098,19.9752547 L11.7850106,21.8604286 C11.8207537,21.8937453 11.8207537,21.9298385 11.8626242,21.9631553 C14.8252166,20.2565963 17.7204076,18.3325528 19.6076433,16.9739689 L16.1405626,13.831087 C15.8311295,13.5525217 15.8311295,13.0657267 16.1405626,12.7519938 C16.4469321,12.4697267 16.9902272,12.4697267 17.3343822,12.7519938 L20.8014628,15.8939503 C20.8433333,15.9244907 20.8433333,15.9633602 20.8780552,15.996677 L21.4979427,15.4386211 C23.6180191,13.517354 23.4995563,10.3078385 21.344758,8.07561491 C21.3794798,8.03767081 21.4581146,8.03767081 21.4979427,8.00620497 C21.534707,7.9701118 25.3500276,5.49078882 28.6690297,6.57543478 C28.9753992,6.67538509 29.3215966,6.53934161 29.4369958,6.26170186 C29.5503524,5.97943478 29.3971677,5.6675528 29.0877346,5.56019876 C27.3955541,5.00214286 25.7013312,5.21314907 24.2348429,5.59814286 L24.2348429,5.59814286 Z" id="Shape_1_"></path>
                </g>
            </g>
            <g id="Group-3-Copy-30" transform="translate(184.842887, 161.956522)">
                <ellipse id="Oval-3_2_" fill="#3FF2E8" cx="25.3857707" cy="22.9099068" rx="24.9292803" ry="22.5915466"></ellipse>
                <g id="胡萝卜_1_" transform="translate(10.212314, 9.254658)" fill="#111A41">
                    <path d="M24.1776539,6.25985093 L26.2201168,4.40891925 C26.4519363,4.19976398 26.4519363,3.85178882 26.2201168,3.64263354 C25.987276,3.4325528 25.6043142,3.4325528 25.3724947,3.64263354 L22.9051996,5.87578261 C23.5230446,3.67780124 23.405603,1.41040994 23.405603,1.26881366 C23.405603,0.956006211 23.0982123,0.745925466 22.7898004,0.745925466 C22.4425817,0.745925466 22.2117834,1.02449068 22.2117834,1.30398137 C22.2117834,1.341 22.4037749,5.80637267 20.6329597,7.90070186 C20.5533036,7.93586957 20.5533036,8.0052795 20.515518,8.07376398 C18.0482229,6.15527329 14.5423355,6.08493789 12.4610658,7.97103727 C11.8054352,8.5633354 10.3420106,10.2032609 8.64370276,12.2975901 L11.3040106,14.7065776 C11.6134437,14.9851429 11.6134437,15.4737888 11.3040106,15.7875217 C11.1498047,15.9281925 10.9190064,15.9976025 10.7259936,15.9976025 C10.4931529,15.9976025 10.3001401,15.9281925 10.1479766,15.7875217 L7.68068153,13.5543727 C3.9031465,18.4389814 -0.335985138,24.7904534 1.2836879,26.2563913 C2.43870064,27.2697764 6.29282803,25.6640932 10.3420106,23.4300186 L8.45171125,21.7197578 C8.14432059,21.4402671 8.14432059,20.9506957 8.45171125,20.6369627 C8.76114437,20.3583975 9.30035456,20.3583975 9.64757325,20.6369627 L11.7268004,22.5230621 C11.7676497,22.5582298 11.7676497,22.592472 11.8064565,22.6285652 C14.7731338,20.9173789 17.6642399,18.9970373 19.553518,17.637528 L16.0843949,14.4964969 C15.7770042,14.2170062 15.7770042,13.7283602 16.0843949,13.4137019 C16.3917856,13.1351366 16.9340594,13.1351366 17.2792357,13.4137019 L20.7483588,16.5547329 C20.7871656,16.5889752 20.7871656,16.6250683 20.8229087,16.6593106 L21.4407537,16.0994037 C23.5608301,14.180913 23.445431,10.970472 21.2865478,8.73732298 C21.3243333,8.70215528 21.4029682,8.70215528 21.4407537,8.66791304 C21.4785393,8.63274534 25.2938599,6.15434783 28.6108195,7.23714286 C28.9192314,7.3417205 29.2644076,7.20290062 29.380828,6.92248447 C29.4952059,6.64391925 29.3420212,6.32926087 29.0336093,6.22653416 C27.3383652,5.66570186 25.6410786,5.87485714 24.1776539,6.25985093 L24.1776539,6.25985093 Z" id="Shape_2_"></path>
                </g>
            </g>
            <g id="Group-3-Copy-31" transform="translate(216.501062, 161.956522)">
                <ellipse id="Oval-3_3_" fill="#FED138" cx="25.7809873" cy="22.9099068" rx="24.9292803" ry="22.5915466"></ellipse>
                <g id="智慧菜场" transform="translate(11.233546, 9.254658)" fill="#111A41">
                    <path d="M27.0238259,12.1661739 L2.06799363,12.1661739 C1.34802548,12.1661739 0.894598726,12.6890621 1.05901699,13.3304099 L3.73157962,23.6780435 C3.89701911,24.3193913 4.62311465,24.843205 5.3430828,24.843205 L23.749758,24.843205 C24.4717686,24.843205 25.1958217,24.3193913 25.3633036,23.6780435 L28.0317813,13.3304099 C28.2002845,12.6890621 27.7458365,12.1661739 27.0238259,12.1661739 Z M9.22171975,22.6785404 L8.52728238,22.673913 C8.300569,22.6729876 8.07589809,22.5073292 8.02483652,22.3074286 L6.07632696,14.6908447 C6.02526539,14.4918696 6.16619533,14.329913 6.3929087,14.331764 L7.08632484,14.3391677 C7.31201699,14.3410186 7.53873036,14.5076025 7.5887707,14.7065776 L9.53625902,22.3185342 C9.58936306,22.5175093 9.44536943,22.6803913 9.22171975,22.6785404 L9.22171975,22.6785404 Z M15.2837495,22.2639317 C15.2837495,22.471236 15.0989066,22.6387453 14.8742357,22.6387453 L14.2196263,22.6387453 C13.9939342,22.6387453 13.8090913,22.471236 13.8090913,22.2639317 L13.8090913,14.7019503 C13.8090913,14.4955714 13.9949554,14.3271366 14.2196263,14.3271366 L14.8742357,14.3271366 C15.0999278,14.3271366 15.2837495,14.4964969 15.2837495,14.7019503 L15.2837495,22.2639317 Z M23.0195775,14.6899193 L21.0690255,22.3065031 C21.0149002,22.5064037 20.7922718,22.6720621 20.5624947,22.6729876 L19.8752059,22.6776149 C19.6454289,22.6794658 19.5075626,22.5165839 19.5545393,22.3166832 L21.5020276,14.7047267 C21.5541104,14.5057516 21.7798025,14.3391677 22.0075372,14.3373168 L22.6999321,14.329913 C22.9266454,14.3289876 23.0685966,14.4909441 23.0195775,14.6899193 Z M28.2523673,7.93586957 L25.1876518,7.93586957 C24.9813631,7.93586957 24.8710701,7.84702484 24.8291996,7.81000621 L17.2659597,0.898627329 C17.0433312,0.695024845 16.6828365,0.695024845 16.4602081,0.898627329 L15.8801486,1.42799379 C15.6575202,1.63067081 15.6575202,1.96291304 15.8801486,2.16744099 L21.9840488,7.74614907 C21.9840488,7.74614907 22.2087197,7.93586957 21.8727346,7.93586957 L7.08530361,7.93586957 C6.90760934,7.93586957 7.03730573,7.81463354 7.03730573,7.81463354 L13.2147346,2.16744099 C13.4373631,1.96291304 13.4373631,1.62974534 13.2147346,1.42799379 L12.6356964,0.898627329 C12.4130679,0.695024845 12.0495096,0.695024845 11.8258599,0.898627329 L4.26364119,7.81000621 C4.2217707,7.84887578 4.11964756,7.93586957 3.94501699,7.93586957 L0.840473461,7.93586957 C0.481,7.93586957 0.24407431,8.19962733 0.314539278,8.52354037 L0.631121019,9.96911801 C0.701585987,10.2902547 1.05391083,10.5540124 1.41338429,10.5540124 L27.6794565,10.5540124 C28.0409724,10.5540124 28.3943185,10.2902547 28.4658047,9.96911801 L28.7803439,8.52354037 C28.8477452,8.19962733 28.6118408,7.93586957 28.2523673,7.93586957 Z" id="Shape_3_"></path>
                </g>
            </g>
            <g id="Group-3-Copy-32" transform="translate(0.000000, 374.813665)">
                <ellipse id="Oval-3_4_" fill="#FED138" cx="25.038552" cy="23.0607578" rx="24.9292803" ry="22.5915466"></ellipse>
                <g id="智慧菜场_1_" transform="translate(10.212314, 9.254658)" fill="#111A41">
                    <path d="M27.3046645,12.3198012 L2.34781104,12.3198012 C1.62682166,12.3198012 1.17441614,12.8408385 1.33883439,13.4812609 L4.01139703,23.8307453 C4.17785775,24.4730186 4.9008896,24.9959068 5.62187898,24.9959068 L24.0305966,24.9959068 C24.751586,24.9959068 25.4766603,24.4739441 25.6400573,23.8307453 L28.31262,13.4812609 C28.4780594,12.8408385 28.0246327,12.3198012 27.3046645,12.3198012 Z M9.50051592,22.8284658 L8.80709979,22.8266149 C8.58140764,22.824764 8.35469427,22.6554037 8.30465393,22.457354 L6.35410191,14.8416957 C6.30406157,14.6427205 6.44499151,14.480764 6.67068365,14.480764 L7.36512102,14.4900186 C7.59081316,14.494646 7.81650531,14.6584534 7.86756688,14.858354 L9.8150552,22.4693851 C9.86815924,22.6702112 9.72518684,22.8330932 9.50051592,22.8284658 L9.50051592,22.8284658 Z M15.5625456,22.4166335 C15.5625456,22.6239379 15.3777028,22.7886708 15.1520106,22.7886708 L14.4984225,22.7886708 C14.2717091,22.7886708 14.0878875,22.6230124 14.0878875,22.4166335 L14.0878875,14.8518758 C14.0878875,14.643646 14.2717091,14.478913 14.4984225,14.478913 L15.1520106,14.478913 C15.3777028,14.478913 15.5625456,14.6445714 15.5625456,14.8518758 L15.5625456,22.4166335 Z M23.2963312,14.8407702 L21.3468004,22.4564286 C21.2977813,22.6554037 21.0710679,22.8238385 20.8453758,22.8256894 L20.1540021,22.8275404 C19.9262675,22.8321677 19.7843163,22.6692857 19.8353779,22.4675342 L21.7849087,14.8565031 C21.8339278,14.655677 22.0616624,14.4918696 22.2863333,14.4881677 L22.9807707,14.478913 C23.2054416,14.4798385 23.3473928,14.641795 23.2963312,14.8407702 Z M28.5321847,8.08857143 L25.4654268,8.08857143 C25.2601592,8.08857143 25.1519087,8.00157764 25.109017,7.96363354 L17.5457771,1.04762733 C17.3231486,0.845875776 16.9595902,0.845875776 16.7359406,1.04762733 L16.1579236,1.57514286 C15.9342739,1.7824472 15.9342739,2.11283851 16.1579236,2.31921739 L22.262845,7.8997764 C22.262845,7.8997764 22.4875159,8.08764596 22.1505096,8.08764596 L7.36307856,8.08764596 C7.18640552,8.08764596 7.31405945,7.96455901 7.31405945,7.96455901 L13.4925096,2.31829193 C13.7161592,2.11191304 13.7161592,1.78152174 13.4925096,1.57421739 L12.9144926,1.04670186 C12.6918641,0.844950311 12.3262633,0.844950311 12.1046561,1.04670186 L4.54141614,7.96270807 C4.49852442,8.00065217 4.39640127,8.08764596 4.22381316,8.08764596 L1.11824841,8.08764596 C0.758774947,8.08764596 0.522870488,8.35232919 0.592314225,8.6743913 L0.908895966,10.1171925 C0.980382166,10.4401801 1.33168577,10.7039379 1.69115924,10.7039379 L27.9602951,10.7039379 C28.3187473,10.7039379 28.670051,10.4401801 28.7425584,10.1171925 L29.0591401,8.6743913 C29.1275626,8.35325466 28.8916582,8.08857143 28.5321847,8.08857143 Z" id="Shape_4_"></path>
                </g>
            </g>
            <g id="Group-3-Copy-33" transform="translate(191.991507, 255.428571)">
                <path d="M25.3602399,0.440521739 C39.1274607,0.440521739 50.2905414,10.5586398 50.2905414,23.0320683 C50.2905414,35.5073478 39.128482,45.6226894 25.3602399,45.6226894 C11.5909766,45.6226894 0.429938429,35.5073478 0.429938429,23.0320683 C0.429938429,10.5577143 11.5919979,0.440521739 25.3602399,0.440521739 Z" id="Oval-3_5_" fill="#FED138"></path>
                <g id="智慧菜场_2_" transform="translate(10.212314, 9.254658)" fill="#111A41">
                    <path d="M27.6263524,12.2901863 L2.66949894,12.2901863 C1.94850955,12.2901863 1.4950828,12.8112236 1.66154352,13.451646 L4.33410616,23.8011304 C4.49954565,24.4434037 5.22359873,24.9662919 5.94458811,24.9662919 L24.3533057,24.9662919 C25.0742951,24.9662919 25.7993694,24.4443292 25.9637877,23.8011304 L28.6363503,13.451646 C28.8007686,12.8121491 28.3463206,12.2901863 27.6263524,12.2901863 Z M9.82322505,22.8025528 L9.12980892,22.7979255 C8.90411677,22.7960745 8.6774034,22.6267143 8.62736306,22.4277391 L6.67783227,14.8120807 C6.6267707,14.6121801 6.76770064,14.4511491 6.99441401,14.4511491 L7.68885138,14.4622547 C7.91454352,14.4650311 8.1412569,14.627913 8.19129724,14.8287391 L10.1387856,22.4397702 C10.1898471,22.6405963 10.047896,22.8044037 9.82322505,22.8025528 L9.82322505,22.8025528 Z M15.8852548,22.3870186 C15.8852548,22.594323 15.7004119,22.7590559 15.4747197,22.7590559 L14.8211316,22.7590559 C14.5954395,22.7590559 14.4105966,22.5933975 14.4105966,22.3870186 L14.4105966,14.8222609 C14.4105966,14.615882 14.5954395,14.4492981 14.8211316,14.4492981 L15.4747197,14.4492981 C15.7004119,14.4492981 15.8852548,14.6168075 15.8852548,14.8222609 L15.8852548,22.3870186 Z M23.6180191,14.8120807 L21.6684883,22.4277391 C21.6194692,22.6276398 21.3927558,22.7960745 21.1670637,22.7979255 L20.4746688,22.8025528 C20.2479554,22.8044037 20.1060042,22.6405963 20.1570658,22.4397702 L22.1055754,14.8287391 C22.1545945,14.6269876 22.3833503,14.4641056 22.6080212,14.4622547 L23.3024586,14.4511491 C23.5281507,14.4511491 23.6701019,14.6121801 23.6180191,14.8120807 Z M28.8538726,8.05988199 L25.7881359,8.05988199 C25.5828684,8.05988199 25.4735966,7.9728882 25.4317261,7.93401863 L17.8695074,1.01893789 C17.646879,0.817186335 17.2822994,0.817186335 17.0596709,1.01893789 L16.4816539,1.54645342 C16.2580042,1.75375776 16.2580042,2.08414907 16.4816539,2.29330435 L22.5865754,7.87108696 C22.5865754,7.87108696 22.8112463,8.05895652 22.4742399,8.05895652 L7.68680892,8.05895652 C7.51013588,8.05895652 7.63881104,7.93586957 7.63881104,7.93586957 L13.8162399,2.29237888 C14.0398896,2.0832236 14.0398896,1.7528323 13.8162399,1.54552795 L13.2382229,1.01801242 C13.0155945,0.81626087 12.6499936,0.81626087 12.4283864,1.01801242 L4.86616773,7.93309317 C4.82327601,7.97196273 4.72115287,8.05895652 4.54754352,8.05895652 L1.443,8.05895652 C1.08250531,8.05895652 0.847622081,8.32363975 0.916044586,8.64570186 L1.23262633,10.0885031 C1.30411253,10.4105652 1.65541614,10.6752484 2.0148896,10.6752484 L28.281983,10.6752484 C28.6404352,10.6752484 28.9927601,10.4105652 29.0642463,10.0885031 L29.3798068,8.64570186 C29.4502718,8.32456522 29.2143673,8.05988199 28.8538726,8.05988199 Z" id="Shape_5_"></path>
                </g>
            </g>
            <g id="Group-3-Copy-34" transform="translate(284.923567, 277.639752)">
                <path d="M25.0232335,0.820888199 C38.7924968,0.820888199 49.9514926,10.9380807 49.9514926,23.4115093 C49.9514926,35.8895652 38.7924968,46.0049068 25.0232335,46.0049068 C11.2549915,46.0049068 0.0949745223,35.8895652 0.0949745223,23.4115093 C0.0949745223,10.9371553 11.2549915,0.820888199 25.0232335,0.820888199 Z" id="Oval-3_6_" fill="#FED138"></path>
                <g id="智慧菜场_3_" transform="translate(10.212314, 10.180124)" fill="#111A41">
                    <path d="M27.2903673,11.7441615 L2.33147134,11.7441615 C1.61252442,11.7441615 1.15807643,12.2679752 1.32351592,12.9065466 L3.99403609,23.2551056 C4.16253928,23.8983043 4.88454989,24.422118 5.60758174,24.422118 L24.0132357,24.422118 C24.7372887,24.422118 25.4603206,23.8992298 25.6257601,23.2551056 L28.2973015,12.9065466 C28.4658047,12.2689006 28.0103355,11.7441615 27.2903673,11.7441615 Z M9.48519745,22.256528 L8.79280255,22.2519006 C8.56302548,22.2500497 8.34141826,22.0816149 8.28933546,21.8854161 L6.33980467,14.2669814 C6.29078556,14.0680062 6.4286518,13.9088261 6.65842887,13.9088261 L7.35082378,13.9171553 C7.57855839,13.9199317 7.8032293,14.0828137 7.8553121,14.2873416 L9.80177919,21.8946708 C9.85181953,22.0954969 9.71293206,22.2583789 9.48519745,22.256528 L9.48519745,22.256528 Z M15.5502909,21.8428447 C15.5502909,22.0492236 15.3644268,22.2158075 15.1377134,22.2158075 L14.4851465,22.2158075 C14.2584331,22.2158075 14.0756327,22.0482981 14.0756327,21.8428447 L14.0756327,14.2799379 C14.0756327,14.0707826 14.2594544,13.9041988 14.4851465,13.9041988 L15.1377134,13.9041988 C15.365448,13.9041988 15.5502909,14.0717081 15.5502909,14.2799379 L15.5502909,21.8428447 Z M23.2840764,14.2660559 L21.3325032,21.8844907 C21.2814416,22.0816149 21.0577919,22.2500497 20.8290361,22.2509752 L20.1386837,22.2556025 C19.9089066,22.2574534 19.7710403,22.0945714 19.8200594,21.8928199 L21.7675478,14.2854907 C21.8196306,14.0800373 22.0443015,13.9180807 22.2710149,13.9153043 L22.9623885,13.9069752 C23.1931868,13.9079006 23.3320743,14.0670807 23.2840764,14.2660559 Z M28.5178875,7.51385714 L25.4541932,7.51385714 C25.2438195,7.51385714 25.1376115,7.42686335 25.095741,7.38891925 L17.5325011,0.472913043 C17.3088514,0.271161491 16.9463142,0.271161491 16.7236858,0.472913043 L16.1436263,1.00413043 C15.9209979,1.20773292 15.9209979,1.53812422 16.1436263,1.74820497 L22.2475265,7.32598758 C22.2475265,7.32598758 22.4752611,7.51293168 22.1362123,7.51293168 L7.34776008,7.51293168 C7.17210828,7.51293168 7.29771975,7.39169565 7.29771975,7.39169565 L13.4792335,1.7472795 C13.701862,1.53719876 13.701862,1.20680745 13.4792335,1.00320497 L12.8981529,0.471987578 C12.6755244,0.270236025 12.316051,0.270236025 12.0903588,0.471987578 L4.5271189,7.38799379 C4.48524841,7.42593789 4.38516773,7.51293168 4.20951592,7.51293168 L1.10292994,7.51293168 C0.747541401,7.51293168 0.510615711,7.77946584 0.579038217,8.10060248 L0.893577495,9.54525466 C0.965063694,9.86546584 1.3163673,10.1329255 1.67992569,10.1329255 L27.9459979,10.1329255 C28.3075138,10.1329255 28.6577962,9.86546584 28.7323461,9.54525466 L29.0438217,8.10060248 C29.1112229,7.7803913 28.8763397,7.51385714 28.5178875,7.51385714 Z" id="Shape_6_"></path>
                </g>
            </g>
            <g id="Group-3-Copy-35" transform="translate(430.959660, 303.552795)">
                <ellipse id="Oval-3_7_" fill="#FED138" cx="25.0038301" cy="23.3189627" rx="24.928259" ry="22.5906211"></ellipse>
                <g id="智慧菜场_4_" transform="translate(10.212314, 10.180124)" fill="#111A41">
                    <path d="M27.2709639,11.6516149 L2.31308917,11.6516149 C1.59414225,11.6516149 1.1376518,12.1735776 1.30513376,12.8149255 L3.97667516,23.1607081 C4.14211465,23.8057578 4.8651465,24.3277205 5.59022081,24.3277205 L23.9948535,24.3277205 C24.7158429,24.3277205 25.439896,23.8066832 25.6083992,23.1607081 L28.2789193,12.8149255 C28.44538,12.1735776 27.9899108,11.6516149 27.2709639,11.6516149 Z M9.46477282,22.161205 L8.77544161,22.159354 C8.54464331,22.1565776 8.32201486,21.9890683 8.27095329,21.7900932 L6.31938004,14.1744348 C6.27138217,13.9745342 6.41026964,13.8135031 6.64004671,13.8135031 L7.33244161,13.8218323 C7.55711253,13.8264596 7.7838259,13.9902671 7.8359087,14.1920186 L9.78339703,21.7993478 C9.83241614,22.0020248 9.6914862,22.1658323 9.46477282,22.161205 L9.46477282,22.161205 Z M15.528845,21.7493727 C15.528845,21.9539006 15.3450234,22.1204845 15.11831,22.1204845 L14.4626794,22.1204845 C14.2380085,22.1204845 14.0531656,21.9529752 14.0531656,21.7493727 L14.0531656,14.1846149 C14.0531656,13.9754596 14.2390297,13.8107267 14.4626794,13.8107267 L15.11831,13.8107267 C15.3460446,13.8107267 15.528845,13.9763851 15.528845,14.1846149 L15.528845,21.7493727 Z M23.2626306,14.1735093 L21.3130998,21.7891677 C21.261017,21.9890683 21.0363461,22.1556522 20.806569,22.1584286 L20.1192803,22.1602795 C19.8895032,22.1649068 19.7516369,22.0010994 19.7996348,21.7974969 L21.7450807,14.1901677 C21.8002272,13.9874907 22.0248981,13.8236832 22.2526327,13.8199814 L22.9450276,13.8116522 C23.1737834,13.8135031 23.3126709,13.9745342 23.2626306,14.1735093 Z M28.4964416,7.42223602 L25.4327473,7.42223602 C25.2254374,7.42223602 25.1151444,7.33246584 25.0732739,7.29637267 L17.510034,0.38036646 C17.2874055,0.178614907 16.9269108,0.178614907 16.7042824,0.38036646 L16.1232017,0.909732919 C15.9005732,1.1161118 15.9005732,1.44372671 16.1232017,1.65288199 L22.2281231,7.23159006 C22.2281231,7.23159006 22.4527941,7.42131056 22.1178301,7.42131056 L7.32835669,7.42131056 C7.15474735,7.42131056 7.28138004,7.29729814 7.28138004,7.29729814 L13.4608514,1.65195652 C13.6834798,1.44280124 13.6834798,1.11518634 13.4608514,0.908807453 L12.8807919,0.379440994 C12.6581635,0.177689441 12.2956263,0.177689441 12.0729979,0.379440994 L4.50873673,7.2954472 C4.46686624,7.33154037 4.36576433,7.42131056 4.19215499,7.42131056 L1.08659023,7.42131056 C0.727116773,7.42131056 0.490191083,7.68506832 0.562698514,8.0080559 L0.874174098,9.45085714 C0.946681529,9.77384472 1.29798514,10.038528 1.66052229,10.038528 L27.9265945,10.038528 C28.2870892,10.038528 28.639414,9.77384472 28.7129427,9.45085714 L29.0264607,8.0080559 C29.0918195,7.68599379 28.8548938,7.42223602 28.4964416,7.42223602 Z" id="Shape_7_"></path>
                </g>
            </g>
            <g id="Group-3-Copy-36" transform="translate(419.726115, 87.919255)">
                <ellipse id="Oval-3_8_" fill="#FED138" cx="25.5522314" cy="22.7164845" rx="24.9303015" ry="22.592472"></ellipse>
                <g id="智慧菜场_5_" transform="translate(11.233546, 9.254658)" fill="#111A41">
                    <path d="M26.7981338,11.9727516 L1.84025902,11.9727516 C1.12029087,11.9727516 0.666864119,12.4956398 0.832303609,13.1369876 L3.50282378,23.4836957 C3.67132696,24.1259689 4.39231635,24.6507081 5.11739066,24.6507081 L23.5210021,24.6507081 C24.2450552,24.6507081 24.9691083,24.1259689 25.135569,23.4836957 L27.8060892,13.1369876 C27.9756136,12.4956398 27.5170807,11.9727516 26.7981338,11.9727516 Z M8.99194268,22.485118 L8.30159023,22.4814161 C8.07181316,22.4786398 7.85020594,22.3129814 7.79710191,22.1140062 L5.84859236,14.4983478 C5.79957325,14.2975217 5.93743949,14.1364907 6.16721656,14.1383416 L6.85961146,14.1457453 C7.08734607,14.1466708 7.31201699,14.3123292 7.36307856,14.5131553 L9.31363057,22.1251118 C9.35958599,22.3250124 9.22069851,22.4869689 8.99194268,22.485118 L8.99194268,22.485118 Z M15.0560149,22.0714348 C15.0560149,22.2768882 14.8721932,22.4462484 14.6454798,22.4462484 L13.9918917,22.4462484 C13.7651783,22.4462484 13.5823779,22.2768882 13.5823779,22.0714348 L13.5823779,14.508528 C13.5823779,14.3012236 13.7661996,14.1337143 13.9918917,14.1337143 L14.6454798,14.1337143 C14.8732144,14.1337143 15.0560149,14.3021491 15.0560149,14.508528 L15.0560149,22.0714348 Z M22.7918429,14.4983478 L20.8402696,22.1140062 C20.7881868,22.3129814 20.5655584,22.4786398 20.3368025,22.4814161 L19.6464501,22.485118 C19.416673,22.4860435 19.2788068,22.324087 19.3278259,22.1251118 L21.274293,14.5131553 C21.3253546,14.3123292 21.5530892,14.1466708 21.7787813,14.1457453 L22.4711762,14.1383416 C22.7009533,14.1355652 22.8388195,14.2975217 22.7918429,14.4983478 Z M28.0256539,7.74337267 L24.9619597,7.74337267 C24.751586,7.74337267 24.6453779,7.65545342 24.6035074,7.61658385 L17.0392463,0.704279503 C16.8166178,0.500677019 16.4540807,0.500677019 16.2314522,0.704279503 L15.6503715,1.23364596 C15.4277431,1.43632298 15.4277431,1.77041615 15.6503715,1.97401863 L21.7542718,7.55365217 C21.7542718,7.55365217 21.9820064,7.7424472 21.6439788,7.7424472 L6.857569,7.7424472 C6.68395966,7.7424472 6.80854989,7.62028571 6.80854989,7.62028571 L12.9880212,1.97309317 C13.2106497,1.76949068 13.2106497,1.43539752 12.9880212,1.2327205 L12.4079618,0.703354037 C12.1853333,0.499751553 11.8258599,0.499751553 11.6032314,0.703354037 L4.03590658,7.61565839 C3.99607856,7.65452795 3.89497665,7.7424472 3.71932484,7.7424472 L0.615802548,7.7424472 C0.257350318,7.7424472 0.019403397,8.00620497 0.0888471338,8.32919255 L0.403386412,9.77477019 C0.474872611,10.0959068 0.826176221,10.3615155 1.18973461,10.3615155 L27.4527431,10.3615155 C27.8152803,10.3615155 28.1665839,10.0959068 28.2411338,9.77477019 L28.5526093,8.32919255 C28.6200106,8.00713043 28.3851274,7.74337267 28.0256539,7.74337267 Z" id="Shape_8_"></path>
                </g>
            </g>
            <g id="Group-3-Copy-37" transform="translate(352.324841, 64.782609)">
                <ellipse id="Oval-3_9_" fill="#FED138" cx="25.2897749" cy="23.2615839" rx="24.9292803" ry="22.5915466"></ellipse>
                <g id="智慧菜场_6_" transform="translate(10.212314, 10.180124)" fill="#111A41">
                    <path d="M27.5528238,11.5914596 L2.59801274,11.5914596 C1.87600212,11.5914596 1.42155414,12.1152733 1.59005732,12.7556957 L4.26057749,23.1042547 C4.42601699,23.744677 5.1510913,24.2694161 5.87412314,24.2694161 L24.2787558,24.2694161 C25.0007665,24.2694161 25.7248195,23.744677 25.8923015,23.1042547 L28.5638429,12.7556957 C28.7303036,12.1152733 28.2758556,11.5914596 27.5528238,11.5914596 Z M9.74969639,22.1047516 L9.05934395,22.1001242 C8.82956688,22.0991988 8.60795966,21.9335404 8.55587686,21.7327143 L6.60328238,14.1170559 C6.55630573,13.9171553 6.69519321,13.7570497 6.92394904,13.7579752 L7.61634395,13.7653789 C7.84101486,13.7672298 8.06772824,13.9328882 8.12083227,14.1327888 L10.0672994,21.7447453 C10.1163185,21.944646 9.97640977,22.1066025 9.74969639,22.1047516 L9.74969639,22.1047516 Z M15.8127473,21.6901429 C15.8127473,21.8974472 15.6279045,22.0649565 15.4032335,22.0649565 L14.7486242,22.0649565 C14.5219108,22.0649565 14.3380892,21.8974472 14.3380892,21.6901429 L14.3380892,14.1281615 C14.3380892,13.9217826 14.5229321,13.7533478 14.7486242,13.7533478 L15.4032335,13.7533478 C15.6289257,13.7533478 15.8127473,13.9227081 15.8127473,14.1281615 L15.8127473,21.6901429 Z M23.5475541,14.1161304 L21.5959809,21.7317888 C21.5438981,21.9326149 21.3212696,22.0982733 21.0925138,22.0991988 L20.4052251,22.1038261 C20.175448,22.105677 20.0375817,21.9437205 20.0845584,21.7428944 L22.0310255,14.1309379 C22.086172,13.9310373 22.3108429,13.7653789 22.5355138,13.763528 L23.2299512,13.7561242 C23.458707,13.7561242 23.5965732,13.9162298 23.5475541,14.1161304 Z M28.7823864,7.36208075 L25.7176709,7.36208075 C25.5103609,7.36208075 25.4010892,7.27416149 25.3592187,7.23621739 L17.7949575,0.324838509 C17.5723291,0.121236025 17.2128556,0.121236025 16.9902272,0.324838509 L16.4101677,0.853279503 C16.1875393,1.05688199 16.1875393,1.39004969 16.4101677,1.59457764 L22.5130467,7.17236025 C22.5130467,7.17236025 22.7387389,7.36115528 22.4027537,7.36115528 L7.61123779,7.36115528 C7.43864968,7.36115528 7.56426115,7.24084472 7.56426115,7.24084472 L13.7457749,1.59457764 C13.9684034,1.38912422 13.9684034,1.05688199 13.7457749,0.853279503 L13.1646943,0.324838509 C12.9420658,0.121236025 12.5795287,0.121236025 12.3569002,0.324838509 L4.79263907,7.23621739 C4.74974735,7.27601242 4.64864544,7.36208075 4.47605732,7.36208075 L1.36947134,7.36208075 C1.01101911,7.36208075 0.774093418,7.62676398 0.843537155,7.95067702 L1.1570552,9.39532919 C1.2316051,9.71831677 1.58188747,9.98207453 1.9434034,9.98207453 L28.2094756,9.98207453 C28.5699703,9.98207453 28.9202527,9.7173913 28.9958238,9.39532919 L29.3093418,7.95067702 C29.3777643,7.62676398 29.1398174,7.36208075 28.7823864,7.36208075 Z" id="Shape_9_"></path>
                </g>
            </g>
            <g id="Group-3-Copy-38" transform="translate(38.806794, 136.043478)">
                <ellipse id="Oval-3_10_" fill="#FED138" cx="25.4061953" cy="23.0033789" rx="24.9292803" ry="22.5915466"></ellipse>
                <g id="智慧菜场_7_" transform="translate(10.212314, 9.254658)" fill="#111A41">
                    <path d="M27.6723079,12.2605714 L2.71545435,12.2605714 C1.9954862,12.2605714 1.54205945,12.7834596 1.70749894,13.4248075 L4.3810828,23.7715155 C4.54652229,24.4119379 5.2715966,24.9376025 5.99054352,24.9376025 L24.3992611,24.9376025 C25.1192293,24.9376025 25.8453248,24.4119379 26.0097431,23.7715155 L28.6823057,13.4248075 C28.8457028,12.7825342 28.3932972,12.2605714 27.6723079,12.2605714 Z M9.86918047,22.771087 L9.17678556,22.7664596 C8.95007219,22.7655342 8.72438004,22.5998758 8.67331847,22.3999752 L6.72378769,14.7833913 C6.67272611,14.5834907 6.81365605,14.4233851 7.04036943,14.4243106 L7.73480679,14.4326398 C7.96152017,14.4344907 8.18721231,14.6001491 8.23827389,14.7991242 L10.184741,22.4110807 C10.2358025,22.6119068 10.0938514,22.7738634 9.86918047,22.771087 L9.86918047,22.771087 Z M15.930189,22.3574037 C15.930189,22.5647081 15.7463673,22.7322174 15.5206752,22.7322174 L14.867087,22.7322174 C14.6413949,22.7322174 14.4575732,22.5637826 14.4575732,22.3574037 L14.4575732,14.7944969 C14.4575732,14.5890435 14.6413949,14.4196832 14.867087,14.4196832 L15.5206752,14.4196832 C15.7473885,14.4196832 15.930189,14.5890435 15.930189,14.7944969 L15.930189,22.3574037 Z M23.6639745,14.7833913 L21.7134225,22.3999752 C21.6644034,22.6008012 21.43769,22.7664596 21.2119979,22.7664596 L20.5206242,22.771087 C20.2939108,22.7738634 20.1509384,22.6109814 20.2030212,22.4110807 L22.1515308,14.7991242 C22.2015711,14.6001491 22.4293057,14.4344907 22.6529554,14.4326398 L23.3473928,14.4243106 C23.5741062,14.4233851 23.7160573,14.5834907 23.6639745,14.7833913 Z M28.9008493,8.03026708 L25.8351125,8.03026708 C25.6288238,8.03026708 25.519552,7.94142236 25.4776815,7.90347826 L17.9144416,0.993024845 C17.6918132,0.78942236 17.3272335,0.78942236 17.1046051,0.993024845 L16.5255669,1.52146584 C16.3039597,1.72506832 16.3039597,2.05823602 16.5255669,2.26276398 L22.6315096,7.84054658 C22.6315096,7.84054658 22.8561805,8.03026708 22.5191741,8.03026708 L7.73276433,8.03026708 C7.55507006,8.03026708 7.68374522,7.90903106 7.68374522,7.90903106 L13.8621953,2.26183851 C14.0848238,2.05731056 14.0848238,1.72414286 13.8621953,1.52054037 L13.2831571,0.992099379 C13.0605287,0.788496894 12.6949278,0.788496894 12.4722994,0.992099379 L4.90905945,7.9025528 C4.86821019,7.94234783 4.76404459,8.02934161 4.59145648,8.02934161 L1.48793418,8.02934161 C1.12743949,8.02934161 0.891535032,8.29402484 0.959957537,8.61701242 L1.27653928,10.0625901 C1.34802548,10.3837267 1.69932909,10.6484099 2.05880255,10.6484099 L28.3279384,10.6484099 C28.6863907,10.6484099 29.0387155,10.3837267 29.1102017,10.0625901 L29.4267834,8.61701242 C29.4972484,8.29495031 29.2593015,8.03026708 28.9008493,8.03026708 Z" id="Shape_10_"></path>
                </g>
            </g>
            <g id="Group-3-Copy-39" transform="translate(120.505308, 10.180124)">
                <ellipse id="Oval-3_11_" fill="#FED138" cx="25.6186115" cy="22.9987516" rx="24.9292803" ry="22.5915466"></ellipse>
                <g id="智慧菜场_8_" transform="translate(11.233546, 9.254658)" fill="#111A41">
                    <path d="M26.8645138,12.2540932 L1.9076603,12.2540932 C1.18667091,12.2540932 0.734265393,12.7769814 0.898683652,13.4183292 L3.57124628,23.7659627 C3.73668577,24.4073106 4.46176008,24.9329752 5.18274947,24.9329752 L23.5904459,24.9329752 C24.3093928,24.9329752 25.0354883,24.408236 25.2009278,23.7659627 L27.8734904,13.4183292 C28.0389299,12.7769814 27.5834607,12.2540932 26.8645138,12.2540932 Z M9.06138641,22.7673851 L8.36694904,22.7627578 C8.1412569,22.7609068 7.91454352,22.5961739 7.86348195,22.3953478 L5.9149724,14.7796894 C5.86493206,14.5797888 6.00484076,14.4178323 6.23155414,14.4206087 L6.92497028,14.4280124 C7.15066242,14.4289379 7.3773758,14.5955217 7.42843737,14.7954224 L9.37490446,22.4073789 C9.42800849,22.6054286 9.28503609,22.7683106 9.06138641,22.7673851 L9.06138641,22.7673851 Z M15.1234161,22.3527764 C15.1234161,22.5591553 14.9385732,22.7275901 14.7128811,22.7275901 L14.059293,22.7275901 C13.8336008,22.7275901 13.6477367,22.5582298 13.6477367,22.3527764 L13.6477367,14.7898696 C13.6477367,14.5825652 13.8336008,14.4150559 14.059293,14.4150559 L14.7128811,14.4150559 C14.9385732,14.4150559 15.1234161,14.5834907 15.1234161,14.7898696 L15.1234161,22.3527764 Z M22.8561805,14.778764 L20.9066497,22.3944224 C20.8566093,22.5952484 20.629896,22.7599814 20.4042038,22.7618323 L19.7118089,22.7664596 C19.4861168,22.7673851 19.3441656,22.6054286 19.3952272,22.4064534 L21.3427155,14.7944969 C21.3927558,14.5945963 21.6204904,14.4280124 21.8461826,14.427087 L22.5395987,14.4196832 C22.7652909,14.4178323 22.9082633,14.5788634 22.8561805,14.778764 Z M28.0910127,8.02471429 L25.0262972,8.02471429 C24.8210297,8.02471429 24.7107367,7.93586957 24.6698875,7.89792547 L17.1066476,0.985621118 C16.8850403,0.782944099 16.5184183,0.782944099 16.296811,0.985621118 L15.7177728,1.51498758 C15.4951444,1.71859006 15.4951444,2.05175776 15.7177728,2.25628571 L21.8237155,7.83406832 C21.8237155,7.83406832 22.0473652,8.02378882 21.7103588,8.02378882 L6.92394904,8.02378882 C6.74625478,8.02378882 6.87595117,7.90162733 6.87595117,7.90162733 L13.05338,2.25628571 C13.2760085,2.0508323 13.2760085,1.71859006 13.05338,1.51498758 L12.4743418,0.985621118 C12.2517134,0.782944099 11.8871338,0.782944099 11.6645053,0.985621118 L4.10228662,7.89792547 C4.0593949,7.93679503 3.95727176,8.02471429 3.78366242,8.02471429 L0.680140127,8.02471429 C0.319645435,8.02471429 0.0837409766,8.28939752 0.154205945,8.61238509 L0.469766454,10.0570373 C0.540231423,10.3781739 0.893577495,10.6437826 1.25202972,10.6437826 L27.5201444,10.6437826 C27.8785966,10.6437826 28.2319427,10.3781739 28.3034289,10.0570373 L28.6200106,8.61238509 C28.6884331,8.28939752 28.4525287,8.02471429 28.0910127,8.02471429 Z" id="Shape_11_"></path>
                </g>
            </g>
            <g id="Group-3-Copy-40" transform="translate(284.923567, 359.080745)">
                <ellipse id="Oval-3_12_" fill="#FED138" cx="25.0232335" cy="22.6563292" rx="24.9292803" ry="22.5915466"></ellipse>
                <g id="智慧菜场_9_" transform="translate(10.212314, 9.254658)" fill="#111A41">
                    <path d="M27.2903673,11.9153727 L2.33147134,11.9153727 C1.61252442,11.9153727 1.15807643,12.4364099 1.32351592,13.0768323 L3.99403609,23.4263168 C4.16253928,24.0676646 4.88454989,24.5905528 5.60758174,24.5905528 L24.0132357,24.5905528 C24.7372887,24.5905528 25.4603206,24.0685901 25.6257601,23.4263168 L28.2973015,13.0768323 C28.4658047,12.4364099 28.0103355,11.9153727 27.2903673,11.9153727 Z M9.48519745,22.4240373 L8.79280255,22.4221863 C8.56302548,22.4194099 8.34141826,22.2509752 8.28933546,22.052 L6.33980467,14.4363416 C6.29078556,14.236441 6.4286518,14.0754099 6.65842887,14.0754099 L7.35082378,14.0846646 C7.57855839,14.0892919 7.8032293,14.2521739 7.8553121,14.453 L9.80177919,22.0640311 C9.85181953,22.2657826 9.71293206,22.4286646 9.48519745,22.4240373 L9.48519745,22.4240373 Z M15.5502909,22.012205 C15.5502909,22.2195093 15.3644268,22.3842422 15.1377134,22.3842422 L14.4851465,22.3842422 C14.2584331,22.3842422 14.0756327,22.2185839 14.0756327,22.012205 L14.0756327,14.4474472 C14.0756327,14.2392174 14.2594544,14.0744845 14.4851465,14.0744845 L15.1377134,14.0744845 C15.365448,14.0744845 15.5502909,14.2401429 15.5502909,14.4474472 L15.5502909,22.012205 Z M23.2840764,14.4372671 L21.3325032,22.0529255 C21.2814416,22.2528261 21.0577919,22.4203354 20.8290361,22.4231118 L20.1386837,22.4249627 C19.9089066,22.4295901 19.7710403,22.2657826 19.8200594,22.0649565 L21.7675478,14.4539255 C21.8196306,14.2521739 22.0443015,14.0892919 22.2710149,14.0855901 L22.9623885,14.0763354 C23.1931868,14.0763354 23.3320743,14.2373665 23.2840764,14.4372671 Z M28.5178875,7.68506832 L25.4541932,7.68506832 C25.2438195,7.68506832 25.1376115,7.59807453 25.095741,7.55920497 L17.5325011,0.644124224 C17.3088514,0.442372671 16.9463142,0.442372671 16.7236858,0.644124224 L16.1436263,1.17163975 C15.9209979,1.37801863 15.9209979,1.7093354 16.1436263,1.91571429 L22.2475265,7.49627329 C22.2475265,7.49627329 22.4752611,7.68414286 22.1362123,7.68414286 L7.34776008,7.68414286 C7.17210828,7.68414286 7.29771975,7.5610559 7.29771975,7.5610559 L13.4792335,1.91478882 C13.701862,1.70840994 13.701862,1.37709317 13.4792335,1.17071429 L12.8981529,0.643198758 C12.6755244,0.441447205 12.316051,0.441447205 12.0903588,0.643198758 L4.5271189,7.5582795 C4.48524841,7.59714907 4.38516773,7.68414286 4.20951592,7.68414286 L1.10292994,7.68414286 C0.747541401,7.68414286 0.510615711,7.94882609 0.579038217,8.2708882 L0.893577495,9.71368944 C0.965063694,10.0357516 1.3163673,10.3004348 1.67992569,10.3004348 L27.9459979,10.3004348 C28.3075138,10.3004348 28.6577962,10.0357516 28.7323461,9.71368944 L29.0438217,8.2708882 C29.1112229,7.94975155 28.8763397,7.68506832 28.5178875,7.68506832 Z" id="Shape_12_"></path>
                </g>
            </g>
            <g id="Group-3-Copy-41" transform="translate(103.144374, 326.689441)">
                <ellipse id="Oval-3_13_" fill="#FED138" cx="25.1723333" cy="22.7747888" rx="24.9303015" ry="22.592472"></ellipse>
                <g id="智慧菜场_10_" transform="translate(10.212314, 9.254658)" fill="#111A41">
                    <path d="M27.4394671,12.0319814 L2.48261359,12.0319814 C1.76264544,12.0319814 1.30921868,12.555795 1.47465817,13.1943665 L4.14722081,23.5429255 C4.31163907,24.1851988 5.03671338,24.7099379 5.75770276,24.7099379 L24.1664204,24.7099379 C24.8853673,24.7099379 25.6104416,24.1861242 25.7769023,23.5429255 L28.449465,13.1943665 C28.6138832,12.555795 28.1604565,12.0319814 27.4394671,12.0319814 Z M9.6363397,22.5434224 L8.94190234,22.538795 C8.71621019,22.5360186 8.48949682,22.3685093 8.44047771,22.1723106 L6.49094692,14.5538758 C6.43988535,14.3539752 6.58081529,14.1929441 6.80752866,14.1929441 L7.50196603,14.2049752 C7.72663694,14.2068261 7.95437155,14.3706335 8.00339066,14.5714596 L9.95190021,22.1806398 C10.0029618,22.3823913 9.85998938,22.5461988 9.6363397,22.5434224 L9.6363397,22.5434224 Z M15.6983694,22.1297391 C15.6983694,22.3351925 15.5145478,22.4999255 15.2888556,22.4999255 L14.6352675,22.4999255 C14.4085541,22.4999255 14.2247325,22.3342671 14.2247325,22.1297391 L14.2247325,14.5649814 C14.2247325,14.3586025 14.4085541,14.1901677 14.6352675,14.1901677 L15.2888556,14.1901677 C15.5145478,14.1901677 15.6983694,14.359528 15.6983694,14.5649814 L15.6983694,22.1297391 Z M23.4311338,14.5538758 L21.481603,22.1723106 C21.4305414,22.3694348 21.2048493,22.5369441 20.9791571,22.538795 L20.2867622,22.5434224 C20.0610701,22.5461988 19.9180977,22.3814658 19.9701805,22.1797143 L21.9176688,14.5705342 C21.9677091,14.3687826 22.196465,14.2049752 22.4201146,14.2040497 L23.114552,14.1920186 C23.3412654,14.1929441 23.4832166,14.3539752 23.4311338,14.5538758 Z M28.665966,7.80260248 L25.6012505,7.80260248 C25.395983,7.80260248 25.28569,7.71375776 25.2448408,7.67673913 L17.6826221,0.760732919 C17.4599936,0.558981366 17.0943928,0.558981366 16.8727856,0.760732919 L16.2927261,1.28917391 C16.0700977,1.4955528 16.0700977,1.82686957 16.2927261,2.03509938 L22.3986688,7.61288199 C22.3986688,7.61288199 22.6223185,7.80167702 22.2853121,7.80167702 L7.49890234,7.80167702 C7.3222293,7.80167702 7.45090446,7.67859006 7.45090446,7.67859006 L13.6283333,2.03417391 C13.8509618,1.8259441 13.8509618,1.49462733 13.6283333,1.28824845 L13.0503163,0.759807453 C12.8266667,0.558055901 12.462087,0.558055901 12.2404798,0.759807453 L4.67723992,7.67581366 C4.63536943,7.7128323 4.53324628,7.80167702 4.35861571,7.80167702 L1.25509342,7.80167702 C0.894598726,7.80167702 0.657673036,8.06450932 0.728138004,8.38842236 L1.04471975,9.83307453 C1.11620594,10.1532857 1.46750955,10.4179689 1.82698301,10.4179689 L28.0961189,10.4179689 C28.4535499,10.4179689 28.8058747,10.1532857 28.8783822,9.83307453 L29.1939427,8.38842236 C29.2633864,8.06543478 29.027482,7.80260248 28.665966,7.80260248 Z" id="Shape_13_"></path>
                </g>
            </g>
            <g id="Group-3-Copy-42" transform="translate(380.919321, 174.913043)">
                <ellipse id="Oval-3_14_" fill="#FED138" cx="25.1845881" cy="22.8627081" rx="24.9303015" ry="22.592472"></ellipse>
                <g id="智慧菜场_11_" transform="translate(10.212314, 9.254658)" fill="#111A41">
                    <path d="M27.4517219,12.1189752 L2.49384713,12.1189752 C1.77490021,12.1189752 1.32045223,12.6418634 1.48589172,13.2832112 L4.15641189,23.6308447 C4.32491507,24.2721925 5.04590446,24.7978571 5.76995754,24.7978571 L24.1745902,24.7978571 C24.8996645,24.7978571 25.6226964,24.2721925 25.7881359,23.6308447 L28.4596773,13.2832112 C28.6271592,12.6418634 28.1706688,12.1189752 27.4517219,12.1189752 Z M9.64450955,22.6313416 L8.95415711,22.6267143 C8.72438004,22.6248634 8.50277282,22.459205 8.45069002,22.2602298 L6.50115924,14.643646 C6.4511189,14.4437453 6.59000637,14.2817888 6.81978344,14.2845652 L7.51217834,14.2928944 C7.73991295,14.2938199 7.96356263,14.4594783 8.01666667,14.6593789 L9.96313376,22.2713354 C10.0121529,22.4703106 9.87428662,22.6322671 9.64450955,22.6313416 L9.64450955,22.6313416 Z M15.7116454,22.2176584 C15.7116454,22.4240373 15.5257813,22.592472 15.2980467,22.592472 L14.6454798,22.592472 C14.4177452,22.592472 14.235966,22.4231118 14.235966,22.2176584 L14.235966,14.6547516 C14.235966,14.4474472 14.4187665,14.2799379 14.6454798,14.2799379 L15.2980467,14.2799379 C15.5268025,14.2799379 15.7116454,14.4483727 15.7116454,14.6547516 L15.7116454,22.2176584 Z M23.445431,14.643646 L21.4928365,22.2602298 C21.4407537,22.459205 21.2191465,22.6257888 20.9893694,22.6267143 L20.3000382,22.6313416 C20.0702611,22.6322671 19.9323949,22.4703106 19.981414,22.2704099 L21.9278811,14.6584534 C21.9809851,14.4585528 22.2056561,14.2919689 22.4323694,14.2919689 L23.1247643,14.2836398 C23.3535202,14.2817888 23.4924076,14.4428199 23.445431,14.643646 Z M28.679242,7.88959627 L25.6155478,7.88959627 C25.4051741,7.88959627 25.298966,7.80075155 25.2570955,7.76280745 L17.6918132,0.851428571 C17.4691847,0.646900621 17.1076688,0.646900621 16.8850403,0.851428571 L16.3049809,1.38079503 C16.0813312,1.58347205 16.0813312,1.91756522 16.3049809,2.12024224 L22.4078599,7.69987578 C22.4078599,7.69987578 22.6366157,7.88959627 22.2975669,7.88959627 L7.51115711,7.88959627 C7.33550531,7.88959627 7.46111677,7.76743478 7.46111677,7.76743478 L13.6416093,2.12024224 C13.865259,1.91663975 13.865259,1.58254658 13.6416093,1.38079503 L13.0615499,0.851428571 C12.8389214,0.646900621 12.4784268,0.646900621 12.2537558,0.851428571 L4.68949469,7.76280745 C4.64660297,7.80167702 4.54856476,7.88959627 4.37291295,7.88959627 L1.26632696,7.88959627 C0.910938429,7.88959627 0.672991507,8.1542795 0.742435244,8.47634161 L1.05595329,9.92191925 C1.12846072,10.2430559 1.4787431,10.5086646 1.84230149,10.5086646 L28.1083737,10.5086646 C28.4698896,10.5086646 28.820172,10.2430559 28.8947219,9.92191925 L29.2061975,8.47634161 C29.2725775,8.1542795 29.0376943,7.88959627 28.679242,7.88959627 Z" id="Shape_14_"></path>
                </g>
            </g>
            <g id="Group-3-Copy-29" transform="translate(38.806794, 400.726708)">
                <ellipse id="Oval-3_15_" fill="#3FF2E8" cx="25.4061953" cy="22.9663602" rx="24.9303015" ry="22.592472"></ellipse>
                <g id="胡萝卜_2_" transform="translate(10.212314, 9.254658)" fill="#111A41">
                    <path d="M24.1980786,6.31908075 L26.2395202,4.4644472 C26.4713397,4.25529193 26.4713397,3.9091677 26.2395202,3.69816149 C26.0077006,3.48808075 25.6237176,3.48808075 25.3929193,3.69816149 L22.9256242,5.93408696 C23.542448,3.73425466 23.4260276,1.46408696 23.4260276,1.32526708 C23.4260276,1.01153416 23.1186369,0.804229814 22.8102251,0.804229814 C22.4630064,0.804229814 22.2311868,1.08186957 22.2311868,1.36228571 C22.2311868,1.39560248 22.4252208,5.86560248 20.6523631,7.95900621 C20.5737282,7.99324845 20.5737282,8.06265839 20.5359427,8.13206832 C18.0686476,6.21357764 14.5607176,6.1441677 12.4814904,8.02934161 C11.8258599,8.62163975 10.3624352,10.2597143 8.66514862,12.3558944 L11.3254565,14.7639565 C11.6328471,15.0443727 11.6328471,15.5302422 11.3254565,15.8458261 C11.1712505,15.984646 10.9404522,16.0549814 10.7464183,16.0549814 C10.51562,16.0549814 10.3226072,15.9855714 10.1694225,15.8458261 L7.70212739,13.6136025 C3.92459236,18.5000621 -0.314539278,24.8459814 1.30411253,26.3156211 C2.4601465,27.3280807 6.31427389,25.723323 10.3634565,23.4892484 L8.47315711,21.7780621 C8.16372399,21.5004224 8.16372399,21.0117764 8.47315711,20.6961925 C8.781569,20.4157764 9.32077919,20.4157764 9.66901911,20.6961925 L11.7482463,22.5813665 C11.7890955,22.6156087 11.7890955,22.6489255 11.8268811,22.6840932 C14.7945796,20.9747578 17.6856858,19.0544161 19.5739427,17.6939814 L16.1058408,14.5520248 C15.7984501,14.2743851 15.7984501,13.7857391 16.1058408,13.4701553 C16.4132314,13.1897391 16.9555053,13.1897391 17.3006815,13.4701553 L20.7687834,16.6130373 C20.8075902,16.6445031 20.8075902,16.6824472 20.8453758,16.7185404 L21.4632208,16.1604845 C23.5832972,14.2410683 23.4678981,11.0269255 21.3090149,8.7965528 C21.3468004,8.7586087 21.4254352,8.7586087 21.4632208,8.72806832 C21.5020276,8.69012422 25.316327,6.21265217 28.6332866,7.29637267 C28.9406773,7.39724845 29.2868747,7.25842857 29.4032951,6.97986335 C29.517673,6.70037267 29.3644883,6.38849068 29.0560764,6.28206211 C27.3587898,5.72400621 25.6615032,5.93408696 24.1980786,6.31908075 L24.1980786,6.31908075 Z" id="Shape_15_"></path>
                </g>
            </g>
            <g id="Group-3-Copy" transform="translate(153.184713, 0.000000)">
                <ellipse id="Oval-3_16_" fill="#3EBDE9" cx="24.9915754" cy="23.4957267" rx="24.9303015" ry="22.592472"></ellipse>
                <g id="超市-copy_1_" transform="translate(10.212314, 10.180124)" fill="#111A41">
                    <path d="M9.23397452,17.7633913 L24.574913,17.8004099 L24.5953376,17.8004099 L24.6167834,17.798559 C25.2805839,17.7606149 25.8320488,17.3617391 25.9903397,16.8055342 L25.9913609,16.7981304 L28.983569,5.1770559 C29.0867134,4.80501863 28.9988875,4.41539752 28.7405159,4.10629193 C28.4555924,3.76479503 27.9939958,3.56119255 27.5068684,3.56119255 L6.29487049,3.56119255 L5.45848195,0.407204969 L1.15909766,0.407204969 C0.813921444,0.407204969 0.536146497,0.664484472 0.536146497,0.983770186 C0.536146497,1.30213043 0.813921444,1.5603354 1.15909766,1.5603354 L4.48116348,1.5603354 L8.49256051,16.7055839 C7.26095541,17.0174658 6.35308068,18.0650932 6.35308068,19.3033665 C6.35308068,20.1594224 6.78812527,20.9247826 7.46315924,21.4171304 C6.78710403,21.9113292 6.35308068,22.675764 6.35308068,23.5327453 C6.35308068,25.0171925 7.65923567,26.2249255 9.26154777,26.2249255 C10.8669236,26.2249255 12.1730786,25.0171925 12.1730786,23.5327453 C12.1730786,22.959882 11.9790446,22.4295901 11.6502081,21.9927702 L22.9746433,21.9927702 C22.6458068,22.4295901 22.4507516,22.959882 22.4507516,23.5327453 C22.4507516,25.0171925 23.7569066,26.2249255 25.3602399,26.2249255 C26.9656157,26.2249255 28.2717707,25.0171925 28.2717707,23.5327453 C28.2717707,22.0482981 26.9656157,20.8396398 25.3602399,20.8396398 L9.26154777,20.8396398 C9.24010191,20.8396398 9.21763482,20.8405652 9.1941465,20.8405652 C8.30976008,20.806323 7.60000425,20.1307329 7.60000425,19.3033665 C7.59796178,18.4611925 8.32916348,17.7763478 9.23397452,17.7633913 Z" id="Shape_16_"></path>
                </g>
            </g>
            <g id="Group-3-Copy-24" transform="translate(120.505308, 248.950311)">
                <path d="M25.6186115,0.462732919 C39.3878747,0.462732919 50.548913,10.5808509 50.548913,23.0561304 C50.548913,35.5304845 39.3878747,45.647677 25.6186115,45.647677 C11.8503694,45.647677 0.68933121,35.529559 0.68933121,23.0561304 C0.68933121,10.5808509 11.8503694,0.462732919 25.6186115,0.462732919 Z" id="Oval-3_17_" fill="#3EBDE9"></path>
                <g id="超市-copy_2_" transform="translate(11.233546, 9.254658)" fill="#111A41">
                    <path d="M8.83977919,18.2492609 L24.1807176,18.287205 L24.200121,18.287205 L24.2215669,18.2825776 C24.8843461,18.2446335 25.435811,17.8485342 25.5941019,17.2932547 L25.5961444,17.2830745 L28.5893737,5.66385093 C28.6914968,5.29181366 28.6026497,4.89941615 28.3452994,4.59031056 C28.0603758,4.2506646 27.5998004,4.04706211 27.1116518,4.04706211 L5.89965393,4.04706211 L5.06326539,0.891223602 L0.763881104,0.891223602 C0.418704883,0.891223602 0.140929936,1.14850311 0.140929936,1.46871429 C0.140929936,1.788 0.418704883,2.04435404 0.763881104,2.04435404 L4.08492569,2.04435404 L8.09734395,17.1914534 C6.86369639,17.500559 5.95684289,18.5463354 5.95684289,19.7901615 C5.95684289,20.6471429 6.39086624,21.4088012 7.06794268,21.9011491 C6.39086624,22.3962733 5.95684289,23.1616335 5.95684289,24.0195404 C5.95684289,25.5002857 7.26197665,26.7117205 8.86530998,26.7117205 C10.4706858,26.7117205 11.7768408,25.4993602 11.7768408,24.0195404 C11.7768408,23.4439006 11.5817856,22.9163851 11.252949,22.4767888 L22.5773843,22.4767888 C22.2485478,22.9163851 22.0534926,23.4439006 22.0534926,24.0195404 C22.0534926,25.5002857 23.3596476,26.7117205 24.9619597,26.7117205 C26.5683567,26.7117205 27.8734904,25.4993602 27.8734904,24.0195404 C27.8734904,22.5304658 26.5693779,21.3236584 24.9619597,21.3236584 L8.86530998,21.3236584 C8.84284289,21.3236584 8.82139703,21.3282857 8.7979087,21.3282857 C7.91250106,21.2903416 7.20376645,20.615677 7.20376645,19.7901615 C7.20376645,18.9452112 7.93598938,18.2640683 8.83977919,18.2492609 Z" id="Shape_17_"></path>
                </g>
            </g>
            <g id="Group-3-Copy-25" transform="translate(316.581741, 352.602484)">
                <ellipse id="Oval-3_18_" fill="#3EBDE9" cx="25.4184501" cy="22.6803913" rx="24.9303015" ry="22.592472"></ellipse>
                <g id="超市-copy_3_" transform="translate(10.212314, 9.254658)" fill="#111A41">
                    <path d="M9.66084926,17.8735217 L24.9997452,17.9096149 L25.0211911,17.9096149 L25.0416157,17.9068385 C25.7054161,17.8688944 26.2568811,17.472795 26.4161932,16.9156646 L26.4182357,16.9073354 L29.4104437,5.28718634 C29.5156306,4.91607453 29.424741,4.52367702 29.1673907,4.21457143 C28.8824671,3.87492547 28.422913,3.67132298 27.9347643,3.67132298 L6.71970276,3.67132298 L5.88535669,0.515484472 L1.5829087,0.515484472 C1.23977495,0.515484472 0.959957537,0.772763975 0.959957537,1.09297516 C0.959957537,1.4113354 1.23977495,1.66861491 1.5829087,1.66861491 L4.90395329,1.66861491 L8.91739278,16.8157143 C7.68680892,17.1248199 6.77484926,18.1705963 6.77484926,19.4144224 C6.77484926,20.2714037 7.215,21.0330621 7.88901274,21.5254099 C7.215,22.0205342 6.77484926,22.7858944 6.77484926,23.6438012 C6.77484926,25.1245466 8.08100425,26.333205 9.68535881,26.333205 C11.2897134,26.333205 12.5979108,25.1236211 12.5979108,23.6438012 C12.5979108,23.0681615 12.4028556,22.540646 12.0760616,22.1010497 L23.401518,22.1010497 C23.0706391,22.540646 22.8745626,23.0681615 22.8745626,23.6438012 C22.8745626,25.1245466 24.1786752,26.333205 25.7860934,26.333205 C27.3894268,26.333205 28.6945605,25.1236211 28.6945605,23.6438012 C28.6945605,22.1547267 27.390448,20.9479193 25.7860934,20.9479193 L9.68433758,20.9479193 C9.66084926,20.9479193 9.64042463,20.9479193 9.62102123,20.9525466 C8.73357113,20.9146025 8.02483652,20.2399379 8.02483652,19.4144224 C8.02381529,18.569472 8.75603822,17.8892547 9.66084926,17.8735217 Z" id="Shape_18_"></path>
                </g>
            </g>
            <g id="Group-3-Copy-26" transform="translate(60.252654, 110.130435)">
                <ellipse id="Oval-3_19_" fill="#1685EE" cx="25.3285817" cy="23.0968509" rx="24.9292803" ry="22.5915466"></ellipse>
                <path d="M38.5392314,15.347 C38.5392314,14.2799379 37.518,13.4146273 36.2598429,13.4146273 L14.3973206,13.4146273 C13.1381423,13.4146273 12.1179321,14.2808634 12.1179321,15.347 L11.0824034,34.6651739 C11.0824034,35.734087 12.1036348,36.5975466 13.3617919,36.5975466 L37.2943503,36.5975466 C38.5535287,36.5975466 39.5737389,35.734087 39.5737389,34.6651739 L38.5392314,15.347 L38.5392314,15.347 Z M25.3234756,26.9329068 C20.585983,26.9329068 16.7441104,23.6780435 16.7441104,19.6624472 C16.7441104,19.4893851 16.7614713,19.3200248 16.7757686,19.1497391 L16.777811,19.1497391 C16.8043631,18.6324037 17.3088514,18.2214969 17.9256752,18.2214969 C18.5424989,18.2214969 19.045966,18.6324037 19.0755817,19.1497391 L19.0970276,19.1497391 C19.0755817,19.3292795 19.0337113,19.505118 19.0337113,19.6892857 C19.0337113,22.6230124 21.8410764,25.0023851 25.303051,25.0023851 C28.7650255,25.0023851 31.569327,22.6230124 31.569327,19.6892857 C31.569327,19.5791553 31.5529873,19.4718012 31.53869,19.3653727 C31.5294989,19.3255776 31.5223503,19.2876335 31.5182654,19.246913 C31.5131592,19.2154472 31.5090743,19.1839814 31.5060106,19.1506646 L31.5172442,19.1506646 C31.5294989,18.6092671 32.0523694,18.1742981 32.694724,18.1742981 C33.3452484,18.1742981 33.8742463,18.6212981 33.8742463,19.1738012 L33.8742463,19.1738012 C33.8742463,19.179354 33.8742463,19.1821304 33.8742463,19.1867578 C33.8865011,19.344087 33.9028408,19.5023416 33.9028408,19.6633727 C33.903862,23.6780435 30.0619894,26.9329068 25.3234756,26.9329068 L25.3234756,26.9329068 Z" id="Shape_19_" fill="#111A41"></path>
            </g>
            <g id="Group-3-Copy-27" transform="translate(110.292994, 161.956522)">
                <ellipse id="Oval-3_20_" fill="#1685EE" cx="25.1468025" cy="22.9099068" rx="24.9292803" ry="22.5915466"></ellipse>
                <path d="M38.3584735,15.1591304 C38.3584735,14.0920683 37.337242,13.2267578 36.0790849,13.2267578 L14.2155414,13.2267578 C12.9573843,13.2267578 11.9361529,14.0920683 11.9361529,15.1591304 L10.9016454,34.4773043 C10.9016454,35.5462174 11.9228769,36.409677 13.181034,36.409677 L37.1115499,36.409677 C38.369707,36.409677 39.3919597,35.5462174 39.3919597,34.4773043 L38.3584735,15.1591304 L38.3584735,15.1591304 Z M25.1427176,26.7450373 C20.4052251,26.7450373 16.5643737,23.4901739 16.5643737,19.4736522 C16.5643737,19.3015155 16.5817346,19.1321553 16.5950106,18.9618696 L16.5970531,18.9618696 C16.6246263,18.4445342 17.1291146,18.0336273 17.7449172,18.0336273 C18.3607197,18.0336273 18.8652081,18.4445342 18.8948238,18.9618696 L18.9162696,18.9618696 C18.8948238,19.1414099 18.8519321,19.3172484 18.8519321,19.5014161 C18.8519321,22.4332919 21.6592972,24.8145155 25.1212718,24.8145155 C28.5842675,24.8145155 31.388569,22.4342174 31.388569,19.5014161 C31.388569,19.3912857 31.3742718,19.2839317 31.3579321,19.1765776 C31.3497622,19.1377081 31.3415924,19.099764 31.3385287,19.0590435 C31.3334225,19.0275776 31.3293376,18.9961118 31.3272951,18.962795 L31.3364862,18.962795 C31.348741,18.4213975 31.8716115,17.9855031 32.513966,17.9855031 C33.1665329,17.9855031 33.6955308,18.4334286 33.6955308,18.9859317 L33.6955308,18.9859317 C33.6955308,18.9914845 33.6955308,18.9942609 33.6955308,18.9988882 C33.7067643,19.1562174 33.7220828,19.314472 33.7220828,19.4745776 C33.7220828,23.4901739 29.8802102,26.7450373 25.1427176,26.7450373 L25.1427176,26.7450373 Z" id="Shape_20_" fill="#111A41"></path>
            </g>
        </g>
    </g>
</svg>