<?xml version="1.0" encoding="UTF-8"?>
<svg width="481px" height="447px" viewBox="0 0 481 447" version="1.1" xmlns="http://www.w3.org/2000/svg" xmlns:xlink="http://www.w3.org/1999/xlink">
    <!-- Generator: Sketch 46.2 (44496) - http://www.bohemiancoding.com/sketch -->
    <title>medical</title>
    <desc>Created with Sketch.</desc>
    <defs></defs>
    <g id="Page-1" stroke="none" stroke-width="1" fill="none" fill-rule="evenodd">
        <g id="medical" fill-rule="nonzero">
            <g id="Oval-5" transform="translate(44.000000, 0.000000)">
                <ellipse id="Oval" fill="#0B1A41" cx="218.452" cy="223.755137" rx="215.428" ry="219.854603"></ellipse>
                <path d="M218.441,446.546877 C216.111,446.546877 213.855,446.511158 211.602,446.439719 L211.785,440.565445 C213.999,440.636884 216.223,440.672603 218.452,440.672603 L218.89,440.668521 L218.89,446.543815 L218.522,446.546877 C218.494,446.546877 218.47,446.546877 218.441,446.546877 Z M226.184,446.411144 L225.98,440.535849 C228.352,440.453185 230.717,440.327658 233.076,440.166411 L233.463,446.027418 C231.048,446.195808 228.619,446.321336 226.184,446.411144 Z M204.32,446.08763 C201.888,445.926384 199.466,445.725336 197.055,445.484486 L197.611,439.637767 C199.963,439.871473 202.324,440.064356 204.693,440.218459 L204.32,446.08763 Z M240.733,445.399781 L240.15,439.553062 C242.511,439.309151 244.863,439.025438 247.2,438.702945 L247.972,444.527212 C245.572,444.856849 243.158,445.148726 240.733,445.399781 Z M189.816,444.645596 C187.394,444.323103 184.991,443.960808 182.601,443.555651 L183.536,437.758938 C185.869,438.150829 188.21,438.504959 190.561,438.821329 L189.816,444.645596 Z M255.182,443.408692 L254.211,437.611979 C256.556,437.206822 258.882,436.765945 261.194,436.281185 L262.347,442.041158 C259.972,442.533062 257.582,442.988226 255.182,443.408692 Z M175.428,442.217712 C173.035,441.732952 170.659,441.206349 168.297,440.635863 L169.619,434.917733 C171.917,435.466788 174.229,435.979103 176.553,436.456719 L175.428,442.217712 Z M269.464,440.430733 L268.129,434.713623 C270.431,434.150281 272.722,433.551219 274.999,432.909295 L276.531,438.576397 C274.191,439.23363 271.836,439.854123 269.464,440.430733 Z M161.233,438.817247 C158.881,438.164096 156.548,437.476247 154.232,436.751658 L155.912,431.134562 C158.172,431.837719 160.449,432.512301 162.737,433.144021 L161.233,438.817247 Z M283.525,436.479171 L281.81,430.869219 C284.077,430.148712 286.322,429.391466 288.55,428.594418 L290.455,434.140075 C288.164,434.958555 285.855,435.737233 283.525,436.479171 Z M147.271,434.438075 C144.961,433.62776 142.674,432.773562 140.397,431.884664 L142.456,426.396158 C144.671,427.264644 146.902,428.089247 149.148,428.879151 L147.271,434.438075 Z M297.295,431.576459 L295.207,426.096116 C297.414,425.224568 299.601,424.317301 301.766,423.374315 L304.029,428.775055 C301.801,429.747637 299.559,430.676336 297.295,431.576459 Z M133.617,429.097548 C131.367,428.130068 129.136,427.120747 126.929,426.077747 L129.347,420.747425 C131.498,421.76287 133.666,422.741575 135.852,423.6815 L133.617,429.097548 Z M310.667,425.755253 L308.229,420.433096 C310.373,419.410507 312.496,418.356281 314.597,417.265315 L317.204,422.501747 C315.046,423.621288 312.867,424.704089 310.667,425.755253 Z M120.35,422.838527 C118.174,421.715925 116.02,420.561685 113.883,419.370705 L116.646,414.212856 C118.727,415.37526 120.825,416.500925 122.944,417.588829 L120.35,422.838527 Z M323.632,419.030863 L320.856,413.880158 C322.93,412.717753 324.979,411.516568 327.006,410.286808 L329.951,415.336479 C327.867,416.601959 325.762,417.83274 323.632,419.030863 Z M107.533,415.686527 C105.434,414.42513 103.364,413.12189 101.312,411.789055 L104.404,406.832253 C106.401,408.13039 108.422,409.39689 110.464,410.630733 L107.533,415.686527 Z M336.15,411.429822 L333.037,406.487308 C335.025,405.185089 336.994,403.847151 338.941,402.476555 L342.209,407.31089 C340.213,408.718226 338.188,410.091884 336.15,411.429822 Z M95.218,407.68237 C93.208,406.280137 91.226,404.842185 89.262,403.367493 L92.678,398.636233 C94.586,400.070103 96.519,401.465192 98.473,402.831705 L95.218,407.68237 Z M348.135,402.998055 L344.712,398.270877 C346.62,396.832925 348.496,395.365377 350.346,393.870274 L353.923,398.476007 C352.018,400.013973 350.092,401.523363 348.135,402.998055 Z M83.459,398.862795 C81.547,397.323808 79.663,395.756247 77.804,394.157048 L81.516,389.666637 C83.326,391.222973 85.161,392.748692 87.023,394.242774 L83.459,398.862795 Z M359.55,393.762096 L355.831,389.278829 C357.638,387.718411 359.416,386.125336 361.166,384.504705 L365.032,388.859384 C363.232,390.522877 361.405,392.158815 359.55,393.762096 Z M72.314,389.264541 C70.507,387.60411 68.729,385.911021 66.979,384.189356 L70.971,379.957144 C72.679,381.636966 74.409,383.286171 76.165,384.90374 L72.314,389.264541 Z M370.354,383.769911 L366.347,379.551986 C368.044,377.870123 369.717,376.162747 371.362,374.422712 L375.503,378.504904 C373.814,380.286781 372.1,382.045185 370.354,383.769911 Z M61.813,378.938637 C60.123,377.159822 58.46,375.355493 56.822,373.516466 L61.082,369.563884 C62.678,371.353925 64.298,373.11437 65.946,374.851342 L61.813,378.938637 Z M380.479,373.071507 L376.206,369.133212 C377.794,367.34011 379.351,365.518432 380.88,363.670219 L385.28,367.465637 C383.708,369.362836 382.109,371.227377 380.479,373.071507 Z M52.012,367.927945 C50.445,366.03687 48.902,364.122322 47.391,362.18226 L51.903,358.53074 C53.372,360.421815 54.873,362.286356 56.405,364.125384 L52.012,367.927945 Z M389.89,361.6975 L385.377,358.054144 C386.846,356.156945 388.28,354.237295 389.683,352.290089 L394.322,355.776281 C392.877,357.773493 391.4,359.750295 389.89,361.6975 Z M42.955,356.284514 C41.507,354.294445 40.094,352.281925 38.713,350.237767 L43.457,346.901596 C44.797,348.888603 46.174,350.850096 47.58,352.784034 L42.955,356.284514 Z M398.549,349.704021 L393.805,346.374993 C395.148,344.384925 396.455,342.36424 397.731,340.327226 L402.581,343.490925 C401.27,345.58611 399.927,347.655781 398.549,349.704021 Z M34.679,344.058349 C33.367,341.97439 32.088,339.870021 30.845,337.739116 L35.793,334.733603 C37.002,336.806336 38.246,338.854575 39.522,340.881384 L34.679,344.058349 Z M406.414,337.140055 L401.452,334.155973 C402.658,332.072014 403.835,329.969685 404.977,327.842863 L410.023,330.669781 C408.854,332.84661 407.648,335.006089 406.414,337.140055 Z M27.217,331.297418 C26.047,329.130795 24.908,326.94274 23.804,324.740397 L28.935,322.064521 C30.011,324.216856 31.114,326.34674 32.256,328.456212 L27.217,331.297418 Z M413.426,324.073979 L408.288,321.426678 C409.356,319.267199 410.39,317.086288 411.388,314.888027 L416.611,317.362856 C415.584,319.619288 414.522,321.857349 413.426,324.073979 Z M20.613,318.066014 C19.587,315.827952 18.596,313.568459 17.643,311.290596 L22.936,308.980075 C23.868,311.200788 24.831,313.394966 25.829,315.575877 L20.613,318.066014 Z M419.58,310.544575 L414.273,308.256507 C415.197,306.028651 416.085,303.783445 416.936,301.516808 L422.314,303.62526 C421.436,305.950068 420.525,308.260589 419.58,310.544575 Z M14.896,304.42639 C14.014,302.11587 13.17,299.788 12.369,297.442781 L17.802,295.505781 C18.582,297.786705 19.405,300.050281 20.259,302.295486 L14.896,304.42639 Z M424.812,296.618178 L419.372,294.695466 C420.149,292.411479 420.887,290.108103 421.586,287.787377 L427.09,289.515164 C426.369,291.901205 425.61,294.268877 424.812,296.618178 Z M10.074,290.380589 C9.35,288.021082 8.665,285.639123 8.015,283.242877 L13.568,281.679397 C14.197,284.010329 14.868,286.327993 15.571,288.63137 L10.074,290.380589 Z M429.121,282.372349 L423.568,280.816014 C424.19,278.498349 424.774,276.157212 425.318,273.803829 L430.921,275.151973 C430.362,277.575774 429.765,279.983247 429.121,282.372349 Z M6.19,276.034747 C5.624,273.631356 5.1,271.213678 4.605,268.775589 L10.242,267.58461 C10.723,269.958404 11.241,272.318932 11.792,274.665171 L6.19,276.034747 Z M432.475,267.888733 L426.83,266.726329 C427.297,264.36274 427.723,261.987925 428.113,259.602904 L433.792,260.56426 C433.395,263.02174 432.955,265.459829 432.475,267.888733 Z M3.256,261.454178 C2.852,259.01813 2.486,256.564733 2.152,254.10113 L7.859,253.305103 C8.179,255.705432 8.538,258.093514 8.935,260.47139 L3.256,261.454178 Z M434.871,253.204068 L429.164,252.436616 C429.473,250.047514 429.743,247.649226 429.976,245.237671 L435.705,245.811219 C435.465,248.287068 435.188,250.751692 434.871,253.204068 Z M1.291,246.712363 C1.045,244.255904 0.838,241.785158 0.669,239.302164 L6.412,238.893945 C6.58,241.311623 6.781,243.719096 7.019,246.117384 L1.291,246.712363 Z M436.291,238.403062 L430.549,238.023418 C430.699,235.621048 430.816,233.206432 430.889,230.78161 L436.646,230.96837 C436.564,233.456466 436.449,235.935377 436.291,238.403062 Z M0.286,231.867473 C0.202,229.40387 0.156,226.924959 0.145,224.439925 L5.902,224.411349 C5.912,226.840253 5.958,229.253849 6.043,231.660301 L0.286,231.867473 Z M431.005,223.535719 C431.002,221.110897 430.959,218.697301 430.879,216.290849 L436.635,216.089801 C436.716,218.561568 436.758,221.039459 436.762,223.528575 L431.005,223.535719 Z M6,217.166479 L0.244,216.994007 C0.314,214.50489 0.43,212.022918 0.581,209.555233 L6.331,209.927733 C6.18,212.332144 6.071,214.741658 6,217.166479 Z M430.523,209.057205 C430.362,206.636466 430.165,204.230014 429.929,201.833767 L435.658,201.245932 C435.9,203.706473 436.104,206.177219 436.266,208.663274 L430.523,209.057205 Z M6.89,202.712459 L1.161,202.145034 C1.393,199.670205 1.667,197.209664 1.98,194.756267 L7.688,195.509432 C7.389,197.898534 7.122,200.301925 6.89,202.712459 Z M429.104,194.634822 C428.788,192.235514 428.436,189.847432 428.043,187.471596 L433.722,186.495952 C434.123,188.936082 434.489,191.388459 434.812,193.853082 L429.104,194.634822 Z M8.721,188.340082 L3.042,187.38587 C3.436,184.933493 3.872,182.490301 4.346,180.061397 L9.99,181.209514 C9.529,183.574123 9.107,185.952 8.721,188.340082 Z M426.749,180.353274 C426.274,177.975397 425.766,175.61487 425.217,173.272712 L430.819,171.90926 C431.381,174.315712 431.905,176.734411 432.394,179.175562 L426.749,180.353274 Z M11.49,174.137116 L5.881,172.796116 C6.44,170.375377 7.034,167.968925 7.667,165.579822 L13.227,167.115747 C12.607,169.438514 12.028,171.780671 11.49,174.137116 Z M423.453,166.253384 C422.827,163.91837 422.163,161.600705 421.463,159.301411 L426.96,157.559336 C427.681,159.921904 428.365,162.303863 429.006,164.703171 L423.453,166.253384 Z M15.184,160.145404 L9.681,158.42374 C10.394,156.038719 11.15,153.67513 11.941,151.321747 L17.389,153.230171 C16.618,155.51926 15.883,157.824678 15.184,160.145404 Z M419.246,152.427 C418.466,150.141993 417.65,147.875356 416.797,145.626068 L422.166,143.503329 C423.041,145.816911 423.878,148.147842 424.68,150.49 L419.246,152.427 Z M19.812,146.404747 L14.435,144.310582 C15.303,141.986795 16.209,139.676274 17.155,137.384123 L22.462,139.658925 C21.545,141.892904 20.659,144.13811 19.812,146.404747 Z M414.136,138.930253 C413.212,136.706479 412.252,134.508219 411.258,132.33139 L416.481,129.848397 C417.503,132.089521 418.491,134.353096 419.436,136.634021 L414.136,138.930253 Z M25.337,133.016178 L20.108,130.555637 C21.13,128.296144 22.189,126.058082 23.278,123.841452 L28.424,126.474466 C27.361,128.632925 26.332,130.813836 25.337,133.016178 Z M408.161,125.828459 C407.093,123.673062 405.993,121.54624 404.854,119.436767 L409.9,116.603726 C411.067,118.770349 412.203,120.962486 413.298,123.174014 L408.161,125.828459 Z M31.719,120.047055 L26.665,117.234425 C27.832,115.050452 29.034,112.887911 30.267,110.749863 L35.23,113.733945 C34.024,115.813822 32.858,117.920233 31.719,120.047055 Z M401.336,113.160397 C400.131,111.083582 398.891,109.032281 397.618,106.999349 L402.468,103.83463 C403.776,105.918589 405.051,108.027041 406.291,110.162027 L401.336,113.160397 Z M38.941,107.551466 L34.084,104.394911 C35.391,102.299726 36.727,100.226993 38.097,98.1787534 L42.856,101.492473 C41.521,103.490705 40.214,105.506288 38.941,107.551466 Z M393.695,100.969952 C392.36,98.978863 390.986,97.0173699 389.584,95.0803699 L394.216,91.5870342 C395.66,93.5801644 397.07,95.5998288 398.447,97.6470479 L393.695,100.969952 Z M46.965,95.5712534 L42.319,92.0993493 C43.76,90.0939726 45.233,88.1151301 46.737,86.1638425 L51.263,89.8000548 C49.794,91.698274 48.363,93.6240479 46.965,95.5712534 Z M385.271,89.3265205 C383.806,87.4334041 382.305,85.5637603 380.78,83.7206507 L385.18,79.9262534 C386.747,81.8193699 388.283,83.738 389.79,85.6831644 L385.271,89.3265205 Z M55.744,84.1768356 L51.337,80.3957055 C52.904,78.4954452 54.5,76.6227397 56.127,74.7755479 L60.408,78.7066986 C58.822,80.5038836 57.27,82.3255616 55.744,84.1768356 Z M376.113,78.2729658 C374.521,76.4788425 372.904,74.7153356 371.259,72.9824452 L375.399,68.8931096 C377.087,70.6760068 378.745,72.4844178 380.379,74.3265068 L376.113,78.2729658 Z M65.247,73.4018904 L61.093,69.327863 C62.78,67.5419041 64.491,65.7804384 66.235,64.0516301 L70.249,68.2634315 C68.554,69.9483562 66.885,71.6598151 65.247,73.4018904 Z M366.241,67.8572534 C364.54,66.1753904 362.814,64.5210822 361.057,62.9014726 L364.922,58.5467945 C366.722,60.2102877 368.496,61.9064384 370.247,63.6332055 L366.241,67.8572534 Z M75.422,63.3015274 L71.541,58.9550137 C73.337,57.2864178 75.161,55.6474178 77.014,54.0410753 L80.746,58.5171986 C78.942,60.0816986 77.168,61.6778356 75.422,63.3015274 Z M355.712,58.130411 C353.905,56.5740753 352.074,55.0391712 350.215,53.5359041 L353.786,48.9301712 C355.694,50.4691575 357.574,52.0397808 359.43,53.64 L355.712,58.130411 Z M86.225,53.9084041 L82.64,49.3108356 C84.538,47.7687877 86.464,46.2583767 88.418,44.7775616 L91.848,49.4975959 C89.95,50.9355479 88.073,52.4092192 86.225,53.9084041 Z M344.571,49.1353014 C342.666,47.7014315 340.736,46.2951164 338.786,44.9245205 L342.048,40.0830411 C344.055,41.4883356 346.033,42.9313904 347.994,44.4081233 L344.571,49.1353014 Z M97.611,45.2796712 L94.329,40.4524795 C96.325,39.0390205 98.346,37.6623014 100.385,36.3213014 L103.505,41.2638151 C101.516,42.5680753 99.552,43.9090753 97.611,45.2796712 Z M332.864,40.9147877 C330.872,39.6125685 328.854,38.3430068 326.816,37.1061027 L329.754,32.0564315 C331.849,33.321911 333.922,34.6282123 335.971,35.9732945 L332.864,40.9147877 Z M109.529,37.4459452 L106.576,32.4034178 C108.657,31.1338562 110.756,29.9000137 112.885,28.6947466 L115.676,33.8383082 C113.602,35.0068356 111.553,36.2121027 109.529,37.4459452 Z M320.635,33.504589 C318.565,32.3381027 316.47,31.2124384 314.351,30.118411 L316.952,24.8748356 C319.128,25.9974384 321.285,27.1598425 323.419,28.3610274 L320.635,33.504589 Z M121.921,30.4480479 L119.307,25.2116164 C121.461,24.0890137 123.636,23.0051918 125.832,21.9479041 L128.285,27.2629178 C126.146,28.2936712 124.025,29.3550411 121.921,30.4480479 Z M307.954,26.9475685 C305.803,25.9290616 303.635,24.9432123 301.449,23.9961438 L303.698,18.5872397 C305.947,19.5628836 308.172,20.5701644 310.379,21.6182671 L307.954,26.9475685 Z M134.745,24.3084315 L132.474,18.9066712 C134.695,17.9351096 136.941,16.9951849 139.204,16.0991438 L141.292,21.5723425 C139.092,22.4469521 136.91,23.3583014 134.745,24.3084315 Z M294.849,21.2702603 C292.642,20.4027945 290.411,19.5700274 288.164,18.774 L290.055,13.2222192 C292.365,14.0396781 294.653,14.8938767 296.922,15.7909384 L294.849,21.2702603 Z M147.949,19.0577123 L146.037,13.5120548 C148.328,12.6905137 150.637,11.9057123 152.957,11.1627534 L154.686,16.7645411 C152.423,17.4942329 150.177,18.2576027 147.949,19.0577123 Z M281.398,16.507363 C279.142,15.794 276.872,15.1194178 274.584,14.4815753 L276.103,8.8144726 C278.455,9.46660274 280.788,10.1626164 283.108,10.8984315 L281.398,16.507363 Z M161.49,14.7142603 L159.95,9.05430137 C162.287,8.39094521 164.638,7.77045205 167.008,7.18567808 L168.364,12.8956438 C166.059,13.4661301 163.764,14.0723356 161.49,14.7142603 Z M267.699,12.6874521 C265.404,12.1281918 263.095,11.6117945 260.769,11.1341781 L261.908,5.37420548 C264.298,5.86508904 266.677,6.39577397 269.035,6.97034247 L267.699,12.6874521 Z M175.291,11.3107329 L174.124,5.55790411 C176.5,5.05579452 178.89,4.5934863 181.29,4.1740411 L182.268,9.96258904 C179.93,10.3738699 177.604,10.8218904 175.291,11.3107329 Z M253.782,9.82175342 C251.456,9.41965753 249.119,9.06450685 246.767,8.74609589 L247.527,2.92080822 C249.941,3.24738356 252.348,3.61682192 254.738,4.02606164 L253.782,9.82175342 Z M189.282,8.8675411 L188.495,3.04225342 C190.895,2.7054726 193.313,2.4074726 195.734,2.15335616 L196.325,8.00007534 C193.967,8.24704795 191.619,8.53790411 189.282,8.8675411 Z M239.718,7.91332877 C237.37,7.67247945 235.012,7.4755137 232.644,7.31426712 L233.023,1.45326027 C235.456,1.61450685 237.877,1.81861644 240.294,2.06660959 L239.718,7.91332877 Z M203.399,7.37243836 L202.999,1.51143151 C205.417,1.33997945 207.842,1.21036986 210.277,1.11341781 L210.495,6.98871233 C208.123,7.07852055 205.754,7.20710959 203.399,7.37243836 Z M225.548,6.95911644 C223.194,6.87645205 220.828,6.83767123 218.452,6.83767123 L217.577,6.84073288 L217.577,0.965438356 L218.417,0.962376712 C218.424,0.962376712 218.428,0.962376712 218.435,0.962376712 C220.902,0.962376712 223.327,1.00217808 225.745,1.08484247 L225.548,6.95911644 Z" id="Shape" fill="#5EBBE6"></path>
            </g>
            <g id="Oval-5_1_" transform="translate(141.000000, 100.013699)">
                <path d="M121.804,3.47292466 C187.088,3.47292466 240.008,57.4813425 240.008,124.099651 C240.008,190.725103 187.088,244.7325 121.804,244.7325 C56.527,244.7325 3.606,190.725103 3.606,124.099651 C3.605,57.4813425 56.526,3.47292466 121.804,3.47292466 Z" id="Shape" fill="#0B163D"></path>
                <path d="M118.96,247.638 C116.489,247.580849 114.036,247.447158 111.605,247.239986 L112.083,241.386123 C114.403,241.580027 116.736,241.705555 119.095,241.762705 L118.96,247.638 Z M126.326,247.584932 L126.123,241.709637 C128.474,241.627993 130.808,241.466747 133.12,241.236103 L133.682,247.082822 C131.25,247.326733 128.797,247.495123 126.326,247.584932 Z M104.287,246.386808 C101.842,246.025534 99.424,245.587719 97.03,245.081527 L98.204,239.328699 C100.477,239.813459 102.783,240.228822 105.109,240.569685 L104.287,246.386808 Z M140.988,246.12861 L140.089,240.324753 C142.408,239.952253 144.703,239.503212 146.978,238.983753 L148.229,244.722295 C145.842,245.264205 143.428,245.733658 140.988,246.12861 Z M89.86,243.324144 C87.477,242.66487 85.127,241.929055 82.81,241.121801 L84.665,235.562877 C86.869,236.327267 89.107,237.026342 91.371,237.658062 L89.86,243.324144 Z M155.366,242.857753 L153.777,237.213103 C156.034,236.549747 158.258,235.821075 160.455,235.021986 L162.389,240.559479 C160.079,241.394288 157.734,242.164801 155.366,242.857753 Z M75.901,238.481644 C73.62,237.527432 71.375,236.502801 69.164,235.414897 L71.666,230.121315 C73.771,231.158192 75.912,232.133836 78.087,233.044164 L75.901,238.481644 Z M169.241,237.825432 L166.978,232.423671 C169.132,231.483747 171.254,230.48361 173.342,229.418158 L175.914,234.676021 C173.729,235.791479 171.501,236.842644 169.241,237.825432 Z M62.617,231.921562 C60.47,230.691801 58.36,229.396726 56.298,228.040418 L59.418,223.097904 C61.383,224.389918 63.387,225.626822 65.436,226.799432 L62.617,231.921562 Z M182.402,231.107164 L179.513,226.021774 C181.537,224.823651 183.527,223.565315 185.478,222.248808 L188.655,227.148459 C186.613,228.52926 184.525,229.852911 182.402,231.107164 Z M50.229,223.776568 C48.243,222.291671 46.307,220.742479 44.419,219.143281 L48.102,214.623274 C49.899,216.151034 51.744,217.621644 53.631,219.035103 L50.229,223.776568 Z M194.672,222.803986 L191.199,218.119671 C193.069,216.674575 194.892,215.182534 196.672,213.630281 L200.411,218.09926 C198.548,219.723973 196.633,221.294596 194.672,222.803986 Z M38.895,214.156884 C37.106,212.442363 35.366,210.670692 33.683,208.845952 L37.871,204.814788 C39.477,206.553801 41.133,208.238726 42.838,209.875685 L38.895,214.156884 Z M205.869,213.038363 L201.869,208.812274 C203.549,207.155925 205.187,205.444466 206.771,203.684021 L211.009,207.659055 C209.348,209.505226 207.633,211.302411 205.869,213.038363 Z M28.794,203.21763 C27.219,201.291856 25.705,199.319137 24.25,197.303555 L28.889,193.817363 C30.274,195.740075 31.718,197.618904 33.215,199.451808 L28.794,203.21763 Z M215.828,201.962356 L211.365,198.253685 C212.842,196.402411 214.261,194.50113 215.625,192.558007 L220.307,195.979904 C218.872,198.024062 217.382,200.018212 215.828,201.962356 Z M20.061,191.116993 C18.729,189.014664 17.457,186.866411 16.254,184.6855 L21.274,181.802452 C22.419,183.882329 23.628,185.923425 24.897,187.924719 L20.061,191.116993 Z M224.418,189.73211 L219.54,186.611274 C220.78,184.588548 221.969,182.526021 223.093,180.424712 L228.147,183.236322 C226.966,185.445808 225.722,187.608349 224.418,189.73211 Z M12.835,178.028466 C11.767,175.780199 10.762,173.495192 9.826,171.174466 L15.147,168.936404 C16.04,171.141808 16.996,173.319658 18.014,175.460767 L12.835,178.028466 Z M231.482,176.519075 L226.273,174.022815 C227.264,171.864356 228.196,169.672219 229.056,167.445384 L234.412,169.603842 C233.503,171.944979 232.529,174.251418 231.482,176.519075 Z M7.226,164.137788 C6.435,161.778281 5.711,159.382034 5.054,156.957212 L10.607,155.393733 C11.229,157.704253 11.919,159.984158 12.673,162.236507 L7.226,164.137788 Z M236.922,162.520219 L231.447,160.698541 C232.171,158.438027 232.828,156.146897 233.418,153.826171 L238.992,155.303925 C238.374,157.738952 237.682,160.145404 236.922,162.520219 Z M3.317,149.640904 C2.814,147.194651 2.382,144.723904 2.024,142.229685 L7.724,141.383651 C8.062,143.754384 8.472,146.103685 8.954,148.427473 L3.317,149.640904 Z M240.63,147.968226 L234.979,146.841541 C235.425,144.51061 235.805,142.154164 236.115,139.776288 L241.822,140.54374 C241.498,143.044082 241.098,145.515849 240.63,147.968226 Z M1.17,134.7705 C0.959,132.284445 0.822,129.781041 0.766,127.260288 L6.523,127.123534 C6.58,129.523863 6.71,131.905822 6.907,134.26839 L1.17,134.7705 Z M242.573,133.059041 L236.831,132.643678 C236.996,130.280089 237.095,127.890986 237.123,125.484534 L242.879,125.555973 C242.852,128.077747 242.746,130.581151 242.573,133.059041 Z M6.558,119.946021 L0.801,119.737829 C0.889,117.220137 1.047,114.720815 1.276,112.241904 L7.012,112.794021 C6.79,115.15863 6.639,117.543651 6.558,119.946021 Z M236.989,118.315185 C236.877,115.914856 236.693,113.536979 236.441,111.181555 L242.162,110.542692 C242.43,113.021603 242.626,115.520925 242.738,118.042699 L236.989,118.315185 Z M7.887,105.689986 L2.2,104.778637 C2.58,102.292582 3.036,99.8248973 3.563,97.3898699 L9.186,98.6522877 C8.688,100.973014 8.252,103.318233 7.887,105.689986 Z M235.46,104.082623 C235.066,101.719034 234.603,99.3809589 234.068,97.0663562 L239.677,95.7263767 C240.232,98.1542603 240.724,100.614801 241.139,103.100856 L235.46,104.082623 Z M10.905,91.7084795 L5.366,90.0939726 C6.045,87.6732329 6.793,85.2841301 7.605,82.9317671 L13.039,84.8830548 C12.262,87.1282603 11.549,89.4030616 10.905,91.7084795 Z M232.259,90.1480616 C231.584,87.8528493 230.842,85.589274 230.034,83.3593767 L235.431,81.322363 C236.283,83.6686027 237.066,86.0464795 237.776,88.4559932 L232.259,90.1480616 Z M15.583,78.1974452 L10.283,75.9093767 C11.242,73.5896712 12.272,71.3036438 13.369,69.0666027 L18.521,71.6914521 C17.48,73.8223562 16.5,75.9920411 15.583,78.1974452 Z M227.408,76.7278562 C226.467,74.5398014 225.458,72.3915479 224.389,70.2718699 L229.506,67.5817055 C230.63,69.8024178 231.689,72.0649726 232.68,74.3612055 L227.408,76.7278562 Z M21.85,65.3650753 L16.866,62.4238562 C18.096,60.250089 19.389,58.1120411 20.747,56.0250205 L25.548,59.2673014 C24.253,61.2614521 23.023,63.2923425 21.85,65.3650753 Z M220.991,64.0169315 C219.793,61.9615479 218.535,59.9500479 217.223,57.9803904 L221.982,54.6738151 C223.363,56.7424658 224.685,58.8560205 225.939,61.0114178 L220.991,64.0169315 Z M29.592,53.4144589 L24.994,49.8772397 C26.471,47.8728836 28.01,45.9144521 29.598,44.0101096 L33.984,47.8187945 C32.467,49.637411 31.004,51.5029726 29.592,53.4144589 Z M213.098,52.1836781 C211.668,50.2936233 210.181,48.4505137 208.642,46.657411 L212.972,42.783411 C214.588,44.6704041 216.153,46.6063836 217.653,48.5893082 L213.098,52.1836781 Z M38.704,42.5068425 L34.551,38.4328151 C36.255,36.6254247 38.012,34.8751849 39.819,33.1749521 L43.72,37.5000342 C41.998,39.1135205 40.324,40.7851781 38.704,42.5068425 Z M203.865,41.4056712 C202.217,39.7095205 200.523,38.0592945 198.78,36.4631575 L202.625,32.0870479 C204.452,33.7627877 206.23,35.4915959 207.956,37.2734726 L203.865,41.4056712 Z M49.023,32.8055137 L45.388,28.2508082 C47.289,26.6648767 49.243,25.1401781 51.236,23.6807945 L54.596,28.4508356 C52.695,29.8459247 50.84,31.2991849 49.023,32.8055137 Z M193.41,31.8359932 C191.575,30.3521164 189.695,28.9233493 187.776,27.5578562 L191.073,22.7367877 C193.09,24.1747397 195.061,25.6749452 196.988,27.2312808 L193.41,31.8359932 Z M60.417,24.4553904 L57.345,19.4843014 C59.418,18.1494247 61.538,16.879863 63.689,15.6756164 L66.459,20.8263219 C64.405,21.9734178 62.392,23.1858288 60.417,24.4553904 Z M181.896,23.6338493 C179.9,22.3857192 177.865,21.2018836 175.795,20.0762192 L178.494,14.8897945 C180.669,16.0664863 182.803,17.3146164 184.897,18.6198973 L181.896,23.6338493 Z M72.707,17.5768973 L70.254,12.260863 C72.468,11.195411 74.721,10.195274 77.008,9.26963699 L79.131,14.7285479 C76.955,15.6103014 74.815,16.5614521 72.707,17.5768973 Z M169.49,16.9125205 C167.364,15.9256507 165.199,15.0010342 163.007,14.143774 L165.067,8.65526712 C167.372,9.55641096 169.642,10.524911 171.874,11.5617877 L169.49,16.9125205 Z M85.731,12.2822945 L83.924,6.70091781 C86.254,5.91917808 88.612,5.20479452 90.998,4.56695205 L92.453,10.2554863 C90.188,10.8586301 87.941,11.536274 85.731,12.2822945 Z M156.368,11.7873288 C154.143,11.0780479 151.89,10.4320411 149.609,9.85339041 L150.994,4.15056849 C153.388,4.75779452 155.753,5.43135616 158.09,6.17737671 L156.368,11.7873288 Z M99.297,8.65322603 L98.18,2.88610959 C100.576,2.40134932 103.001,1.98904795 105.451,1.65634932 L106.217,7.48061644 C103.887,7.7990274 101.581,8.18989726 99.297,8.65322603 Z M142.753,8.344 C140.465,7.91741096 138.149,7.55613699 135.815,7.26834247 L136.503,1.43591096 C138.956,1.7369726 141.385,2.11355479 143.785,2.56259589 L142.753,8.344 Z M113.196,6.73765753 L112.774,0.877671233 C115.207,0.693972603 117.663,0.583753425 120.133,0.55109589 L120.21,6.42639041 C117.854,6.45700685 115.516,6.56212329 113.196,6.73765753 Z M128.825,6.62641781 C126.502,6.48558219 124.162,6.41108219 121.804,6.41108219 L121.804,0.535787671 C124.274,0.535787671 126.727,0.610287671 129.162,0.758267123 L128.825,6.62641781 Z" id="Shape" fill="#5EBBE6"></path>
            </g>
            <g id="Group-4" transform="translate(247.000000, 208.191781)" fill="#F8D664">
                <path d="M15.951,8.72670548 C19.922,8.72670548 23.148,12.0128699 23.148,16.0726096 C23.148,20.1252055 19.921,23.4174932 15.951,23.4174932 C11.972,23.4174932 8.754,20.1241849 8.754,16.0726096 C8.754,12.0128699 11.973,8.72670548 15.951,8.72670548 Z" id="Oval-5_2_"></path>
                <g id="Oval-5_3_">
                    <path d="M15.951,31.6818904 C7.516,31.6818904 0.656,24.6809315 0.656,16.0726096 C0.656,7.46428767 7.516,0.463328767 15.951,0.463328767 C24.386,0.463328767 31.246,7.46428767 31.246,16.0726096 C31.246,24.6809315 24.386,31.6818904 15.951,31.6818904 Z M15.951,2.29929452 C8.511,2.29929452 2.455,8.47973288 2.455,16.0726096 C2.455,23.6644658 8.511,29.8449041 15.951,29.8449041 C23.39,29.8449041 29.446,23.6644658 29.446,16.0726096 C29.446,8.47973288 23.391,2.29929452 15.951,2.29929452 Z" id="Shape"></path>
                </g>
            </g>
            <g id="Group" transform="translate(106.000000, 214.315068)" fill="#F8D664">
                <path d="M13.928,2.45237671 C15.287,3.70765068 16.001,5.39359589 16.001,7.44591781 C16.001,9.49721918 15.221,11.3474726 13.73,12.9976986 C12.921,13.8580205 11.334,15.1490137 8.936,16.7992397 C5.992,18.8219658 4.304,20.6375205 3.882,22.2224315 L16.031,22.2224315 L16.031,24.639089 L0.61,24.639089 C0.61,22.487774 1.355,20.5354658 2.912,18.7862466 C3.819,17.7248767 5.471,16.304274 7.931,14.5897534 C9.744,13.2630411 10.947,12.3016849 11.562,11.6413904 C12.728,10.3575411 13.343,8.93081507 13.343,7.41019863 C13.343,5.95387671 12.921,4.86393151 12.078,4.0740274 C11.237,3.278 10.039,2.88304795 8.55,2.88304795 C6.961,2.88304795 5.731,3.41475342 4.888,4.53327397 C3.981,5.59464384 3.495,7.18057534 3.46,9.26045205 L0.804,9.26045205 C0.804,6.62029452 1.549,4.50469863 2.976,2.94734247 C4.403,1.36141096 6.315,0.565383562 8.648,0.565383562 C10.785,0.56640411 12.535,1.19812329 13.928,2.45237671 Z" id="Shape"></path>
                <path d="M23.705,21.2692397 C24.095,21.6274521 24.288,22.0938425 24.288,22.6531027 C24.288,23.2480822 24.095,23.7144726 23.705,24.0737055 C23.318,24.4390616 22.833,24.6401096 22.312,24.6401096 C21.76,24.6401096 21.307,24.4400822 20.92,24.0737055 C20.53,23.6787534 20.337,23.2195068 20.337,22.6531027 C20.337,22.0928219 20.53,21.6264315 20.92,21.2692397 C21.307,20.8661233 21.76,20.7018151 22.312,20.7018151 C22.861,20.7018151 23.318,20.8661233 23.705,21.2692397 Z" id="Shape"></path>
                <path d="M43.435,1.03279452 L43.435,3.44332877 L32.16,3.44332877 L31.38,11.3474726 L31.514,11.3474726 C32.16,10.5514452 33.004,9.95646575 34.006,9.5615137 C34.912,9.16656164 35.886,9.00225342 36.954,9.00225342 C39.157,9.00225342 40.939,9.69112329 42.299,11.1178493 C43.659,12.5670274 44.373,14.5540342 44.373,17.1003014 C44.373,19.4812397 43.533,21.4325274 41.881,22.9531438 C40.32,24.3737466 38.381,25.0983356 36.11,25.0983356 C34.072,25.0983356 32.322,24.5390753 30.894,23.413411 C29.275,22.158137 28.4,20.4364726 28.238,18.2902603 L30.863,18.2902603 C30.993,19.7751575 31.577,20.9375616 32.61,21.7264452 C33.52,22.4224589 34.718,22.7878151 36.145,22.7878151 C37.761,22.7878151 39.09,22.2571301 40.159,21.1957603 C41.199,20.1415342 41.748,18.785226 41.748,17.1278562 C41.748,15.2490274 41.23,13.7927055 40.258,12.7670548 C39.32,11.7056849 37.99,11.2107192 36.308,11.2107192 C35.204,11.2107192 34.235,11.4474863 33.356,11.9434726 C32.449,12.4016986 31.739,13.1344521 31.282,14.0590685 L28.759,14.0590685 L29.989,1.03177397 L43.435,1.03177397 L43.435,1.03279452 Z" id="Shape"></path>
                <polygon id="Shape" points="50.618 0.56640411 50.618 15.4796712 59.011 7.54593151 62.448 7.54593151 55.061 14.4183014 63.159 24.6401096 59.819 24.6401096 53.276 16.1399658 50.619 18.5862192 50.619 24.6401096 48.029 24.6401096 48.029 0.56640411"></polygon>
                <path d="M77.732,10.3218219 C78.381,9.19513699 79.155,8.37053425 80.062,7.87658904 C80.874,7.34488356 81.847,7.08056164 83.013,7.08056164 C84.764,7.08056164 86.156,7.64696575 87.259,8.7654863 C88.292,9.92789041 88.844,11.4770822 88.844,13.4273493 L88.844,24.639089 L86.253,24.639089 L86.253,13.8580205 C86.253,12.3374041 85.931,11.2107192 85.312,10.4871507 C84.666,9.69112329 83.625,9.33189041 82.202,9.33189041 C81.102,9.33189041 80.16,9.72684247 79.45,10.5861438 C78.67,11.4474863 78.315,12.5374315 78.315,13.9223151 L78.315,24.639089 L75.725,24.639089 L75.725,13.8580205 C75.725,10.8178082 74.424,9.33189041 71.866,9.33189041 C70.672,9.33189041 69.694,9.79011644 68.922,10.7810685 C68.141,11.7056849 67.754,12.868089 67.754,14.2243973 L67.754,24.639089 L65.161,24.639089 L65.161,7.54491096 L67.754,7.54491096 L67.754,9.82583562 C69.016,7.97558219 70.605,7.0795411 72.484,7.0795411 C75.043,7.08056164 76.794,8.14193151 77.732,10.3218219 Z" id="Shape"></path>
            </g>
            <g id="Group" transform="translate(12.000000, 214.315068)" fill="#F8D664">
                <path d="M15.884,1.03279452 L15.884,3.44332877 L4.606,3.44332877 L3.829,11.3474726 L3.955,11.3474726 C4.605,10.5514452 5.449,9.95646575 6.45,9.5615137 C7.357,9.16656164 8.334,9.00225342 9.402,9.00225342 C11.602,9.00225342 13.387,9.69112329 14.744,11.1178493 C16.108,12.5670274 16.818,14.5540342 16.818,17.1003014 C16.818,19.4812397 15.978,21.4325274 14.322,22.9531438 C12.769,24.3737466 10.825,25.0983356 8.558,25.0983356 C6.516,25.0983356 4.766,24.5390753 3.343,23.413411 C1.719,22.158137 0.848,20.4364726 0.686,18.2902603 L3.308,18.2902603 C3.442,19.7751575 4.021,20.9375616 5.058,21.7264452 C5.965,22.4224589 7.167,22.7878151 8.59,22.7878151 C10.21,22.7878151 11.538,22.2571301 12.607,21.1957603 C13.644,20.1415342 14.196,18.785226 14.196,17.1278562 C14.196,15.2490274 13.676,13.7927055 12.706,12.7670548 C11.765,11.7056849 10.435,11.2107192 8.752,11.2107192 C7.652,11.2107192 6.678,11.4474863 5.803,11.9434726 C4.897,12.4016986 4.187,13.1344521 3.73,14.0590685 L1.203,14.0590685 L2.437,1.03177397 L15.884,1.03177397 L15.884,1.03279452 Z" id="Shape"></path>
                <polygon id="Shape" points="23.067 0.56640411 23.067 15.4796712 31.46 7.54593151 34.894 7.54593151 27.507 14.4183014 35.608 24.6401096 32.269 24.6401096 25.725 16.1399658 23.068 18.5862192 23.068 24.6401096 20.475 24.6401096 20.475 0.56640411"></polygon>
                <path d="M50.178,10.3218219 C50.828,9.19513699 51.605,8.37053425 52.511,7.87658904 C53.32,7.34488356 54.293,7.08056164 55.459,7.08056164 C57.209,7.08056164 58.605,7.64696575 59.701,8.7654863 C60.741,9.92789041 61.29,11.4770822 61.29,13.4273493 L61.29,24.639089 L58.7,24.639089 L58.7,13.8580205 C58.7,12.3374041 58.376,11.2107192 57.762,10.4871507 C57.116,9.69112329 56.075,9.33189041 54.648,9.33189041 C53.548,9.33189041 52.61,9.72684247 51.896,10.5861438 C51.12,11.4474863 50.761,12.5374315 50.761,13.9223151 L50.761,24.639089 L48.171,24.639089 L48.171,13.8580205 C48.171,10.8178082 46.874,9.33189041 44.316,9.33189041 C43.114,9.33189041 42.144,9.79011644 41.367,10.7810685 C40.591,11.7056849 40.2,12.868089 40.2,14.2243973 L40.2,24.639089 L37.61,24.639089 L37.61,7.54491096 L40.2,7.54491096 L40.2,9.82583562 C41.462,7.97558219 43.05,7.0795411 44.93,7.0795411 C47.493,7.08056164 49.24,8.14193151 50.178,10.3218219 Z" id="Shape"></path>
            </g>
            <g id="Group-3-Copy-3" transform="translate(122.000000, 91.849315)">
                <g id="Group-13-Copy-2">
                    <g id="Group-13">
                        <path d="M25.79,0.195945205 C39.7,0.195945205 50.981,11.7056849 50.981,25.9045685 C50.981,40.1003904 39.7,51.6131918 25.79,51.6131918 C11.873,51.6131918 0.599,40.1003904 0.599,25.9045685 C0.599,11.7067055 11.873,0.195945205 25.79,0.195945205 Z" id="Oval-3" fill="#EA484D"></path>
                        <g id="医院" transform="translate(8.333333, 8.504566)" fill="#111A41">
                            <path d="M0.661,17.2288904 C0.689,15.2194315 1.424,13.3436644 2.879,11.7628356 C3.202,11.4107466 3.477,11.0137534 3.772,10.6361507 C5.768,8.0715137 8.06,5.80487671 10.527,3.71377397 C11.24,3.11165068 11.929,2.47993151 12.66,1.89923973 C13.757,1.02463014 15.005,0.501089041 16.389,0.328616438 C18.93,0.0122465753 21.126,0.766431507 23.01,2.53810274 C23.734,3.21982877 24.521,3.83317808 25.277,4.48530822 C27.691,6.57641096 29.849,8.91550685 31.79,11.4689178 C32.134,11.92 32.538,12.3333219 32.858,12.8068562 C34.046,14.5744452 34.461,16.5328767 34.151,18.6505137 C33.905,20.349726 33.16,21.7917603 32.017,23.0541781 C31.374,23.7634589 30.79,24.5349932 30.172,25.2708082 C28.822,26.8659247 27.431,28.4202192 25.881,29.811226 C25.062,30.5429589 24.215,31.235911 23.375,31.9421301 C22.897,32.344226 22.44,32.7738767 21.931,33.1290274 C20.199,34.3383767 18.28,34.7537397 16.206,34.4373699 C14.547,34.1791712 13.131,33.4270274 11.911,32.2564589 C11.601,31.9553973 11.243,31.7043425 10.906,31.4349178 C8.755,29.7101918 6.829,27.7446164 5.051,25.6310616 C4.376,24.8248288 3.701,24.0134932 3.033,23.1888904 C2.637,22.7071918 2.218,22.2336575 1.881,21.7070548 C1.044,20.4027945 0.669,18.943411 0.661,17.2288904 Z M14.652,20.2670616 C14.652,20.3772808 14.652,20.4497397 14.652,20.5283219 C14.652,22.6990274 14.652,24.871774 14.652,27.0496233 C14.655,27.7956438 15.081,28.2620342 15.804,28.2681575 C16.908,28.2834658 18.015,28.2722397 19.118,28.2722397 C19.325,28.2722397 19.501,28.1936575 19.645,28.0456781 C20.078,27.5945959 20.267,27.0486027 20.267,26.4281096 C20.267,24.4492671 20.267,22.4724658 20.259,20.4926027 C20.259,20.3058425 20.312,20.2629795 20.488,20.2629795 C22.587,20.2701233 24.685,20.2670616 26.783,20.2670616 C26.888,20.2670616 26.994,20.2629795 27.099,20.2558356 C27.647,20.2129726 28.083,19.8037329 28.097,19.2403904 C28.118,18.0463493 28.108,16.848226 28.108,15.6541849 C28.108,15.4061918 28.034,15.1724863 27.879,14.9755205 C27.622,14.6387397 27.267,14.5377055 26.87,14.5377055 C24.747,14.5377055 22.621,14.5377055 20.498,14.5377055 C20.428,14.5377055 20.358,14.5377055 20.267,14.5377055 C20.267,14.4305479 20.267,14.3550274 20.267,14.272363 C20.267,12.1139041 20.267,9.95136301 20.267,7.78780137 C20.267,6.98054795 19.824,6.5325274 19.037,6.5325274 C17.986,6.52844521 16.935,6.52538356 15.889,6.53660959 C15.685,6.53660959 15.467,6.56824658 15.281,6.6539726 C14.821,6.86624658 14.652,7.27038356 14.652,7.77045205 C14.652,9.95136301 14.652,12.1312534 14.652,14.3080822 C14.652,14.3836027 14.652,14.4560616 14.652,14.5377055 C14.549,14.5377055 14.476,14.5377055 14.406,14.5377055 C13.428,14.5377055 12.452,14.5377055 11.475,14.5377055 C10.322,14.5377055 9.169,14.5346438 8.016,14.5377055 C7.261,14.5377055 6.807,15.0010342 6.807,15.7644041 C6.807,16.8614932 6.807,17.9596027 6.807,19.0577123 C6.807,19.3373425 6.868,19.6026849 7.039,19.8292466 C7.299,20.1772534 7.657,20.2701233 8.065,20.2701233 C10.173,20.2629795 12.286,20.2670616 14.398,20.2670616 C14.476,20.2670616 14.553,20.2670616 14.652,20.2670616 Z" id="Shape"></path>
                        </g>
                    </g>
                </g>
            </g>
            <g id="Group-3-Copy-4" transform="translate(396.000000, 25.513699)">
                <g id="Group-13-Copy-2_1_">
                    <g id="Group-13_1_">
                        <path d="M25.298,0.422506849 C39.208,0.422506849 50.489,11.9322466 50.489,26.1321507 C50.489,40.3279726 39.208,51.840774 25.298,51.840774 C11.381,51.840774 0.106,40.3279726 0.106,26.1321507 C0.105,11.9322466 11.381,0.422506849 25.298,0.422506849 Z" id="Oval-3_1_" fill="#EA484D"></path>
                        <g id="医院_1_" transform="translate(8.333333, 8.504566)" fill="#111A41">
                            <path d="M0.173,17.4554521 C0.2,15.4470137 0.932,13.5712466 2.387,11.9893973 C2.71,11.6383288 2.985,11.2403151 3.28,10.8627123 C5.276,8.29807534 7.568,6.03143836 10.035,3.94033562 C10.752,3.33821233 11.44,2.70649315 12.172,2.12580137 C13.269,1.25119178 14.513,0.726630137 15.897,0.554157534 C18.442,0.238808219 20.635,0.991972603 22.519,2.76364384 C23.243,3.44536986 24.03,4.05871918 24.79,4.71084932 C27.2,6.80195205 29.358,9.1400274 31.298,11.6944589 C31.643,12.1465616 32.051,12.558863 32.366,13.0323973 C33.554,14.7999863 33.97,16.7584178 33.66,18.8750342 C33.414,20.5752671 32.669,22.0162808 31.53,23.2786986 C30.884,23.989 30.3,24.7605342 29.681,25.4953288 C28.331,27.0914658 26.94,28.6447397 25.393,30.0357466 C24.571,30.7674795 23.728,31.4604315 22.884,32.1666507 C22.406,32.5687466 21.949,32.9983973 21.444,33.3535479 C19.708,34.5628973 17.789,34.9792808 15.715,34.6618904 C14.056,34.4047123 12.643,33.6515479 11.42,32.4809795 C11.11,32.1799178 10.752,31.928863 10.414,31.6594384 C8.264,29.9357329 6.338,27.969137 4.56,25.8566027 C3.885,25.0493493 3.21,24.2390342 2.542,23.4144315 C2.148,22.9337534 1.727,22.4602192 1.39,21.9325959 C0.551,20.6293562 0.179,19.1699726 0.173,17.4554521 Z M14.16,20.4936233 C14.16,20.604863 14.16,20.6763014 14.16,20.7548836 C14.16,22.9245685 14.16,25.0983356 14.16,27.2751644 C14.167,28.0211849 14.589,28.4875753 15.312,28.4947192 C16.416,28.5090068 17.526,28.4977808 18.629,28.4977808 C18.833,28.4977808 19.009,28.4191986 19.156,28.2722397 C19.585,27.820137 19.775,27.2741438 19.775,26.6546712 C19.775,24.6748082 19.775,22.6990274 19.767,20.7191644 C19.767,20.5324041 19.824,20.4895411 19.999,20.4895411 C22.094,20.4966849 24.195,20.4936233 26.29,20.4936233 C26.395,20.4936233 26.501,20.4895411 26.606,20.4823973 C27.154,20.4395342 27.589,20.0302945 27.604,19.4669521 C27.625,18.272911 27.618,17.0747877 27.618,15.8807466 C27.618,15.6327534 27.541,15.4000685 27.387,15.2020822 C27.134,14.8653014 26.775,14.7642671 26.382,14.7642671 C24.259,14.7642671 22.129,14.7642671 20.006,14.7642671 C19.936,14.7642671 19.865,14.7642671 19.775,14.7642671 C19.775,14.6571096 19.775,14.581589 19.775,14.4989247 C19.775,12.3404658 19.775,10.1779247 19.775,8.01436301 C19.775,7.20710959 19.332,6.75908904 18.545,6.75908904 C17.498,6.7560274 16.443,6.75194521 15.397,6.76215068 C15.193,6.76215068 14.975,6.79480822 14.792,6.88053425 C14.329,7.09280822 14.16,7.49694521 14.16,7.99599315 C14.16,10.1769041 14.16,12.3578151 14.16,14.5346438 C14.16,14.6101644 14.16,14.6826233 14.16,14.7642671 C14.061,14.7642671 13.984,14.7642671 13.914,14.7642671 C12.936,14.7642671 11.96,14.7642671 10.983,14.7642671 C9.83,14.7642671 8.677,14.7612055 7.524,14.7642671 C6.772,14.7642671 6.315,15.2275959 6.315,15.9909658 C6.315,17.0880548 6.315,18.1861644 6.315,19.2832534 C6.315,19.5628836 6.378,19.828226 6.547,20.0547877 C6.807,20.4027945 7.165,20.4956644 7.573,20.4956644 C9.681,20.4885205 11.797,20.4926027 13.906,20.4926027 C13.984,20.4936233 14.061,20.4936233 14.16,20.4936233 Z" id="Shape_1_"></path>
                        </g>
                    </g>
                </g>
            </g>
            <g id="Group-3-Copy-5" transform="translate(205.000000, 282.691781)">
                <g id="Group-13-Copy-2_2_">
                    <g id="Group-13_2_">
                        <path d="M25.562,0.335760274 C39.472,0.335760274 50.754,11.8485616 50.754,26.0443836 C50.754,40.2402055 39.472,51.7530068 25.562,51.7530068 C11.645,51.7530068 0.371,40.2402055 0.371,26.0443836 C0.371,11.8485616 11.645,0.335760274 25.562,0.335760274 Z" id="Oval-3_2_" fill="#EA484D"></path>
                        <g id="医院_2_" transform="translate(8.333333, 8.504566)" fill="#111A41">
                            <path d="M0.433,17.3687055 C0.461,15.3592466 1.196,13.4875616 2.651,11.9026507 C2.974,11.5505616 3.249,11.1566301 3.544,10.7759658 C5.54,8.21541096 7.831,5.94877397 10.298,3.85358904 C11.012,3.25146575 11.7,2.61974658 12.432,2.03905479 C13.529,1.16444521 14.777,0.64090411 16.161,0.468431507 C18.702,0.152061644 20.898,0.906246575 22.783,2.67791781 C23.507,3.35964384 24.294,3.97605479 25.05,4.62920548 C27.464,6.71622603 29.622,9.05532192 31.562,11.6087329 C31.907,12.0598151 32.314,12.4772192 32.63,12.9497329 C33.818,14.7142603 34.233,16.6716712 33.924,18.7893082 C33.678,20.4885205 32.933,21.9305548 31.794,23.1929726 C31.147,23.9022534 30.564,24.6778699 29.945,25.4096027 C28.595,27.0088014 27.204,28.5590137 25.654,29.9500205 C24.835,30.6817534 23.988,31.3767466 23.148,32.0809247 C22.669,32.4830205 22.212,32.9126712 21.704,33.2719041 C19.971,34.4771712 18.053,34.8925342 15.978,34.5761644 C14.32,34.3179658 12.903,33.5658219 11.683,32.3952534 C11.374,32.0941918 11.016,31.843137 10.678,31.5777945 C8.528,29.8489863 6.602,27.883411 4.824,25.7739384 C4.149,24.9636233 3.474,24.1522877 2.806,23.3287055 C2.409,22.8470068 1.991,22.3744932 1.654,21.8509521 C0.816,20.5456712 0.44,19.083226 0.433,17.3687055 Z M14.424,20.4099384 C14.424,20.5170959 14.424,20.5895548 14.424,20.668137 C14.424,22.8419041 14.424,25.0156712 14.424,27.1894384 C14.427,27.9354589 14.852,28.4018493 15.576,28.4089932 C16.68,28.4232808 17.787,28.416137 18.89,28.416137 C19.097,28.416137 19.273,28.3375548 19.417,28.1865137 C19.849,27.734411 20.038,27.1884178 20.038,26.5720068 C20.038,24.5931644 20.038,22.6122808 20.031,20.6324178 C20.031,20.4456575 20.084,20.4027945 20.26,20.4027945 C22.359,20.4099384 24.456,20.4099384 26.554,20.4099384 C26.659,20.4099384 26.765,20.4027945 26.87,20.3956507 C27.419,20.3527877 27.854,19.9445685 27.868,19.3842877 C27.889,18.1861644 27.879,16.9880411 27.879,15.7970616 C27.879,15.5460068 27.806,15.3163836 27.65,15.1163562 C27.394,14.7785548 27.039,14.6775205 26.641,14.6775205 C24.519,14.6775205 22.393,14.6775205 20.27,14.6775205 C20.2,14.6775205 20.129,14.6775205 20.038,14.6775205 C20.038,14.570363 20.038,14.4979041 20.038,14.4121781 C20.038,12.2537192 20.038,10.0942397 20.038,7.92761644 C20.038,7.12444521 19.596,6.67234247 18.809,6.67234247 C17.758,6.67234247 16.707,6.66519863 15.66,6.6794863 C15.457,6.6794863 15.238,6.70806164 15.053,6.79378767 C14.592,7.00912329 14.424,7.41019863 14.424,7.91332877 C14.424,10.0942397 14.424,12.2741301 14.424,14.4478973 C14.424,14.5264795 14.424,14.5979178 14.424,14.6775205 C14.321,14.6775205 14.248,14.6775205 14.178,14.6775205 C13.2,14.6775205 12.224,14.6775205 11.246,14.6775205 C10.094,14.6775205 8.941,14.6775205 7.788,14.6775205 C7.032,14.6775205 6.579,15.143911 6.579,15.9042192 C6.579,17.0013082 6.579,18.0994178 6.579,19.1975274 C6.579,19.4771575 6.639,19.7425 6.81,19.9721233 C7.071,20.3170685 7.429,20.4099384 7.837,20.4099384 C9.945,20.4027945 12.058,20.4099384 14.169,20.4099384 C14.249,20.4099384 14.326,20.4099384 14.424,20.4099384 Z" id="Shape_2_"></path>
                        </g>
                    </g>
                </g>
            </g>
            <g id="Group-3-Copy-6" transform="translate(0.000000, 392.910959)">
                <g id="Group-13-Copy-2_3_">
                    <g id="Group-13_3_">
                        <path d="M25.431,0.299020548 C39.341,0.299020548 50.622,11.8046781 50.622,26.0076438 C50.622,40.2034658 39.341,51.7162671 25.431,51.7162671 C11.514,51.7162671 0.24,40.2034658 0.24,26.0076438 C0.24,11.8046781 11.514,0.299020548 25.431,0.299020548 Z" id="Oval-3_3_" fill="#EA484D"></path>
                        <g id="医院_3_" transform="translate(8.333333, 8.504566)" fill="#111A41">
                            <path d="M0.302,17.3309452 C0.33,15.3225068 1.065,13.4498014 2.52,11.865911 C2.843,11.5138219 3.117,11.1198904 3.413,10.739226 C5.409,8.17765068 7.7,5.91203425 10.168,3.81684932 C10.881,3.21370548 11.57,2.58300685 12.301,2.00231507 C13.398,1.12770548 14.645,0.604164384 16.03,0.431691781 C18.571,0.115321918 20.767,0.869506849 22.651,2.64117808 C23.375,3.32188356 24.162,3.93829452 24.918,4.59144521 C27.332,6.6794863 29.49,9.01756164 31.43,11.5719932 C31.775,12.0230753 32.179,12.4404795 32.498,12.9129932 C33.686,14.6775205 34.101,16.6349315 33.792,18.7515479 C33.546,20.4517808 32.801,21.8938151 31.658,23.1562329 C31.015,23.8655137 30.431,24.6411301 29.813,25.372863 C28.463,26.9720616 27.072,28.5212534 25.522,29.9204247 C24.703,30.6450137 23.856,31.3410274 23.016,32.0431644 C22.538,32.4462808 22.081,32.874911 21.572,33.2341438 C19.839,34.439411 17.92,34.8557945 15.846,34.5394247 C14.188,34.281226 12.771,33.5280616 11.552,32.3585137 C11.243,32.0574521 10.885,31.8063973 10.547,31.5410548 C8.397,29.8122466 6.471,27.8466712 4.693,25.7371986 C4.018,24.925863 3.343,24.1155479 2.675,23.2909452 C2.278,22.8102671 1.86,22.3367329 1.523,21.8142123 C0.685,20.5089315 0.309,19.0454658 0.302,17.3309452 Z M14.294,20.3731986 C14.294,20.4803562 14.294,20.5528151 14.294,20.6313973 C14.294,22.8051644 14.294,24.9789315 14.294,27.1526986 C14.297,27.8976986 14.723,28.3651096 15.446,28.3712329 C16.55,28.3865411 17.657,28.3783767 18.76,28.3783767 C18.967,28.3783767 19.143,28.2997945 19.287,28.1487534 C19.719,27.6976712 19.909,27.1516781 19.909,26.5352671 C19.909,24.5554041 19.909,22.5755411 19.902,20.5956781 C19.902,20.4089178 19.955,20.3660548 20.131,20.3660548 C22.23,20.3731986 24.327,20.3731986 26.426,20.3731986 C26.531,20.3731986 26.636,20.3660548 26.742,20.358911 C27.29,20.3150274 27.726,19.9068082 27.74,19.3475479 C27.761,18.1494247 27.751,16.9513014 27.751,15.7603219 C27.751,15.5092671 27.677,15.2796438 27.522,15.0785959 C27.266,14.7418151 26.91,14.6407808 26.514,14.6407808 C24.391,14.6407808 22.265,14.6407808 20.142,14.6407808 C20.072,14.6407808 20.001,14.6407808 19.91,14.6407808 C19.91,14.5336233 19.91,14.4611644 19.91,14.3754384 C19.91,12.2159589 19.91,10.0575 19.91,7.89087671 C19.91,7.08770548 19.467,6.63662329 18.68,6.63662329 C17.629,6.63662329 16.578,6.62947945 15.531,6.64376712 C15.327,6.64376712 15.109,6.67234247 14.923,6.75806849 C14.463,6.97340411 14.294,7.37447945 14.294,7.87760959 C14.294,10.0585205 14.294,12.238411 14.294,14.4121781 C14.294,14.4907603 14.294,14.5621986 14.294,14.6418014 C14.191,14.6418014 14.118,14.6418014 14.048,14.6418014 C13.07,14.6418014 12.094,14.6418014 11.116,14.6418014 C9.964,14.6418014 8.811,14.6418014 7.658,14.6418014 C6.903,14.6418014 6.449,15.1081918 6.449,15.8685 C6.449,16.965589 6.449,18.0626781 6.449,19.1618082 C6.449,19.4404178 6.509,19.7067808 6.681,19.9364041 C6.941,20.2803288 7.299,20.3742192 7.707,20.3742192 C9.816,20.3670753 11.928,20.3742192 14.04,20.3742192 C14.118,20.3731986 14.195,20.3731986 14.294,20.3731986 Z" id="Shape_3_"></path>
                        </g>
                    </g>
                </g>
            </g>
        </g>
    </g>
</svg>