<?xml version="1.0" encoding="utf-8"?>
<!-- Generator: Adobe Illustrator 16.0.0, SVG Export Plug-In . SVG Version: 6.00 Build 0)  -->
<!DOCTYPE svg PUBLIC "-//W3C//DTD SVG 1.1//EN" "http://www.w3.org/Graphics/SVG/1.1/DTD/svg11.dtd">
<svg version="1.1" id="Layer_1" xmlns="http://www.w3.org/2000/svg" xmlns:xlink="http://www.w3.org/1999/xlink" x="0px" y="0px"
	 width="500px" height="500px" viewBox="0 0 500 500" enable-background="new 0 0 500 500" xml:space="preserve">
<g id="Page-1">
	<g id="Artboard-Copy" transform="translate(-36.000000, -644.000000)">
		<g id="Group-2" transform="translate(36.000000, 645.000000)">
			<g id="Oval-5">
				<g>
					<circle fill="#0B1A41" cx="266.957" cy="251.996" r="217.266"/>
				</g>
				<g>
					<path fill="#5EBBE6" d="M265.707,471.259c-2.016-0.012-4.052-0.05-6.053-0.115l0.132-3.998
						c1.965,0.064,3.964,0.103,5.941,0.113L265.707,471.259z M271.76,471.212l-0.088-3.998c1.979-0.044,3.979-0.114,5.942-0.21
						l0.193,3.996C275.81,471.096,273.774,471.168,271.76,471.212z M253.609,470.862c-1.998-0.119-4.027-0.27-6.036-0.444
						l0.349-3.984c1.973,0.172,3.967,0.319,5.929,0.438L253.609,470.862z M283.853,470.62l-0.305-3.987
						c1.96-0.149,3.951-0.329,5.919-0.533l0.414,3.979C287.877,470.285,285.849,470.469,283.853,470.62z M241.551,469.806
						c-2.003-0.231-4.023-0.493-6.006-0.778l0.569-3.959c1.945,0.28,3.929,0.537,5.894,0.763L241.551,469.806z M295.893,469.369
						l-0.522-3.965c1.96-0.26,3.938-0.549,5.881-0.858l0.633,3.948C299.904,468.812,297.889,469.105,295.893,469.369z
						 M229.566,468.087c-1.973-0.339-3.976-0.712-5.953-1.107l0.787-3.922c1.94,0.39,3.906,0.755,5.843,1.087L229.566,468.087z
						 M307.845,467.456l-0.742-3.93c1.934-0.365,3.894-0.764,5.825-1.184l0.85,3.907
						C311.81,466.679,309.813,467.085,307.845,467.456z M217.695,465.706c-1.961-0.449-3.939-0.934-5.882-1.438l1.004-3.871
						c1.905,0.493,3.849,0.968,5.772,1.41L217.695,465.706z M319.676,464.883l-0.959-3.884c1.93-0.477,3.863-0.982,5.75-1.505
						l1.066,3.855C323.611,463.882,321.641,464.396,319.676,464.883z M205.976,462.671c-1.934-0.56-3.883-1.151-5.794-1.764
						l1.219-3.811c1.875,0.601,3.788,1.182,5.686,1.729L205.976,462.671z M331.344,461.655l-1.172-3.824
						c1.878-0.574,3.78-1.188,5.656-1.82l1.278,3.789C335.196,460.444,333.258,461.069,331.344,461.655z M194.423,458.979
						c-1.919-0.672-3.838-1.375-5.704-2.089l1.43-3.736c1.831,0.701,3.714,1.392,5.598,2.05L194.423,458.979z M342.816,457.784
						l-1.385-3.752c1.86-0.687,3.728-1.403,5.548-2.135l1.488,3.713C346.612,456.354,344.711,457.087,342.816,457.784z
						 M183.078,454.646c-1.868-0.774-3.744-1.583-5.575-2.402l1.635-3.649c1.797,0.804,3.638,1.598,5.472,2.356L183.078,454.646z
						 M354.037,453.289l-1.593-3.67c1.82-0.789,3.64-1.606,5.404-2.431l1.691,3.625
						C357.742,451.652,355.891,452.485,354.037,453.289z M172,449.688c-1.845-0.888-3.671-1.798-5.432-2.708l1.836-3.553
						c1.728,0.892,3.521,1.785,5.329,2.656L172,449.688z M364.977,448.187l-1.791-3.576c1.756-0.879,3.527-1.797,5.266-2.728
						l1.889,3.524C368.569,446.356,366.766,447.291,364.977,448.187z M161.219,444.128c-1.771-0.978-3.545-1.986-5.27-3.003
						l2.028-3.446c1.692,0.996,3.434,1.987,5.172,2.946L161.219,444.128z M375.623,442.482l-1.984-3.473
						c1.701-0.974,3.42-1.987,5.108-3.016l2.08,3.416C379.107,440.459,377.356,441.492,375.623,442.482z M150.766,437.98
						c-1.711-1.072-3.425-2.178-5.093-3.288l2.215-3.33c1.639,1.09,3.32,2.176,5.001,3.229L150.766,437.98z M385.944,436.198
						l-2.172-3.358c1.639-1.061,3.299-2.167,4.938-3.292l2.266,3.297C389.307,433.99,387.614,435.118,385.944,436.198z
						 M140.675,431.268c-1.629-1.149-3.278-2.348-4.902-3.562l2.396-3.204c1.595,1.191,3.215,2.368,4.813,3.497L140.675,431.268z
						 M395.908,429.353l-2.354-3.232c1.599-1.165,3.196-2.362,4.751-3.562l2.442,3.168
						C399.164,426.946,397.536,428.168,395.908,429.353z M130.973,424.012c-1.575-1.247-3.155-2.534-4.697-3.825l2.568-3.066
						c1.514,1.269,3.064,2.531,4.611,3.756L130.973,424.012z M405.485,421.968l-2.529-3.099c1.541-1.259,3.072-2.543,4.552-3.818
						l2.612,3.028C408.613,419.379,407.055,420.687,405.485,421.968z M121.685,416.236c-1.522-1.349-3.03-2.72-4.479-4.076
						l2.733-2.92c1.421,1.331,2.9,2.679,4.396,4.002L121.685,416.236z M414.646,414.063l-2.695-2.955
						c1.463-1.335,2.922-2.702,4.336-4.063l2.775,2.881C417.621,411.312,416.137,412.704,414.646,414.063z M112.843,407.967
						c-1.415-1.399-2.844-2.852-4.246-4.313l2.887-2.768c1.378,1.437,2.781,2.86,4.172,4.234L112.843,407.967z M423.363,405.666
						l-2.854-2.803c1.382-1.407,2.765-2.854,4.107-4.297l2.929,2.725C426.178,402.762,424.771,404.233,423.363,405.666z
						 M104.472,399.226c-1.354-1.493-2.7-3.021-4.002-4.538l3.035-2.604c1.278,1.488,2.601,2.988,3.93,4.455L104.472,399.226z
						 M431.607,396.802l-3.002-2.644c1.303-1.479,2.604-3,3.867-4.518l3.074,2.559C434.26,393.746,432.935,395.295,431.607,396.802z
						 M96.595,390.046c-1.272-1.567-2.533-3.166-3.747-4.751l3.175-2.433c1.191,1.556,2.43,3.123,3.678,4.661L96.595,390.046z
						 M439.356,387.493l-3.143-2.475c1.211-1.538,2.427-3.127,3.613-4.725l3.211,2.387
						C441.828,384.308,440.59,385.927,439.356,387.493z M89.235,380.447c-1.174-1.623-2.344-3.287-3.478-4.944l3.303-2.257
						c1.113,1.628,2.262,3.263,3.415,4.855L89.235,380.447z M446.587,377.77l-3.275-2.297c1.138-1.621,2.265-3.276,3.351-4.918
						l3.336,2.205C448.893,374.433,447.744,376.118,446.587,377.77z M82.417,370.464c-1.087-1.69-2.164-3.416-3.199-5.128
						l3.423-2.07c1.018,1.681,2.073,3.375,3.142,5.034L82.417,370.464z M453.271,367.659l-3.396-2.112
						c1.043-1.677,2.076-3.392,3.073-5.098l3.453,2.019C455.387,364.205,454.332,365.952,453.271,367.659z M76.162,360.124
						c-0.994-1.75-1.974-3.53-2.91-5.293l3.531-1.879c0.92,1.729,1.881,3.479,2.856,5.197L76.162,360.124z M459.388,357.188
						l-3.508-1.922c0.95-1.736,1.889-3.506,2.788-5.262l3.561,1.823C461.312,353.617,460.356,355.421,459.388,357.188z
						 M70.49,349.462c-0.892-1.792-1.771-3.623-2.612-5.442l3.63-1.682c0.827,1.786,1.689,3.585,2.563,5.345L70.49,349.462z
						 M464.919,346.392l-3.609-1.725c0.854-1.786,1.692-3.607,2.493-5.411l3.656,1.623
						C466.643,342.718,465.787,344.571,464.919,346.392z M65.418,338.509c-0.794-1.849-1.57-3.726-2.307-5.577l3.719-1.478
						c0.722,1.819,1.482,3.66,2.263,5.475L65.418,338.509z M469.844,335.301l-3.699-1.521c0.75-1.821,1.486-3.687,2.189-5.544
						l3.739,1.416C471.358,331.544,470.607,333.444,469.844,335.301z M60.955,327.274c-0.691-1.891-1.364-3.812-2-5.715l3.794-1.269
						c0.624,1.866,1.284,3.755,1.962,5.609L60.955,327.274z M474.146,323.941l-3.779-1.312c0.653-1.882,1.284-3.785,1.877-5.66
						l3.814,1.205C475.454,320.086,474.812,322.025,474.146,323.941z M57.116,315.793c-0.584-1.923-1.148-3.88-1.679-5.817
						l3.858-1.055c0.52,1.901,1.074,3.822,1.646,5.71L57.116,315.793z M477.803,312.379l-3.847-1.101
						c0.539-1.885,1.062-3.814,1.555-5.736l3.875,0.992C478.885,308.491,478.352,310.457,477.803,312.379z M53.923,304.113
						c-0.478-1.956-0.932-3.941-1.353-5.901l3.911-0.838c0.412,1.923,0.859,3.872,1.327,5.792L53.923,304.113z M480.806,300.649
						l-3.902-0.883c0.438-1.935,0.854-3.892,1.233-5.815l3.924,0.775C481.673,296.688,481.251,298.68,480.806,300.649z
						 M51.383,292.276c-0.367-1.978-0.711-3.984-1.022-5.967l3.951-0.621c0.307,1.945,0.645,3.917,1.004,5.856L51.383,292.276z
						 M483.151,288.772l-3.943-0.666c0.327-1.938,0.634-3.915,0.908-5.874l3.961,0.557
						C483.797,284.784,483.485,286.797,483.151,288.772z M49.503,280.316c-0.257-1.995-0.49-4.02-0.691-6.016l3.979-0.401
						c0.197,1.96,0.427,3.947,0.679,5.905L49.503,280.316z M484.837,276.785l-3.976-0.449c0.221-1.952,0.417-3.941,0.583-5.914
						l3.986,0.339C485.262,272.768,485.062,274.795,484.837,276.785z M48.286,268.273c-0.146-1.997-0.269-4.03-0.361-6.043
						l3.996-0.185c0.091,1.978,0.21,3.974,0.354,5.935L48.286,268.273z M485.859,264.723l-3.994-0.229
						c0.113-1.963,0.2-3.96,0.259-5.938l3.998,0.118C486.062,260.689,485.974,262.725,485.859,264.723z M47.729,256.18
						c-0.025-1.393-0.04-2.786-0.039-4.186c0-0.623,0.002-1.246,0.008-1.869l4,0.035c-0.005,0.611-0.008,1.223-0.008,1.835
						c0,1.374,0.014,2.743,0.038,4.109L47.729,256.18z M486.222,252.628l-4-0.02l0.001-0.612c-0.001-1.781-0.022-3.559-0.064-5.33
						l3.998-0.096c0.044,1.803,0.065,3.611,0.066,5.425L486.222,252.628z M51.828,244.219l-3.997-0.144
						c0.07-2.013,0.171-4.047,0.297-6.045l3.992,0.25C51.997,240.243,51.898,242.241,51.828,244.219z M481.934,240.728
						c-0.103-1.963-0.232-3.959-0.389-5.934l3.987-0.313c0.158,2.009,0.291,4.041,0.396,6.04L481.934,240.728z M52.574,232.355
						l-3.983-0.361c0.181-1.997,0.392-4.021,0.627-6.02l3.973,0.469C52.959,228.404,52.752,230.394,52.574,232.355z
						 M480.995,228.879c-0.212-1.979-0.45-3.964-0.713-5.899l3.965-0.535c0.267,1.973,0.511,3.995,0.726,6.01L480.995,228.879z
						 M53.97,220.551l-3.958-0.577c0.292-1.995,0.615-4.007,0.959-5.979l3.94,0.689C54.573,216.619,54.256,218.594,53.97,220.551z
						 M479.408,217.101c-0.319-1.961-0.67-3.932-1.038-5.854l3.931-0.752c0.374,1.959,0.729,3.965,1.056,5.961L479.408,217.101z
						 M56.016,208.845l-3.92-0.798c0.402-1.976,0.835-3.966,1.29-5.916l3.896,0.906C56.836,204.952,56.41,206.906,56.016,208.845z
						 M477.173,205.428c-0.423-1.916-0.88-3.862-1.36-5.786l3.881-0.97c0.489,1.959,0.955,3.941,1.386,5.895L477.173,205.428z
						 M58.708,197.269l-3.869-1.015c0.508-1.939,1.052-3.902,1.616-5.836l3.84,1.121C59.741,193.437,59.208,195.364,58.708,197.269z
						 M474.291,193.898c-0.531-1.899-1.098-3.818-1.681-5.702l3.82-1.184c0.595,1.919,1.171,3.873,1.712,5.808L474.291,193.898z
						 M62.04,185.861l-3.808-1.229c0.615-1.905,1.27-3.842,1.944-5.754l3.771,1.332C63.286,182.089,62.644,183.989,62.04,185.861z
						 M470.775,182.545c-0.643-1.884-1.313-3.768-1.995-5.599l3.748-1.396c0.694,1.865,1.378,3.784,2.032,5.702L470.775,182.545z
						 M66.015,174.619l-3.731-1.438c0.723-1.878,1.483-3.773,2.261-5.637l3.69,1.541C67.472,170.915,66.725,172.776,66.015,174.619z
						 M466.63,171.406c-0.731-1.811-1.503-3.647-2.295-5.46l3.665-1.602c0.808,1.847,1.594,3.719,2.339,5.562L466.63,171.406z
						 M70.608,163.622l-3.646-1.645c0.824-1.827,1.688-3.678,2.57-5.497l3.6,1.744C72.266,160.012,71.417,161.827,70.608,163.622z
						 M461.891,160.55c-0.838-1.781-1.712-3.574-2.596-5.329l3.571-1.802c0.9,1.787,1.79,3.613,2.644,5.429L461.891,160.55z
						 M75.803,152.904l-3.55-1.844c0.923-1.777,1.889-3.575,2.87-5.345l3.498,1.941C77.658,149.395,76.71,151.159,75.803,152.904z
						 M456.555,149.963c-0.935-1.729-1.905-3.473-2.889-5.181l3.468-1.995c1.001,1.74,1.989,3.517,2.939,5.277L456.555,149.963z
						 M81.583,142.494l-3.442-2.037c1.023-1.729,2.086-3.469,3.16-5.174l3.385,2.131C83.63,139.089,82.587,140.798,81.583,142.494z
						 M450.639,139.683c-1.029-1.681-2.096-3.367-3.17-5.017l3.352-2.184c1.094,1.68,2.18,3.397,3.229,5.108L450.639,139.683z
						 M87.926,132.424l-3.324-2.225c1.12-1.673,2.277-3.352,3.439-4.989l3.262,2.314C90.162,129.133,89.025,130.781,87.926,132.424z
						 M444.161,129.74c-1.116-1.615-2.274-3.243-3.441-4.837l3.227-2.363c1.189,1.623,2.369,3.28,3.507,4.926L444.161,129.74z
						 M94.813,122.723l-3.195-2.404c1.203-1.601,2.45-3.213,3.707-4.79l3.129,2.49C97.22,119.568,95.995,121.151,94.813,122.723z
						 M437.145,120.163c-1.21-1.56-2.456-3.121-3.705-4.642l3.092-2.539c1.271,1.55,2.542,3.141,3.773,4.729L437.145,120.163z
						 M102.22,113.418l-3.059-2.576c1.3-1.543,2.634-3.084,3.964-4.578l2.987,2.659C104.807,110.391,103.496,111.903,102.22,113.418
						z M429.608,110.981c-1.293-1.49-2.623-2.982-3.954-4.435l2.947-2.702c1.355,1.479,2.712,2.996,4.028,4.516L429.608,110.981z
						 M110.126,104.537l-2.914-2.74c1.382-1.47,2.798-2.934,4.209-4.353l2.836,2.82
						C112.872,101.657,111.482,103.095,110.126,104.537z M421.579,102.225c-1.372-1.416-2.782-2.833-4.193-4.211l2.797-2.86
						c1.436,1.403,2.872,2.846,4.27,4.288L421.579,102.225z M118.503,96.107l-2.758-2.896c1.462-1.393,2.955-2.776,4.438-4.112
						l2.678,2.971C121.406,93.38,119.939,94.739,118.503,96.107z M413.077,93.918c-1.445-1.337-2.934-2.675-4.421-3.977l2.636-3.01
						c1.515,1.325,3.027,2.688,4.501,4.049L413.077,93.918z M127.327,88.151l-2.597-3.043c1.526-1.302,3.094-2.603,4.656-3.863
						l2.512,3.113C130.364,85.597,128.826,86.873,127.327,88.151z M404.13,86.087c-1.521-1.258-3.078-2.512-4.634-3.729l2.466-3.15
						c1.583,1.239,3.171,2.518,4.719,3.798L404.13,86.087z M136.572,80.695l-2.426-3.182c1.59-1.211,3.226-2.423,4.86-3.6
						l2.336,3.246C139.737,78.316,138.133,79.505,136.572,80.695z M394.764,78.758c-1.595-1.178-3.221-2.345-4.833-3.469
						l2.287-3.281c1.643,1.146,3.299,2.333,4.923,3.533L394.764,78.758z M146.206,73.76l-2.246-3.311
						c1.668-1.132,3.366-2.251,5.048-3.326l2.154,3.37C149.512,71.55,147.844,72.648,146.206,73.76z M385.002,71.954
						c-1.649-1.084-3.338-2.16-5.02-3.199l2.104-3.401c1.712,1.058,3.432,2.153,5.112,3.258L385.002,71.954z M156.204,67.368
						l-2.062-3.428c1.707-1.026,3.463-2.049,5.22-3.041l1.968,3.482C159.604,65.355,157.88,66.36,156.204,67.368z M374.879,65.695
						c-1.721-0.999-3.467-1.98-5.19-2.917l1.912-3.514c1.755,0.955,3.533,1.955,5.286,2.971L374.879,65.695z M166.533,61.54
						l-1.869-3.536c1.766-0.933,3.574-1.856,5.379-2.748l1.77,3.588C170.042,59.717,168.266,60.624,166.533,61.54z M364.421,60.004
						c-1.767-0.896-3.564-1.78-5.348-2.626l1.714-3.613c1.815,0.86,3.647,1.761,5.445,2.675L364.421,60.004z M177.162,56.294
						l-1.67-3.635c1.832-0.842,3.688-1.664,5.519-2.444l1.568,3.681C180.783,54.661,178.961,55.469,177.162,56.294z M353.656,54.901
						c-1.812-0.798-3.658-1.581-5.486-2.327l1.51-3.704c1.862,0.76,3.743,1.558,5.589,2.37L353.656,54.901z M188.059,51.646
						l-1.467-3.722c1.876-0.739,3.781-1.46,5.663-2.142l1.361,3.761C191.77,50.213,189.9,50.92,188.059,51.646z M342.619,50.402
						c-1.86-0.698-3.748-1.377-5.61-2.019l1.301-3.781c1.897,0.652,3.82,1.344,5.716,2.055L342.619,50.402z M199.232,47.598
						l-1.258-3.799c1.901-0.629,3.844-1.241,5.773-1.822l1.151,3.831C203.005,46.378,201.098,46.98,199.232,47.598z M331.345,46.523
						c-1.892-0.591-3.809-1.162-5.697-1.696l1.088-3.85c1.925,0.544,3.877,1.125,5.804,1.728L331.345,46.523z M210.614,44.178
						l-1.045-3.861c1.937-0.523,3.909-1.028,5.866-1.499l0.938,3.889C214.451,43.169,212.514,43.664,210.614,44.178z M319.907,43.29
						c-1.911-0.482-3.855-0.945-5.781-1.377l0.873-3.902c1.961,0.438,3.941,0.909,5.889,1.401L319.907,43.29z M222.169,41.395
						l-0.828-3.913c1.961-0.415,3.96-0.81,5.939-1.171l0.72,3.935C226.056,40.601,224.094,40.988,222.169,41.395z M308.309,40.697
						c-1.932-0.376-3.898-0.73-5.849-1.054l0.653-3.946c1.985,0.33,3.99,0.691,5.958,1.073L308.309,40.697z M233.859,39.258
						l-0.608-3.952c1.989-0.308,4.008-0.591,5.995-0.841l0.5,3.97C237.794,38.679,235.813,38.957,233.859,39.258z M296.585,38.751
						c-1.961-0.27-3.945-0.515-5.898-0.729l0.437-3.978c1.988,0.219,4.011,0.469,6.008,0.743L296.585,38.751z M245.651,37.771
						l-0.391-3.98c2.006-0.196,4.035-0.368,6.032-0.509l0.28,3.99C249.613,37.409,247.621,37.577,245.651,37.771z M284.771,37.456
						c-1.973-0.161-3.968-0.297-5.931-0.403l0.217-3.994c1.999,0.108,4.031,0.247,6.04,0.412L284.771,37.456z M257.508,36.933
						l-0.172-3.996c1.997-0.086,4.028-0.146,6.04-0.18l0.063,3.999C261.466,36.79,259.47,36.849,257.508,36.933z M272.901,36.81
						c-1.979-0.054-3.979-0.08-5.943-0.08v-4c2.002,0,4.038,0.026,6.052,0.082L272.901,36.81z"/>
				</g>
			</g>
			<g id="Oval-5_1_">
				<g>
					<path fill="#0B163D" d="M267.312,129.515c65.841,0,119.213,53.372,119.213,119.206c0,65.842-53.372,119.213-119.213,119.213
						c-65.835,0-119.206-53.371-119.206-119.213C148.105,182.887,201.477,129.515,267.312,129.515z"/>
				</g>
				<g>
					<path fill="#5EBBE6" d="M267.312,369.934c-1.136,0-2.267-0.016-3.395-0.047l0.108-3.998c1.958,0.053,3.938,0.06,5.899,0.017
						l0.088,3.998C269.115,369.925,268.215,369.934,267.312,369.934z M276.104,369.621l-0.287-3.989
						c1.956-0.142,3.932-0.332,5.871-0.569l0.484,3.971C280.168,369.277,278.126,369.475,276.104,369.621z M257.829,369.568
						c-2.028-0.157-4.069-0.367-6.065-0.623l0.508-3.967c1.932,0.247,3.904,0.449,5.866,0.602L257.829,369.568z M288.206,368.14
						l-0.687-3.941c1.926-0.335,3.871-0.724,5.782-1.155l0.883,3.901C292.209,367.391,290.197,367.794,288.206,368.14z
						 M245.736,368.02c-2-0.359-4.01-0.773-5.975-1.23l0.908-3.896c1.896,0.442,3.841,0.843,5.772,1.188L245.736,368.02z
						 M300.097,365.447l-1.078-3.852c1.88-0.526,3.776-1.11,5.635-1.734l1.273,3.791C304.004,364.3,302.043,364.902,300.097,365.447
						z M233.859,365.259c-1.948-0.561-3.906-1.175-5.818-1.828l1.295-3.785c1.849,0.633,3.742,1.228,5.626,1.768L233.859,365.259z
						 M311.658,361.566l-1.466-3.723c1.818-0.716,3.644-1.486,5.42-2.292l1.65,3.645
						C315.425,360.028,313.539,360.826,311.658,361.566z M222.311,361.303c-1.89-0.756-3.777-1.567-5.614-2.413l1.673-3.633
						c1.774,0.815,3.602,1.602,5.429,2.333L222.311,361.303z M322.743,356.546l-1.832-3.556c1.739-0.896,3.479-1.849,5.166-2.828
						l2.008,3.459C326.34,354.635,324.543,355.618,322.743,356.546z M211.213,356.197c-1.797-0.94-3.593-1.938-5.338-2.968
						l2.03-3.445c1.688,0.993,3.424,1.959,5.162,2.868L211.213,356.197z M333.274,350.432l-2.18-3.354
						c1.634-1.062,3.269-2.183,4.86-3.334l2.344,3.24C336.654,348.176,334.963,349.336,333.274,350.432z M200.695,350.002
						c-1.684-1.11-3.367-2.282-5.01-3.485l2.365-3.228c1.588,1.164,3.219,2.3,4.846,3.372L200.695,350.002z M343.146,343.288
						l-2.504-3.118c1.529-1.229,3.044-2.509,4.503-3.806l2.658,2.99C346.294,340.695,344.727,342.019,343.146,343.288z
						 M190.858,342.784c-1.564-1.274-3.125-2.609-4.634-3.969l2.678-2.973c1.459,1.313,2.968,2.604,4.481,3.838L190.858,342.784z
						 M352.257,335.191l-2.805-2.854c1.402-1.379,2.783-2.806,4.104-4.237l2.941,2.709
						C355.134,332.291,353.707,333.766,352.257,335.191z M181.799,334.624c-1.436-1.428-2.853-2.911-4.213-4.409l2.961-2.689
						c1.315,1.449,2.687,2.884,4.074,4.264L181.799,334.624z M360.517,326.222l-3.074-2.56c1.253-1.506,2.484-3.062,3.66-4.629
						l3.199,2.402C363.085,323.056,361.812,324.665,360.517,326.222z M173.6,325.603c-1.283-1.563-2.545-3.181-3.749-4.807
						l3.215-2.382c1.164,1.572,2.386,3.138,3.626,4.648L173.6,325.603z M367.842,316.466l-3.314-2.238
						c1.097-1.624,2.166-3.297,3.18-4.974l3.424,2.067C370.082,313.056,368.976,314.786,367.842,316.466z M166.349,315.811
						c-1.121-1.685-2.214-3.419-3.247-5.154l3.437-2.047c1,1.678,2.057,3.355,3.142,4.984L166.349,315.811z M374.154,306.02
						l-3.522-1.894c0.93-1.731,1.826-3.507,2.663-5.271l3.615,1.713C376.043,302.394,375.116,304.228,374.154,306.02z
						 M160.117,305.348c-0.949-1.793-1.862-3.628-2.713-5.452l3.625-1.689c0.822,1.764,1.704,3.536,2.622,5.271L160.117,305.348z
						 M379.384,294.98l-3.697-1.527c0.75-1.814,1.463-3.671,2.118-5.517l3.771,1.338
						C380.896,291.184,380.159,293.104,379.384,294.98z M154.975,294.317c-0.765-1.88-1.488-3.8-2.151-5.708l3.776-1.314
						c0.643,1.845,1.342,3.699,2.08,5.518L154.975,294.317z M383.467,283.478l-3.832-1.146c0.561-1.88,1.081-3.795,1.545-5.69
						l3.885,0.95C384.585,279.554,384.048,281.534,383.467,283.478z M150.962,282.802c-0.567-1.941-1.094-3.926-1.562-5.896
						l3.892-0.928c0.454,1.904,0.963,3.823,1.512,5.699L150.962,282.802z M386.36,271.634l-3.928-0.752
						c0.366-1.915,0.69-3.873,0.962-5.817l3.961,0.553C387.075,267.629,386.74,269.653,386.36,271.634z M148.137,270.939
						c-0.366-1.98-0.689-4.007-0.959-6.021l3.965-0.53c0.261,1.948,0.573,3.908,0.928,5.823L148.137,270.939z M388.046,259.558
						l-3.984-0.355c0.173-1.938,0.299-3.92,0.374-5.885l3.997,0.154C388.355,255.503,388.225,257.551,388.046,259.558z
						 M146.523,258.855c-0.166-2.006-0.284-4.054-0.352-6.086l3.998-0.133c0.063,1.968,0.18,3.947,0.34,5.889L146.523,258.855z
						 M384.518,247.421c-0.021-1.969-0.093-3.951-0.21-5.896l3.992-0.242c0.122,2.009,0.195,4.059,0.218,6.093L384.518,247.421z
						 M150.122,246.737l-4-0.066c0.033-2.026,0.117-4.076,0.253-6.092l3.99,0.267C150.236,242.793,150.154,244.775,150.122,246.737z
						 M383.805,235.649c-0.217-1.949-0.485-3.915-0.798-5.842l3.949-0.642c0.321,1.993,0.6,4.025,0.822,6.041L383.805,235.649z
						 M150.902,234.974l-3.973-0.466c0.235-2.013,0.524-4.044,0.859-6.035l3.944,0.662
						C151.41,231.062,151.13,233.027,150.902,234.974z M381.917,224.014c-0.414-1.928-0.88-3.855-1.384-5.732l3.862-1.037
						c0.521,1.942,1.003,3.938,1.432,5.928L381.917,224.014z M152.859,223.347l-3.905-0.863c0.438-1.979,0.931-3.972,1.465-5.92
						l3.856,1.059C153.759,219.506,153.282,221.432,152.859,223.347z M378.862,212.627c-0.598-1.852-1.256-3.724-1.954-5.562
						l3.737-1.422c0.725,1.901,1.404,3.839,2.023,5.756L378.862,212.627z M155.98,211.979l-3.799-1.252
						c0.637-1.933,1.33-3.868,2.062-5.757l3.729,1.444C157.267,208.239,156.596,210.111,155.98,211.979z M374.676,201.621
						c-0.788-1.795-1.631-3.587-2.503-5.328l3.576-1.792c0.901,1.802,1.772,3.655,2.589,5.512L374.676,201.621z M160.245,200.962
						l-3.652-1.631c0.827-1.852,1.713-3.707,2.633-5.514l3.564,1.813C161.901,197.379,161.045,199.172,160.245,200.962z
						 M369.405,191.099c-0.962-1.699-1.98-3.399-3.029-5.054l3.379-2.143c1.084,1.71,2.138,3.468,3.132,5.225L369.405,191.099z
						 M165.601,190.44l-3.469-1.992c1.005-1.75,2.072-3.505,3.174-5.216l3.363,2.164
						C167.604,187.052,166.572,188.748,165.601,190.44z M363.097,181.15c-1.127-1.593-2.312-3.185-3.521-4.728l3.146-2.469
						c1.252,1.596,2.477,3.239,3.641,4.887L363.097,181.15z M171.985,180.514l-3.252-2.33c1.184-1.649,2.421-3.288,3.681-4.869
						l3.129,2.49C174.325,177.334,173.128,178.918,171.985,180.514z M355.821,171.88c-1.28-1.475-2.619-2.938-3.979-4.354
						l2.885-2.771c1.404,1.462,2.788,2.978,4.113,4.502L355.821,171.88z M179.331,171.281l-3.002-2.645
						c1.341-1.522,2.735-3.027,4.146-4.476l2.865,2.791C181.977,168.353,180.628,169.809,179.331,171.281z M347.651,163.377
						c-1.429-1.346-2.907-2.67-4.396-3.937l2.594-3.045c1.537,1.309,3.066,2.678,4.544,4.068L347.651,163.377z M187.559,162.834
						l-2.723-2.93c1.488-1.384,3.025-2.742,4.568-4.038l2.572,3.064C190.485,160.183,188.998,161.496,187.559,162.834z
						 M338.67,155.729c-1.559-1.197-3.162-2.367-4.77-3.479l2.273-3.291c1.662,1.149,3.322,2.359,4.933,3.598L338.67,155.729z
						 M196.584,155.253l-2.416-3.188c1.614-1.225,3.277-2.421,4.947-3.56l2.254,3.306
						C199.755,152.912,198.146,154.069,196.584,155.253z M328.964,149.019c-1.674-1.036-3.389-2.04-5.097-2.982l1.934-3.502
						c1.766,0.976,3.539,2.013,5.269,3.084L328.964,149.019z M206.317,148.617l-2.084-3.414c1.723-1.051,3.497-2.075,5.275-3.043
						l1.912,3.514C209.7,146.61,207.983,147.601,206.317,148.617z M318.629,143.313c-1.757-0.857-3.564-1.684-5.373-2.454
						l1.568-3.68c1.87,0.798,3.74,1.651,5.559,2.537L318.629,143.313z M216.661,142.994l-1.73-3.606
						c1.829-0.877,3.696-1.717,5.553-2.494l1.547,3.688C220.235,141.334,218.429,142.146,216.661,142.994z M307.763,138.681
						c-1.832-0.675-3.715-1.312-5.597-1.897l1.188-3.82c1.946,0.605,3.896,1.268,5.79,1.965L307.763,138.681z M227.51,138.445
						l-1.357-3.762c1.908-0.688,3.855-1.337,5.787-1.927l1.166,3.826C231.238,137.153,229.355,137.78,227.51,138.445z
						 M296.491,135.176c-1.887-0.483-3.819-0.928-5.747-1.318l0.797-3.92c1.993,0.404,3.993,0.863,5.943,1.363L296.491,135.176z
						 M238.787,135.01l-0.972-3.882c1.97-0.491,3.973-0.938,5.952-1.329l0.773,3.925C242.626,134.101,240.69,134.533,238.787,135.01
						z M284.938,132.831c-1.936-0.292-3.903-0.538-5.85-0.731l0.396-3.98c2.014,0.201,4.048,0.456,6.052,0.758L284.938,132.831z
						 M250.352,132.732l-0.572-3.959c1.999-0.289,4.035-0.532,6.055-0.724l0.375,3.982
						C254.256,132.217,252.285,132.452,250.352,132.732z M273.207,131.66c-3.671-0.182-7.428-0.194-11.115-0.031l-0.176-3.996
						c3.812-0.166,7.692-0.155,11.489,0.033L273.207,131.66z"/>
				</g>
			</g>
			<g id="Group-13-Copy" transform="translate(74.500000, 29.375000)">
				<g id="Group-10">
					<circle id="Oval-3" fill="#80BDDD" cx="231.523" cy="134.202" r="22.231"/>
					<path id="Shape" fill="#111A40" d="M241.349,144.296L241.349,144.296v1.903c0,0.525-0.426,0.954-0.95,0.954h-2.85
						c-0.524,0-0.95-0.429-0.95-0.954v-1.903h-9.513v1.903c0,0.525-0.426,0.954-0.95,0.954h-2.85c-0.524,0-0.95-0.429-0.95-0.954
						v-1.903l0,0c-1.057,0-1.906-0.851-1.906-1.898v-19.215c0-1.05,1.808-1.899,2.856-1.899c0,0,3.827-1.903,8.557-1.903
						c4.777,0,9.506,1.903,9.506,1.903c1.049,0,1.899,0.851,1.899,1.899v19.215C243.248,143.445,242.397,144.296,241.349,144.296
						L241.349,144.296L241.349,144.296z M224.711,141.446c1.312,0,2.375-1.063,2.375-2.378c0-1.315-1.063-2.379-2.375-2.379
						c-1.312,0-2.375,1.062-2.375,2.379C222.336,140.383,223.399,141.446,224.711,141.446L224.711,141.446L224.711,141.446z
						 M235.649,121.278h-7.613c-0.524,0-0.949,0.429-0.949,0.954c0,0.523,0.425,0.949,0.949,0.949h7.613
						c0.524,0,0.949-0.426,0.949-0.949C236.599,121.707,236.174,121.278,235.649,121.278L235.649,121.278L235.649,121.278z
						 M241.349,126.609c0-0.524-0.426-0.95-0.95-0.95h-2.375h-4.28h-10.456c-0.524,0-0.95,0.426-0.95,0.95v5.707
						c0,0.523,0.426,0.949,0.95,0.949h10.456h4.28h2.375c0.524,0,0.95-0.426,0.95-0.949V126.609L241.349,126.609L241.349,126.609z
						 M238.974,136.689c-1.312,0-2.375,1.062-2.375,2.379c0,1.313,1.063,2.378,2.375,2.378c1.312,0,2.375-1.063,2.375-2.378
						C241.349,137.753,240.285,136.689,238.974,136.689L238.974,136.689L238.974,136.689z"/>
				</g>
			</g>
			<g id="Group-13-Copy-3" transform="translate(62.250000, 81.000000)">
				<g id="Group-10_1_">
					<circle id="Oval-3_1_" fill="#80BDDD" cx="199.312" cy="269.949" r="22.23"/>
					<path id="Shape_1_" fill="#111A40" d="M209.137,280.045L209.137,280.045v1.905c0,0.524-0.425,0.95-0.949,0.95h-2.85
						c-0.524,0-0.95-0.426-0.95-0.95v-1.905h-9.513v1.905c0,0.524-0.427,0.95-0.95,0.95h-2.85c-0.528,0-0.954-0.426-0.954-0.95
						v-1.905l0,0c-1.054,0-1.903-0.852-1.903-1.9v-19.211c0-1.049,1.805-1.899,2.857-1.899c0,0,3.826-1.906,8.556-1.906
						c4.778,0,9.506,1.906,9.506,1.906c1.05,0,1.9,0.852,1.9,1.899v19.211C211.037,279.193,210.187,280.045,209.137,280.045
						L209.137,280.045L209.137,280.045z M192.5,277.193c1.312,0,2.375-1.062,2.375-2.374c0-1.317-1.063-2.382-2.375-2.382
						c-1.312,0-2.379,1.062-2.379,2.382C190.121,276.132,191.188,277.193,192.5,277.193L192.5,277.193L192.5,277.193z
						 M203.438,257.026h-7.612c-0.524,0-0.949,0.434-0.949,0.957c0,0.524,0.425,0.949,0.949,0.949h7.612
						c0.525,0,0.95-0.425,0.95-0.949S203.963,257.026,203.438,257.026L203.438,257.026L203.438,257.026z M209.137,262.357
						c0-0.525-0.425-0.95-0.949-0.95h-2.375h-4.281h-10.455c-0.524,0-0.954,0.425-0.954,0.95v5.706c0,0.524,0.426,0.95,0.954,0.95
						h10.455h4.281h2.375c0.524,0,0.949-0.426,0.949-0.95V262.357L209.137,262.357L209.137,262.357z M206.763,272.438
						c-1.312,0-2.375,1.063-2.375,2.382c0,1.312,1.063,2.374,2.375,2.374c1.312,0,2.374-1.062,2.374-2.374
						C209.137,273.502,208.074,272.438,206.763,272.438L206.763,272.438L206.763,272.438z"/>
				</g>
			</g>
			<g id="Group-13-Copy-4" transform="translate(120.000000, 59.125000)">
				<g id="公交" transform="translate(3.062500, 2.041667)">
				</g>
				<g id="Group-10_2_">
					<circle id="Oval-3_2_" fill="#80BDDD" cx="351.164" cy="212.429" r="22.23"/>
					<path id="Shape_2_" fill="#111A40" d="M360.99,222.523L360.99,222.523v1.907c0,0.523-0.426,0.948-0.95,0.948h-2.85
						c-0.524,0-0.95-0.425-0.95-0.948v-1.907h-9.513v1.907c0,0.523-0.425,0.948-0.95,0.948h-2.85c-0.524,0-0.949-0.425-0.949-0.948
						v-1.907l0,0c-1.057,0-1.907-0.852-1.907-1.899v-19.211c0-1.05,1.809-1.899,2.856-1.899c0,0,3.828-1.906,8.557-1.906
						c4.777,0,9.506,1.906,9.506,1.906c1.049,0,1.9,0.851,1.9,1.899v19.211C362.891,221.673,362.038,222.523,360.99,222.523
						L360.99,222.523L360.99,222.523z M344.353,219.674c1.312,0,2.375-1.062,2.375-2.375c0-1.317-1.063-2.382-2.375-2.382
						c-1.312,0-2.374,1.063-2.374,2.382C341.979,218.61,343.04,219.674,344.353,219.674L344.353,219.674L344.353,219.674z
						 M355.29,199.506h-7.612c-0.525,0-0.95,0.434-0.95,0.957c0,0.524,0.425,0.95,0.95,0.95h7.612c0.524,0,0.949-0.426,0.949-0.95
						C356.24,199.939,355.815,199.506,355.29,199.506L355.29,199.506L355.29,199.506z M360.99,204.837
						c0-0.523-0.426-0.949-0.95-0.949h-2.374h-4.281h-10.456c-0.524,0-0.949,0.426-0.949,0.949v5.706c0,0.525,0.425,0.95,0.949,0.95
						h10.456h4.281h2.374c0.524,0,0.95-0.425,0.95-0.95V204.837L360.99,204.837L360.99,204.837z M358.615,214.917
						c-1.312,0-2.375,1.063-2.375,2.382c0,1.312,1.063,2.375,2.375,2.375c1.312,0,2.375-1.062,2.375-2.375
						C360.99,215.98,359.927,214.917,358.615,214.917L358.615,214.917L358.615,214.917z"/>
				</g>
			</g>
			<g id="Group-3" transform="translate(30.000000, 13.000000)">
				<g id="Group-13-Copy-2">
					<circle id="Oval-3_3_" fill="#F36363" cx="114.511" cy="91.144" r="22.23"/>
				</g>
				<g id="上海地铁" transform="translate(2.041667, 2.041667)">
					<path id="Shape_3_" fill="#111A40" d="M103.396,95.451c2.01,2.855,5.331,4.73,9.073,4.73c5.104,0,9.429-3.486,10.696-8.209
						l-2.46-0.007l-3.757-4.055l-4.11,4.852l-3.491-5.148l-4.076,4.521l-7.315-0.031c-0.206-0.988-0.309-1.995-0.309-3.006
						c0-8.16,6.66-14.819,14.822-14.819c6.772,0,12.516,4.59,14.271,10.821h-3.94c-1.609-4.137-5.637-7.086-10.329-7.086
						c-5.912,0-10.771,4.68-11.065,10.518l3.573-0.004l4.246-5.261l3.649,4.835l3.906-4.869l4.14,5.218l3.041-0.008v0.008h3.314
						c0.011,0.216,0.014,0.432,0.014,0.647c0,8.162-6.655,14.822-14.818,14.822c-5.892,0-11.002-3.47-13.388-8.471L103.396,95.451
						L103.396,95.451z"/>
				</g>
			</g>
			<g id="Group-3-Copy" transform="translate(0.000000, 110.000000)">
				<g id="Group-13-Copy-2_1_">
					<circle id="Oval-3_4_" fill="#F36363" cx="35.626" cy="346.204" r="22.23"/>
				</g>
				<g id="上海地铁_1_" transform="translate(2.041667, 2.041667)">
					<path id="Shape_4_" fill="#111A40" d="M24.511,350.515c2.01,2.856,5.331,4.729,9.073,4.729c5.104,0,9.429-3.487,10.697-8.209
						l-2.459-0.007l-3.757-4.056l-4.111,4.855l-3.49-5.153l-4.076,4.522l-7.316-0.028c-0.206-0.992-0.308-1.999-0.308-3.006
						c0-8.159,6.66-14.822,14.822-14.822c6.773,0,12.516,4.594,14.271,10.824h-3.941c-1.608-4.14-5.636-7.089-10.329-7.089
						c-5.911,0-10.771,4.679-11.065,10.52l3.573-0.007l4.247-5.26l3.649,4.835l3.906-4.87l4.14,5.217l3.041-0.007v0.007h3.314
						c0.011,0.221,0.014,0.434,0.014,0.652c0,8.159-6.657,14.823-14.819,14.823c-5.891,0-11.002-3.475-13.387-8.473h4.312V350.515z"
						/>
				</g>
			</g>
			<g enable-background="new    ">
				<path fill="#F8D664" d="M128.251,240.059v23.326h-2.68v-20.06c-1.47,1.503-3.3,2.548-5.487,3.201v-2.679
					c1.045-0.294,2.156-0.751,3.267-1.404c1.111-0.719,2.025-1.503,2.811-2.386L128.251,240.059L128.251,240.059z"/>
				<path fill="#F8D664" d="M136.384,239.602v14.732l8.462-7.84h3.463l-7.449,6.795l8.168,10.096h-3.364l-6.601-8.396l-2.679,2.417
					v5.979h-2.613v-23.783H136.384z"/>
				<path fill="#F8D664" d="M163.726,249.239c0.653-1.111,1.438-1.928,2.354-2.418c0.815-0.522,1.796-0.784,2.973-0.784
					c1.764,0,3.169,0.557,4.279,1.666c1.046,1.145,1.601,2.68,1.601,4.606v11.074h-2.613v-10.649c0-1.503-0.325-2.613-0.946-3.332
					c-0.653-0.784-1.699-1.145-3.138-1.145c-1.109,0-2.058,0.394-2.775,1.241c-0.784,0.851-1.145,1.929-1.145,3.3v10.585H161.7
					v-10.649c0-3.005-1.308-4.477-3.889-4.477c-1.209,0-2.188,0.458-2.973,1.438c-0.784,0.915-1.177,2.059-1.177,3.397v10.291
					h-2.613v-16.891h2.613v2.254c1.273-1.829,2.875-2.712,4.771-2.712C161.014,246.037,162.778,247.083,163.726,249.239z"/>
			</g>
			<g id="Group-4" transform="translate(66.000000, 56.000000)">
				<path id="Oval-5_2_" fill="#F8D664" d="M201.46,189.24c4.005,0,7.259,3.246,7.259,7.259c0,4.005-3.254,7.259-7.259,7.259
					c-4.014,0-7.259-3.254-7.259-7.259C194.201,192.486,197.447,189.24,201.46,189.24z"/>
				<g id="Oval-5_3_">
					<path fill="#F8D664" d="M201.459,211.32c-8.172,0-14.82-6.647-14.82-14.821c0-8.172,6.648-14.821,14.82-14.821
						c8.176,0,14.822,6.649,14.822,14.821C216.281,204.673,209.635,211.32,201.459,211.32z M201.459,183.423
						c-7.207,0-13.076,5.865-13.076,13.076c0,7.21,5.869,13.079,13.076,13.079c7.213,0,13.08-5.869,13.08-13.079
						C214.539,189.288,208.672,183.423,201.459,183.423z"/>
				</g>
			</g>
			<g enable-background="new    ">
				<path fill="#F8D664" d="M28.845,241.464c1.372,1.241,2.091,2.907,2.091,4.934c0,2.025-0.784,3.854-2.287,5.488
					c-0.815,0.85-2.417,2.123-4.835,3.758c-2.973,1.992-4.671,3.789-5.096,5.356h12.251v2.386H15.418
					c0-2.123,0.751-4.052,2.319-5.782c0.915-1.046,2.581-2.45,5.063-4.149c1.83-1.307,3.038-2.254,3.659-2.907
					c1.176-1.273,1.797-2.679,1.797-4.182c0-1.438-0.424-2.516-1.274-3.3c-0.85-0.784-2.058-1.176-3.561-1.176
					c-1.602,0-2.842,0.521-3.691,1.633c-0.915,1.046-1.404,2.614-1.438,4.672h-2.68c0-2.613,0.752-4.704,2.188-6.239
					c1.438-1.567,3.365-2.353,5.717-2.353C25.676,239.602,27.44,240.223,28.845,241.464z"/>
				<path fill="#F8D664" d="M37.631,239.602v14.732l8.461-7.84h3.463l-7.448,6.795l8.167,10.096h-3.364l-6.6-8.396l-2.679,2.417
					v5.979h-2.614v-23.783H37.631z"/>
				<path fill="#F8D664" d="M64.973,249.239c0.653-1.111,1.438-1.928,2.353-2.418c0.816-0.522,1.797-0.784,2.973-0.784
					c1.764,0,3.168,0.557,4.279,1.666c1.045,1.145,1.601,2.68,1.601,4.606v11.074h-2.614v-10.649c0-1.503-0.327-2.613-0.946-3.332
					c-0.653-0.784-1.699-1.145-3.137-1.145c-1.11,0-2.058,0.394-2.776,1.241c-0.784,0.851-1.145,1.929-1.145,3.3v10.585h-2.613
					v-10.649c0-3.005-1.307-4.477-3.888-4.477c-1.209,0-2.188,0.458-2.973,1.438c-0.784,0.915-1.176,2.059-1.176,3.397v10.291
					h-2.614v-16.891h2.614v2.254c1.273-1.829,2.875-2.712,4.77-2.712C62.261,246.037,64.025,247.083,64.973,249.239z"/>
			</g>
		</g>
	</g>
</g>
</svg>
